G04 #@! TF.GenerationSoftware,KiCad,Pcbnew,5.1.10-88a1d61d58~90~ubuntu20.04.1*
G04 #@! TF.CreationDate,2021-11-23T17:14:05+00:00*
G04 #@! TF.ProjectId,sketch_v2,736b6574-6368-45f7-9632-2e6b69636164,rev?*
G04 #@! TF.SameCoordinates,Original*
G04 #@! TF.FileFunction,Paste,Bot*
G04 #@! TF.FilePolarity,Positive*
%FSLAX46Y46*%
G04 Gerber Fmt 4.6, Leading zero omitted, Abs format (unit mm)*
G04 Created by KiCad (PCBNEW 5.1.10-88a1d61d58~90~ubuntu20.04.1) date 2021-11-23 17:14:05*
%MOMM*%
%LPD*%
G01*
G04 APERTURE LIST*
%ADD10R,0.350000X2.000000*%
%ADD11R,1.600000X0.550000*%
%ADD12R,0.550000X1.600000*%
%ADD13R,1.500000X1.400000*%
%ADD14R,1.500000X2.000000*%
%ADD15R,3.800000X2.000000*%
G04 APERTURE END LIST*
G36*
G01*
X97349999Y-72850000D02*
X99850001Y-72850000D01*
G75*
G02*
X100100000Y-73099999I0J-249999D01*
G01*
X100100000Y-74700001D01*
G75*
G02*
X99850001Y-74950000I-249999J0D01*
G01*
X97349999Y-74950000D01*
G75*
G02*
X97100000Y-74700001I0J249999D01*
G01*
X97100000Y-73099999D01*
G75*
G02*
X97349999Y-72850000I249999J0D01*
G01*
G37*
G36*
G01*
X97349999Y-66500000D02*
X99850001Y-66500000D01*
G75*
G02*
X100100000Y-66749999I0J-249999D01*
G01*
X100100000Y-68350001D01*
G75*
G02*
X99850001Y-68600000I-249999J0D01*
G01*
X97349999Y-68600000D01*
G75*
G02*
X97100000Y-68350001I0J249999D01*
G01*
X97100000Y-66749999D01*
G75*
G02*
X97349999Y-66500000I249999J0D01*
G01*
G37*
G36*
G01*
X95400000Y-70950000D02*
X96300000Y-70950000D01*
G75*
G02*
X96500000Y-71150000I0J-200000D01*
G01*
X96500000Y-71550000D01*
G75*
G02*
X96300000Y-71750000I-200000J0D01*
G01*
X95400000Y-71750000D01*
G75*
G02*
X95200000Y-71550000I0J200000D01*
G01*
X95200000Y-71150000D01*
G75*
G02*
X95400000Y-70950000I200000J0D01*
G01*
G37*
G36*
G01*
X95400000Y-69700000D02*
X96300000Y-69700000D01*
G75*
G02*
X96500000Y-69900000I0J-200000D01*
G01*
X96500000Y-70300000D01*
G75*
G02*
X96300000Y-70500000I-200000J0D01*
G01*
X95400000Y-70500000D01*
G75*
G02*
X95200000Y-70300000I0J200000D01*
G01*
X95200000Y-69900000D01*
G75*
G02*
X95400000Y-69700000I200000J0D01*
G01*
G37*
G36*
G01*
X102575000Y-75512500D02*
X102575000Y-75987500D01*
G75*
G02*
X102337500Y-76225000I-237500J0D01*
G01*
X101837500Y-76225000D01*
G75*
G02*
X101600000Y-75987500I0J237500D01*
G01*
X101600000Y-75512500D01*
G75*
G02*
X101837500Y-75275000I237500J0D01*
G01*
X102337500Y-75275000D01*
G75*
G02*
X102575000Y-75512500I0J-237500D01*
G01*
G37*
G36*
G01*
X104400000Y-75512500D02*
X104400000Y-75987500D01*
G75*
G02*
X104162500Y-76225000I-237500J0D01*
G01*
X103662500Y-76225000D01*
G75*
G02*
X103425000Y-75987500I0J237500D01*
G01*
X103425000Y-75512500D01*
G75*
G02*
X103662500Y-75275000I237500J0D01*
G01*
X104162500Y-75275000D01*
G75*
G02*
X104400000Y-75512500I0J-237500D01*
G01*
G37*
D10*
X101850000Y-69100000D03*
X102550000Y-69100000D03*
X103250000Y-69100000D03*
X103950000Y-69100000D03*
X104650000Y-69100000D03*
X105350000Y-69100000D03*
X106050000Y-69100000D03*
X106750000Y-69100000D03*
X107450000Y-69100000D03*
X108150000Y-69100000D03*
X108850000Y-69100000D03*
X109550000Y-69100000D03*
X110250000Y-69100000D03*
X110950000Y-69100000D03*
X111650000Y-69100000D03*
X112350000Y-69100000D03*
X113050000Y-69100000D03*
X113750000Y-69100000D03*
X114450000Y-69100000D03*
X115150000Y-69100000D03*
X115850000Y-69100000D03*
X116550000Y-69100000D03*
X117250000Y-69100000D03*
X117950000Y-69100000D03*
X118650000Y-69100000D03*
X119350000Y-69100000D03*
X120050000Y-69100000D03*
X120750000Y-69100000D03*
X121450000Y-69100000D03*
X122150000Y-69100000D03*
G36*
G01*
X121237500Y-72175000D02*
X120762500Y-72175000D01*
G75*
G02*
X120525000Y-71937500I0J237500D01*
G01*
X120525000Y-71337500D01*
G75*
G02*
X120762500Y-71100000I237500J0D01*
G01*
X121237500Y-71100000D01*
G75*
G02*
X121475000Y-71337500I0J-237500D01*
G01*
X121475000Y-71937500D01*
G75*
G02*
X121237500Y-72175000I-237500J0D01*
G01*
G37*
G36*
G01*
X121237500Y-73900000D02*
X120762500Y-73900000D01*
G75*
G02*
X120525000Y-73662500I0J237500D01*
G01*
X120525000Y-73062500D01*
G75*
G02*
X120762500Y-72825000I237500J0D01*
G01*
X121237500Y-72825000D01*
G75*
G02*
X121475000Y-73062500I0J-237500D01*
G01*
X121475000Y-73662500D01*
G75*
G02*
X121237500Y-73900000I-237500J0D01*
G01*
G37*
G36*
G01*
X123012500Y-72825000D02*
X123487500Y-72825000D01*
G75*
G02*
X123725000Y-73062500I0J-237500D01*
G01*
X123725000Y-73662500D01*
G75*
G02*
X123487500Y-73900000I-237500J0D01*
G01*
X123012500Y-73900000D01*
G75*
G02*
X122775000Y-73662500I0J237500D01*
G01*
X122775000Y-73062500D01*
G75*
G02*
X123012500Y-72825000I237500J0D01*
G01*
G37*
G36*
G01*
X123012500Y-71100000D02*
X123487500Y-71100000D01*
G75*
G02*
X123725000Y-71337500I0J-237500D01*
G01*
X123725000Y-71937500D01*
G75*
G02*
X123487500Y-72175000I-237500J0D01*
G01*
X123012500Y-72175000D01*
G75*
G02*
X122775000Y-71937500I0J237500D01*
G01*
X122775000Y-71337500D01*
G75*
G02*
X123012500Y-71100000I237500J0D01*
G01*
G37*
G36*
G01*
X102812500Y-72012500D02*
X102812500Y-72487500D01*
G75*
G02*
X102575000Y-72725000I-237500J0D01*
G01*
X101975000Y-72725000D01*
G75*
G02*
X101737500Y-72487500I0J237500D01*
G01*
X101737500Y-72012500D01*
G75*
G02*
X101975000Y-71775000I237500J0D01*
G01*
X102575000Y-71775000D01*
G75*
G02*
X102812500Y-72012500I0J-237500D01*
G01*
G37*
G36*
G01*
X104537500Y-72012500D02*
X104537500Y-72487500D01*
G75*
G02*
X104300000Y-72725000I-237500J0D01*
G01*
X103700000Y-72725000D01*
G75*
G02*
X103462500Y-72487500I0J237500D01*
G01*
X103462500Y-72012500D01*
G75*
G02*
X103700000Y-71775000I237500J0D01*
G01*
X104300000Y-71775000D01*
G75*
G02*
X104537500Y-72012500I0J-237500D01*
G01*
G37*
G36*
G01*
X102562500Y-73762500D02*
X102562500Y-74237500D01*
G75*
G02*
X102325000Y-74475000I-237500J0D01*
G01*
X101725000Y-74475000D01*
G75*
G02*
X101487500Y-74237500I0J237500D01*
G01*
X101487500Y-73762500D01*
G75*
G02*
X101725000Y-73525000I237500J0D01*
G01*
X102325000Y-73525000D01*
G75*
G02*
X102562500Y-73762500I0J-237500D01*
G01*
G37*
G36*
G01*
X104287500Y-73762500D02*
X104287500Y-74237500D01*
G75*
G02*
X104050000Y-74475000I-237500J0D01*
G01*
X103450000Y-74475000D01*
G75*
G02*
X103212500Y-74237500I0J237500D01*
G01*
X103212500Y-73762500D01*
G75*
G02*
X103450000Y-73525000I237500J0D01*
G01*
X104050000Y-73525000D01*
G75*
G02*
X104287500Y-73762500I0J-237500D01*
G01*
G37*
G36*
G01*
X117762500Y-71737500D02*
X117762500Y-71262500D01*
G75*
G02*
X118000000Y-71025000I237500J0D01*
G01*
X118600000Y-71025000D01*
G75*
G02*
X118837500Y-71262500I0J-237500D01*
G01*
X118837500Y-71737500D01*
G75*
G02*
X118600000Y-71975000I-237500J0D01*
G01*
X118000000Y-71975000D01*
G75*
G02*
X117762500Y-71737500I0J237500D01*
G01*
G37*
G36*
G01*
X116037500Y-71737500D02*
X116037500Y-71262500D01*
G75*
G02*
X116275000Y-71025000I237500J0D01*
G01*
X116875000Y-71025000D01*
G75*
G02*
X117112500Y-71262500I0J-237500D01*
G01*
X117112500Y-71737500D01*
G75*
G02*
X116875000Y-71975000I-237500J0D01*
G01*
X116275000Y-71975000D01*
G75*
G02*
X116037500Y-71737500I0J237500D01*
G01*
G37*
G36*
G01*
X118112500Y-73262500D02*
X118112500Y-73737500D01*
G75*
G02*
X117875000Y-73975000I-237500J0D01*
G01*
X117275000Y-73975000D01*
G75*
G02*
X117037500Y-73737500I0J237500D01*
G01*
X117037500Y-73262500D01*
G75*
G02*
X117275000Y-73025000I237500J0D01*
G01*
X117875000Y-73025000D01*
G75*
G02*
X118112500Y-73262500I0J-237500D01*
G01*
G37*
G36*
G01*
X119837500Y-73262500D02*
X119837500Y-73737500D01*
G75*
G02*
X119600000Y-73975000I-237500J0D01*
G01*
X119000000Y-73975000D01*
G75*
G02*
X118762500Y-73737500I0J237500D01*
G01*
X118762500Y-73262500D01*
G75*
G02*
X119000000Y-73025000I237500J0D01*
G01*
X119600000Y-73025000D01*
G75*
G02*
X119837500Y-73262500I0J-237500D01*
G01*
G37*
G36*
G01*
X107112500Y-89737500D02*
X107112500Y-89262500D01*
G75*
G02*
X107350000Y-89025000I237500J0D01*
G01*
X107850000Y-89025000D01*
G75*
G02*
X108087500Y-89262500I0J-237500D01*
G01*
X108087500Y-89737500D01*
G75*
G02*
X107850000Y-89975000I-237500J0D01*
G01*
X107350000Y-89975000D01*
G75*
G02*
X107112500Y-89737500I0J237500D01*
G01*
G37*
G36*
G01*
X105287500Y-89737500D02*
X105287500Y-89262500D01*
G75*
G02*
X105525000Y-89025000I237500J0D01*
G01*
X106025000Y-89025000D01*
G75*
G02*
X106262500Y-89262500I0J-237500D01*
G01*
X106262500Y-89737500D01*
G75*
G02*
X106025000Y-89975000I-237500J0D01*
G01*
X105525000Y-89975000D01*
G75*
G02*
X105287500Y-89737500I0J237500D01*
G01*
G37*
G36*
G01*
X107725000Y-94537500D02*
X107725000Y-94062500D01*
G75*
G02*
X107962500Y-93825000I237500J0D01*
G01*
X108562500Y-93825000D01*
G75*
G02*
X108800000Y-94062500I0J-237500D01*
G01*
X108800000Y-94537500D01*
G75*
G02*
X108562500Y-94775000I-237500J0D01*
G01*
X107962500Y-94775000D01*
G75*
G02*
X107725000Y-94537500I0J237500D01*
G01*
G37*
G36*
G01*
X106000000Y-94537500D02*
X106000000Y-94062500D01*
G75*
G02*
X106237500Y-93825000I237500J0D01*
G01*
X106837500Y-93825000D01*
G75*
G02*
X107075000Y-94062500I0J-237500D01*
G01*
X107075000Y-94537500D01*
G75*
G02*
X106837500Y-94775000I-237500J0D01*
G01*
X106237500Y-94775000D01*
G75*
G02*
X106000000Y-94537500I0J237500D01*
G01*
G37*
G36*
G01*
X104037500Y-78537500D02*
X103562500Y-78537500D01*
G75*
G02*
X103325000Y-78300000I0J237500D01*
G01*
X103325000Y-77700000D01*
G75*
G02*
X103562500Y-77462500I237500J0D01*
G01*
X104037500Y-77462500D01*
G75*
G02*
X104275000Y-77700000I0J-237500D01*
G01*
X104275000Y-78300000D01*
G75*
G02*
X104037500Y-78537500I-237500J0D01*
G01*
G37*
G36*
G01*
X104037500Y-80262500D02*
X103562500Y-80262500D01*
G75*
G02*
X103325000Y-80025000I0J237500D01*
G01*
X103325000Y-79425000D01*
G75*
G02*
X103562500Y-79187500I237500J0D01*
G01*
X104037500Y-79187500D01*
G75*
G02*
X104275000Y-79425000I0J-237500D01*
G01*
X104275000Y-80025000D01*
G75*
G02*
X104037500Y-80262500I-237500J0D01*
G01*
G37*
D11*
X107250000Y-77700000D03*
X107250000Y-78500000D03*
X107250000Y-79300000D03*
X107250000Y-80100000D03*
X107250000Y-80900000D03*
X107250000Y-81700000D03*
X107250000Y-82500000D03*
X107250000Y-83300000D03*
D12*
X108700000Y-84750000D03*
X109500000Y-84750000D03*
X110300000Y-84750000D03*
X111100000Y-84750000D03*
X111900000Y-84750000D03*
X112700000Y-84750000D03*
X113500000Y-84750000D03*
X114300000Y-84750000D03*
D11*
X115750000Y-83300000D03*
X115750000Y-82500000D03*
X115750000Y-81700000D03*
X115750000Y-80900000D03*
X115750000Y-80100000D03*
X115750000Y-79300000D03*
X115750000Y-78500000D03*
X115750000Y-77700000D03*
D12*
X114300000Y-76250000D03*
X113500000Y-76250000D03*
X112700000Y-76250000D03*
X111900000Y-76250000D03*
X111100000Y-76250000D03*
X110300000Y-76250000D03*
X109500000Y-76250000D03*
X108700000Y-76250000D03*
D13*
X112000000Y-89500000D03*
X118500000Y-89500000D03*
D14*
X95100000Y-77800000D03*
X99700000Y-77800000D03*
X97400000Y-77800000D03*
D15*
X97400000Y-84100000D03*
M02*
