%FSLAX45Y45*%
G04 Gerber Fmt 4.5, Leading zero omitted, Abs format (unit mm)*
G04 Created by KiCad (PCBNEW 5.1.10-88a1d61d58~90~ubuntu20.04.1) date 2021-11-23 17:14:08*
%MOMM*%
%LPD*%
G01*
G04 APERTURE LIST*
%TA.AperFunction,Profile*%
%ADD10C,0.050000*%
%TD*%
%ADD11C,0.200000*%
%ADD12C,0.300000*%
G04 APERTURE END LIST*
D10*
X11900000Y-6000000D02*
X13400000Y-6000000D01*
X11900000Y-6200000D02*
X11900000Y-6000000D01*
X10500000Y-6200000D02*
X11900000Y-6200000D01*
X10500000Y-6000000D02*
X10500000Y-6200000D01*
X9000000Y-6000000D02*
X10500000Y-6000000D01*
X9000000Y-10000000D02*
X9000000Y-6000000D01*
X13400000Y-10000000D02*
X9000000Y-10000000D01*
X13400000Y-6000000D02*
X13400000Y-10000000D01*
D11*
X9320000Y-7340000D02*
X9360000Y-7380000D01*
X9360000Y-7340000D02*
X9320000Y-7380000D01*
X10210000Y-7770000D02*
X10250000Y-7810000D01*
X10250000Y-7770000D02*
X10210000Y-7810000D01*
X10550000Y-8640000D02*
X10590000Y-8680000D01*
X10590000Y-8640000D02*
X10550000Y-8680000D01*
X10680000Y-7160000D02*
X10720000Y-7200000D01*
X10720000Y-7160000D02*
X10680000Y-7200000D01*
X10690000Y-8660000D02*
X10730000Y-8700000D01*
X10730000Y-8660000D02*
X10690000Y-8700000D01*
X10850000Y-8680000D02*
X10890000Y-8720000D01*
X10890000Y-8680000D02*
X10850000Y-8720000D01*
X11010000Y-8740000D02*
X11050000Y-8780000D01*
X11050000Y-8740000D02*
X11010000Y-8780000D01*
X11220000Y-7200000D02*
X11260000Y-7240000D01*
X11260000Y-7200000D02*
X11220000Y-7240000D01*
X11282500Y-7100000D02*
X11322500Y-7140000D01*
X11322500Y-7100000D02*
X11282500Y-7140000D01*
X11410000Y-8710000D02*
X11450000Y-8750000D01*
X11450000Y-8710000D02*
X11410000Y-8750000D01*
X11500000Y-7440000D02*
X11540000Y-7480000D01*
X11540000Y-7440000D02*
X11500000Y-7480000D01*
X11590000Y-7360000D02*
X11630000Y-7400000D01*
X11630000Y-7360000D02*
X11590000Y-7400000D01*
X11820000Y-8440000D02*
X11860000Y-8480000D01*
X11860000Y-8440000D02*
X11820000Y-8480000D01*
X12970000Y-8390000D02*
X13010000Y-8430000D01*
X13010000Y-8390000D02*
X12970000Y-8430000D01*
X13000000Y-9680000D02*
X13040000Y-9720000D01*
X13040000Y-9680000D02*
X13000000Y-9720000D01*
X13080000Y-6310000D02*
X13120000Y-6350000D01*
X13120000Y-6310000D02*
X13080000Y-6350000D01*
X9400000Y-8978000D02*
G75*
G03*
X9400000Y-8978000I-50000J0D01*
G01*
X9400000Y-9232000D02*
G75*
G03*
X9400000Y-9232000I-50000J0D01*
G01*
X9400000Y-9486000D02*
G75*
G03*
X9400000Y-9486000I-50000J0D01*
G01*
X9400000Y-9740000D02*
G75*
G03*
X9400000Y-9740000I-50000J0D01*
G01*
D12*
X9283928Y-10468214D02*
X9283928Y-10168214D01*
X9355357Y-10168214D01*
X9398214Y-10182500D01*
X9426786Y-10211072D01*
X9441071Y-10239643D01*
X9455357Y-10296786D01*
X9455357Y-10339643D01*
X9441071Y-10396786D01*
X9426786Y-10425357D01*
X9398214Y-10453929D01*
X9355357Y-10468214D01*
X9283928Y-10468214D01*
X9583928Y-10468214D02*
X9583928Y-10268214D01*
X9583928Y-10325357D02*
X9598214Y-10296786D01*
X9612500Y-10282500D01*
X9641071Y-10268214D01*
X9669643Y-10268214D01*
X9769643Y-10468214D02*
X9769643Y-10268214D01*
X9769643Y-10168214D02*
X9755357Y-10182500D01*
X9769643Y-10196786D01*
X9783928Y-10182500D01*
X9769643Y-10168214D01*
X9769643Y-10196786D01*
X9955357Y-10468214D02*
X9926786Y-10453929D01*
X9912500Y-10425357D01*
X9912500Y-10168214D01*
X10112500Y-10468214D02*
X10083928Y-10453929D01*
X10069643Y-10425357D01*
X10069643Y-10168214D01*
X10455357Y-10468214D02*
X10455357Y-10168214D01*
X10555357Y-10382500D01*
X10655357Y-10168214D01*
X10655357Y-10468214D01*
X10926786Y-10468214D02*
X10926786Y-10311072D01*
X10912500Y-10282500D01*
X10883928Y-10268214D01*
X10826786Y-10268214D01*
X10798214Y-10282500D01*
X10926786Y-10453929D02*
X10898214Y-10468214D01*
X10826786Y-10468214D01*
X10798214Y-10453929D01*
X10783928Y-10425357D01*
X10783928Y-10396786D01*
X10798214Y-10368214D01*
X10826786Y-10353929D01*
X10898214Y-10353929D01*
X10926786Y-10339643D01*
X11069643Y-10268214D02*
X11069643Y-10568214D01*
X11069643Y-10282500D02*
X11098214Y-10268214D01*
X11155357Y-10268214D01*
X11183928Y-10282500D01*
X11198214Y-10296786D01*
X11212500Y-10325357D01*
X11212500Y-10411072D01*
X11198214Y-10439643D01*
X11183928Y-10453929D01*
X11155357Y-10468214D01*
X11098214Y-10468214D01*
X11069643Y-10453929D01*
X11341071Y-10439643D02*
X11355357Y-10453929D01*
X11341071Y-10468214D01*
X11326786Y-10453929D01*
X11341071Y-10439643D01*
X11341071Y-10468214D01*
X11341071Y-10282500D02*
X11355357Y-10296786D01*
X11341071Y-10311072D01*
X11326786Y-10296786D01*
X11341071Y-10282500D01*
X11341071Y-10311072D01*
X8957500Y-10942500D02*
X8997500Y-10982500D01*
X8997500Y-10942500D02*
X8957500Y-10982500D01*
X9341071Y-10798214D02*
X9369643Y-10798214D01*
X9398214Y-10812500D01*
X9412500Y-10826786D01*
X9426786Y-10855357D01*
X9441071Y-10912500D01*
X9441071Y-10983929D01*
X9426786Y-11041072D01*
X9412500Y-11069643D01*
X9398214Y-11083929D01*
X9369643Y-11098214D01*
X9341071Y-11098214D01*
X9312500Y-11083929D01*
X9298214Y-11069643D01*
X9283928Y-11041072D01*
X9269643Y-10983929D01*
X9269643Y-10912500D01*
X9283928Y-10855357D01*
X9298214Y-10826786D01*
X9312500Y-10812500D01*
X9341071Y-10798214D01*
X9569643Y-11069643D02*
X9583928Y-11083929D01*
X9569643Y-11098214D01*
X9555357Y-11083929D01*
X9569643Y-11069643D01*
X9569643Y-11098214D01*
X9841071Y-10898214D02*
X9841071Y-11098214D01*
X9769643Y-10783929D02*
X9698214Y-10998214D01*
X9883928Y-10998214D01*
X10055357Y-10798214D02*
X10083928Y-10798214D01*
X10112500Y-10812500D01*
X10126786Y-10826786D01*
X10141071Y-10855357D01*
X10155357Y-10912500D01*
X10155357Y-10983929D01*
X10141071Y-11041072D01*
X10126786Y-11069643D01*
X10112500Y-11083929D01*
X10083928Y-11098214D01*
X10055357Y-11098214D01*
X10026786Y-11083929D01*
X10012500Y-11069643D01*
X9998214Y-11041072D01*
X9983928Y-10983929D01*
X9983928Y-10912500D01*
X9998214Y-10855357D01*
X10012500Y-10826786D01*
X10026786Y-10812500D01*
X10055357Y-10798214D01*
X10341071Y-10798214D02*
X10369643Y-10798214D01*
X10398214Y-10812500D01*
X10412500Y-10826786D01*
X10426786Y-10855357D01*
X10441071Y-10912500D01*
X10441071Y-10983929D01*
X10426786Y-11041072D01*
X10412500Y-11069643D01*
X10398214Y-11083929D01*
X10369643Y-11098214D01*
X10341071Y-11098214D01*
X10312500Y-11083929D01*
X10298214Y-11069643D01*
X10283928Y-11041072D01*
X10269643Y-10983929D01*
X10269643Y-10912500D01*
X10283928Y-10855357D01*
X10298214Y-10826786D01*
X10312500Y-10812500D01*
X10341071Y-10798214D01*
X10569643Y-11098214D02*
X10569643Y-10898214D01*
X10569643Y-10926786D02*
X10583928Y-10912500D01*
X10612500Y-10898214D01*
X10655357Y-10898214D01*
X10683928Y-10912500D01*
X10698214Y-10941072D01*
X10698214Y-11098214D01*
X10698214Y-10941072D02*
X10712500Y-10912500D01*
X10741071Y-10898214D01*
X10783928Y-10898214D01*
X10812500Y-10912500D01*
X10826786Y-10941072D01*
X10826786Y-11098214D01*
X10969643Y-11098214D02*
X10969643Y-10898214D01*
X10969643Y-10926786D02*
X10983928Y-10912500D01*
X11012500Y-10898214D01*
X11055357Y-10898214D01*
X11083928Y-10912500D01*
X11098214Y-10941072D01*
X11098214Y-11098214D01*
X11098214Y-10941072D02*
X11112500Y-10912500D01*
X11141071Y-10898214D01*
X11183928Y-10898214D01*
X11212500Y-10912500D01*
X11226786Y-10941072D01*
X11226786Y-11098214D01*
X11812500Y-10783929D02*
X11555357Y-11169643D01*
X12198214Y-10798214D02*
X12226786Y-10798214D01*
X12255357Y-10812500D01*
X12269643Y-10826786D01*
X12283928Y-10855357D01*
X12298214Y-10912500D01*
X12298214Y-10983929D01*
X12283928Y-11041072D01*
X12269643Y-11069643D01*
X12255357Y-11083929D01*
X12226786Y-11098214D01*
X12198214Y-11098214D01*
X12169643Y-11083929D01*
X12155357Y-11069643D01*
X12141071Y-11041072D01*
X12126786Y-10983929D01*
X12126786Y-10912500D01*
X12141071Y-10855357D01*
X12155357Y-10826786D01*
X12169643Y-10812500D01*
X12198214Y-10798214D01*
X12426786Y-11069643D02*
X12441071Y-11083929D01*
X12426786Y-11098214D01*
X12412500Y-11083929D01*
X12426786Y-11069643D01*
X12426786Y-11098214D01*
X12626786Y-10798214D02*
X12655357Y-10798214D01*
X12683928Y-10812500D01*
X12698214Y-10826786D01*
X12712500Y-10855357D01*
X12726786Y-10912500D01*
X12726786Y-10983929D01*
X12712500Y-11041072D01*
X12698214Y-11069643D01*
X12683928Y-11083929D01*
X12655357Y-11098214D01*
X12626786Y-11098214D01*
X12598214Y-11083929D01*
X12583928Y-11069643D01*
X12569643Y-11041072D01*
X12555357Y-10983929D01*
X12555357Y-10912500D01*
X12569643Y-10855357D01*
X12583928Y-10826786D01*
X12598214Y-10812500D01*
X12626786Y-10798214D01*
X13012500Y-11098214D02*
X12841071Y-11098214D01*
X12926786Y-11098214D02*
X12926786Y-10798214D01*
X12898214Y-10841072D01*
X12869643Y-10869643D01*
X12841071Y-10883929D01*
X13283928Y-10798214D02*
X13141071Y-10798214D01*
X13126786Y-10941072D01*
X13141071Y-10926786D01*
X13169643Y-10912500D01*
X13241071Y-10912500D01*
X13269643Y-10926786D01*
X13283928Y-10941072D01*
X13298214Y-10969643D01*
X13298214Y-11041072D01*
X13283928Y-11069643D01*
X13269643Y-11083929D01*
X13241071Y-11098214D01*
X13169643Y-11098214D01*
X13141071Y-11083929D01*
X13126786Y-11069643D01*
X13398214Y-10798214D02*
X13598214Y-10798214D01*
X13469643Y-11098214D01*
X13698214Y-10798214D02*
X13698214Y-10855357D01*
X13812500Y-10798214D02*
X13812500Y-10855357D01*
X14255357Y-11212500D02*
X14241071Y-11198214D01*
X14212500Y-11155357D01*
X14198214Y-11126786D01*
X14183928Y-11083929D01*
X14169643Y-11012500D01*
X14169643Y-10955357D01*
X14183928Y-10883929D01*
X14198214Y-10841072D01*
X14212500Y-10812500D01*
X14241071Y-10769643D01*
X14255357Y-10755357D01*
X14526786Y-11098214D02*
X14355357Y-11098214D01*
X14441071Y-11098214D02*
X14441071Y-10798214D01*
X14412500Y-10841072D01*
X14383928Y-10869643D01*
X14355357Y-10883929D01*
X14783928Y-10798214D02*
X14726786Y-10798214D01*
X14698214Y-10812500D01*
X14683928Y-10826786D01*
X14655357Y-10869643D01*
X14641071Y-10926786D01*
X14641071Y-11041072D01*
X14655357Y-11069643D01*
X14669643Y-11083929D01*
X14698214Y-11098214D01*
X14755357Y-11098214D01*
X14783928Y-11083929D01*
X14798214Y-11069643D01*
X14812500Y-11041072D01*
X14812500Y-10969643D01*
X14798214Y-10941072D01*
X14783928Y-10926786D01*
X14755357Y-10912500D01*
X14698214Y-10912500D01*
X14669643Y-10926786D01*
X14655357Y-10941072D01*
X14641071Y-10969643D01*
X15169643Y-11098214D02*
X15169643Y-10798214D01*
X15298214Y-11098214D02*
X15298214Y-10941072D01*
X15283928Y-10912500D01*
X15255357Y-10898214D01*
X15212500Y-10898214D01*
X15183928Y-10912500D01*
X15169643Y-10926786D01*
X15483928Y-11098214D02*
X15455357Y-11083929D01*
X15441071Y-11069643D01*
X15426786Y-11041072D01*
X15426786Y-10955357D01*
X15441071Y-10926786D01*
X15455357Y-10912500D01*
X15483928Y-10898214D01*
X15526786Y-10898214D01*
X15555357Y-10912500D01*
X15569643Y-10926786D01*
X15583928Y-10955357D01*
X15583928Y-11041072D01*
X15569643Y-11069643D01*
X15555357Y-11083929D01*
X15526786Y-11098214D01*
X15483928Y-11098214D01*
X15755357Y-11098214D02*
X15726786Y-11083929D01*
X15712500Y-11055357D01*
X15712500Y-10798214D01*
X15983928Y-11083929D02*
X15955357Y-11098214D01*
X15898214Y-11098214D01*
X15869643Y-11083929D01*
X15855357Y-11055357D01*
X15855357Y-10941072D01*
X15869643Y-10912500D01*
X15898214Y-10898214D01*
X15955357Y-10898214D01*
X15983928Y-10912500D01*
X15998214Y-10941072D01*
X15998214Y-10969643D01*
X15855357Y-10998214D01*
X16112500Y-11083929D02*
X16141071Y-11098214D01*
X16198214Y-11098214D01*
X16226786Y-11083929D01*
X16241071Y-11055357D01*
X16241071Y-11041072D01*
X16226786Y-11012500D01*
X16198214Y-10998214D01*
X16155357Y-10998214D01*
X16126786Y-10983929D01*
X16112500Y-10955357D01*
X16112500Y-10941072D01*
X16126786Y-10912500D01*
X16155357Y-10898214D01*
X16198214Y-10898214D01*
X16226786Y-10912500D01*
X16341071Y-11212500D02*
X16355357Y-11198214D01*
X16383928Y-11155357D01*
X16398214Y-11126786D01*
X16412500Y-11083929D01*
X16426786Y-11012500D01*
X16426786Y-10955357D01*
X16412500Y-10883929D01*
X16398214Y-10841072D01*
X16383928Y-10812500D01*
X16355357Y-10769643D01*
X16341071Y-10755357D01*
X8997500Y-11358500D02*
G75*
G03*
X8997500Y-11358500I-50000J0D01*
G01*
X9441071Y-11494214D02*
X9269643Y-11494214D01*
X9355357Y-11494214D02*
X9355357Y-11194214D01*
X9326786Y-11237071D01*
X9298214Y-11265643D01*
X9269643Y-11279929D01*
X9569643Y-11465643D02*
X9583928Y-11479929D01*
X9569643Y-11494214D01*
X9555357Y-11479929D01*
X9569643Y-11465643D01*
X9569643Y-11494214D01*
X9769643Y-11194214D02*
X9798214Y-11194214D01*
X9826786Y-11208500D01*
X9841071Y-11222786D01*
X9855357Y-11251357D01*
X9869643Y-11308500D01*
X9869643Y-11379929D01*
X9855357Y-11437071D01*
X9841071Y-11465643D01*
X9826786Y-11479929D01*
X9798214Y-11494214D01*
X9769643Y-11494214D01*
X9741071Y-11479929D01*
X9726786Y-11465643D01*
X9712500Y-11437071D01*
X9698214Y-11379929D01*
X9698214Y-11308500D01*
X9712500Y-11251357D01*
X9726786Y-11222786D01*
X9741071Y-11208500D01*
X9769643Y-11194214D01*
X10055357Y-11194214D02*
X10083928Y-11194214D01*
X10112500Y-11208500D01*
X10126786Y-11222786D01*
X10141071Y-11251357D01*
X10155357Y-11308500D01*
X10155357Y-11379929D01*
X10141071Y-11437071D01*
X10126786Y-11465643D01*
X10112500Y-11479929D01*
X10083928Y-11494214D01*
X10055357Y-11494214D01*
X10026786Y-11479929D01*
X10012500Y-11465643D01*
X9998214Y-11437071D01*
X9983928Y-11379929D01*
X9983928Y-11308500D01*
X9998214Y-11251357D01*
X10012500Y-11222786D01*
X10026786Y-11208500D01*
X10055357Y-11194214D01*
X10341071Y-11194214D02*
X10369643Y-11194214D01*
X10398214Y-11208500D01*
X10412500Y-11222786D01*
X10426786Y-11251357D01*
X10441071Y-11308500D01*
X10441071Y-11379929D01*
X10426786Y-11437071D01*
X10412500Y-11465643D01*
X10398214Y-11479929D01*
X10369643Y-11494214D01*
X10341071Y-11494214D01*
X10312500Y-11479929D01*
X10298214Y-11465643D01*
X10283928Y-11437071D01*
X10269643Y-11379929D01*
X10269643Y-11308500D01*
X10283928Y-11251357D01*
X10298214Y-11222786D01*
X10312500Y-11208500D01*
X10341071Y-11194214D01*
X10569643Y-11494214D02*
X10569643Y-11294214D01*
X10569643Y-11322786D02*
X10583928Y-11308500D01*
X10612500Y-11294214D01*
X10655357Y-11294214D01*
X10683928Y-11308500D01*
X10698214Y-11337071D01*
X10698214Y-11494214D01*
X10698214Y-11337071D02*
X10712500Y-11308500D01*
X10741071Y-11294214D01*
X10783928Y-11294214D01*
X10812500Y-11308500D01*
X10826786Y-11337071D01*
X10826786Y-11494214D01*
X10969643Y-11494214D02*
X10969643Y-11294214D01*
X10969643Y-11322786D02*
X10983928Y-11308500D01*
X11012500Y-11294214D01*
X11055357Y-11294214D01*
X11083928Y-11308500D01*
X11098214Y-11337071D01*
X11098214Y-11494214D01*
X11098214Y-11337071D02*
X11112500Y-11308500D01*
X11141071Y-11294214D01*
X11183928Y-11294214D01*
X11212500Y-11308500D01*
X11226786Y-11337071D01*
X11226786Y-11494214D01*
X11812500Y-11179929D02*
X11555357Y-11565643D01*
X12198214Y-11194214D02*
X12226786Y-11194214D01*
X12255357Y-11208500D01*
X12269643Y-11222786D01*
X12283928Y-11251357D01*
X12298214Y-11308500D01*
X12298214Y-11379929D01*
X12283928Y-11437071D01*
X12269643Y-11465643D01*
X12255357Y-11479929D01*
X12226786Y-11494214D01*
X12198214Y-11494214D01*
X12169643Y-11479929D01*
X12155357Y-11465643D01*
X12141071Y-11437071D01*
X12126786Y-11379929D01*
X12126786Y-11308500D01*
X12141071Y-11251357D01*
X12155357Y-11222786D01*
X12169643Y-11208500D01*
X12198214Y-11194214D01*
X12426786Y-11465643D02*
X12441071Y-11479929D01*
X12426786Y-11494214D01*
X12412500Y-11479929D01*
X12426786Y-11465643D01*
X12426786Y-11494214D01*
X12626786Y-11194214D02*
X12655357Y-11194214D01*
X12683928Y-11208500D01*
X12698214Y-11222786D01*
X12712500Y-11251357D01*
X12726786Y-11308500D01*
X12726786Y-11379929D01*
X12712500Y-11437071D01*
X12698214Y-11465643D01*
X12683928Y-11479929D01*
X12655357Y-11494214D01*
X12626786Y-11494214D01*
X12598214Y-11479929D01*
X12583928Y-11465643D01*
X12569643Y-11437071D01*
X12555357Y-11379929D01*
X12555357Y-11308500D01*
X12569643Y-11251357D01*
X12583928Y-11222786D01*
X12598214Y-11208500D01*
X12626786Y-11194214D01*
X12826786Y-11194214D02*
X13012500Y-11194214D01*
X12912500Y-11308500D01*
X12955357Y-11308500D01*
X12983928Y-11322786D01*
X12998214Y-11337071D01*
X13012500Y-11365643D01*
X13012500Y-11437071D01*
X12998214Y-11465643D01*
X12983928Y-11479929D01*
X12955357Y-11494214D01*
X12869643Y-11494214D01*
X12841071Y-11479929D01*
X12826786Y-11465643D01*
X13155357Y-11494214D02*
X13212500Y-11494214D01*
X13241071Y-11479929D01*
X13255357Y-11465643D01*
X13283928Y-11422786D01*
X13298214Y-11365643D01*
X13298214Y-11251357D01*
X13283928Y-11222786D01*
X13269643Y-11208500D01*
X13241071Y-11194214D01*
X13183928Y-11194214D01*
X13155357Y-11208500D01*
X13141071Y-11222786D01*
X13126786Y-11251357D01*
X13126786Y-11322786D01*
X13141071Y-11351357D01*
X13155357Y-11365643D01*
X13183928Y-11379929D01*
X13241071Y-11379929D01*
X13269643Y-11365643D01*
X13283928Y-11351357D01*
X13298214Y-11322786D01*
X13555357Y-11294214D02*
X13555357Y-11494214D01*
X13483928Y-11179929D02*
X13412500Y-11394214D01*
X13598214Y-11394214D01*
X13698214Y-11194214D02*
X13698214Y-11251357D01*
X13812500Y-11194214D02*
X13812500Y-11251357D01*
X14255357Y-11608500D02*
X14241071Y-11594214D01*
X14212500Y-11551357D01*
X14198214Y-11522786D01*
X14183928Y-11479929D01*
X14169643Y-11408500D01*
X14169643Y-11351357D01*
X14183928Y-11279929D01*
X14198214Y-11237071D01*
X14212500Y-11208500D01*
X14241071Y-11165643D01*
X14255357Y-11151357D01*
X14498214Y-11294214D02*
X14498214Y-11494214D01*
X14426786Y-11179929D02*
X14355357Y-11394214D01*
X14541071Y-11394214D01*
X14883928Y-11494214D02*
X14883928Y-11194214D01*
X15012500Y-11494214D02*
X15012500Y-11337071D01*
X14998214Y-11308500D01*
X14969643Y-11294214D01*
X14926786Y-11294214D01*
X14898214Y-11308500D01*
X14883928Y-11322786D01*
X15198214Y-11494214D02*
X15169643Y-11479929D01*
X15155357Y-11465643D01*
X15141071Y-11437071D01*
X15141071Y-11351357D01*
X15155357Y-11322786D01*
X15169643Y-11308500D01*
X15198214Y-11294214D01*
X15241071Y-11294214D01*
X15269643Y-11308500D01*
X15283928Y-11322786D01*
X15298214Y-11351357D01*
X15298214Y-11437071D01*
X15283928Y-11465643D01*
X15269643Y-11479929D01*
X15241071Y-11494214D01*
X15198214Y-11494214D01*
X15469643Y-11494214D02*
X15441071Y-11479929D01*
X15426786Y-11451357D01*
X15426786Y-11194214D01*
X15698214Y-11479929D02*
X15669643Y-11494214D01*
X15612500Y-11494214D01*
X15583928Y-11479929D01*
X15569643Y-11451357D01*
X15569643Y-11337071D01*
X15583928Y-11308500D01*
X15612500Y-11294214D01*
X15669643Y-11294214D01*
X15698214Y-11308500D01*
X15712500Y-11337071D01*
X15712500Y-11365643D01*
X15569643Y-11394214D01*
X15826786Y-11479929D02*
X15855357Y-11494214D01*
X15912500Y-11494214D01*
X15941071Y-11479929D01*
X15955357Y-11451357D01*
X15955357Y-11437071D01*
X15941071Y-11408500D01*
X15912500Y-11394214D01*
X15869643Y-11394214D01*
X15841071Y-11379929D01*
X15826786Y-11351357D01*
X15826786Y-11337071D01*
X15841071Y-11308500D01*
X15869643Y-11294214D01*
X15912500Y-11294214D01*
X15941071Y-11308500D01*
X16055357Y-11608500D02*
X16069643Y-11594214D01*
X16098214Y-11551357D01*
X16112500Y-11522786D01*
X16126786Y-11479929D01*
X16141071Y-11408500D01*
X16141071Y-11351357D01*
X16126786Y-11279929D01*
X16112500Y-11237071D01*
X16098214Y-11208500D01*
X16069643Y-11165643D01*
X16055357Y-11151357D01*
M02*
