G04 #@! TF.GenerationSoftware,KiCad,Pcbnew,5.1.10-88a1d61d58~90~ubuntu20.04.1*
G04 #@! TF.CreationDate,2021-11-23T17:14:05+00:00*
G04 #@! TF.ProjectId,sketch_v2,736b6574-6368-45f7-9632-2e6b69636164,rev?*
G04 #@! TF.SameCoordinates,Original*
G04 #@! TF.FileFunction,Copper,L1,Top*
G04 #@! TF.FilePolarity,Positive*
%FSLAX46Y46*%
G04 Gerber Fmt 4.6, Leading zero omitted, Abs format (unit mm)*
G04 Created by KiCad (PCBNEW 5.1.10-88a1d61d58~90~ubuntu20.04.1) date 2021-11-23 17:14:05*
%MOMM*%
%LPD*%
G01*
G04 APERTURE LIST*
G04 #@! TA.AperFunction,ComponentPad*
%ADD10O,1.700000X1.700000*%
G04 #@! TD*
G04 #@! TA.AperFunction,ComponentPad*
%ADD11R,1.700000X1.700000*%
G04 #@! TD*
G04 #@! TA.AperFunction,SMDPad,CuDef*
%ADD12C,0.100000*%
G04 #@! TD*
G04 #@! TA.AperFunction,SMDPad,CuDef*
%ADD13R,0.600000X1.000000*%
G04 #@! TD*
G04 #@! TA.AperFunction,SMDPad,CuDef*
%ADD14R,1.100000X1.800000*%
G04 #@! TD*
G04 #@! TA.AperFunction,ViaPad*
%ADD15C,0.800000*%
G04 #@! TD*
G04 #@! TA.AperFunction,Conductor*
%ADD16C,0.250000*%
G04 #@! TD*
G04 #@! TA.AperFunction,Conductor*
%ADD17C,0.254000*%
G04 #@! TD*
G04 #@! TA.AperFunction,Conductor*
%ADD18C,0.100000*%
G04 #@! TD*
G04 APERTURE END LIST*
D10*
X93500000Y-89780000D03*
X93500000Y-92320000D03*
X93500000Y-94860000D03*
D11*
X93500000Y-97400000D03*
G04 #@! TA.AperFunction,SMDPad,CuDef*
D12*
G36*
X113520279Y-90315507D02*
G01*
X114793071Y-89042715D01*
X116207285Y-90456929D01*
X114934493Y-91729721D01*
X113520279Y-90315507D01*
G37*
G04 #@! TD.AperFunction*
G04 #@! TA.AperFunction,SMDPad,CuDef*
G36*
X107792715Y-96043071D02*
G01*
X109065507Y-94770279D01*
X110479721Y-96184493D01*
X109206929Y-97457285D01*
X107792715Y-96043071D01*
G37*
G04 #@! TD.AperFunction*
G04 #@! TA.AperFunction,SMDPad,CuDef*
G36*
X115010861Y-94481780D02*
G01*
X115482501Y-94010140D01*
X116896715Y-95424354D01*
X116425075Y-95895994D01*
X115010861Y-94481780D01*
G37*
G04 #@! TD.AperFunction*
G04 #@! TA.AperFunction,SMDPad,CuDef*
G36*
X113885500Y-95607140D02*
G01*
X114357140Y-95135500D01*
X115771354Y-96549714D01*
X115299714Y-97021354D01*
X113885500Y-95607140D01*
G37*
G04 #@! TD.AperFunction*
G04 #@! TA.AperFunction,SMDPad,CuDef*
G36*
X112760140Y-96732501D02*
G01*
X113231780Y-96260861D01*
X114645994Y-97675075D01*
X114174354Y-98146715D01*
X112760140Y-96732501D01*
G37*
G04 #@! TD.AperFunction*
G04 #@! TA.AperFunction,SMDPad,CuDef*
G36*
X107103285Y-91075646D02*
G01*
X107574925Y-90604006D01*
X108989139Y-92018220D01*
X108517499Y-92489860D01*
X107103285Y-91075646D01*
G37*
G04 #@! TD.AperFunction*
G04 #@! TA.AperFunction,SMDPad,CuDef*
G36*
X108228646Y-89950286D02*
G01*
X108700286Y-89478646D01*
X110114500Y-90892860D01*
X109642860Y-91364500D01*
X108228646Y-89950286D01*
G37*
G04 #@! TD.AperFunction*
G04 #@! TA.AperFunction,SMDPad,CuDef*
G36*
X109354006Y-88824925D02*
G01*
X109825646Y-88353285D01*
X111239860Y-89767499D01*
X110768220Y-90239139D01*
X109354006Y-88824925D01*
G37*
G04 #@! TD.AperFunction*
D13*
X96750000Y-93250000D03*
X101750000Y-93250000D03*
D14*
X97400000Y-90150000D03*
X101100000Y-90150000D03*
X97400000Y-96350000D03*
X101100000Y-96350000D03*
D15*
X93400000Y-73600000D03*
X102300000Y-77900000D03*
X107000000Y-71800000D03*
X129900000Y-84100000D03*
X131000000Y-63300000D03*
X130200000Y-97000000D03*
X105700000Y-86600000D03*
X114300000Y-87300000D03*
X118400000Y-84600000D03*
X107100000Y-86800000D03*
X108700000Y-87000000D03*
X110300000Y-87600000D03*
X115200000Y-74600000D03*
X112400000Y-72200000D03*
X116100000Y-73800000D03*
X113025000Y-71200000D03*
D16*
X102150000Y-90150000D02*
X105700000Y-86600000D01*
X101100000Y-90150000D02*
X102150000Y-90150000D01*
X101100000Y-90150000D02*
X101650000Y-90150000D01*
X101650000Y-90150000D02*
X102800000Y-91300000D01*
X102800000Y-94650000D02*
X101100000Y-96350000D01*
X102800000Y-91300000D02*
X102800000Y-94650000D01*
X115953788Y-94953067D02*
X117300000Y-93606855D01*
X117300000Y-90300000D02*
X114300000Y-87300000D01*
X117300000Y-93606855D02*
X117300000Y-90300000D01*
X113845643Y-97346364D02*
X116153636Y-97346364D01*
X113703067Y-97203788D02*
X113845643Y-97346364D01*
X118400000Y-95100000D02*
X118400000Y-84600000D01*
X116153636Y-97346364D02*
X118400000Y-95100000D01*
X107100000Y-90494890D02*
X107813600Y-91208490D01*
X107100000Y-86800000D02*
X107100000Y-90494890D01*
X108700000Y-89950000D02*
X109171573Y-90421573D01*
X108700000Y-87000000D02*
X108700000Y-89950000D01*
X110300000Y-89293145D02*
X110296933Y-89296212D01*
X110300000Y-87600000D02*
X110300000Y-89293145D01*
X114800000Y-74600000D02*
X115200000Y-74600000D01*
X112400000Y-72200000D02*
X114800000Y-74600000D01*
X116100000Y-73800000D02*
X113600000Y-71300000D01*
X113125000Y-71300000D02*
X113025000Y-71200000D01*
X113600000Y-71300000D02*
X113125000Y-71300000D01*
D17*
X104340001Y-61967571D02*
X104336807Y-62000000D01*
X104349550Y-62129383D01*
X104387290Y-62253793D01*
X104448575Y-62368450D01*
X104531052Y-62468948D01*
X104631550Y-62551425D01*
X104746207Y-62612710D01*
X104870617Y-62650450D01*
X104967581Y-62660000D01*
X105000000Y-62663193D01*
X105032419Y-62660000D01*
X118967581Y-62660000D01*
X119000000Y-62663193D01*
X119032419Y-62660000D01*
X119129383Y-62650450D01*
X119253793Y-62612710D01*
X119368450Y-62551425D01*
X119468948Y-62468948D01*
X119551425Y-62368450D01*
X119612710Y-62253793D01*
X119650450Y-62129383D01*
X119663193Y-62000000D01*
X119660000Y-61967581D01*
X119660000Y-60660000D01*
X133340000Y-60660000D01*
X133340001Y-99340000D01*
X90660000Y-99340000D01*
X90660000Y-96550000D01*
X92011928Y-96550000D01*
X92011928Y-98250000D01*
X92024188Y-98374482D01*
X92060498Y-98494180D01*
X92119463Y-98604494D01*
X92198815Y-98701185D01*
X92295506Y-98780537D01*
X92405820Y-98839502D01*
X92525518Y-98875812D01*
X92650000Y-98888072D01*
X94350000Y-98888072D01*
X94474482Y-98875812D01*
X94594180Y-98839502D01*
X94704494Y-98780537D01*
X94801185Y-98701185D01*
X94880537Y-98604494D01*
X94939502Y-98494180D01*
X94975812Y-98374482D01*
X94988072Y-98250000D01*
X94988072Y-97250000D01*
X96211928Y-97250000D01*
X96224188Y-97374482D01*
X96260498Y-97494180D01*
X96319463Y-97604494D01*
X96398815Y-97701185D01*
X96495506Y-97780537D01*
X96605820Y-97839502D01*
X96725518Y-97875812D01*
X96850000Y-97888072D01*
X97114250Y-97885000D01*
X97273000Y-97726250D01*
X97273000Y-96477000D01*
X97527000Y-96477000D01*
X97527000Y-97726250D01*
X97685750Y-97885000D01*
X97950000Y-97888072D01*
X98074482Y-97875812D01*
X98194180Y-97839502D01*
X98304494Y-97780537D01*
X98401185Y-97701185D01*
X98480537Y-97604494D01*
X98539502Y-97494180D01*
X98575812Y-97374482D01*
X98588072Y-97250000D01*
X98585000Y-96635750D01*
X98426250Y-96477000D01*
X97527000Y-96477000D01*
X97273000Y-96477000D01*
X96373750Y-96477000D01*
X96215000Y-96635750D01*
X96211928Y-97250000D01*
X94988072Y-97250000D01*
X94988072Y-96550000D01*
X94975812Y-96425518D01*
X94939502Y-96305820D01*
X94880537Y-96195506D01*
X94801185Y-96098815D01*
X94704494Y-96019463D01*
X94594180Y-95960498D01*
X94521620Y-95938487D01*
X94653475Y-95806632D01*
X94815990Y-95563411D01*
X94862966Y-95450000D01*
X96211928Y-95450000D01*
X96215000Y-96064250D01*
X96373750Y-96223000D01*
X97273000Y-96223000D01*
X97273000Y-94973750D01*
X97527000Y-94973750D01*
X97527000Y-96223000D01*
X98426250Y-96223000D01*
X98585000Y-96064250D01*
X98588072Y-95450000D01*
X98575812Y-95325518D01*
X98539502Y-95205820D01*
X98480537Y-95095506D01*
X98401185Y-94998815D01*
X98304494Y-94919463D01*
X98194180Y-94860498D01*
X98074482Y-94824188D01*
X97950000Y-94811928D01*
X97685750Y-94815000D01*
X97527000Y-94973750D01*
X97273000Y-94973750D01*
X97114250Y-94815000D01*
X96850000Y-94811928D01*
X96725518Y-94824188D01*
X96605820Y-94860498D01*
X96495506Y-94919463D01*
X96398815Y-94998815D01*
X96319463Y-95095506D01*
X96260498Y-95205820D01*
X96224188Y-95325518D01*
X96211928Y-95450000D01*
X94862966Y-95450000D01*
X94927932Y-95293158D01*
X94985000Y-95006260D01*
X94985000Y-94713740D01*
X94927932Y-94426842D01*
X94815990Y-94156589D01*
X94653475Y-93913368D01*
X94490107Y-93750000D01*
X95811928Y-93750000D01*
X95824188Y-93874482D01*
X95860498Y-93994180D01*
X95919463Y-94104494D01*
X95998815Y-94201185D01*
X96095506Y-94280537D01*
X96205820Y-94339502D01*
X96325518Y-94375812D01*
X96450000Y-94388072D01*
X96464250Y-94385000D01*
X96623000Y-94226250D01*
X96623000Y-93377000D01*
X96877000Y-93377000D01*
X96877000Y-94226250D01*
X97035750Y-94385000D01*
X97050000Y-94388072D01*
X97174482Y-94375812D01*
X97294180Y-94339502D01*
X97404494Y-94280537D01*
X97501185Y-94201185D01*
X97580537Y-94104494D01*
X97639502Y-93994180D01*
X97675812Y-93874482D01*
X97688072Y-93750000D01*
X100811928Y-93750000D01*
X100824188Y-93874482D01*
X100860498Y-93994180D01*
X100919463Y-94104494D01*
X100998815Y-94201185D01*
X101095506Y-94280537D01*
X101205820Y-94339502D01*
X101325518Y-94375812D01*
X101450000Y-94388072D01*
X101464250Y-94385000D01*
X101623000Y-94226250D01*
X101623000Y-93377000D01*
X100973750Y-93377000D01*
X100815000Y-93535750D01*
X100811928Y-93750000D01*
X97688072Y-93750000D01*
X97685000Y-93535750D01*
X97526250Y-93377000D01*
X96877000Y-93377000D01*
X96623000Y-93377000D01*
X95973750Y-93377000D01*
X95815000Y-93535750D01*
X95811928Y-93750000D01*
X94490107Y-93750000D01*
X94446632Y-93706525D01*
X94264466Y-93584805D01*
X94381355Y-93515178D01*
X94597588Y-93320269D01*
X94771641Y-93086920D01*
X94896825Y-92824099D01*
X94919300Y-92750000D01*
X95811928Y-92750000D01*
X95815000Y-92964250D01*
X95973750Y-93123000D01*
X96623000Y-93123000D01*
X96623000Y-92273750D01*
X96877000Y-92273750D01*
X96877000Y-93123000D01*
X97526250Y-93123000D01*
X97685000Y-92964250D01*
X97688072Y-92750000D01*
X100811928Y-92750000D01*
X100815000Y-92964250D01*
X100973750Y-93123000D01*
X101623000Y-93123000D01*
X101623000Y-92273750D01*
X101464250Y-92115000D01*
X101450000Y-92111928D01*
X101325518Y-92124188D01*
X101205820Y-92160498D01*
X101095506Y-92219463D01*
X100998815Y-92298815D01*
X100919463Y-92395506D01*
X100860498Y-92505820D01*
X100824188Y-92625518D01*
X100811928Y-92750000D01*
X97688072Y-92750000D01*
X97675812Y-92625518D01*
X97639502Y-92505820D01*
X97580537Y-92395506D01*
X97501185Y-92298815D01*
X97404494Y-92219463D01*
X97294180Y-92160498D01*
X97174482Y-92124188D01*
X97050000Y-92111928D01*
X97035750Y-92115000D01*
X96877000Y-92273750D01*
X96623000Y-92273750D01*
X96464250Y-92115000D01*
X96450000Y-92111928D01*
X96325518Y-92124188D01*
X96205820Y-92160498D01*
X96095506Y-92219463D01*
X95998815Y-92298815D01*
X95919463Y-92395506D01*
X95860498Y-92505820D01*
X95824188Y-92625518D01*
X95811928Y-92750000D01*
X94919300Y-92750000D01*
X94941476Y-92676890D01*
X94820155Y-92447000D01*
X93627000Y-92447000D01*
X93627000Y-92467000D01*
X93373000Y-92467000D01*
X93373000Y-92447000D01*
X92179845Y-92447000D01*
X92058524Y-92676890D01*
X92103175Y-92824099D01*
X92228359Y-93086920D01*
X92402412Y-93320269D01*
X92618645Y-93515178D01*
X92735534Y-93584805D01*
X92553368Y-93706525D01*
X92346525Y-93913368D01*
X92184010Y-94156589D01*
X92072068Y-94426842D01*
X92015000Y-94713740D01*
X92015000Y-95006260D01*
X92072068Y-95293158D01*
X92184010Y-95563411D01*
X92346525Y-95806632D01*
X92478380Y-95938487D01*
X92405820Y-95960498D01*
X92295506Y-96019463D01*
X92198815Y-96098815D01*
X92119463Y-96195506D01*
X92060498Y-96305820D01*
X92024188Y-96425518D01*
X92011928Y-96550000D01*
X90660000Y-96550000D01*
X90660000Y-89633740D01*
X92015000Y-89633740D01*
X92015000Y-89926260D01*
X92072068Y-90213158D01*
X92184010Y-90483411D01*
X92346525Y-90726632D01*
X92553368Y-90933475D01*
X92735534Y-91055195D01*
X92618645Y-91124822D01*
X92402412Y-91319731D01*
X92228359Y-91553080D01*
X92103175Y-91815901D01*
X92058524Y-91963110D01*
X92179845Y-92193000D01*
X93373000Y-92193000D01*
X93373000Y-92173000D01*
X93627000Y-92173000D01*
X93627000Y-92193000D01*
X94820155Y-92193000D01*
X94941476Y-91963110D01*
X94896825Y-91815901D01*
X94771641Y-91553080D01*
X94597588Y-91319731D01*
X94381355Y-91124822D01*
X94264466Y-91055195D01*
X94272240Y-91050000D01*
X96211928Y-91050000D01*
X96224188Y-91174482D01*
X96260498Y-91294180D01*
X96319463Y-91404494D01*
X96398815Y-91501185D01*
X96495506Y-91580537D01*
X96605820Y-91639502D01*
X96725518Y-91675812D01*
X96850000Y-91688072D01*
X97114250Y-91685000D01*
X97273000Y-91526250D01*
X97273000Y-90277000D01*
X97527000Y-90277000D01*
X97527000Y-91526250D01*
X97685750Y-91685000D01*
X97950000Y-91688072D01*
X98074482Y-91675812D01*
X98194180Y-91639502D01*
X98304494Y-91580537D01*
X98401185Y-91501185D01*
X98480537Y-91404494D01*
X98539502Y-91294180D01*
X98575812Y-91174482D01*
X98588072Y-91050000D01*
X98585000Y-90435750D01*
X98426250Y-90277000D01*
X97527000Y-90277000D01*
X97273000Y-90277000D01*
X96373750Y-90277000D01*
X96215000Y-90435750D01*
X96211928Y-91050000D01*
X94272240Y-91050000D01*
X94446632Y-90933475D01*
X94653475Y-90726632D01*
X94815990Y-90483411D01*
X94927932Y-90213158D01*
X94985000Y-89926260D01*
X94985000Y-89633740D01*
X94927932Y-89346842D01*
X94887819Y-89250000D01*
X96211928Y-89250000D01*
X96215000Y-89864250D01*
X96373750Y-90023000D01*
X97273000Y-90023000D01*
X97273000Y-88773750D01*
X97527000Y-88773750D01*
X97527000Y-90023000D01*
X98426250Y-90023000D01*
X98585000Y-89864250D01*
X98588072Y-89250000D01*
X99911928Y-89250000D01*
X99911928Y-91050000D01*
X99924188Y-91174482D01*
X99960498Y-91294180D01*
X100019463Y-91404494D01*
X100098815Y-91501185D01*
X100195506Y-91580537D01*
X100305820Y-91639502D01*
X100425518Y-91675812D01*
X100550000Y-91688072D01*
X101650000Y-91688072D01*
X101774482Y-91675812D01*
X101894180Y-91639502D01*
X102004494Y-91580537D01*
X102005176Y-91579978D01*
X102040000Y-91614802D01*
X102040000Y-92114084D01*
X102035750Y-92115000D01*
X101877000Y-92273750D01*
X101877000Y-93123000D01*
X101897000Y-93123000D01*
X101897000Y-93377000D01*
X101877000Y-93377000D01*
X101877000Y-94226250D01*
X102012974Y-94362224D01*
X101563270Y-94811928D01*
X100550000Y-94811928D01*
X100425518Y-94824188D01*
X100305820Y-94860498D01*
X100195506Y-94919463D01*
X100098815Y-94998815D01*
X100019463Y-95095506D01*
X99960498Y-95205820D01*
X99924188Y-95325518D01*
X99911928Y-95450000D01*
X99911928Y-97250000D01*
X99924188Y-97374482D01*
X99960498Y-97494180D01*
X100019463Y-97604494D01*
X100098815Y-97701185D01*
X100195506Y-97780537D01*
X100305820Y-97839502D01*
X100425518Y-97875812D01*
X100550000Y-97888072D01*
X101650000Y-97888072D01*
X101774482Y-97875812D01*
X101894180Y-97839502D01*
X102004494Y-97780537D01*
X102101185Y-97701185D01*
X102180537Y-97604494D01*
X102239502Y-97494180D01*
X102275812Y-97374482D01*
X102288072Y-97250000D01*
X102288072Y-96236729D01*
X102481730Y-96043071D01*
X107154643Y-96043071D01*
X107166903Y-96167553D01*
X107203213Y-96287251D01*
X107262178Y-96397565D01*
X107341530Y-96494256D01*
X108755744Y-97908470D01*
X108852435Y-97987822D01*
X108962749Y-98046787D01*
X109082447Y-98083097D01*
X109206929Y-98095357D01*
X109331411Y-98083097D01*
X109451109Y-98046787D01*
X109561423Y-97987822D01*
X109658114Y-97908470D01*
X110834083Y-96732501D01*
X112122068Y-96732501D01*
X112134328Y-96856983D01*
X112170638Y-96976681D01*
X112229603Y-97086995D01*
X112308955Y-97183686D01*
X113723169Y-98597900D01*
X113819860Y-98677252D01*
X113930174Y-98736217D01*
X114049872Y-98772527D01*
X114174354Y-98784787D01*
X114298836Y-98772527D01*
X114418534Y-98736217D01*
X114528848Y-98677252D01*
X114625539Y-98597900D01*
X115097179Y-98126260D01*
X115113507Y-98106364D01*
X116116314Y-98106364D01*
X116153636Y-98110040D01*
X116190958Y-98106364D01*
X116190969Y-98106364D01*
X116302622Y-98095367D01*
X116445883Y-98051910D01*
X116577912Y-97981338D01*
X116693637Y-97886365D01*
X116717440Y-97857362D01*
X118911009Y-95663794D01*
X118940001Y-95640001D01*
X118963795Y-95611008D01*
X118963799Y-95611004D01*
X119034973Y-95524277D01*
X119034974Y-95524276D01*
X119105546Y-95392247D01*
X119149003Y-95248986D01*
X119160000Y-95137333D01*
X119160000Y-95137324D01*
X119163676Y-95100001D01*
X119160000Y-95062678D01*
X119160000Y-85303711D01*
X119203937Y-85259774D01*
X119317205Y-85090256D01*
X119395226Y-84901898D01*
X119435000Y-84701939D01*
X119435000Y-84498061D01*
X119395226Y-84298102D01*
X119317205Y-84109744D01*
X119203937Y-83940226D01*
X119059774Y-83796063D01*
X118890256Y-83682795D01*
X118701898Y-83604774D01*
X118501939Y-83565000D01*
X118298061Y-83565000D01*
X118098102Y-83604774D01*
X117909744Y-83682795D01*
X117740226Y-83796063D01*
X117596063Y-83940226D01*
X117482795Y-84109744D01*
X117404774Y-84298102D01*
X117365000Y-84498061D01*
X117365000Y-84701939D01*
X117404774Y-84901898D01*
X117482795Y-85090256D01*
X117596063Y-85259774D01*
X117640001Y-85303712D01*
X117640001Y-89565199D01*
X115335000Y-87260199D01*
X115335000Y-87198061D01*
X115295226Y-86998102D01*
X115217205Y-86809744D01*
X115103937Y-86640226D01*
X114959774Y-86496063D01*
X114790256Y-86382795D01*
X114601898Y-86304774D01*
X114401939Y-86265000D01*
X114198061Y-86265000D01*
X113998102Y-86304774D01*
X113809744Y-86382795D01*
X113640226Y-86496063D01*
X113496063Y-86640226D01*
X113382795Y-86809744D01*
X113304774Y-86998102D01*
X113265000Y-87198061D01*
X113265000Y-87401939D01*
X113304774Y-87601898D01*
X113382795Y-87790256D01*
X113496063Y-87959774D01*
X113640226Y-88103937D01*
X113809744Y-88217205D01*
X113998102Y-88295226D01*
X114198061Y-88335000D01*
X114260199Y-88335000D01*
X114437918Y-88512719D01*
X114341886Y-88591530D01*
X113069094Y-89864322D01*
X112989742Y-89961013D01*
X112930777Y-90071327D01*
X112894467Y-90191025D01*
X112882207Y-90315507D01*
X112894467Y-90439989D01*
X112930777Y-90559687D01*
X112989742Y-90670001D01*
X113069094Y-90766692D01*
X113185125Y-90882723D01*
X113041605Y-90911271D01*
X112853247Y-90989292D01*
X112683729Y-91102560D01*
X112539566Y-91246723D01*
X112426298Y-91416241D01*
X112348277Y-91604599D01*
X112308503Y-91804558D01*
X112308503Y-92008436D01*
X112348277Y-92208395D01*
X112426298Y-92396753D01*
X112539566Y-92566271D01*
X112683729Y-92710434D01*
X112853247Y-92823702D01*
X113041605Y-92901723D01*
X113241564Y-92941497D01*
X113445442Y-92941497D01*
X113645401Y-92901723D01*
X113833759Y-92823702D01*
X114003277Y-92710434D01*
X114147440Y-92566271D01*
X114260708Y-92396753D01*
X114338729Y-92208395D01*
X114367277Y-92064875D01*
X114483308Y-92180906D01*
X114579999Y-92260258D01*
X114690313Y-92319223D01*
X114810011Y-92355533D01*
X114934493Y-92367793D01*
X115058975Y-92355533D01*
X115178673Y-92319223D01*
X115288987Y-92260258D01*
X115385678Y-92180906D01*
X116540001Y-91026583D01*
X116540000Y-93292053D01*
X116103392Y-93728661D01*
X115933686Y-93558955D01*
X115836995Y-93479603D01*
X115726681Y-93420638D01*
X115606983Y-93384328D01*
X115482501Y-93372068D01*
X115358019Y-93384328D01*
X115238321Y-93420638D01*
X115128007Y-93479603D01*
X115031316Y-93558955D01*
X114559676Y-94030595D01*
X114480324Y-94127286D01*
X114421359Y-94237600D01*
X114385049Y-94357298D01*
X114372789Y-94481780D01*
X114374499Y-94499138D01*
X114357140Y-94497428D01*
X114232659Y-94509689D01*
X114112961Y-94545998D01*
X114002646Y-94604962D01*
X113905955Y-94684315D01*
X113874363Y-94720252D01*
X113874363Y-94944758D01*
X114828427Y-95898822D01*
X114842570Y-95884680D01*
X115022175Y-96064285D01*
X115008032Y-96078427D01*
X115022175Y-96092570D01*
X114842570Y-96272175D01*
X114828427Y-96258032D01*
X114814285Y-96272175D01*
X114634680Y-96092570D01*
X114648822Y-96078427D01*
X113694758Y-95124363D01*
X113470252Y-95124363D01*
X113434315Y-95155955D01*
X113354962Y-95252646D01*
X113295998Y-95362961D01*
X113259689Y-95482659D01*
X113247428Y-95607140D01*
X113249138Y-95624499D01*
X113231780Y-95622789D01*
X113107298Y-95635049D01*
X112987600Y-95671359D01*
X112877286Y-95730324D01*
X112780595Y-95809676D01*
X112308955Y-96281316D01*
X112229603Y-96378007D01*
X112170638Y-96488321D01*
X112134328Y-96608019D01*
X112122068Y-96732501D01*
X110834083Y-96732501D01*
X110930906Y-96635678D01*
X111010258Y-96538987D01*
X111069223Y-96428673D01*
X111105533Y-96308975D01*
X111117793Y-96184493D01*
X111105533Y-96060011D01*
X111069223Y-95940313D01*
X111010258Y-95829999D01*
X110940661Y-95745195D01*
X111002149Y-95732964D01*
X111217805Y-95643637D01*
X111411891Y-95513953D01*
X111576947Y-95348897D01*
X111706631Y-95154811D01*
X111795958Y-94939155D01*
X111841497Y-94710215D01*
X111841497Y-94476791D01*
X111795958Y-94247851D01*
X111706631Y-94032195D01*
X111576947Y-93838109D01*
X111411891Y-93673053D01*
X111217805Y-93543369D01*
X111002149Y-93454042D01*
X110773209Y-93408503D01*
X110539785Y-93408503D01*
X110310845Y-93454042D01*
X110095189Y-93543369D01*
X109901103Y-93673053D01*
X109736047Y-93838109D01*
X109606363Y-94032195D01*
X109517036Y-94247851D01*
X109504805Y-94309339D01*
X109420001Y-94239742D01*
X109309687Y-94180777D01*
X109189989Y-94144467D01*
X109065507Y-94132207D01*
X108941025Y-94144467D01*
X108821327Y-94180777D01*
X108711013Y-94239742D01*
X108614322Y-94319094D01*
X107341530Y-95591886D01*
X107262178Y-95688577D01*
X107203213Y-95798891D01*
X107166903Y-95918589D01*
X107154643Y-96043071D01*
X102481730Y-96043071D01*
X103311003Y-95213799D01*
X103340001Y-95190001D01*
X103368881Y-95154811D01*
X103434974Y-95074277D01*
X103505546Y-94942247D01*
X103512457Y-94919463D01*
X103549003Y-94798986D01*
X103560000Y-94687333D01*
X103560000Y-94687324D01*
X103563676Y-94650001D01*
X103560000Y-94612678D01*
X103560000Y-91337333D01*
X103563677Y-91300000D01*
X103549003Y-91151014D01*
X103505546Y-91007753D01*
X103434974Y-90875724D01*
X103363799Y-90788997D01*
X103340001Y-90759999D01*
X103311004Y-90736202D01*
X102974801Y-90400000D01*
X105739802Y-87635000D01*
X105801939Y-87635000D01*
X106001898Y-87595226D01*
X106190256Y-87517205D01*
X106289935Y-87450602D01*
X106296063Y-87459774D01*
X106340000Y-87503711D01*
X106340001Y-90457558D01*
X106336324Y-90494890D01*
X106340001Y-90532223D01*
X106350998Y-90643876D01*
X106354538Y-90655546D01*
X106394454Y-90787136D01*
X106465026Y-90919166D01*
X106481201Y-90938875D01*
X106477473Y-90951164D01*
X106465213Y-91075646D01*
X106477473Y-91200128D01*
X106513783Y-91319826D01*
X106572748Y-91430140D01*
X106652100Y-91526831D01*
X108066314Y-92941045D01*
X108163005Y-93020397D01*
X108273319Y-93079362D01*
X108393017Y-93115672D01*
X108517499Y-93127932D01*
X108641981Y-93115672D01*
X108761679Y-93079362D01*
X108871993Y-93020397D01*
X108968684Y-92941045D01*
X109440324Y-92469405D01*
X109519676Y-92372714D01*
X109578641Y-92262400D01*
X109614951Y-92142702D01*
X109627211Y-92018220D01*
X109625501Y-92000862D01*
X109642860Y-92002572D01*
X109767342Y-91990312D01*
X109887040Y-91954002D01*
X109997354Y-91895037D01*
X110094045Y-91815685D01*
X110565685Y-91344045D01*
X110645037Y-91247354D01*
X110704002Y-91137040D01*
X110740312Y-91017342D01*
X110752572Y-90892860D01*
X110750862Y-90875501D01*
X110768220Y-90877211D01*
X110892702Y-90864951D01*
X111012400Y-90828641D01*
X111122714Y-90769676D01*
X111219405Y-90690324D01*
X111691045Y-90218684D01*
X111770397Y-90121993D01*
X111829362Y-90011679D01*
X111865672Y-89891981D01*
X111877932Y-89767499D01*
X111865672Y-89643017D01*
X111829362Y-89523319D01*
X111770397Y-89413005D01*
X111691045Y-89316314D01*
X111060000Y-88685269D01*
X111060000Y-88303711D01*
X111103937Y-88259774D01*
X111217205Y-88090256D01*
X111295226Y-87901898D01*
X111335000Y-87701939D01*
X111335000Y-87498061D01*
X111295226Y-87298102D01*
X111217205Y-87109744D01*
X111103937Y-86940226D01*
X110959774Y-86796063D01*
X110790256Y-86682795D01*
X110601898Y-86604774D01*
X110401939Y-86565000D01*
X110198061Y-86565000D01*
X109998102Y-86604774D01*
X109809744Y-86682795D01*
X109705973Y-86752132D01*
X109695226Y-86698102D01*
X109617205Y-86509744D01*
X109503937Y-86340226D01*
X109359774Y-86196063D01*
X109190256Y-86082795D01*
X109001898Y-86004774D01*
X108801939Y-85965000D01*
X108598061Y-85965000D01*
X108398102Y-86004774D01*
X108209744Y-86082795D01*
X108040226Y-86196063D01*
X107980892Y-86255397D01*
X107903937Y-86140226D01*
X107759774Y-85996063D01*
X107590256Y-85882795D01*
X107401898Y-85804774D01*
X107201939Y-85765000D01*
X106998061Y-85765000D01*
X106798102Y-85804774D01*
X106609744Y-85882795D01*
X106510065Y-85949398D01*
X106503937Y-85940226D01*
X106359774Y-85796063D01*
X106190256Y-85682795D01*
X106001898Y-85604774D01*
X105801939Y-85565000D01*
X105598061Y-85565000D01*
X105398102Y-85604774D01*
X105209744Y-85682795D01*
X105040226Y-85796063D01*
X104896063Y-85940226D01*
X104782795Y-86109744D01*
X104704774Y-86298102D01*
X104665000Y-86498061D01*
X104665000Y-86560198D01*
X102232492Y-88992706D01*
X102180537Y-88895506D01*
X102101185Y-88798815D01*
X102004494Y-88719463D01*
X101894180Y-88660498D01*
X101774482Y-88624188D01*
X101650000Y-88611928D01*
X100550000Y-88611928D01*
X100425518Y-88624188D01*
X100305820Y-88660498D01*
X100195506Y-88719463D01*
X100098815Y-88798815D01*
X100019463Y-88895506D01*
X99960498Y-89005820D01*
X99924188Y-89125518D01*
X99911928Y-89250000D01*
X98588072Y-89250000D01*
X98575812Y-89125518D01*
X98539502Y-89005820D01*
X98480537Y-88895506D01*
X98401185Y-88798815D01*
X98304494Y-88719463D01*
X98194180Y-88660498D01*
X98074482Y-88624188D01*
X97950000Y-88611928D01*
X97685750Y-88615000D01*
X97527000Y-88773750D01*
X97273000Y-88773750D01*
X97114250Y-88615000D01*
X96850000Y-88611928D01*
X96725518Y-88624188D01*
X96605820Y-88660498D01*
X96495506Y-88719463D01*
X96398815Y-88798815D01*
X96319463Y-88895506D01*
X96260498Y-89005820D01*
X96224188Y-89125518D01*
X96211928Y-89250000D01*
X94887819Y-89250000D01*
X94815990Y-89076589D01*
X94653475Y-88833368D01*
X94446632Y-88626525D01*
X94203411Y-88464010D01*
X93933158Y-88352068D01*
X93646260Y-88295000D01*
X93353740Y-88295000D01*
X93066842Y-88352068D01*
X92796589Y-88464010D01*
X92553368Y-88626525D01*
X92346525Y-88833368D01*
X92184010Y-89076589D01*
X92072068Y-89346842D01*
X92015000Y-89633740D01*
X90660000Y-89633740D01*
X90660000Y-72098061D01*
X111365000Y-72098061D01*
X111365000Y-72301939D01*
X111404774Y-72501898D01*
X111482795Y-72690256D01*
X111596063Y-72859774D01*
X111740226Y-73003937D01*
X111909744Y-73117205D01*
X112098102Y-73195226D01*
X112298061Y-73235000D01*
X112360199Y-73235000D01*
X114236201Y-75111003D01*
X114259999Y-75140001D01*
X114288997Y-75163799D01*
X114375724Y-75234974D01*
X114381586Y-75238107D01*
X114396063Y-75259774D01*
X114540226Y-75403937D01*
X114709744Y-75517205D01*
X114898102Y-75595226D01*
X115098061Y-75635000D01*
X115301939Y-75635000D01*
X115501898Y-75595226D01*
X115690256Y-75517205D01*
X115859774Y-75403937D01*
X116003937Y-75259774D01*
X116117205Y-75090256D01*
X116195226Y-74901898D01*
X116208804Y-74833634D01*
X116401898Y-74795226D01*
X116590256Y-74717205D01*
X116759774Y-74603937D01*
X116903937Y-74459774D01*
X117017205Y-74290256D01*
X117095226Y-74101898D01*
X117135000Y-73901939D01*
X117135000Y-73698061D01*
X117095226Y-73498102D01*
X117017205Y-73309744D01*
X116903937Y-73140226D01*
X116759774Y-72996063D01*
X116590256Y-72882795D01*
X116401898Y-72804774D01*
X116201939Y-72765000D01*
X116139802Y-72765000D01*
X114163804Y-70789003D01*
X114140001Y-70759999D01*
X114024276Y-70665026D01*
X113892247Y-70594454D01*
X113858288Y-70584153D01*
X113828937Y-70540226D01*
X113684774Y-70396063D01*
X113515256Y-70282795D01*
X113326898Y-70204774D01*
X113126939Y-70165000D01*
X112923061Y-70165000D01*
X112723102Y-70204774D01*
X112534744Y-70282795D01*
X112365226Y-70396063D01*
X112221063Y-70540226D01*
X112107795Y-70709744D01*
X112029774Y-70898102D01*
X111990000Y-71098061D01*
X111990000Y-71249552D01*
X111909744Y-71282795D01*
X111740226Y-71396063D01*
X111596063Y-71540226D01*
X111482795Y-71709744D01*
X111404774Y-71898102D01*
X111365000Y-72098061D01*
X90660000Y-72098061D01*
X90660000Y-60660000D01*
X104340000Y-60660000D01*
X104340001Y-61967571D01*
G04 #@! TA.AperFunction,Conductor*
D18*
G36*
X104340001Y-61967571D02*
G01*
X104336807Y-62000000D01*
X104349550Y-62129383D01*
X104387290Y-62253793D01*
X104448575Y-62368450D01*
X104531052Y-62468948D01*
X104631550Y-62551425D01*
X104746207Y-62612710D01*
X104870617Y-62650450D01*
X104967581Y-62660000D01*
X105000000Y-62663193D01*
X105032419Y-62660000D01*
X118967581Y-62660000D01*
X119000000Y-62663193D01*
X119032419Y-62660000D01*
X119129383Y-62650450D01*
X119253793Y-62612710D01*
X119368450Y-62551425D01*
X119468948Y-62468948D01*
X119551425Y-62368450D01*
X119612710Y-62253793D01*
X119650450Y-62129383D01*
X119663193Y-62000000D01*
X119660000Y-61967581D01*
X119660000Y-60660000D01*
X133340000Y-60660000D01*
X133340001Y-99340000D01*
X90660000Y-99340000D01*
X90660000Y-96550000D01*
X92011928Y-96550000D01*
X92011928Y-98250000D01*
X92024188Y-98374482D01*
X92060498Y-98494180D01*
X92119463Y-98604494D01*
X92198815Y-98701185D01*
X92295506Y-98780537D01*
X92405820Y-98839502D01*
X92525518Y-98875812D01*
X92650000Y-98888072D01*
X94350000Y-98888072D01*
X94474482Y-98875812D01*
X94594180Y-98839502D01*
X94704494Y-98780537D01*
X94801185Y-98701185D01*
X94880537Y-98604494D01*
X94939502Y-98494180D01*
X94975812Y-98374482D01*
X94988072Y-98250000D01*
X94988072Y-97250000D01*
X96211928Y-97250000D01*
X96224188Y-97374482D01*
X96260498Y-97494180D01*
X96319463Y-97604494D01*
X96398815Y-97701185D01*
X96495506Y-97780537D01*
X96605820Y-97839502D01*
X96725518Y-97875812D01*
X96850000Y-97888072D01*
X97114250Y-97885000D01*
X97273000Y-97726250D01*
X97273000Y-96477000D01*
X97527000Y-96477000D01*
X97527000Y-97726250D01*
X97685750Y-97885000D01*
X97950000Y-97888072D01*
X98074482Y-97875812D01*
X98194180Y-97839502D01*
X98304494Y-97780537D01*
X98401185Y-97701185D01*
X98480537Y-97604494D01*
X98539502Y-97494180D01*
X98575812Y-97374482D01*
X98588072Y-97250000D01*
X98585000Y-96635750D01*
X98426250Y-96477000D01*
X97527000Y-96477000D01*
X97273000Y-96477000D01*
X96373750Y-96477000D01*
X96215000Y-96635750D01*
X96211928Y-97250000D01*
X94988072Y-97250000D01*
X94988072Y-96550000D01*
X94975812Y-96425518D01*
X94939502Y-96305820D01*
X94880537Y-96195506D01*
X94801185Y-96098815D01*
X94704494Y-96019463D01*
X94594180Y-95960498D01*
X94521620Y-95938487D01*
X94653475Y-95806632D01*
X94815990Y-95563411D01*
X94862966Y-95450000D01*
X96211928Y-95450000D01*
X96215000Y-96064250D01*
X96373750Y-96223000D01*
X97273000Y-96223000D01*
X97273000Y-94973750D01*
X97527000Y-94973750D01*
X97527000Y-96223000D01*
X98426250Y-96223000D01*
X98585000Y-96064250D01*
X98588072Y-95450000D01*
X98575812Y-95325518D01*
X98539502Y-95205820D01*
X98480537Y-95095506D01*
X98401185Y-94998815D01*
X98304494Y-94919463D01*
X98194180Y-94860498D01*
X98074482Y-94824188D01*
X97950000Y-94811928D01*
X97685750Y-94815000D01*
X97527000Y-94973750D01*
X97273000Y-94973750D01*
X97114250Y-94815000D01*
X96850000Y-94811928D01*
X96725518Y-94824188D01*
X96605820Y-94860498D01*
X96495506Y-94919463D01*
X96398815Y-94998815D01*
X96319463Y-95095506D01*
X96260498Y-95205820D01*
X96224188Y-95325518D01*
X96211928Y-95450000D01*
X94862966Y-95450000D01*
X94927932Y-95293158D01*
X94985000Y-95006260D01*
X94985000Y-94713740D01*
X94927932Y-94426842D01*
X94815990Y-94156589D01*
X94653475Y-93913368D01*
X94490107Y-93750000D01*
X95811928Y-93750000D01*
X95824188Y-93874482D01*
X95860498Y-93994180D01*
X95919463Y-94104494D01*
X95998815Y-94201185D01*
X96095506Y-94280537D01*
X96205820Y-94339502D01*
X96325518Y-94375812D01*
X96450000Y-94388072D01*
X96464250Y-94385000D01*
X96623000Y-94226250D01*
X96623000Y-93377000D01*
X96877000Y-93377000D01*
X96877000Y-94226250D01*
X97035750Y-94385000D01*
X97050000Y-94388072D01*
X97174482Y-94375812D01*
X97294180Y-94339502D01*
X97404494Y-94280537D01*
X97501185Y-94201185D01*
X97580537Y-94104494D01*
X97639502Y-93994180D01*
X97675812Y-93874482D01*
X97688072Y-93750000D01*
X100811928Y-93750000D01*
X100824188Y-93874482D01*
X100860498Y-93994180D01*
X100919463Y-94104494D01*
X100998815Y-94201185D01*
X101095506Y-94280537D01*
X101205820Y-94339502D01*
X101325518Y-94375812D01*
X101450000Y-94388072D01*
X101464250Y-94385000D01*
X101623000Y-94226250D01*
X101623000Y-93377000D01*
X100973750Y-93377000D01*
X100815000Y-93535750D01*
X100811928Y-93750000D01*
X97688072Y-93750000D01*
X97685000Y-93535750D01*
X97526250Y-93377000D01*
X96877000Y-93377000D01*
X96623000Y-93377000D01*
X95973750Y-93377000D01*
X95815000Y-93535750D01*
X95811928Y-93750000D01*
X94490107Y-93750000D01*
X94446632Y-93706525D01*
X94264466Y-93584805D01*
X94381355Y-93515178D01*
X94597588Y-93320269D01*
X94771641Y-93086920D01*
X94896825Y-92824099D01*
X94919300Y-92750000D01*
X95811928Y-92750000D01*
X95815000Y-92964250D01*
X95973750Y-93123000D01*
X96623000Y-93123000D01*
X96623000Y-92273750D01*
X96877000Y-92273750D01*
X96877000Y-93123000D01*
X97526250Y-93123000D01*
X97685000Y-92964250D01*
X97688072Y-92750000D01*
X100811928Y-92750000D01*
X100815000Y-92964250D01*
X100973750Y-93123000D01*
X101623000Y-93123000D01*
X101623000Y-92273750D01*
X101464250Y-92115000D01*
X101450000Y-92111928D01*
X101325518Y-92124188D01*
X101205820Y-92160498D01*
X101095506Y-92219463D01*
X100998815Y-92298815D01*
X100919463Y-92395506D01*
X100860498Y-92505820D01*
X100824188Y-92625518D01*
X100811928Y-92750000D01*
X97688072Y-92750000D01*
X97675812Y-92625518D01*
X97639502Y-92505820D01*
X97580537Y-92395506D01*
X97501185Y-92298815D01*
X97404494Y-92219463D01*
X97294180Y-92160498D01*
X97174482Y-92124188D01*
X97050000Y-92111928D01*
X97035750Y-92115000D01*
X96877000Y-92273750D01*
X96623000Y-92273750D01*
X96464250Y-92115000D01*
X96450000Y-92111928D01*
X96325518Y-92124188D01*
X96205820Y-92160498D01*
X96095506Y-92219463D01*
X95998815Y-92298815D01*
X95919463Y-92395506D01*
X95860498Y-92505820D01*
X95824188Y-92625518D01*
X95811928Y-92750000D01*
X94919300Y-92750000D01*
X94941476Y-92676890D01*
X94820155Y-92447000D01*
X93627000Y-92447000D01*
X93627000Y-92467000D01*
X93373000Y-92467000D01*
X93373000Y-92447000D01*
X92179845Y-92447000D01*
X92058524Y-92676890D01*
X92103175Y-92824099D01*
X92228359Y-93086920D01*
X92402412Y-93320269D01*
X92618645Y-93515178D01*
X92735534Y-93584805D01*
X92553368Y-93706525D01*
X92346525Y-93913368D01*
X92184010Y-94156589D01*
X92072068Y-94426842D01*
X92015000Y-94713740D01*
X92015000Y-95006260D01*
X92072068Y-95293158D01*
X92184010Y-95563411D01*
X92346525Y-95806632D01*
X92478380Y-95938487D01*
X92405820Y-95960498D01*
X92295506Y-96019463D01*
X92198815Y-96098815D01*
X92119463Y-96195506D01*
X92060498Y-96305820D01*
X92024188Y-96425518D01*
X92011928Y-96550000D01*
X90660000Y-96550000D01*
X90660000Y-89633740D01*
X92015000Y-89633740D01*
X92015000Y-89926260D01*
X92072068Y-90213158D01*
X92184010Y-90483411D01*
X92346525Y-90726632D01*
X92553368Y-90933475D01*
X92735534Y-91055195D01*
X92618645Y-91124822D01*
X92402412Y-91319731D01*
X92228359Y-91553080D01*
X92103175Y-91815901D01*
X92058524Y-91963110D01*
X92179845Y-92193000D01*
X93373000Y-92193000D01*
X93373000Y-92173000D01*
X93627000Y-92173000D01*
X93627000Y-92193000D01*
X94820155Y-92193000D01*
X94941476Y-91963110D01*
X94896825Y-91815901D01*
X94771641Y-91553080D01*
X94597588Y-91319731D01*
X94381355Y-91124822D01*
X94264466Y-91055195D01*
X94272240Y-91050000D01*
X96211928Y-91050000D01*
X96224188Y-91174482D01*
X96260498Y-91294180D01*
X96319463Y-91404494D01*
X96398815Y-91501185D01*
X96495506Y-91580537D01*
X96605820Y-91639502D01*
X96725518Y-91675812D01*
X96850000Y-91688072D01*
X97114250Y-91685000D01*
X97273000Y-91526250D01*
X97273000Y-90277000D01*
X97527000Y-90277000D01*
X97527000Y-91526250D01*
X97685750Y-91685000D01*
X97950000Y-91688072D01*
X98074482Y-91675812D01*
X98194180Y-91639502D01*
X98304494Y-91580537D01*
X98401185Y-91501185D01*
X98480537Y-91404494D01*
X98539502Y-91294180D01*
X98575812Y-91174482D01*
X98588072Y-91050000D01*
X98585000Y-90435750D01*
X98426250Y-90277000D01*
X97527000Y-90277000D01*
X97273000Y-90277000D01*
X96373750Y-90277000D01*
X96215000Y-90435750D01*
X96211928Y-91050000D01*
X94272240Y-91050000D01*
X94446632Y-90933475D01*
X94653475Y-90726632D01*
X94815990Y-90483411D01*
X94927932Y-90213158D01*
X94985000Y-89926260D01*
X94985000Y-89633740D01*
X94927932Y-89346842D01*
X94887819Y-89250000D01*
X96211928Y-89250000D01*
X96215000Y-89864250D01*
X96373750Y-90023000D01*
X97273000Y-90023000D01*
X97273000Y-88773750D01*
X97527000Y-88773750D01*
X97527000Y-90023000D01*
X98426250Y-90023000D01*
X98585000Y-89864250D01*
X98588072Y-89250000D01*
X99911928Y-89250000D01*
X99911928Y-91050000D01*
X99924188Y-91174482D01*
X99960498Y-91294180D01*
X100019463Y-91404494D01*
X100098815Y-91501185D01*
X100195506Y-91580537D01*
X100305820Y-91639502D01*
X100425518Y-91675812D01*
X100550000Y-91688072D01*
X101650000Y-91688072D01*
X101774482Y-91675812D01*
X101894180Y-91639502D01*
X102004494Y-91580537D01*
X102005176Y-91579978D01*
X102040000Y-91614802D01*
X102040000Y-92114084D01*
X102035750Y-92115000D01*
X101877000Y-92273750D01*
X101877000Y-93123000D01*
X101897000Y-93123000D01*
X101897000Y-93377000D01*
X101877000Y-93377000D01*
X101877000Y-94226250D01*
X102012974Y-94362224D01*
X101563270Y-94811928D01*
X100550000Y-94811928D01*
X100425518Y-94824188D01*
X100305820Y-94860498D01*
X100195506Y-94919463D01*
X100098815Y-94998815D01*
X100019463Y-95095506D01*
X99960498Y-95205820D01*
X99924188Y-95325518D01*
X99911928Y-95450000D01*
X99911928Y-97250000D01*
X99924188Y-97374482D01*
X99960498Y-97494180D01*
X100019463Y-97604494D01*
X100098815Y-97701185D01*
X100195506Y-97780537D01*
X100305820Y-97839502D01*
X100425518Y-97875812D01*
X100550000Y-97888072D01*
X101650000Y-97888072D01*
X101774482Y-97875812D01*
X101894180Y-97839502D01*
X102004494Y-97780537D01*
X102101185Y-97701185D01*
X102180537Y-97604494D01*
X102239502Y-97494180D01*
X102275812Y-97374482D01*
X102288072Y-97250000D01*
X102288072Y-96236729D01*
X102481730Y-96043071D01*
X107154643Y-96043071D01*
X107166903Y-96167553D01*
X107203213Y-96287251D01*
X107262178Y-96397565D01*
X107341530Y-96494256D01*
X108755744Y-97908470D01*
X108852435Y-97987822D01*
X108962749Y-98046787D01*
X109082447Y-98083097D01*
X109206929Y-98095357D01*
X109331411Y-98083097D01*
X109451109Y-98046787D01*
X109561423Y-97987822D01*
X109658114Y-97908470D01*
X110834083Y-96732501D01*
X112122068Y-96732501D01*
X112134328Y-96856983D01*
X112170638Y-96976681D01*
X112229603Y-97086995D01*
X112308955Y-97183686D01*
X113723169Y-98597900D01*
X113819860Y-98677252D01*
X113930174Y-98736217D01*
X114049872Y-98772527D01*
X114174354Y-98784787D01*
X114298836Y-98772527D01*
X114418534Y-98736217D01*
X114528848Y-98677252D01*
X114625539Y-98597900D01*
X115097179Y-98126260D01*
X115113507Y-98106364D01*
X116116314Y-98106364D01*
X116153636Y-98110040D01*
X116190958Y-98106364D01*
X116190969Y-98106364D01*
X116302622Y-98095367D01*
X116445883Y-98051910D01*
X116577912Y-97981338D01*
X116693637Y-97886365D01*
X116717440Y-97857362D01*
X118911009Y-95663794D01*
X118940001Y-95640001D01*
X118963795Y-95611008D01*
X118963799Y-95611004D01*
X119034973Y-95524277D01*
X119034974Y-95524276D01*
X119105546Y-95392247D01*
X119149003Y-95248986D01*
X119160000Y-95137333D01*
X119160000Y-95137324D01*
X119163676Y-95100001D01*
X119160000Y-95062678D01*
X119160000Y-85303711D01*
X119203937Y-85259774D01*
X119317205Y-85090256D01*
X119395226Y-84901898D01*
X119435000Y-84701939D01*
X119435000Y-84498061D01*
X119395226Y-84298102D01*
X119317205Y-84109744D01*
X119203937Y-83940226D01*
X119059774Y-83796063D01*
X118890256Y-83682795D01*
X118701898Y-83604774D01*
X118501939Y-83565000D01*
X118298061Y-83565000D01*
X118098102Y-83604774D01*
X117909744Y-83682795D01*
X117740226Y-83796063D01*
X117596063Y-83940226D01*
X117482795Y-84109744D01*
X117404774Y-84298102D01*
X117365000Y-84498061D01*
X117365000Y-84701939D01*
X117404774Y-84901898D01*
X117482795Y-85090256D01*
X117596063Y-85259774D01*
X117640001Y-85303712D01*
X117640001Y-89565199D01*
X115335000Y-87260199D01*
X115335000Y-87198061D01*
X115295226Y-86998102D01*
X115217205Y-86809744D01*
X115103937Y-86640226D01*
X114959774Y-86496063D01*
X114790256Y-86382795D01*
X114601898Y-86304774D01*
X114401939Y-86265000D01*
X114198061Y-86265000D01*
X113998102Y-86304774D01*
X113809744Y-86382795D01*
X113640226Y-86496063D01*
X113496063Y-86640226D01*
X113382795Y-86809744D01*
X113304774Y-86998102D01*
X113265000Y-87198061D01*
X113265000Y-87401939D01*
X113304774Y-87601898D01*
X113382795Y-87790256D01*
X113496063Y-87959774D01*
X113640226Y-88103937D01*
X113809744Y-88217205D01*
X113998102Y-88295226D01*
X114198061Y-88335000D01*
X114260199Y-88335000D01*
X114437918Y-88512719D01*
X114341886Y-88591530D01*
X113069094Y-89864322D01*
X112989742Y-89961013D01*
X112930777Y-90071327D01*
X112894467Y-90191025D01*
X112882207Y-90315507D01*
X112894467Y-90439989D01*
X112930777Y-90559687D01*
X112989742Y-90670001D01*
X113069094Y-90766692D01*
X113185125Y-90882723D01*
X113041605Y-90911271D01*
X112853247Y-90989292D01*
X112683729Y-91102560D01*
X112539566Y-91246723D01*
X112426298Y-91416241D01*
X112348277Y-91604599D01*
X112308503Y-91804558D01*
X112308503Y-92008436D01*
X112348277Y-92208395D01*
X112426298Y-92396753D01*
X112539566Y-92566271D01*
X112683729Y-92710434D01*
X112853247Y-92823702D01*
X113041605Y-92901723D01*
X113241564Y-92941497D01*
X113445442Y-92941497D01*
X113645401Y-92901723D01*
X113833759Y-92823702D01*
X114003277Y-92710434D01*
X114147440Y-92566271D01*
X114260708Y-92396753D01*
X114338729Y-92208395D01*
X114367277Y-92064875D01*
X114483308Y-92180906D01*
X114579999Y-92260258D01*
X114690313Y-92319223D01*
X114810011Y-92355533D01*
X114934493Y-92367793D01*
X115058975Y-92355533D01*
X115178673Y-92319223D01*
X115288987Y-92260258D01*
X115385678Y-92180906D01*
X116540001Y-91026583D01*
X116540000Y-93292053D01*
X116103392Y-93728661D01*
X115933686Y-93558955D01*
X115836995Y-93479603D01*
X115726681Y-93420638D01*
X115606983Y-93384328D01*
X115482501Y-93372068D01*
X115358019Y-93384328D01*
X115238321Y-93420638D01*
X115128007Y-93479603D01*
X115031316Y-93558955D01*
X114559676Y-94030595D01*
X114480324Y-94127286D01*
X114421359Y-94237600D01*
X114385049Y-94357298D01*
X114372789Y-94481780D01*
X114374499Y-94499138D01*
X114357140Y-94497428D01*
X114232659Y-94509689D01*
X114112961Y-94545998D01*
X114002646Y-94604962D01*
X113905955Y-94684315D01*
X113874363Y-94720252D01*
X113874363Y-94944758D01*
X114828427Y-95898822D01*
X114842570Y-95884680D01*
X115022175Y-96064285D01*
X115008032Y-96078427D01*
X115022175Y-96092570D01*
X114842570Y-96272175D01*
X114828427Y-96258032D01*
X114814285Y-96272175D01*
X114634680Y-96092570D01*
X114648822Y-96078427D01*
X113694758Y-95124363D01*
X113470252Y-95124363D01*
X113434315Y-95155955D01*
X113354962Y-95252646D01*
X113295998Y-95362961D01*
X113259689Y-95482659D01*
X113247428Y-95607140D01*
X113249138Y-95624499D01*
X113231780Y-95622789D01*
X113107298Y-95635049D01*
X112987600Y-95671359D01*
X112877286Y-95730324D01*
X112780595Y-95809676D01*
X112308955Y-96281316D01*
X112229603Y-96378007D01*
X112170638Y-96488321D01*
X112134328Y-96608019D01*
X112122068Y-96732501D01*
X110834083Y-96732501D01*
X110930906Y-96635678D01*
X111010258Y-96538987D01*
X111069223Y-96428673D01*
X111105533Y-96308975D01*
X111117793Y-96184493D01*
X111105533Y-96060011D01*
X111069223Y-95940313D01*
X111010258Y-95829999D01*
X110940661Y-95745195D01*
X111002149Y-95732964D01*
X111217805Y-95643637D01*
X111411891Y-95513953D01*
X111576947Y-95348897D01*
X111706631Y-95154811D01*
X111795958Y-94939155D01*
X111841497Y-94710215D01*
X111841497Y-94476791D01*
X111795958Y-94247851D01*
X111706631Y-94032195D01*
X111576947Y-93838109D01*
X111411891Y-93673053D01*
X111217805Y-93543369D01*
X111002149Y-93454042D01*
X110773209Y-93408503D01*
X110539785Y-93408503D01*
X110310845Y-93454042D01*
X110095189Y-93543369D01*
X109901103Y-93673053D01*
X109736047Y-93838109D01*
X109606363Y-94032195D01*
X109517036Y-94247851D01*
X109504805Y-94309339D01*
X109420001Y-94239742D01*
X109309687Y-94180777D01*
X109189989Y-94144467D01*
X109065507Y-94132207D01*
X108941025Y-94144467D01*
X108821327Y-94180777D01*
X108711013Y-94239742D01*
X108614322Y-94319094D01*
X107341530Y-95591886D01*
X107262178Y-95688577D01*
X107203213Y-95798891D01*
X107166903Y-95918589D01*
X107154643Y-96043071D01*
X102481730Y-96043071D01*
X103311003Y-95213799D01*
X103340001Y-95190001D01*
X103368881Y-95154811D01*
X103434974Y-95074277D01*
X103505546Y-94942247D01*
X103512457Y-94919463D01*
X103549003Y-94798986D01*
X103560000Y-94687333D01*
X103560000Y-94687324D01*
X103563676Y-94650001D01*
X103560000Y-94612678D01*
X103560000Y-91337333D01*
X103563677Y-91300000D01*
X103549003Y-91151014D01*
X103505546Y-91007753D01*
X103434974Y-90875724D01*
X103363799Y-90788997D01*
X103340001Y-90759999D01*
X103311004Y-90736202D01*
X102974801Y-90400000D01*
X105739802Y-87635000D01*
X105801939Y-87635000D01*
X106001898Y-87595226D01*
X106190256Y-87517205D01*
X106289935Y-87450602D01*
X106296063Y-87459774D01*
X106340000Y-87503711D01*
X106340001Y-90457558D01*
X106336324Y-90494890D01*
X106340001Y-90532223D01*
X106350998Y-90643876D01*
X106354538Y-90655546D01*
X106394454Y-90787136D01*
X106465026Y-90919166D01*
X106481201Y-90938875D01*
X106477473Y-90951164D01*
X106465213Y-91075646D01*
X106477473Y-91200128D01*
X106513783Y-91319826D01*
X106572748Y-91430140D01*
X106652100Y-91526831D01*
X108066314Y-92941045D01*
X108163005Y-93020397D01*
X108273319Y-93079362D01*
X108393017Y-93115672D01*
X108517499Y-93127932D01*
X108641981Y-93115672D01*
X108761679Y-93079362D01*
X108871993Y-93020397D01*
X108968684Y-92941045D01*
X109440324Y-92469405D01*
X109519676Y-92372714D01*
X109578641Y-92262400D01*
X109614951Y-92142702D01*
X109627211Y-92018220D01*
X109625501Y-92000862D01*
X109642860Y-92002572D01*
X109767342Y-91990312D01*
X109887040Y-91954002D01*
X109997354Y-91895037D01*
X110094045Y-91815685D01*
X110565685Y-91344045D01*
X110645037Y-91247354D01*
X110704002Y-91137040D01*
X110740312Y-91017342D01*
X110752572Y-90892860D01*
X110750862Y-90875501D01*
X110768220Y-90877211D01*
X110892702Y-90864951D01*
X111012400Y-90828641D01*
X111122714Y-90769676D01*
X111219405Y-90690324D01*
X111691045Y-90218684D01*
X111770397Y-90121993D01*
X111829362Y-90011679D01*
X111865672Y-89891981D01*
X111877932Y-89767499D01*
X111865672Y-89643017D01*
X111829362Y-89523319D01*
X111770397Y-89413005D01*
X111691045Y-89316314D01*
X111060000Y-88685269D01*
X111060000Y-88303711D01*
X111103937Y-88259774D01*
X111217205Y-88090256D01*
X111295226Y-87901898D01*
X111335000Y-87701939D01*
X111335000Y-87498061D01*
X111295226Y-87298102D01*
X111217205Y-87109744D01*
X111103937Y-86940226D01*
X110959774Y-86796063D01*
X110790256Y-86682795D01*
X110601898Y-86604774D01*
X110401939Y-86565000D01*
X110198061Y-86565000D01*
X109998102Y-86604774D01*
X109809744Y-86682795D01*
X109705973Y-86752132D01*
X109695226Y-86698102D01*
X109617205Y-86509744D01*
X109503937Y-86340226D01*
X109359774Y-86196063D01*
X109190256Y-86082795D01*
X109001898Y-86004774D01*
X108801939Y-85965000D01*
X108598061Y-85965000D01*
X108398102Y-86004774D01*
X108209744Y-86082795D01*
X108040226Y-86196063D01*
X107980892Y-86255397D01*
X107903937Y-86140226D01*
X107759774Y-85996063D01*
X107590256Y-85882795D01*
X107401898Y-85804774D01*
X107201939Y-85765000D01*
X106998061Y-85765000D01*
X106798102Y-85804774D01*
X106609744Y-85882795D01*
X106510065Y-85949398D01*
X106503937Y-85940226D01*
X106359774Y-85796063D01*
X106190256Y-85682795D01*
X106001898Y-85604774D01*
X105801939Y-85565000D01*
X105598061Y-85565000D01*
X105398102Y-85604774D01*
X105209744Y-85682795D01*
X105040226Y-85796063D01*
X104896063Y-85940226D01*
X104782795Y-86109744D01*
X104704774Y-86298102D01*
X104665000Y-86498061D01*
X104665000Y-86560198D01*
X102232492Y-88992706D01*
X102180537Y-88895506D01*
X102101185Y-88798815D01*
X102004494Y-88719463D01*
X101894180Y-88660498D01*
X101774482Y-88624188D01*
X101650000Y-88611928D01*
X100550000Y-88611928D01*
X100425518Y-88624188D01*
X100305820Y-88660498D01*
X100195506Y-88719463D01*
X100098815Y-88798815D01*
X100019463Y-88895506D01*
X99960498Y-89005820D01*
X99924188Y-89125518D01*
X99911928Y-89250000D01*
X98588072Y-89250000D01*
X98575812Y-89125518D01*
X98539502Y-89005820D01*
X98480537Y-88895506D01*
X98401185Y-88798815D01*
X98304494Y-88719463D01*
X98194180Y-88660498D01*
X98074482Y-88624188D01*
X97950000Y-88611928D01*
X97685750Y-88615000D01*
X97527000Y-88773750D01*
X97273000Y-88773750D01*
X97114250Y-88615000D01*
X96850000Y-88611928D01*
X96725518Y-88624188D01*
X96605820Y-88660498D01*
X96495506Y-88719463D01*
X96398815Y-88798815D01*
X96319463Y-88895506D01*
X96260498Y-89005820D01*
X96224188Y-89125518D01*
X96211928Y-89250000D01*
X94887819Y-89250000D01*
X94815990Y-89076589D01*
X94653475Y-88833368D01*
X94446632Y-88626525D01*
X94203411Y-88464010D01*
X93933158Y-88352068D01*
X93646260Y-88295000D01*
X93353740Y-88295000D01*
X93066842Y-88352068D01*
X92796589Y-88464010D01*
X92553368Y-88626525D01*
X92346525Y-88833368D01*
X92184010Y-89076589D01*
X92072068Y-89346842D01*
X92015000Y-89633740D01*
X90660000Y-89633740D01*
X90660000Y-72098061D01*
X111365000Y-72098061D01*
X111365000Y-72301939D01*
X111404774Y-72501898D01*
X111482795Y-72690256D01*
X111596063Y-72859774D01*
X111740226Y-73003937D01*
X111909744Y-73117205D01*
X112098102Y-73195226D01*
X112298061Y-73235000D01*
X112360199Y-73235000D01*
X114236201Y-75111003D01*
X114259999Y-75140001D01*
X114288997Y-75163799D01*
X114375724Y-75234974D01*
X114381586Y-75238107D01*
X114396063Y-75259774D01*
X114540226Y-75403937D01*
X114709744Y-75517205D01*
X114898102Y-75595226D01*
X115098061Y-75635000D01*
X115301939Y-75635000D01*
X115501898Y-75595226D01*
X115690256Y-75517205D01*
X115859774Y-75403937D01*
X116003937Y-75259774D01*
X116117205Y-75090256D01*
X116195226Y-74901898D01*
X116208804Y-74833634D01*
X116401898Y-74795226D01*
X116590256Y-74717205D01*
X116759774Y-74603937D01*
X116903937Y-74459774D01*
X117017205Y-74290256D01*
X117095226Y-74101898D01*
X117135000Y-73901939D01*
X117135000Y-73698061D01*
X117095226Y-73498102D01*
X117017205Y-73309744D01*
X116903937Y-73140226D01*
X116759774Y-72996063D01*
X116590256Y-72882795D01*
X116401898Y-72804774D01*
X116201939Y-72765000D01*
X116139802Y-72765000D01*
X114163804Y-70789003D01*
X114140001Y-70759999D01*
X114024276Y-70665026D01*
X113892247Y-70594454D01*
X113858288Y-70584153D01*
X113828937Y-70540226D01*
X113684774Y-70396063D01*
X113515256Y-70282795D01*
X113326898Y-70204774D01*
X113126939Y-70165000D01*
X112923061Y-70165000D01*
X112723102Y-70204774D01*
X112534744Y-70282795D01*
X112365226Y-70396063D01*
X112221063Y-70540226D01*
X112107795Y-70709744D01*
X112029774Y-70898102D01*
X111990000Y-71098061D01*
X111990000Y-71249552D01*
X111909744Y-71282795D01*
X111740226Y-71396063D01*
X111596063Y-71540226D01*
X111482795Y-71709744D01*
X111404774Y-71898102D01*
X111365000Y-72098061D01*
X90660000Y-72098061D01*
X90660000Y-60660000D01*
X104340000Y-60660000D01*
X104340001Y-61967571D01*
G37*
G04 #@! TD.AperFunction*
M02*
