G04 #@! TF.GenerationSoftware,KiCad,Pcbnew,5.1.10-88a1d61d58~90~ubuntu20.04.1*
G04 #@! TF.CreationDate,2021-11-23T17:05:44+00:00*
G04 #@! TF.ProjectId,LiPo-power,4c69506f-2d70-46f7-9765-722e6b696361,rev?*
G04 #@! TF.SameCoordinates,Original*
G04 #@! TF.FileFunction,Legend,Bot*
G04 #@! TF.FilePolarity,Positive*
%FSLAX46Y46*%
G04 Gerber Fmt 4.6, Leading zero omitted, Abs format (unit mm)*
G04 Created by KiCad (PCBNEW 5.1.10-88a1d61d58~90~ubuntu20.04.1) date 2021-11-23 17:05:44*
%MOMM*%
%LPD*%
G01*
G04 APERTURE LIST*
%ADD10C,0.120000*%
%ADD11C,0.100000*%
%ADD12R,1.700000X2.700000*%
G04 APERTURE END LIST*
D10*
X158000000Y-91900000D02*
X158400000Y-91500000D01*
X156900000Y-90700000D02*
X157000000Y-90600000D01*
X157000000Y-90800000D02*
X156900000Y-90700000D01*
X156800000Y-91000000D02*
X157000000Y-90800000D01*
X157200000Y-90400000D02*
X157000000Y-90600000D01*
X157300000Y-90500000D02*
X157200000Y-90400000D01*
X157500000Y-90300000D02*
X157300000Y-90500000D01*
X158800000Y-91600000D02*
X157500000Y-90300000D01*
X158600000Y-91800000D02*
X158800000Y-91600000D01*
X158100000Y-92300000D02*
X158600000Y-91800000D01*
X156800000Y-91000000D02*
X158100000Y-92300000D01*
X122529706Y-77889120D02*
G75*
G02*
X122200001Y-78200001I170294J-510880D01*
G01*
X122200000Y-77900000D02*
X122500000Y-78200000D01*
X124203500Y-78361145D02*
X122181175Y-76338820D01*
X122181175Y-76338820D02*
X123538820Y-74981175D01*
X123538820Y-74981175D02*
X125561145Y-77003500D01*
X155863604Y-90705959D02*
X157885929Y-92728284D01*
X154505959Y-92063604D02*
X155863604Y-90705959D01*
X156528284Y-94085929D02*
X154505959Y-92063604D01*
X131676955Y-73000000D02*
X128000000Y-69323045D01*
X128000000Y-69323045D02*
X124323045Y-73000000D01*
X124323045Y-73000000D02*
X128000000Y-76676955D01*
X128000000Y-76676955D02*
X131676955Y-73000000D01*
X135750000Y-89250000D02*
X144250000Y-89250000D01*
X144250000Y-89250000D02*
X144250000Y-80750000D01*
X135750000Y-80750000D02*
X144250000Y-80750000D01*
X135750000Y-89250000D02*
X135750000Y-80750000D01*
X146904345Y-78165419D02*
X146544111Y-77805185D01*
X146165419Y-78904345D02*
X145805185Y-78544111D01*
X149922500Y-85254724D02*
X149922500Y-84745276D01*
X148877500Y-85254724D02*
X148877500Y-84745276D01*
X146544111Y-92404345D02*
X146904345Y-92044111D01*
X145805185Y-91665419D02*
X146165419Y-91305185D01*
X139832776Y-94522500D02*
X140342224Y-94522500D01*
X139832776Y-93477500D02*
X140342224Y-93477500D01*
X132805185Y-91544111D02*
X133165419Y-91904345D01*
X133544111Y-90805185D02*
X133904345Y-91165419D01*
X130477500Y-84745276D02*
X130477500Y-85254724D01*
X131522500Y-84745276D02*
X131522500Y-85254724D01*
X133165419Y-78095655D02*
X132805185Y-78455889D01*
X133904345Y-78834581D02*
X133544111Y-79194815D01*
X140254724Y-75477500D02*
X139745276Y-75477500D01*
X140254724Y-76522500D02*
X139745276Y-76522500D01*
X148276984Y-78882116D02*
X145406130Y-76011263D01*
X145406130Y-76011263D02*
X147011263Y-74406130D01*
X147011263Y-74406130D02*
X149882116Y-77276984D01*
X150365000Y-86600000D02*
X150365000Y-82540000D01*
X150365000Y-82540000D02*
X152635000Y-82540000D01*
X152635000Y-82540000D02*
X152635000Y-86600000D01*
X146066063Y-93880626D02*
X148936916Y-91009772D01*
X148936916Y-91009772D02*
X150542049Y-92614905D01*
X150542049Y-92614905D02*
X147671195Y-95485758D01*
X138412500Y-95365000D02*
X142472500Y-95365000D01*
X142472500Y-95365000D02*
X142472500Y-97635000D01*
X142472500Y-97635000D02*
X138412500Y-97635000D01*
X131619374Y-91014242D02*
X134490228Y-93885095D01*
X134490228Y-93885095D02*
X132885095Y-95490228D01*
X132885095Y-95490228D02*
X130014242Y-92619374D01*
X129635000Y-83400000D02*
X129635000Y-87460000D01*
X129635000Y-87460000D02*
X127365000Y-87460000D01*
X127365000Y-87460000D02*
X127365000Y-83400000D01*
X133882116Y-76723016D02*
X131011263Y-79593870D01*
X131011263Y-79593870D02*
X129406130Y-77988737D01*
X129406130Y-77988737D02*
X132276984Y-75117884D01*
X141612500Y-74635000D02*
X137552500Y-74635000D01*
X137552500Y-74635000D02*
X137552500Y-72365000D01*
X137552500Y-72365000D02*
X141612500Y-72365000D01*
X155106245Y-94732233D02*
X149732233Y-100106245D01*
X147893755Y-98267767D02*
X149732233Y-100106245D01*
X153267767Y-92893755D02*
X147893755Y-98267767D01*
X153267767Y-92893755D02*
X155106245Y-94732233D01*
X155106245Y-94732233D02*
X156272971Y-95898959D01*
X156272971Y-95898959D02*
X150898959Y-101272971D01*
X149732233Y-100106245D02*
X150898959Y-101272971D01*
%LPC*%
G36*
G01*
X124175215Y-77611612D02*
X124811612Y-76975215D01*
G75*
G02*
X125165164Y-76975215I176776J-176776D01*
G01*
X125624785Y-77434836D01*
G75*
G02*
X125624785Y-77788388I-176776J-176776D01*
G01*
X124988388Y-78424785D01*
G75*
G02*
X124634836Y-78424785I-176776J176776D01*
G01*
X124175215Y-77965164D01*
G75*
G02*
X124175215Y-77611612I176776J176776D01*
G01*
G37*
G36*
G01*
X122725647Y-76162044D02*
X123362044Y-75525647D01*
G75*
G02*
X123715596Y-75525647I176776J-176776D01*
G01*
X124175217Y-75985268D01*
G75*
G02*
X124175217Y-76338820I-176776J-176776D01*
G01*
X123538820Y-76975217D01*
G75*
G02*
X123185268Y-76975217I-176776J176776D01*
G01*
X122725647Y-76515596D01*
G75*
G02*
X122725647Y-76162044I176776J176776D01*
G01*
G37*
G36*
G01*
X156499999Y-93336396D02*
X157136396Y-92699999D01*
G75*
G02*
X157489948Y-92699999I176776J-176776D01*
G01*
X157949569Y-93159620D01*
G75*
G02*
X157949569Y-93513172I-176776J-176776D01*
G01*
X157313172Y-94149569D01*
G75*
G02*
X156959620Y-94149569I-176776J176776D01*
G01*
X156499999Y-93689948D01*
G75*
G02*
X156499999Y-93336396I176776J176776D01*
G01*
G37*
G36*
G01*
X155050431Y-91886828D02*
X155686828Y-91250431D01*
G75*
G02*
X156040380Y-91250431I176776J-176776D01*
G01*
X156500001Y-91710052D01*
G75*
G02*
X156500001Y-92063604I-176776J-176776D01*
G01*
X155863604Y-92700001D01*
G75*
G02*
X155510052Y-92700001I-176776J176776D01*
G01*
X155050431Y-92240380D01*
G75*
G02*
X155050431Y-91886828I176776J176776D01*
G01*
G37*
D11*
G36*
X126797918Y-71090812D02*
G01*
X126090812Y-71797918D01*
X125666548Y-71373654D01*
X126373654Y-70666548D01*
X126797918Y-71090812D01*
G37*
G36*
X130333452Y-74626346D02*
G01*
X129626346Y-75333452D01*
X129202082Y-74909188D01*
X129909188Y-74202082D01*
X130333452Y-74626346D01*
G37*
G36*
X125525126Y-73636396D02*
G01*
X124252334Y-74909188D01*
X123474516Y-74131370D01*
X124747308Y-72858578D01*
X125525126Y-73636396D01*
G37*
G36*
X128141422Y-76252692D02*
G01*
X126868630Y-77525484D01*
X126090812Y-76747666D01*
X127363604Y-75474874D01*
X128141422Y-76252692D01*
G37*
G36*
X129909188Y-69252334D02*
G01*
X128636396Y-70525126D01*
X127858578Y-69747308D01*
X129131370Y-68474516D01*
X129909188Y-69252334D01*
G37*
G36*
X132525484Y-71868630D02*
G01*
X131252692Y-73141422D01*
X130474874Y-72363604D01*
X131747666Y-71090812D01*
X132525484Y-71868630D01*
G37*
D12*
X144050000Y-85000000D03*
X135950000Y-85000000D03*
G36*
G01*
X146222183Y-77886307D02*
X145886307Y-78222183D01*
G75*
G02*
X145550431Y-78222183I-167938J167938D01*
G01*
X145196877Y-77868629D01*
G75*
G02*
X145196877Y-77532753I167938J167938D01*
G01*
X145532753Y-77196877D01*
G75*
G02*
X145868629Y-77196877I167938J-167938D01*
G01*
X146222183Y-77550431D01*
G75*
G02*
X146222183Y-77886307I-167938J-167938D01*
G01*
G37*
G36*
G01*
X147512653Y-79176777D02*
X147176777Y-79512653D01*
G75*
G02*
X146840901Y-79512653I-167938J167938D01*
G01*
X146487347Y-79159099D01*
G75*
G02*
X146487347Y-78823223I167938J167938D01*
G01*
X146823223Y-78487347D01*
G75*
G02*
X147159099Y-78487347I167938J-167938D01*
G01*
X147512653Y-78840901D01*
G75*
G02*
X147512653Y-79176777I-167938J-167938D01*
G01*
G37*
G36*
G01*
X149637500Y-84575000D02*
X149162500Y-84575000D01*
G75*
G02*
X148925000Y-84337500I0J237500D01*
G01*
X148925000Y-83837500D01*
G75*
G02*
X149162500Y-83600000I237500J0D01*
G01*
X149637500Y-83600000D01*
G75*
G02*
X149875000Y-83837500I0J-237500D01*
G01*
X149875000Y-84337500D01*
G75*
G02*
X149637500Y-84575000I-237500J0D01*
G01*
G37*
G36*
G01*
X149637500Y-86400000D02*
X149162500Y-86400000D01*
G75*
G02*
X148925000Y-86162500I0J237500D01*
G01*
X148925000Y-85662500D01*
G75*
G02*
X149162500Y-85425000I237500J0D01*
G01*
X149637500Y-85425000D01*
G75*
G02*
X149875000Y-85662500I0J-237500D01*
G01*
X149875000Y-86162500D01*
G75*
G02*
X149637500Y-86400000I-237500J0D01*
G01*
G37*
G36*
G01*
X146823223Y-91722183D02*
X146487347Y-91386307D01*
G75*
G02*
X146487347Y-91050431I167938J167938D01*
G01*
X146840901Y-90696877D01*
G75*
G02*
X147176777Y-90696877I167938J-167938D01*
G01*
X147512653Y-91032753D01*
G75*
G02*
X147512653Y-91368629I-167938J-167938D01*
G01*
X147159099Y-91722183D01*
G75*
G02*
X146823223Y-91722183I-167938J167938D01*
G01*
G37*
G36*
G01*
X145532753Y-93012653D02*
X145196877Y-92676777D01*
G75*
G02*
X145196877Y-92340901I167938J167938D01*
G01*
X145550431Y-91987347D01*
G75*
G02*
X145886307Y-91987347I167938J-167938D01*
G01*
X146222183Y-92323223D01*
G75*
G02*
X146222183Y-92659099I-167938J-167938D01*
G01*
X145868629Y-93012653D01*
G75*
G02*
X145532753Y-93012653I-167938J167938D01*
G01*
G37*
G36*
G01*
X140512500Y-94237500D02*
X140512500Y-93762500D01*
G75*
G02*
X140750000Y-93525000I237500J0D01*
G01*
X141250000Y-93525000D01*
G75*
G02*
X141487500Y-93762500I0J-237500D01*
G01*
X141487500Y-94237500D01*
G75*
G02*
X141250000Y-94475000I-237500J0D01*
G01*
X140750000Y-94475000D01*
G75*
G02*
X140512500Y-94237500I0J237500D01*
G01*
G37*
G36*
G01*
X138687500Y-94237500D02*
X138687500Y-93762500D01*
G75*
G02*
X138925000Y-93525000I237500J0D01*
G01*
X139425000Y-93525000D01*
G75*
G02*
X139662500Y-93762500I0J-237500D01*
G01*
X139662500Y-94237500D01*
G75*
G02*
X139425000Y-94475000I-237500J0D01*
G01*
X138925000Y-94475000D01*
G75*
G02*
X138687500Y-94237500I0J237500D01*
G01*
G37*
G36*
G01*
X133487347Y-91823223D02*
X133823223Y-91487347D01*
G75*
G02*
X134159099Y-91487347I167938J-167938D01*
G01*
X134512653Y-91840901D01*
G75*
G02*
X134512653Y-92176777I-167938J-167938D01*
G01*
X134176777Y-92512653D01*
G75*
G02*
X133840901Y-92512653I-167938J167938D01*
G01*
X133487347Y-92159099D01*
G75*
G02*
X133487347Y-91823223I167938J167938D01*
G01*
G37*
G36*
G01*
X132196877Y-90532753D02*
X132532753Y-90196877D01*
G75*
G02*
X132868629Y-90196877I167938J-167938D01*
G01*
X133222183Y-90550431D01*
G75*
G02*
X133222183Y-90886307I-167938J-167938D01*
G01*
X132886307Y-91222183D01*
G75*
G02*
X132550431Y-91222183I-167938J167938D01*
G01*
X132196877Y-90868629D01*
G75*
G02*
X132196877Y-90532753I167938J167938D01*
G01*
G37*
G36*
G01*
X130762500Y-85425000D02*
X131237500Y-85425000D01*
G75*
G02*
X131475000Y-85662500I0J-237500D01*
G01*
X131475000Y-86162500D01*
G75*
G02*
X131237500Y-86400000I-237500J0D01*
G01*
X130762500Y-86400000D01*
G75*
G02*
X130525000Y-86162500I0J237500D01*
G01*
X130525000Y-85662500D01*
G75*
G02*
X130762500Y-85425000I237500J0D01*
G01*
G37*
G36*
G01*
X130762500Y-83600000D02*
X131237500Y-83600000D01*
G75*
G02*
X131475000Y-83837500I0J-237500D01*
G01*
X131475000Y-84337500D01*
G75*
G02*
X131237500Y-84575000I-237500J0D01*
G01*
X130762500Y-84575000D01*
G75*
G02*
X130525000Y-84337500I0J237500D01*
G01*
X130525000Y-83837500D01*
G75*
G02*
X130762500Y-83600000I237500J0D01*
G01*
G37*
G36*
G01*
X132886307Y-78777817D02*
X133222183Y-79113693D01*
G75*
G02*
X133222183Y-79449569I-167938J-167938D01*
G01*
X132868629Y-79803123D01*
G75*
G02*
X132532753Y-79803123I-167938J167938D01*
G01*
X132196877Y-79467247D01*
G75*
G02*
X132196877Y-79131371I167938J167938D01*
G01*
X132550431Y-78777817D01*
G75*
G02*
X132886307Y-78777817I167938J-167938D01*
G01*
G37*
G36*
G01*
X134176777Y-77487347D02*
X134512653Y-77823223D01*
G75*
G02*
X134512653Y-78159099I-167938J-167938D01*
G01*
X134159099Y-78512653D01*
G75*
G02*
X133823223Y-78512653I-167938J167938D01*
G01*
X133487347Y-78176777D01*
G75*
G02*
X133487347Y-77840901I167938J167938D01*
G01*
X133840901Y-77487347D01*
G75*
G02*
X134176777Y-77487347I167938J-167938D01*
G01*
G37*
G36*
G01*
X139575000Y-75762500D02*
X139575000Y-76237500D01*
G75*
G02*
X139337500Y-76475000I-237500J0D01*
G01*
X138837500Y-76475000D01*
G75*
G02*
X138600000Y-76237500I0J237500D01*
G01*
X138600000Y-75762500D01*
G75*
G02*
X138837500Y-75525000I237500J0D01*
G01*
X139337500Y-75525000D01*
G75*
G02*
X139575000Y-75762500I0J-237500D01*
G01*
G37*
G36*
G01*
X141400000Y-75762500D02*
X141400000Y-76237500D01*
G75*
G02*
X141162500Y-76475000I-237500J0D01*
G01*
X140662500Y-76475000D01*
G75*
G02*
X140425000Y-76237500I0J237500D01*
G01*
X140425000Y-75762500D01*
G75*
G02*
X140662500Y-75525000I237500J0D01*
G01*
X141162500Y-75525000D01*
G75*
G02*
X141400000Y-75762500I0J-237500D01*
G01*
G37*
G36*
G01*
X148054244Y-77938128D02*
X148938128Y-77054244D01*
G75*
G02*
X149291682Y-77054244I176777J-176777D01*
G01*
X149945756Y-77708318D01*
G75*
G02*
X149945756Y-78061872I-176777J-176777D01*
G01*
X149061872Y-78945756D01*
G75*
G02*
X148708318Y-78945756I-176777J176777D01*
G01*
X148054244Y-78291682D01*
G75*
G02*
X148054244Y-77938128I176777J176777D01*
G01*
G37*
G36*
G01*
X145950602Y-75834486D02*
X146834486Y-74950602D01*
G75*
G02*
X147188040Y-74950602I176777J-176777D01*
G01*
X147842114Y-75604676D01*
G75*
G02*
X147842114Y-75958230I-176777J-176777D01*
G01*
X146958230Y-76842114D01*
G75*
G02*
X146604676Y-76842114I-176777J176777D01*
G01*
X145950602Y-76188040D01*
G75*
G02*
X145950602Y-75834486I176777J176777D01*
G01*
G37*
G36*
G01*
X150875000Y-85775000D02*
X152125000Y-85775000D01*
G75*
G02*
X152375000Y-86025000I0J-250000D01*
G01*
X152375000Y-86950000D01*
G75*
G02*
X152125000Y-87200000I-250000J0D01*
G01*
X150875000Y-87200000D01*
G75*
G02*
X150625000Y-86950000I0J250000D01*
G01*
X150625000Y-86025000D01*
G75*
G02*
X150875000Y-85775000I250000J0D01*
G01*
G37*
G36*
G01*
X150875000Y-82800000D02*
X152125000Y-82800000D01*
G75*
G02*
X152375000Y-83050000I0J-250000D01*
G01*
X152375000Y-83975000D01*
G75*
G02*
X152125000Y-84225000I-250000J0D01*
G01*
X150875000Y-84225000D01*
G75*
G02*
X150625000Y-83975000I0J250000D01*
G01*
X150625000Y-83050000D01*
G75*
G02*
X150875000Y-82800000I250000J0D01*
G01*
G37*
G36*
G01*
X147010051Y-93657886D02*
X147893935Y-94541770D01*
G75*
G02*
X147893935Y-94895324I-176777J-176777D01*
G01*
X147239861Y-95549398D01*
G75*
G02*
X146886307Y-95549398I-176777J176777D01*
G01*
X146002423Y-94665514D01*
G75*
G02*
X146002423Y-94311960I176777J176777D01*
G01*
X146656497Y-93657886D01*
G75*
G02*
X147010051Y-93657886I176777J-176777D01*
G01*
G37*
G36*
G01*
X149113693Y-91554244D02*
X149997577Y-92438128D01*
G75*
G02*
X149997577Y-92791682I-176777J-176777D01*
G01*
X149343503Y-93445756D01*
G75*
G02*
X148989949Y-93445756I-176777J176777D01*
G01*
X148106065Y-92561872D01*
G75*
G02*
X148106065Y-92208318I176777J176777D01*
G01*
X148760139Y-91554244D01*
G75*
G02*
X149113693Y-91554244I176777J-176777D01*
G01*
G37*
G36*
G01*
X139237500Y-95875000D02*
X139237500Y-97125000D01*
G75*
G02*
X138987500Y-97375000I-250000J0D01*
G01*
X138062500Y-97375000D01*
G75*
G02*
X137812500Y-97125000I0J250000D01*
G01*
X137812500Y-95875000D01*
G75*
G02*
X138062500Y-95625000I250000J0D01*
G01*
X138987500Y-95625000D01*
G75*
G02*
X139237500Y-95875000I0J-250000D01*
G01*
G37*
G36*
G01*
X142212500Y-95875000D02*
X142212500Y-97125000D01*
G75*
G02*
X141962500Y-97375000I-250000J0D01*
G01*
X141037500Y-97375000D01*
G75*
G02*
X140787500Y-97125000I0J250000D01*
G01*
X140787500Y-95875000D01*
G75*
G02*
X141037500Y-95625000I250000J0D01*
G01*
X141962500Y-95625000D01*
G75*
G02*
X142212500Y-95875000I0J-250000D01*
G01*
G37*
G36*
G01*
X131842114Y-91958230D02*
X130958230Y-92842114D01*
G75*
G02*
X130604676Y-92842114I-176777J176777D01*
G01*
X129950602Y-92188040D01*
G75*
G02*
X129950602Y-91834486I176777J176777D01*
G01*
X130834486Y-90950602D01*
G75*
G02*
X131188040Y-90950602I176777J-176777D01*
G01*
X131842114Y-91604676D01*
G75*
G02*
X131842114Y-91958230I-176777J-176777D01*
G01*
G37*
G36*
G01*
X133945756Y-94061872D02*
X133061872Y-94945756D01*
G75*
G02*
X132708318Y-94945756I-176777J176777D01*
G01*
X132054244Y-94291682D01*
G75*
G02*
X132054244Y-93938128I176777J176777D01*
G01*
X132938128Y-93054244D01*
G75*
G02*
X133291682Y-93054244I176777J-176777D01*
G01*
X133945756Y-93708318D01*
G75*
G02*
X133945756Y-94061872I-176777J-176777D01*
G01*
G37*
G36*
G01*
X129125000Y-84225000D02*
X127875000Y-84225000D01*
G75*
G02*
X127625000Y-83975000I0J250000D01*
G01*
X127625000Y-83050000D01*
G75*
G02*
X127875000Y-82800000I250000J0D01*
G01*
X129125000Y-82800000D01*
G75*
G02*
X129375000Y-83050000I0J-250000D01*
G01*
X129375000Y-83975000D01*
G75*
G02*
X129125000Y-84225000I-250000J0D01*
G01*
G37*
G36*
G01*
X129125000Y-87200000D02*
X127875000Y-87200000D01*
G75*
G02*
X127625000Y-86950000I0J250000D01*
G01*
X127625000Y-86025000D01*
G75*
G02*
X127875000Y-85775000I250000J0D01*
G01*
X129125000Y-85775000D01*
G75*
G02*
X129375000Y-86025000I0J-250000D01*
G01*
X129375000Y-86950000D01*
G75*
G02*
X129125000Y-87200000I-250000J0D01*
G01*
G37*
G36*
G01*
X132938128Y-76945756D02*
X132054244Y-76061872D01*
G75*
G02*
X132054244Y-75708318I176777J176777D01*
G01*
X132708318Y-75054244D01*
G75*
G02*
X133061872Y-75054244I176777J-176777D01*
G01*
X133945756Y-75938128D01*
G75*
G02*
X133945756Y-76291682I-176777J-176777D01*
G01*
X133291682Y-76945756D01*
G75*
G02*
X132938128Y-76945756I-176777J176777D01*
G01*
G37*
G36*
G01*
X130834486Y-79049398D02*
X129950602Y-78165514D01*
G75*
G02*
X129950602Y-77811960I176777J176777D01*
G01*
X130604676Y-77157886D01*
G75*
G02*
X130958230Y-77157886I176777J-176777D01*
G01*
X131842114Y-78041770D01*
G75*
G02*
X131842114Y-78395324I-176777J-176777D01*
G01*
X131188040Y-79049398D01*
G75*
G02*
X130834486Y-79049398I-176777J176777D01*
G01*
G37*
G36*
G01*
X140787500Y-74125000D02*
X140787500Y-72875000D01*
G75*
G02*
X141037500Y-72625000I250000J0D01*
G01*
X141962500Y-72625000D01*
G75*
G02*
X142212500Y-72875000I0J-250000D01*
G01*
X142212500Y-74125000D01*
G75*
G02*
X141962500Y-74375000I-250000J0D01*
G01*
X141037500Y-74375000D01*
G75*
G02*
X140787500Y-74125000I0J250000D01*
G01*
G37*
G36*
G01*
X137812500Y-74125000D02*
X137812500Y-72875000D01*
G75*
G02*
X138062500Y-72625000I250000J0D01*
G01*
X138987500Y-72625000D01*
G75*
G02*
X139237500Y-72875000I0J-250000D01*
G01*
X139237500Y-74125000D01*
G75*
G02*
X138987500Y-74375000I-250000J0D01*
G01*
X138062500Y-74375000D01*
G75*
G02*
X137812500Y-74125000I0J250000D01*
G01*
G37*
D11*
G36*
X148671573Y-98692031D02*
G01*
X149307969Y-99328427D01*
X148459441Y-100176955D01*
X147823045Y-99540559D01*
X148671573Y-98692031D01*
G37*
G36*
X154540559Y-92823045D02*
G01*
X155176955Y-93459441D01*
X154328427Y-94307969D01*
X153692031Y-93671573D01*
X154540559Y-92823045D01*
G37*
G36*
X149095837Y-95934315D02*
G01*
X149873654Y-96712132D01*
X149307969Y-97277817D01*
X148530152Y-96500000D01*
X149095837Y-95934315D01*
G37*
G36*
X150439339Y-94590811D02*
G01*
X151217157Y-95368629D01*
X150368629Y-96217157D01*
X149590811Y-95439339D01*
X150439339Y-94590811D01*
G37*
G36*
X151500000Y-93530152D02*
G01*
X152277817Y-94307969D01*
X151712132Y-94873654D01*
X150934315Y-94095837D01*
X151500000Y-93530152D01*
G37*
M02*
