G04 #@! TF.GenerationSoftware,KiCad,Pcbnew,5.1.10-88a1d61d58~90~ubuntu20.04.1*
G04 #@! TF.CreationDate,2021-11-23T17:05:44+00:00*
G04 #@! TF.ProjectId,LiPo-power,4c69506f-2d70-46f7-9765-722e6b696361,rev?*
G04 #@! TF.SameCoordinates,Original*
G04 #@! TF.FileFunction,Copper,L1,Top*
G04 #@! TF.FilePolarity,Positive*
%FSLAX46Y46*%
G04 Gerber Fmt 4.6, Leading zero omitted, Abs format (unit mm)*
G04 Created by KiCad (PCBNEW 5.1.10-88a1d61d58~90~ubuntu20.04.1) date 2021-11-23 17:05:44*
%MOMM*%
%LPD*%
G01*
G04 APERTURE LIST*
G04 #@! TA.AperFunction,SMDPad,CuDef*
%ADD10R,1.560000X0.650000*%
G04 #@! TD*
G04 #@! TA.AperFunction,SMDPad,CuDef*
%ADD11R,0.700000X0.510000*%
G04 #@! TD*
G04 #@! TA.AperFunction,ViaPad*
%ADD12C,0.800000*%
G04 #@! TD*
G04 #@! TA.AperFunction,Conductor*
%ADD13C,0.250000*%
G04 #@! TD*
G04 #@! TA.AperFunction,Conductor*
%ADD14C,0.500000*%
G04 #@! TD*
G04 #@! TA.AperFunction,Conductor*
%ADD15C,0.254000*%
G04 #@! TD*
G04 #@! TA.AperFunction,Conductor*
%ADD16C,0.100000*%
G04 #@! TD*
G04 APERTURE END LIST*
G04 #@! TA.AperFunction,SMDPad,CuDef*
G36*
G01*
X123037500Y-72287500D02*
X122562500Y-72287500D01*
G75*
G02*
X122325000Y-72050000I0J237500D01*
G01*
X122325000Y-71550000D01*
G75*
G02*
X122562500Y-71312500I237500J0D01*
G01*
X123037500Y-71312500D01*
G75*
G02*
X123275000Y-71550000I0J-237500D01*
G01*
X123275000Y-72050000D01*
G75*
G02*
X123037500Y-72287500I-237500J0D01*
G01*
G37*
G04 #@! TD.AperFunction*
G04 #@! TA.AperFunction,SMDPad,CuDef*
G36*
G01*
X123037500Y-74112500D02*
X122562500Y-74112500D01*
G75*
G02*
X122325000Y-73875000I0J237500D01*
G01*
X122325000Y-73375000D01*
G75*
G02*
X122562500Y-73137500I237500J0D01*
G01*
X123037500Y-73137500D01*
G75*
G02*
X123275000Y-73375000I0J-237500D01*
G01*
X123275000Y-73875000D01*
G75*
G02*
X123037500Y-74112500I-237500J0D01*
G01*
G37*
G04 #@! TD.AperFunction*
G04 #@! TA.AperFunction,SMDPad,CuDef*
G36*
G01*
X146237500Y-85162500D02*
X145762500Y-85162500D01*
G75*
G02*
X145525000Y-84925000I0J237500D01*
G01*
X145525000Y-84425000D01*
G75*
G02*
X145762500Y-84187500I237500J0D01*
G01*
X146237500Y-84187500D01*
G75*
G02*
X146475000Y-84425000I0J-237500D01*
G01*
X146475000Y-84925000D01*
G75*
G02*
X146237500Y-85162500I-237500J0D01*
G01*
G37*
G04 #@! TD.AperFunction*
G04 #@! TA.AperFunction,SMDPad,CuDef*
G36*
G01*
X146237500Y-86987500D02*
X145762500Y-86987500D01*
G75*
G02*
X145525000Y-86750000I0J237500D01*
G01*
X145525000Y-86250000D01*
G75*
G02*
X145762500Y-86012500I237500J0D01*
G01*
X146237500Y-86012500D01*
G75*
G02*
X146475000Y-86250000I0J-237500D01*
G01*
X146475000Y-86750000D01*
G75*
G02*
X146237500Y-86987500I-237500J0D01*
G01*
G37*
G04 #@! TD.AperFunction*
D10*
X129200000Y-94700000D03*
X129200000Y-93750000D03*
X129200000Y-95650000D03*
X126500000Y-95650000D03*
X126500000Y-94700000D03*
X126500000Y-93750000D03*
G04 #@! TA.AperFunction,SMDPad,CuDef*
G36*
G01*
X130662500Y-97762500D02*
X130662500Y-98237500D01*
G75*
G02*
X130425000Y-98475000I-237500J0D01*
G01*
X129925000Y-98475000D01*
G75*
G02*
X129687500Y-98237500I0J237500D01*
G01*
X129687500Y-97762500D01*
G75*
G02*
X129925000Y-97525000I237500J0D01*
G01*
X130425000Y-97525000D01*
G75*
G02*
X130662500Y-97762500I0J-237500D01*
G01*
G37*
G04 #@! TD.AperFunction*
G04 #@! TA.AperFunction,SMDPad,CuDef*
G36*
G01*
X132487500Y-97762500D02*
X132487500Y-98237500D01*
G75*
G02*
X132250000Y-98475000I-237500J0D01*
G01*
X131750000Y-98475000D01*
G75*
G02*
X131512500Y-98237500I0J237500D01*
G01*
X131512500Y-97762500D01*
G75*
G02*
X131750000Y-97525000I237500J0D01*
G01*
X132250000Y-97525000D01*
G75*
G02*
X132487500Y-97762500I0J-237500D01*
G01*
G37*
G04 #@! TD.AperFunction*
G04 #@! TA.AperFunction,SMDPad,CuDef*
G36*
G01*
X126737500Y-97762500D02*
X126737500Y-98237500D01*
G75*
G02*
X126500000Y-98475000I-237500J0D01*
G01*
X126000000Y-98475000D01*
G75*
G02*
X125762500Y-98237500I0J237500D01*
G01*
X125762500Y-97762500D01*
G75*
G02*
X126000000Y-97525000I237500J0D01*
G01*
X126500000Y-97525000D01*
G75*
G02*
X126737500Y-97762500I0J-237500D01*
G01*
G37*
G04 #@! TD.AperFunction*
G04 #@! TA.AperFunction,SMDPad,CuDef*
G36*
G01*
X128562500Y-97762500D02*
X128562500Y-98237500D01*
G75*
G02*
X128325000Y-98475000I-237500J0D01*
G01*
X127825000Y-98475000D01*
G75*
G02*
X127587500Y-98237500I0J237500D01*
G01*
X127587500Y-97762500D01*
G75*
G02*
X127825000Y-97525000I237500J0D01*
G01*
X128325000Y-97525000D01*
G75*
G02*
X128562500Y-97762500I0J-237500D01*
G01*
G37*
G04 #@! TD.AperFunction*
D11*
X134500000Y-93800000D03*
X134500000Y-94750000D03*
X134500000Y-95700000D03*
X132180000Y-95700000D03*
X132180000Y-94750000D03*
X132180000Y-93800000D03*
G04 #@! TA.AperFunction,SMDPad,CuDef*
G36*
G01*
X129262500Y-84487500D02*
X129262500Y-84012500D01*
G75*
G02*
X129500000Y-83775000I237500J0D01*
G01*
X130000000Y-83775000D01*
G75*
G02*
X130237500Y-84012500I0J-237500D01*
G01*
X130237500Y-84487500D01*
G75*
G02*
X130000000Y-84725000I-237500J0D01*
G01*
X129500000Y-84725000D01*
G75*
G02*
X129262500Y-84487500I0J237500D01*
G01*
G37*
G04 #@! TD.AperFunction*
G04 #@! TA.AperFunction,SMDPad,CuDef*
G36*
G01*
X127437500Y-84487500D02*
X127437500Y-84012500D01*
G75*
G02*
X127675000Y-83775000I237500J0D01*
G01*
X128175000Y-83775000D01*
G75*
G02*
X128412500Y-84012500I0J-237500D01*
G01*
X128412500Y-84487500D01*
G75*
G02*
X128175000Y-84725000I-237500J0D01*
G01*
X127675000Y-84725000D01*
G75*
G02*
X127437500Y-84487500I0J237500D01*
G01*
G37*
G04 #@! TD.AperFunction*
G04 #@! TA.AperFunction,SMDPad,CuDef*
G36*
G01*
X140825000Y-88512500D02*
X140825000Y-88987500D01*
G75*
G02*
X140587500Y-89225000I-237500J0D01*
G01*
X140087500Y-89225000D01*
G75*
G02*
X139850000Y-88987500I0J237500D01*
G01*
X139850000Y-88512500D01*
G75*
G02*
X140087500Y-88275000I237500J0D01*
G01*
X140587500Y-88275000D01*
G75*
G02*
X140825000Y-88512500I0J-237500D01*
G01*
G37*
G04 #@! TD.AperFunction*
G04 #@! TA.AperFunction,SMDPad,CuDef*
G36*
G01*
X142650000Y-88512500D02*
X142650000Y-88987500D01*
G75*
G02*
X142412500Y-89225000I-237500J0D01*
G01*
X141912500Y-89225000D01*
G75*
G02*
X141675000Y-88987500I0J237500D01*
G01*
X141675000Y-88512500D01*
G75*
G02*
X141912500Y-88275000I237500J0D01*
G01*
X142412500Y-88275000D01*
G75*
G02*
X142650000Y-88512500I0J-237500D01*
G01*
G37*
G04 #@! TD.AperFunction*
G04 #@! TA.AperFunction,SMDPad,CuDef*
G36*
G01*
X144825000Y-88512500D02*
X144825000Y-88987500D01*
G75*
G02*
X144587500Y-89225000I-237500J0D01*
G01*
X144087500Y-89225000D01*
G75*
G02*
X143850000Y-88987500I0J237500D01*
G01*
X143850000Y-88512500D01*
G75*
G02*
X144087500Y-88275000I237500J0D01*
G01*
X144587500Y-88275000D01*
G75*
G02*
X144825000Y-88512500I0J-237500D01*
G01*
G37*
G04 #@! TD.AperFunction*
G04 #@! TA.AperFunction,SMDPad,CuDef*
G36*
G01*
X146650000Y-88512500D02*
X146650000Y-88987500D01*
G75*
G02*
X146412500Y-89225000I-237500J0D01*
G01*
X145912500Y-89225000D01*
G75*
G02*
X145675000Y-88987500I0J237500D01*
G01*
X145675000Y-88512500D01*
G75*
G02*
X145912500Y-88275000I237500J0D01*
G01*
X146412500Y-88275000D01*
G75*
G02*
X146650000Y-88512500I0J-237500D01*
G01*
G37*
G04 #@! TD.AperFunction*
G04 #@! TA.AperFunction,SMDPad,CuDef*
G36*
G01*
X154012500Y-86087500D02*
X154487500Y-86087500D01*
G75*
G02*
X154725000Y-86325000I0J-237500D01*
G01*
X154725000Y-86825000D01*
G75*
G02*
X154487500Y-87062500I-237500J0D01*
G01*
X154012500Y-87062500D01*
G75*
G02*
X153775000Y-86825000I0J237500D01*
G01*
X153775000Y-86325000D01*
G75*
G02*
X154012500Y-86087500I237500J0D01*
G01*
G37*
G04 #@! TD.AperFunction*
G04 #@! TA.AperFunction,SMDPad,CuDef*
G36*
G01*
X154012500Y-84262500D02*
X154487500Y-84262500D01*
G75*
G02*
X154725000Y-84500000I0J-237500D01*
G01*
X154725000Y-85000000D01*
G75*
G02*
X154487500Y-85237500I-237500J0D01*
G01*
X154012500Y-85237500D01*
G75*
G02*
X153775000Y-85000000I0J237500D01*
G01*
X153775000Y-84500000D01*
G75*
G02*
X154012500Y-84262500I237500J0D01*
G01*
G37*
G04 #@! TD.AperFunction*
G04 #@! TA.AperFunction,SMDPad,CuDef*
G36*
G01*
X148512500Y-89925000D02*
X148987500Y-89925000D01*
G75*
G02*
X149225000Y-90162500I0J-237500D01*
G01*
X149225000Y-90662500D01*
G75*
G02*
X148987500Y-90900000I-237500J0D01*
G01*
X148512500Y-90900000D01*
G75*
G02*
X148275000Y-90662500I0J237500D01*
G01*
X148275000Y-90162500D01*
G75*
G02*
X148512500Y-89925000I237500J0D01*
G01*
G37*
G04 #@! TD.AperFunction*
G04 #@! TA.AperFunction,SMDPad,CuDef*
G36*
G01*
X148512500Y-88100000D02*
X148987500Y-88100000D01*
G75*
G02*
X149225000Y-88337500I0J-237500D01*
G01*
X149225000Y-88837500D01*
G75*
G02*
X148987500Y-89075000I-237500J0D01*
G01*
X148512500Y-89075000D01*
G75*
G02*
X148275000Y-88837500I0J237500D01*
G01*
X148275000Y-88337500D01*
G75*
G02*
X148512500Y-88100000I237500J0D01*
G01*
G37*
G04 #@! TD.AperFunction*
G04 #@! TA.AperFunction,SMDPad,CuDef*
G36*
G01*
X128012500Y-87575000D02*
X128487500Y-87575000D01*
G75*
G02*
X128725000Y-87812500I0J-237500D01*
G01*
X128725000Y-88412500D01*
G75*
G02*
X128487500Y-88650000I-237500J0D01*
G01*
X128012500Y-88650000D01*
G75*
G02*
X127775000Y-88412500I0J237500D01*
G01*
X127775000Y-87812500D01*
G75*
G02*
X128012500Y-87575000I237500J0D01*
G01*
G37*
G04 #@! TD.AperFunction*
G04 #@! TA.AperFunction,SMDPad,CuDef*
G36*
G01*
X128012500Y-85850000D02*
X128487500Y-85850000D01*
G75*
G02*
X128725000Y-86087500I0J-237500D01*
G01*
X128725000Y-86687500D01*
G75*
G02*
X128487500Y-86925000I-237500J0D01*
G01*
X128012500Y-86925000D01*
G75*
G02*
X127775000Y-86687500I0J237500D01*
G01*
X127775000Y-86087500D01*
G75*
G02*
X128012500Y-85850000I237500J0D01*
G01*
G37*
G04 #@! TD.AperFunction*
G04 #@! TA.AperFunction,SMDPad,CuDef*
G36*
G01*
X145712500Y-83237500D02*
X145712500Y-82762500D01*
G75*
G02*
X145950000Y-82525000I237500J0D01*
G01*
X146550000Y-82525000D01*
G75*
G02*
X146787500Y-82762500I0J-237500D01*
G01*
X146787500Y-83237500D01*
G75*
G02*
X146550000Y-83475000I-237500J0D01*
G01*
X145950000Y-83475000D01*
G75*
G02*
X145712500Y-83237500I0J237500D01*
G01*
G37*
G04 #@! TD.AperFunction*
G04 #@! TA.AperFunction,SMDPad,CuDef*
G36*
G01*
X143987500Y-83237500D02*
X143987500Y-82762500D01*
G75*
G02*
X144225000Y-82525000I237500J0D01*
G01*
X144825000Y-82525000D01*
G75*
G02*
X145062500Y-82762500I0J-237500D01*
G01*
X145062500Y-83237500D01*
G75*
G02*
X144825000Y-83475000I-237500J0D01*
G01*
X144225000Y-83475000D01*
G75*
G02*
X143987500Y-83237500I0J237500D01*
G01*
G37*
G04 #@! TD.AperFunction*
G04 #@! TA.AperFunction,SMDPad,CuDef*
G36*
G01*
X141950000Y-81250100D02*
X141950000Y-78749900D01*
G75*
G02*
X142199900Y-78500000I249900J0D01*
G01*
X143800100Y-78500000D01*
G75*
G02*
X144050000Y-78749900I0J-249900D01*
G01*
X144050000Y-81250100D01*
G75*
G02*
X143800100Y-81500000I-249900J0D01*
G01*
X142199900Y-81500000D01*
G75*
G02*
X141950000Y-81250100I0J249900D01*
G01*
G37*
G04 #@! TD.AperFunction*
G04 #@! TA.AperFunction,SMDPad,CuDef*
G36*
G01*
X135600000Y-81250100D02*
X135600000Y-78749900D01*
G75*
G02*
X135849900Y-78500000I249900J0D01*
G01*
X137450100Y-78500000D01*
G75*
G02*
X137700000Y-78749900I0J-249900D01*
G01*
X137700000Y-81250100D01*
G75*
G02*
X137450100Y-81500000I-249900J0D01*
G01*
X135849900Y-81500000D01*
G75*
G02*
X135600000Y-81250100I0J249900D01*
G01*
G37*
G04 #@! TD.AperFunction*
G04 #@! TA.AperFunction,SMDPad,CuDef*
G36*
G01*
X140050000Y-77700000D02*
X140050000Y-76800000D01*
G75*
G02*
X140250000Y-76600000I200000J0D01*
G01*
X140650000Y-76600000D01*
G75*
G02*
X140850000Y-76800000I0J-200000D01*
G01*
X140850000Y-77700000D01*
G75*
G02*
X140650000Y-77900000I-200000J0D01*
G01*
X140250000Y-77900000D01*
G75*
G02*
X140050000Y-77700000I0J200000D01*
G01*
G37*
G04 #@! TD.AperFunction*
G04 #@! TA.AperFunction,SMDPad,CuDef*
G36*
G01*
X138800000Y-77700000D02*
X138800000Y-76800000D01*
G75*
G02*
X139000000Y-76600000I200000J0D01*
G01*
X139400000Y-76600000D01*
G75*
G02*
X139600000Y-76800000I0J-200000D01*
G01*
X139600000Y-77700000D01*
G75*
G02*
X139400000Y-77900000I-200000J0D01*
G01*
X139000000Y-77900000D01*
G75*
G02*
X138800000Y-77700000I0J200000D01*
G01*
G37*
G04 #@! TD.AperFunction*
G04 #@! TA.AperFunction,SMDPad,CuDef*
G36*
G01*
X132050000Y-81250100D02*
X132050000Y-78749900D01*
G75*
G02*
X132299900Y-78500000I249900J0D01*
G01*
X133900100Y-78500000D01*
G75*
G02*
X134150000Y-78749900I0J-249900D01*
G01*
X134150000Y-81250100D01*
G75*
G02*
X133900100Y-81500000I-249900J0D01*
G01*
X132299900Y-81500000D01*
G75*
G02*
X132050000Y-81250100I0J249900D01*
G01*
G37*
G04 #@! TD.AperFunction*
G04 #@! TA.AperFunction,SMDPad,CuDef*
G36*
G01*
X125700000Y-81250100D02*
X125700000Y-78749900D01*
G75*
G02*
X125949900Y-78500000I249900J0D01*
G01*
X127550100Y-78500000D01*
G75*
G02*
X127800000Y-78749900I0J-249900D01*
G01*
X127800000Y-81250100D01*
G75*
G02*
X127550100Y-81500000I-249900J0D01*
G01*
X125949900Y-81500000D01*
G75*
G02*
X125700000Y-81250100I0J249900D01*
G01*
G37*
G04 #@! TD.AperFunction*
G04 #@! TA.AperFunction,SMDPad,CuDef*
G36*
G01*
X130150000Y-77700000D02*
X130150000Y-76800000D01*
G75*
G02*
X130350000Y-76600000I200000J0D01*
G01*
X130750000Y-76600000D01*
G75*
G02*
X130950000Y-76800000I0J-200000D01*
G01*
X130950000Y-77700000D01*
G75*
G02*
X130750000Y-77900000I-200000J0D01*
G01*
X130350000Y-77900000D01*
G75*
G02*
X130150000Y-77700000I0J200000D01*
G01*
G37*
G04 #@! TD.AperFunction*
G04 #@! TA.AperFunction,SMDPad,CuDef*
G36*
G01*
X128900000Y-77700000D02*
X128900000Y-76800000D01*
G75*
G02*
X129100000Y-76600000I200000J0D01*
G01*
X129500000Y-76600000D01*
G75*
G02*
X129700000Y-76800000I0J-200000D01*
G01*
X129700000Y-77700000D01*
G75*
G02*
X129500000Y-77900000I-200000J0D01*
G01*
X129100000Y-77900000D01*
G75*
G02*
X128900000Y-77700000I0J200000D01*
G01*
G37*
G04 #@! TD.AperFunction*
G04 #@! TA.AperFunction,SMDPad,CuDef*
G36*
G01*
X151800000Y-75250100D02*
X151800000Y-72749900D01*
G75*
G02*
X152049900Y-72500000I249900J0D01*
G01*
X153650100Y-72500000D01*
G75*
G02*
X153900000Y-72749900I0J-249900D01*
G01*
X153900000Y-75250100D01*
G75*
G02*
X153650100Y-75500000I-249900J0D01*
G01*
X152049900Y-75500000D01*
G75*
G02*
X151800000Y-75250100I0J249900D01*
G01*
G37*
G04 #@! TD.AperFunction*
G04 #@! TA.AperFunction,SMDPad,CuDef*
G36*
G01*
X145450000Y-75250100D02*
X145450000Y-72749900D01*
G75*
G02*
X145699900Y-72500000I249900J0D01*
G01*
X147300100Y-72500000D01*
G75*
G02*
X147550000Y-72749900I0J-249900D01*
G01*
X147550000Y-75250100D01*
G75*
G02*
X147300100Y-75500000I-249900J0D01*
G01*
X145699900Y-75500000D01*
G75*
G02*
X145450000Y-75250100I0J249900D01*
G01*
G37*
G04 #@! TD.AperFunction*
G04 #@! TA.AperFunction,SMDPad,CuDef*
G36*
G01*
X149900000Y-71700000D02*
X149900000Y-70800000D01*
G75*
G02*
X150100000Y-70600000I200000J0D01*
G01*
X150500000Y-70600000D01*
G75*
G02*
X150700000Y-70800000I0J-200000D01*
G01*
X150700000Y-71700000D01*
G75*
G02*
X150500000Y-71900000I-200000J0D01*
G01*
X150100000Y-71900000D01*
G75*
G02*
X149900000Y-71700000I0J200000D01*
G01*
G37*
G04 #@! TD.AperFunction*
G04 #@! TA.AperFunction,SMDPad,CuDef*
G36*
G01*
X148650000Y-71700000D02*
X148650000Y-70800000D01*
G75*
G02*
X148850000Y-70600000I200000J0D01*
G01*
X149250000Y-70600000D01*
G75*
G02*
X149450000Y-70800000I0J-200000D01*
G01*
X149450000Y-71700000D01*
G75*
G02*
X149250000Y-71900000I-200000J0D01*
G01*
X148850000Y-71900000D01*
G75*
G02*
X148650000Y-71700000I0J200000D01*
G01*
G37*
G04 #@! TD.AperFunction*
G04 #@! TA.AperFunction,SMDPad,CuDef*
G36*
G01*
X142125000Y-75250100D02*
X142125000Y-72749900D01*
G75*
G02*
X142374900Y-72500000I249900J0D01*
G01*
X143975100Y-72500000D01*
G75*
G02*
X144225000Y-72749900I0J-249900D01*
G01*
X144225000Y-75250100D01*
G75*
G02*
X143975100Y-75500000I-249900J0D01*
G01*
X142374900Y-75500000D01*
G75*
G02*
X142125000Y-75250100I0J249900D01*
G01*
G37*
G04 #@! TD.AperFunction*
G04 #@! TA.AperFunction,SMDPad,CuDef*
G36*
G01*
X135775000Y-75250100D02*
X135775000Y-72749900D01*
G75*
G02*
X136024900Y-72500000I249900J0D01*
G01*
X137625100Y-72500000D01*
G75*
G02*
X137875000Y-72749900I0J-249900D01*
G01*
X137875000Y-75250100D01*
G75*
G02*
X137625100Y-75500000I-249900J0D01*
G01*
X136024900Y-75500000D01*
G75*
G02*
X135775000Y-75250100I0J249900D01*
G01*
G37*
G04 #@! TD.AperFunction*
G04 #@! TA.AperFunction,SMDPad,CuDef*
G36*
G01*
X140225000Y-71700000D02*
X140225000Y-70800000D01*
G75*
G02*
X140425000Y-70600000I200000J0D01*
G01*
X140825000Y-70600000D01*
G75*
G02*
X141025000Y-70800000I0J-200000D01*
G01*
X141025000Y-71700000D01*
G75*
G02*
X140825000Y-71900000I-200000J0D01*
G01*
X140425000Y-71900000D01*
G75*
G02*
X140225000Y-71700000I0J200000D01*
G01*
G37*
G04 #@! TD.AperFunction*
G04 #@! TA.AperFunction,SMDPad,CuDef*
G36*
G01*
X138975000Y-71700000D02*
X138975000Y-70800000D01*
G75*
G02*
X139175000Y-70600000I200000J0D01*
G01*
X139575000Y-70600000D01*
G75*
G02*
X139775000Y-70800000I0J-200000D01*
G01*
X139775000Y-71700000D01*
G75*
G02*
X139575000Y-71900000I-200000J0D01*
G01*
X139175000Y-71900000D01*
G75*
G02*
X138975000Y-71700000I0J200000D01*
G01*
G37*
G04 #@! TD.AperFunction*
G04 #@! TA.AperFunction,SMDPad,CuDef*
G36*
G01*
X132125000Y-75250100D02*
X132125000Y-72749900D01*
G75*
G02*
X132374900Y-72500000I249900J0D01*
G01*
X133975100Y-72500000D01*
G75*
G02*
X134225000Y-72749900I0J-249900D01*
G01*
X134225000Y-75250100D01*
G75*
G02*
X133975100Y-75500000I-249900J0D01*
G01*
X132374900Y-75500000D01*
G75*
G02*
X132125000Y-75250100I0J249900D01*
G01*
G37*
G04 #@! TD.AperFunction*
G04 #@! TA.AperFunction,SMDPad,CuDef*
G36*
G01*
X125775000Y-75250100D02*
X125775000Y-72749900D01*
G75*
G02*
X126024900Y-72500000I249900J0D01*
G01*
X127625100Y-72500000D01*
G75*
G02*
X127875000Y-72749900I0J-249900D01*
G01*
X127875000Y-75250100D01*
G75*
G02*
X127625100Y-75500000I-249900J0D01*
G01*
X126024900Y-75500000D01*
G75*
G02*
X125775000Y-75250100I0J249900D01*
G01*
G37*
G04 #@! TD.AperFunction*
G04 #@! TA.AperFunction,SMDPad,CuDef*
G36*
G01*
X130225000Y-71700000D02*
X130225000Y-70800000D01*
G75*
G02*
X130425000Y-70600000I200000J0D01*
G01*
X130825000Y-70600000D01*
G75*
G02*
X131025000Y-70800000I0J-200000D01*
G01*
X131025000Y-71700000D01*
G75*
G02*
X130825000Y-71900000I-200000J0D01*
G01*
X130425000Y-71900000D01*
G75*
G02*
X130225000Y-71700000I0J200000D01*
G01*
G37*
G04 #@! TD.AperFunction*
G04 #@! TA.AperFunction,SMDPad,CuDef*
G36*
G01*
X128975000Y-71700000D02*
X128975000Y-70800000D01*
G75*
G02*
X129175000Y-70600000I200000J0D01*
G01*
X129575000Y-70600000D01*
G75*
G02*
X129775000Y-70800000I0J-200000D01*
G01*
X129775000Y-71700000D01*
G75*
G02*
X129575000Y-71900000I-200000J0D01*
G01*
X129175000Y-71900000D01*
G75*
G02*
X128975000Y-71700000I0J200000D01*
G01*
G37*
G04 #@! TD.AperFunction*
G04 #@! TA.AperFunction,SMDPad,CuDef*
G36*
G01*
X139800000Y-86625000D02*
X139800000Y-86825000D01*
G75*
G02*
X139700000Y-86925000I-100000J0D01*
G01*
X138275000Y-86925000D01*
G75*
G02*
X138175000Y-86825000I0J100000D01*
G01*
X138175000Y-86625000D01*
G75*
G02*
X138275000Y-86525000I100000J0D01*
G01*
X139700000Y-86525000D01*
G75*
G02*
X139800000Y-86625000I0J-100000D01*
G01*
G37*
G04 #@! TD.AperFunction*
G04 #@! TA.AperFunction,SMDPad,CuDef*
G36*
G01*
X139800000Y-85975000D02*
X139800000Y-86175000D01*
G75*
G02*
X139700000Y-86275000I-100000J0D01*
G01*
X138275000Y-86275000D01*
G75*
G02*
X138175000Y-86175000I0J100000D01*
G01*
X138175000Y-85975000D01*
G75*
G02*
X138275000Y-85875000I100000J0D01*
G01*
X139700000Y-85875000D01*
G75*
G02*
X139800000Y-85975000I0J-100000D01*
G01*
G37*
G04 #@! TD.AperFunction*
G04 #@! TA.AperFunction,SMDPad,CuDef*
G36*
G01*
X139800000Y-85325000D02*
X139800000Y-85525000D01*
G75*
G02*
X139700000Y-85625000I-100000J0D01*
G01*
X138275000Y-85625000D01*
G75*
G02*
X138175000Y-85525000I0J100000D01*
G01*
X138175000Y-85325000D01*
G75*
G02*
X138275000Y-85225000I100000J0D01*
G01*
X139700000Y-85225000D01*
G75*
G02*
X139800000Y-85325000I0J-100000D01*
G01*
G37*
G04 #@! TD.AperFunction*
G04 #@! TA.AperFunction,SMDPad,CuDef*
G36*
G01*
X139800000Y-84675000D02*
X139800000Y-84875000D01*
G75*
G02*
X139700000Y-84975000I-100000J0D01*
G01*
X138275000Y-84975000D01*
G75*
G02*
X138175000Y-84875000I0J100000D01*
G01*
X138175000Y-84675000D01*
G75*
G02*
X138275000Y-84575000I100000J0D01*
G01*
X139700000Y-84575000D01*
G75*
G02*
X139800000Y-84675000I0J-100000D01*
G01*
G37*
G04 #@! TD.AperFunction*
G04 #@! TA.AperFunction,SMDPad,CuDef*
G36*
G01*
X144025000Y-84675000D02*
X144025000Y-84875000D01*
G75*
G02*
X143925000Y-84975000I-100000J0D01*
G01*
X142500000Y-84975000D01*
G75*
G02*
X142400000Y-84875000I0J100000D01*
G01*
X142400000Y-84675000D01*
G75*
G02*
X142500000Y-84575000I100000J0D01*
G01*
X143925000Y-84575000D01*
G75*
G02*
X144025000Y-84675000I0J-100000D01*
G01*
G37*
G04 #@! TD.AperFunction*
G04 #@! TA.AperFunction,SMDPad,CuDef*
G36*
G01*
X144025000Y-85325000D02*
X144025000Y-85525000D01*
G75*
G02*
X143925000Y-85625000I-100000J0D01*
G01*
X142500000Y-85625000D01*
G75*
G02*
X142400000Y-85525000I0J100000D01*
G01*
X142400000Y-85325000D01*
G75*
G02*
X142500000Y-85225000I100000J0D01*
G01*
X143925000Y-85225000D01*
G75*
G02*
X144025000Y-85325000I0J-100000D01*
G01*
G37*
G04 #@! TD.AperFunction*
G04 #@! TA.AperFunction,SMDPad,CuDef*
G36*
G01*
X144025000Y-85975000D02*
X144025000Y-86175000D01*
G75*
G02*
X143925000Y-86275000I-100000J0D01*
G01*
X142500000Y-86275000D01*
G75*
G02*
X142400000Y-86175000I0J100000D01*
G01*
X142400000Y-85975000D01*
G75*
G02*
X142500000Y-85875000I100000J0D01*
G01*
X143925000Y-85875000D01*
G75*
G02*
X144025000Y-85975000I0J-100000D01*
G01*
G37*
G04 #@! TD.AperFunction*
G04 #@! TA.AperFunction,SMDPad,CuDef*
G36*
G01*
X144025000Y-86625000D02*
X144025000Y-86825000D01*
G75*
G02*
X143925000Y-86925000I-100000J0D01*
G01*
X142500000Y-86925000D01*
G75*
G02*
X142400000Y-86825000I0J100000D01*
G01*
X142400000Y-86625000D01*
G75*
G02*
X142500000Y-86525000I100000J0D01*
G01*
X143925000Y-86525000D01*
G75*
G02*
X144025000Y-86625000I0J-100000D01*
G01*
G37*
G04 #@! TD.AperFunction*
D10*
X151500000Y-85700000D03*
X151500000Y-84750000D03*
X151500000Y-86650000D03*
X148800000Y-86650000D03*
X148800000Y-85700000D03*
X148800000Y-84750000D03*
D11*
X151590000Y-90700000D03*
X151590000Y-89750000D03*
X151590000Y-88800000D03*
X153910000Y-88800000D03*
X153910000Y-89750000D03*
X153910000Y-90700000D03*
G04 #@! TA.AperFunction,SMDPad,CuDef*
G36*
G01*
X137925000Y-91299999D02*
X137925000Y-94200001D01*
G75*
G02*
X137675001Y-94450000I-249999J0D01*
G01*
X136874999Y-94450000D01*
G75*
G02*
X136625000Y-94200001I0J249999D01*
G01*
X136625000Y-91299999D01*
G75*
G02*
X136874999Y-91050000I249999J0D01*
G01*
X137675001Y-91050000D01*
G75*
G02*
X137925000Y-91299999I0J-249999D01*
G01*
G37*
G04 #@! TD.AperFunction*
G04 #@! TA.AperFunction,SMDPad,CuDef*
G36*
G01*
X142375000Y-91299999D02*
X142375000Y-94200001D01*
G75*
G02*
X142125001Y-94450000I-249999J0D01*
G01*
X141324999Y-94450000D01*
G75*
G02*
X141075000Y-94200001I0J249999D01*
G01*
X141075000Y-91299999D01*
G75*
G02*
X141324999Y-91050000I249999J0D01*
G01*
X142125001Y-91050000D01*
G75*
G02*
X142375000Y-91299999I0J-249999D01*
G01*
G37*
G04 #@! TD.AperFunction*
G04 #@! TA.AperFunction,SMDPad,CuDef*
G36*
G01*
X152700000Y-81250100D02*
X152700000Y-78749900D01*
G75*
G02*
X152949900Y-78500000I249900J0D01*
G01*
X154550100Y-78500000D01*
G75*
G02*
X154800000Y-78749900I0J-249900D01*
G01*
X154800000Y-81250100D01*
G75*
G02*
X154550100Y-81500000I-249900J0D01*
G01*
X152949900Y-81500000D01*
G75*
G02*
X152700000Y-81250100I0J249900D01*
G01*
G37*
G04 #@! TD.AperFunction*
G04 #@! TA.AperFunction,SMDPad,CuDef*
G36*
G01*
X145100000Y-81250100D02*
X145100000Y-78749900D01*
G75*
G02*
X145349900Y-78500000I249900J0D01*
G01*
X146950100Y-78500000D01*
G75*
G02*
X147200000Y-78749900I0J-249900D01*
G01*
X147200000Y-81250100D01*
G75*
G02*
X146950100Y-81500000I-249900J0D01*
G01*
X145349900Y-81500000D01*
G75*
G02*
X145100000Y-81250100I0J249900D01*
G01*
G37*
G04 #@! TD.AperFunction*
G04 #@! TA.AperFunction,SMDPad,CuDef*
G36*
G01*
X150800000Y-77700000D02*
X150800000Y-76800000D01*
G75*
G02*
X151000000Y-76600000I200000J0D01*
G01*
X151400000Y-76600000D01*
G75*
G02*
X151600000Y-76800000I0J-200000D01*
G01*
X151600000Y-77700000D01*
G75*
G02*
X151400000Y-77900000I-200000J0D01*
G01*
X151000000Y-77900000D01*
G75*
G02*
X150800000Y-77700000I0J200000D01*
G01*
G37*
G04 #@! TD.AperFunction*
G04 #@! TA.AperFunction,SMDPad,CuDef*
G36*
G01*
X149550000Y-77700000D02*
X149550000Y-76800000D01*
G75*
G02*
X149750000Y-76600000I200000J0D01*
G01*
X150150000Y-76600000D01*
G75*
G02*
X150350000Y-76800000I0J-200000D01*
G01*
X150350000Y-77700000D01*
G75*
G02*
X150150000Y-77900000I-200000J0D01*
G01*
X149750000Y-77900000D01*
G75*
G02*
X149550000Y-77700000I0J200000D01*
G01*
G37*
G04 #@! TD.AperFunction*
G04 #@! TA.AperFunction,SMDPad,CuDef*
G36*
G01*
X148300000Y-77700000D02*
X148300000Y-76800000D01*
G75*
G02*
X148500000Y-76600000I200000J0D01*
G01*
X148900000Y-76600000D01*
G75*
G02*
X149100000Y-76800000I0J-200000D01*
G01*
X149100000Y-77700000D01*
G75*
G02*
X148900000Y-77900000I-200000J0D01*
G01*
X148500000Y-77900000D01*
G75*
G02*
X148300000Y-77700000I0J200000D01*
G01*
G37*
G04 #@! TD.AperFunction*
G04 #@! TA.AperFunction,SMDPad,CuDef*
G36*
G01*
X145650000Y-96100000D02*
X146750000Y-96100000D01*
G75*
G02*
X147000000Y-96350000I0J-250000D01*
G01*
X147000000Y-98850000D01*
G75*
G02*
X146750000Y-99100000I-250000J0D01*
G01*
X145650000Y-99100000D01*
G75*
G02*
X145400000Y-98850000I0J250000D01*
G01*
X145400000Y-96350000D01*
G75*
G02*
X145650000Y-96100000I250000J0D01*
G01*
G37*
G04 #@! TD.AperFunction*
G04 #@! TA.AperFunction,SMDPad,CuDef*
G36*
G01*
X145650000Y-91700000D02*
X146750000Y-91700000D01*
G75*
G02*
X147000000Y-91950000I0J-250000D01*
G01*
X147000000Y-94450000D01*
G75*
G02*
X146750000Y-94700000I-250000J0D01*
G01*
X145650000Y-94700000D01*
G75*
G02*
X145400000Y-94450000I0J250000D01*
G01*
X145400000Y-91950000D01*
G75*
G02*
X145650000Y-91700000I250000J0D01*
G01*
G37*
G04 #@! TD.AperFunction*
G04 #@! TA.AperFunction,SMDPad,CuDef*
G36*
G01*
X132950000Y-88150000D02*
X134050000Y-88150000D01*
G75*
G02*
X134300000Y-88400000I0J-250000D01*
G01*
X134300000Y-90900000D01*
G75*
G02*
X134050000Y-91150000I-250000J0D01*
G01*
X132950000Y-91150000D01*
G75*
G02*
X132700000Y-90900000I0J250000D01*
G01*
X132700000Y-88400000D01*
G75*
G02*
X132950000Y-88150000I250000J0D01*
G01*
G37*
G04 #@! TD.AperFunction*
G04 #@! TA.AperFunction,SMDPad,CuDef*
G36*
G01*
X132950000Y-83750000D02*
X134050000Y-83750000D01*
G75*
G02*
X134300000Y-84000000I0J-250000D01*
G01*
X134300000Y-86500000D01*
G75*
G02*
X134050000Y-86750000I-250000J0D01*
G01*
X132950000Y-86750000D01*
G75*
G02*
X132700000Y-86500000I0J250000D01*
G01*
X132700000Y-84000000D01*
G75*
G02*
X132950000Y-83750000I250000J0D01*
G01*
G37*
G04 #@! TD.AperFunction*
D12*
X155000000Y-71500000D03*
X127000000Y-101000000D03*
X147250000Y-101250000D03*
X124250000Y-70750000D03*
X136000000Y-89750000D03*
X140500000Y-80500000D03*
X123250000Y-86500000D03*
X150200000Y-89600000D03*
X152700000Y-91500000D03*
X133600000Y-71100000D03*
X124000000Y-80100000D03*
X148000000Y-83000000D03*
X158300000Y-92300000D03*
X124000000Y-93750000D03*
X131000000Y-94800000D03*
X136250000Y-98500000D03*
X147139951Y-86114646D03*
X122600000Y-74900000D03*
D13*
X123300000Y-94700000D02*
X124050000Y-94700000D01*
X126500000Y-94700000D02*
X124050000Y-94700000D01*
D14*
X140450000Y-77250000D02*
X140450000Y-76700000D01*
X142362500Y-86725000D02*
X140337500Y-88750000D01*
X143212500Y-86725000D02*
X142362500Y-86725000D01*
D13*
X138188590Y-85425000D02*
X137813590Y-85800000D01*
X138987500Y-85425000D02*
X138188590Y-85425000D01*
X137813590Y-85800000D02*
X135900000Y-85800000D01*
X148800000Y-85700000D02*
X148000000Y-85700000D01*
X148000000Y-85700000D02*
X147300000Y-85000000D01*
D14*
X123200000Y-71800000D02*
X124250000Y-70750000D01*
X122800000Y-71800000D02*
X123200000Y-71800000D01*
D13*
X149944989Y-85585011D02*
X149944989Y-83955011D01*
X149830000Y-85700000D02*
X149944989Y-85585011D01*
X148800000Y-85700000D02*
X149830000Y-85700000D01*
X149944989Y-83955011D02*
X150300000Y-83600000D01*
X144362500Y-83387500D02*
X144500000Y-83250000D01*
X143212500Y-84312500D02*
X144525000Y-83000000D01*
X143212500Y-84775000D02*
X143212500Y-84312500D01*
D14*
X126750000Y-84250000D02*
X128000000Y-84250000D01*
X128000000Y-84250000D02*
X128000000Y-86000000D01*
X128000000Y-86000000D02*
X128250000Y-86250000D01*
X130000000Y-89250000D02*
X130000000Y-86250000D01*
X129200000Y-90050000D02*
X130000000Y-89250000D01*
X128250000Y-86250000D02*
X130000000Y-86250000D01*
X129200000Y-91200000D02*
X129200000Y-90050000D01*
X132000000Y-98000000D02*
X133250000Y-96750000D01*
X134250000Y-95750000D02*
X133250000Y-96750000D01*
X130000000Y-91750000D02*
X129200000Y-92550000D01*
X132500000Y-91750000D02*
X130000000Y-91750000D01*
X133250000Y-92500000D02*
X132500000Y-91750000D01*
X133250000Y-96750000D02*
X133250000Y-92500000D01*
X129200000Y-92550000D02*
X129200000Y-91200000D01*
X129200000Y-93750000D02*
X129200000Y-92550000D01*
X126750000Y-84250000D02*
X124000000Y-81500000D01*
X124000000Y-81500000D02*
X124000000Y-79886752D01*
X124000000Y-79886752D02*
X124000000Y-78000000D01*
X124000000Y-78000000D02*
X125000000Y-77000000D01*
X125000000Y-77000000D02*
X129000000Y-77000000D01*
X138987500Y-86725000D02*
X140000000Y-86750000D01*
X141052834Y-86750000D02*
X138987500Y-86725000D01*
X141200000Y-86602834D02*
X141052834Y-86750000D01*
X141200000Y-85900000D02*
X141200000Y-86602834D01*
X140050000Y-84750000D02*
X141200000Y-85900000D01*
X133750000Y-84750000D02*
X140050000Y-84750000D01*
X133500000Y-84500000D02*
X133750000Y-84750000D01*
X133000000Y-85000000D02*
X133500000Y-84500000D01*
X133000000Y-85500000D02*
X133000000Y-85000000D01*
X132250000Y-86250000D02*
X133000000Y-85500000D01*
X130000000Y-86250000D02*
X132250000Y-86250000D01*
X147800000Y-69800000D02*
X148450000Y-70450000D01*
X148274990Y-70274990D02*
X148450000Y-70450000D01*
X148450000Y-70450000D02*
X149000000Y-71000000D01*
X140100000Y-69800000D02*
X147800000Y-69800000D01*
X139375000Y-70525000D02*
X139375000Y-71250000D01*
X140100000Y-69800000D02*
X139375000Y-70525000D01*
X138750000Y-69900000D02*
X139375000Y-70525000D01*
X129000000Y-71000000D02*
X130100000Y-69900000D01*
X130100000Y-69900000D02*
X138750000Y-69900000D01*
X124000000Y-73000000D02*
X126000000Y-71000000D01*
X124000000Y-76000000D02*
X124000000Y-73000000D01*
X126000000Y-71000000D02*
X129000000Y-71000000D01*
X125000000Y-77000000D02*
X124000000Y-76000000D01*
X138000000Y-76000000D02*
X139000000Y-77000000D01*
X130000000Y-76000000D02*
X138000000Y-76000000D01*
X129300000Y-76700000D02*
X130000000Y-76000000D01*
X129300000Y-77250000D02*
X129300000Y-76700000D01*
D13*
X148700000Y-76800000D02*
X148700000Y-77250000D01*
X148700000Y-77250000D02*
X148700000Y-79200000D01*
X148700000Y-79200000D02*
X151750000Y-82250000D01*
X151750000Y-82250000D02*
X151750000Y-84500000D01*
X151750000Y-84500000D02*
X151500000Y-84750000D01*
X151500000Y-84750000D02*
X154250000Y-84750000D01*
X154250000Y-84750000D02*
X154000000Y-84750000D01*
X151500000Y-84750000D02*
X150750000Y-84750000D01*
X150394999Y-85105001D02*
X150394999Y-87894999D01*
X150750000Y-84750000D02*
X150394999Y-85105001D01*
X150394999Y-87894999D02*
X151250000Y-88750000D01*
X154250000Y-86575000D02*
X154250000Y-88250000D01*
X154250000Y-88250000D02*
X154000000Y-88500000D01*
X154000000Y-88500000D02*
X154000000Y-88750000D01*
X151500000Y-86650000D02*
X154100000Y-86650000D01*
X154100000Y-86650000D02*
X154250000Y-86500000D01*
X148800000Y-86650000D02*
X148800000Y-88450000D01*
X148800000Y-88450000D02*
X148750000Y-88500000D01*
X144337500Y-88750000D02*
X142250000Y-88750000D01*
X143976058Y-86075000D02*
X143212500Y-86075000D01*
X144350010Y-86448952D02*
X143976058Y-86075000D01*
X144300000Y-87600000D02*
X144350010Y-87549990D01*
X143000000Y-87600000D02*
X144300000Y-87600000D01*
X144350010Y-87549990D02*
X144350010Y-86448952D01*
X142162500Y-88437500D02*
X143000000Y-87600000D01*
X142162500Y-88750000D02*
X142162500Y-88437500D01*
X129750000Y-84250000D02*
X131000000Y-84250000D01*
X131000000Y-84250000D02*
X131825010Y-83424990D01*
X145250000Y-85425000D02*
X146000000Y-84675000D01*
X143212500Y-85425000D02*
X145250000Y-85425000D01*
X142400000Y-85425000D02*
X140399990Y-83424990D01*
X143212500Y-85425000D02*
X142400000Y-85425000D01*
X140399990Y-83424990D02*
X139924990Y-83424990D01*
X131825010Y-83424990D02*
X139924990Y-83424990D01*
X148800000Y-84750000D02*
X148450000Y-84750000D01*
X148000000Y-84300000D02*
X148000000Y-83000000D01*
X148450000Y-84750000D02*
X148000000Y-84300000D01*
X138175000Y-86075000D02*
X137350000Y-86900000D01*
X138987500Y-86075000D02*
X138175000Y-86075000D01*
X137350000Y-92675000D02*
X137275000Y-92750000D01*
X137350000Y-86900000D02*
X137350000Y-92675000D01*
X151064990Y-91225010D02*
X151590000Y-90700000D01*
X147975010Y-91225010D02*
X151064990Y-91225010D01*
X146250000Y-89500000D02*
X147975010Y-91225010D01*
X146250000Y-88750000D02*
X146250000Y-89500000D01*
X151590000Y-90700000D02*
X151590000Y-89750000D01*
X151590000Y-89750000D02*
X153910000Y-89750000D01*
X153910000Y-89750000D02*
X153910000Y-90700000D01*
X145750000Y-92750000D02*
X146200000Y-93200000D01*
X142500000Y-92750000D02*
X145750000Y-92750000D01*
X141750000Y-92000000D02*
X142500000Y-92750000D01*
X146162500Y-93162500D02*
X146200000Y-93200000D01*
X146162500Y-88750000D02*
X146162500Y-93162500D01*
X153910000Y-90700000D02*
X154600000Y-90700000D01*
X156700000Y-90700000D02*
X153910000Y-90700000D01*
X158300000Y-92300000D02*
X156700000Y-90700000D01*
D14*
X129200000Y-95650000D02*
X131900000Y-95650000D01*
X131900000Y-95650000D02*
X132000000Y-95750000D01*
D13*
X129200000Y-95650000D02*
X129200000Y-96950000D01*
X129200000Y-96950000D02*
X130250000Y-98000000D01*
X126500000Y-95650000D02*
X126900000Y-95650000D01*
X126900000Y-95650000D02*
X128000000Y-96750000D01*
X128000000Y-96750000D02*
X128000000Y-97750000D01*
X126500000Y-93750000D02*
X124000000Y-93750000D01*
D14*
X132000000Y-94750000D02*
X132000000Y-93750000D01*
D13*
X134450000Y-93800000D02*
X134500000Y-93850000D01*
D14*
X134500000Y-93850000D02*
X134500000Y-94750000D01*
X136250000Y-95900000D02*
X136250000Y-98500000D01*
X135100000Y-94750000D02*
X136250000Y-95900000D01*
X134500000Y-94750000D02*
X135100000Y-94750000D01*
X131050000Y-94750000D02*
X131000000Y-94800000D01*
X132180000Y-94750000D02*
X131050000Y-94750000D01*
D13*
X146385354Y-86114646D02*
X146000000Y-86500000D01*
X147139951Y-86114646D02*
X146385354Y-86114646D01*
D14*
X122800000Y-74700000D02*
X122600000Y-74900000D01*
X122800000Y-73625000D02*
X122800000Y-74700000D01*
D15*
X161340001Y-104340000D02*
X118660000Y-104340000D01*
X118660000Y-98475000D01*
X125124428Y-98475000D01*
X125136688Y-98599482D01*
X125172998Y-98719180D01*
X125231963Y-98829494D01*
X125311315Y-98926185D01*
X125408006Y-99005537D01*
X125518320Y-99064502D01*
X125638018Y-99100812D01*
X125762500Y-99113072D01*
X125964250Y-99110000D01*
X126123000Y-98951250D01*
X126123000Y-98127000D01*
X125286250Y-98127000D01*
X125127500Y-98285750D01*
X125124428Y-98475000D01*
X118660000Y-98475000D01*
X118660000Y-97525000D01*
X125124428Y-97525000D01*
X125127500Y-97714250D01*
X125286250Y-97873000D01*
X126123000Y-97873000D01*
X126123000Y-97048750D01*
X125964250Y-96890000D01*
X125762500Y-96886928D01*
X125638018Y-96899188D01*
X125518320Y-96935498D01*
X125408006Y-96994463D01*
X125311315Y-97073815D01*
X125231963Y-97170506D01*
X125172998Y-97280820D01*
X125136688Y-97400518D01*
X125124428Y-97525000D01*
X118660000Y-97525000D01*
X118660000Y-88650000D01*
X127136928Y-88650000D01*
X127149188Y-88774482D01*
X127185498Y-88894180D01*
X127244463Y-89004494D01*
X127323815Y-89101185D01*
X127420506Y-89180537D01*
X127530820Y-89239502D01*
X127650518Y-89275812D01*
X127775000Y-89288072D01*
X127964250Y-89285000D01*
X128123000Y-89126250D01*
X128123000Y-88239500D01*
X127298750Y-88239500D01*
X127140000Y-88398250D01*
X127136928Y-88650000D01*
X118660000Y-88650000D01*
X118660000Y-74798061D01*
X121565000Y-74798061D01*
X121565000Y-75001939D01*
X121604774Y-75201898D01*
X121682795Y-75390256D01*
X121796063Y-75559774D01*
X121940226Y-75703937D01*
X122109744Y-75817205D01*
X122298102Y-75895226D01*
X122498061Y-75935000D01*
X122701939Y-75935000D01*
X122901898Y-75895226D01*
X123090256Y-75817205D01*
X123115000Y-75800672D01*
X123115000Y-75956531D01*
X123110719Y-76000000D01*
X123115000Y-76043469D01*
X123115000Y-76043476D01*
X123122906Y-76123750D01*
X123127805Y-76173490D01*
X123129298Y-76178411D01*
X123178411Y-76340312D01*
X123260589Y-76494058D01*
X123371183Y-76628817D01*
X123404956Y-76656534D01*
X123748422Y-77000000D01*
X123404951Y-77343471D01*
X123371184Y-77371183D01*
X123343471Y-77404951D01*
X123343468Y-77404954D01*
X123260590Y-77505941D01*
X123178412Y-77659687D01*
X123127805Y-77826510D01*
X123110719Y-78000000D01*
X123115001Y-78043479D01*
X123115000Y-79561545D01*
X123082795Y-79609744D01*
X123004774Y-79798102D01*
X122965000Y-79998061D01*
X122965000Y-80201939D01*
X123004774Y-80401898D01*
X123082795Y-80590256D01*
X123115001Y-80638455D01*
X123115000Y-81456531D01*
X123110719Y-81500000D01*
X123115000Y-81543469D01*
X123115000Y-81543476D01*
X123127805Y-81673489D01*
X123178411Y-81840312D01*
X123260589Y-81994058D01*
X123371183Y-82128817D01*
X123404956Y-82156534D01*
X126093470Y-84845049D01*
X126121183Y-84878817D01*
X126154951Y-84906530D01*
X126154953Y-84906532D01*
X126189610Y-84934974D01*
X126255941Y-84989411D01*
X126409687Y-85071589D01*
X126576510Y-85122195D01*
X126706523Y-85135000D01*
X126706533Y-85135000D01*
X126749999Y-85139281D01*
X126793465Y-85135000D01*
X127090454Y-85135000D01*
X127115001Y-85155145D01*
X127115001Y-85956521D01*
X127110719Y-86000000D01*
X127127805Y-86173490D01*
X127136928Y-86203563D01*
X127136928Y-86687500D01*
X127153752Y-86858316D01*
X127203577Y-87022567D01*
X127283774Y-87172606D01*
X127244463Y-87220506D01*
X127185498Y-87330820D01*
X127149188Y-87450518D01*
X127136928Y-87575000D01*
X127140000Y-87826750D01*
X127298750Y-87985500D01*
X128123000Y-87985500D01*
X128123000Y-87965500D01*
X128377000Y-87965500D01*
X128377000Y-87985500D01*
X128397000Y-87985500D01*
X128397000Y-88239500D01*
X128377000Y-88239500D01*
X128377000Y-89126250D01*
X128535750Y-89285000D01*
X128710584Y-89287838D01*
X128604951Y-89393471D01*
X128571184Y-89421183D01*
X128543471Y-89454951D01*
X128543468Y-89454954D01*
X128460590Y-89555941D01*
X128378412Y-89709687D01*
X128327805Y-89876510D01*
X128310719Y-90050000D01*
X128315001Y-90093478D01*
X128315000Y-91243476D01*
X128315001Y-91243486D01*
X128315000Y-92506530D01*
X128310719Y-92550000D01*
X128315000Y-92593469D01*
X128315000Y-92593476D01*
X128315001Y-92593485D01*
X128315001Y-92797269D01*
X128295518Y-92799188D01*
X128175820Y-92835498D01*
X128065506Y-92894463D01*
X127968815Y-92973815D01*
X127889463Y-93070506D01*
X127850000Y-93144335D01*
X127810537Y-93070506D01*
X127731185Y-92973815D01*
X127634494Y-92894463D01*
X127524180Y-92835498D01*
X127404482Y-92799188D01*
X127280000Y-92786928D01*
X125720000Y-92786928D01*
X125595518Y-92799188D01*
X125475820Y-92835498D01*
X125365506Y-92894463D01*
X125268815Y-92973815D01*
X125255532Y-92990000D01*
X124703711Y-92990000D01*
X124659774Y-92946063D01*
X124490256Y-92832795D01*
X124301898Y-92754774D01*
X124101939Y-92715000D01*
X123898061Y-92715000D01*
X123698102Y-92754774D01*
X123509744Y-92832795D01*
X123340226Y-92946063D01*
X123196063Y-93090226D01*
X123082795Y-93259744D01*
X123004774Y-93448102D01*
X122965000Y-93648061D01*
X122965000Y-93851939D01*
X123004774Y-94051898D01*
X123082795Y-94240256D01*
X123196063Y-94409774D01*
X123340226Y-94553937D01*
X123509744Y-94667205D01*
X123698102Y-94745226D01*
X123898061Y-94785000D01*
X124101939Y-94785000D01*
X124301898Y-94745226D01*
X124490256Y-94667205D01*
X124659774Y-94553937D01*
X124703711Y-94510000D01*
X125180750Y-94510000D01*
X125243750Y-94573000D01*
X125325859Y-94573000D01*
X125365506Y-94605537D01*
X125475820Y-94664502D01*
X125592841Y-94700000D01*
X125475820Y-94735498D01*
X125365506Y-94794463D01*
X125325859Y-94827000D01*
X125243750Y-94827000D01*
X125085000Y-94985750D01*
X125081928Y-95025000D01*
X125094188Y-95149482D01*
X125101929Y-95175000D01*
X125094188Y-95200518D01*
X125081928Y-95325000D01*
X125081928Y-95975000D01*
X125094188Y-96099482D01*
X125130498Y-96219180D01*
X125189463Y-96329494D01*
X125268815Y-96426185D01*
X125365506Y-96505537D01*
X125475820Y-96564502D01*
X125595518Y-96600812D01*
X125720000Y-96613072D01*
X126788271Y-96613072D01*
X127240000Y-97064802D01*
X127240000Y-97115373D01*
X127229717Y-97123812D01*
X127188685Y-97073815D01*
X127091994Y-96994463D01*
X126981680Y-96935498D01*
X126861982Y-96899188D01*
X126737500Y-96886928D01*
X126535750Y-96890000D01*
X126377000Y-97048750D01*
X126377000Y-97873000D01*
X126397000Y-97873000D01*
X126397000Y-98127000D01*
X126377000Y-98127000D01*
X126377000Y-98951250D01*
X126535750Y-99110000D01*
X126737500Y-99113072D01*
X126861982Y-99100812D01*
X126981680Y-99064502D01*
X127091994Y-99005537D01*
X127188685Y-98926185D01*
X127229717Y-98876188D01*
X127338558Y-98965512D01*
X127489933Y-99046423D01*
X127654184Y-99096248D01*
X127825000Y-99113072D01*
X128325000Y-99113072D01*
X128495816Y-99096248D01*
X128660067Y-99046423D01*
X128811442Y-98965512D01*
X128944123Y-98856623D01*
X129053012Y-98723942D01*
X129125000Y-98589261D01*
X129196988Y-98723942D01*
X129305877Y-98856623D01*
X129438558Y-98965512D01*
X129589933Y-99046423D01*
X129754184Y-99096248D01*
X129925000Y-99113072D01*
X130425000Y-99113072D01*
X130595816Y-99096248D01*
X130760067Y-99046423D01*
X130911442Y-98965512D01*
X131044123Y-98856623D01*
X131087500Y-98803768D01*
X131130877Y-98856623D01*
X131263558Y-98965512D01*
X131414933Y-99046423D01*
X131579184Y-99096248D01*
X131750000Y-99113072D01*
X132250000Y-99113072D01*
X132420816Y-99096248D01*
X132585067Y-99046423D01*
X132736442Y-98965512D01*
X132869123Y-98856623D01*
X132978012Y-98723942D01*
X133058923Y-98572567D01*
X133108748Y-98408316D01*
X133125572Y-98237500D01*
X133125572Y-98126006D01*
X133845050Y-97406529D01*
X133878817Y-97378817D01*
X133906534Y-97345044D01*
X134658507Y-96593072D01*
X134850000Y-96593072D01*
X134974482Y-96580812D01*
X135094180Y-96544502D01*
X135204494Y-96485537D01*
X135301185Y-96406185D01*
X135365000Y-96328426D01*
X135365001Y-97961545D01*
X135332795Y-98009744D01*
X135254774Y-98198102D01*
X135215000Y-98398061D01*
X135215000Y-98601939D01*
X135254774Y-98801898D01*
X135332795Y-98990256D01*
X135446063Y-99159774D01*
X135590226Y-99303937D01*
X135759744Y-99417205D01*
X135948102Y-99495226D01*
X136148061Y-99535000D01*
X136351939Y-99535000D01*
X136551898Y-99495226D01*
X136740256Y-99417205D01*
X136909774Y-99303937D01*
X137053937Y-99159774D01*
X137093876Y-99100000D01*
X144761928Y-99100000D01*
X144774188Y-99224482D01*
X144810498Y-99344180D01*
X144869463Y-99454494D01*
X144948815Y-99551185D01*
X145045506Y-99630537D01*
X145155820Y-99689502D01*
X145275518Y-99725812D01*
X145400000Y-99738072D01*
X145914250Y-99735000D01*
X146073000Y-99576250D01*
X146073000Y-97727000D01*
X146327000Y-97727000D01*
X146327000Y-99576250D01*
X146485750Y-99735000D01*
X147000000Y-99738072D01*
X147124482Y-99725812D01*
X147244180Y-99689502D01*
X147354494Y-99630537D01*
X147451185Y-99551185D01*
X147530537Y-99454494D01*
X147589502Y-99344180D01*
X147625812Y-99224482D01*
X147638072Y-99100000D01*
X147635000Y-97885750D01*
X147476250Y-97727000D01*
X146327000Y-97727000D01*
X146073000Y-97727000D01*
X144923750Y-97727000D01*
X144765000Y-97885750D01*
X144761928Y-99100000D01*
X137093876Y-99100000D01*
X137167205Y-98990256D01*
X137245226Y-98801898D01*
X137285000Y-98601939D01*
X137285000Y-98398061D01*
X137245226Y-98198102D01*
X137167205Y-98009744D01*
X137135000Y-97961546D01*
X137135000Y-96100000D01*
X144761928Y-96100000D01*
X144765000Y-97314250D01*
X144923750Y-97473000D01*
X146073000Y-97473000D01*
X146073000Y-95623750D01*
X146327000Y-95623750D01*
X146327000Y-97473000D01*
X147476250Y-97473000D01*
X147635000Y-97314250D01*
X147638072Y-96100000D01*
X147625812Y-95975518D01*
X147589502Y-95855820D01*
X147530537Y-95745506D01*
X147451185Y-95648815D01*
X147354494Y-95569463D01*
X147244180Y-95510498D01*
X147124482Y-95474188D01*
X147000000Y-95461928D01*
X146485750Y-95465000D01*
X146327000Y-95623750D01*
X146073000Y-95623750D01*
X145914250Y-95465000D01*
X145400000Y-95461928D01*
X145275518Y-95474188D01*
X145155820Y-95510498D01*
X145045506Y-95569463D01*
X144948815Y-95648815D01*
X144869463Y-95745506D01*
X144810498Y-95855820D01*
X144774188Y-95975518D01*
X144761928Y-96100000D01*
X137135000Y-96100000D01*
X137135000Y-95943469D01*
X137139281Y-95900000D01*
X137135000Y-95856531D01*
X137135000Y-95856523D01*
X137122195Y-95726510D01*
X137110902Y-95689281D01*
X137071589Y-95559686D01*
X136989411Y-95405941D01*
X136906532Y-95304953D01*
X136906530Y-95304951D01*
X136878817Y-95271183D01*
X136845050Y-95243471D01*
X136659890Y-95058312D01*
X136701745Y-95071008D01*
X136874999Y-95088072D01*
X137675001Y-95088072D01*
X137848255Y-95071008D01*
X138014851Y-95020472D01*
X138168387Y-94938405D01*
X138302962Y-94827962D01*
X138413405Y-94693387D01*
X138495472Y-94539851D01*
X138546008Y-94373255D01*
X138563072Y-94200001D01*
X138563072Y-91299999D01*
X138546008Y-91126745D01*
X138495472Y-90960149D01*
X138413405Y-90806613D01*
X138302962Y-90672038D01*
X138168387Y-90561595D01*
X138110000Y-90530386D01*
X138110000Y-89225000D01*
X139211928Y-89225000D01*
X139224188Y-89349482D01*
X139260498Y-89469180D01*
X139319463Y-89579494D01*
X139398815Y-89676185D01*
X139495506Y-89755537D01*
X139605820Y-89814502D01*
X139725518Y-89850812D01*
X139850000Y-89863072D01*
X140051750Y-89860000D01*
X140210500Y-89701250D01*
X140210500Y-88877000D01*
X139373750Y-88877000D01*
X139215000Y-89035750D01*
X139211928Y-89225000D01*
X138110000Y-89225000D01*
X138110000Y-88275000D01*
X139211928Y-88275000D01*
X139215000Y-88464250D01*
X139373750Y-88623000D01*
X140210500Y-88623000D01*
X140210500Y-87798750D01*
X140051750Y-87640000D01*
X139850000Y-87636928D01*
X139725518Y-87649188D01*
X139605820Y-87685498D01*
X139495506Y-87744463D01*
X139398815Y-87823815D01*
X139319463Y-87920506D01*
X139260498Y-88030820D01*
X139224188Y-88150518D01*
X139211928Y-88275000D01*
X138110000Y-88275000D01*
X138110000Y-87542517D01*
X138131009Y-87548890D01*
X138275000Y-87563072D01*
X138702529Y-87563072D01*
X138715066Y-87567042D01*
X138792534Y-87592646D01*
X138798107Y-87593334D01*
X138803466Y-87595031D01*
X138884548Y-87604008D01*
X138922192Y-87608657D01*
X138927778Y-87608795D01*
X138933315Y-87609408D01*
X138971163Y-87609866D01*
X140021618Y-87635803D01*
X140151908Y-87626211D01*
X140159016Y-87624245D01*
X141004019Y-87634474D01*
X141052834Y-87639281D01*
X141134259Y-87631262D01*
X141215754Y-87624230D01*
X141220939Y-87622725D01*
X141226324Y-87622195D01*
X141304663Y-87598430D01*
X141383177Y-87575647D01*
X141387973Y-87573157D01*
X141393147Y-87571588D01*
X141465315Y-87533014D01*
X141537906Y-87495336D01*
X141542124Y-87491959D01*
X141546893Y-87489410D01*
X141610189Y-87437464D01*
X141673993Y-87386381D01*
X141705563Y-87348849D01*
X141795044Y-87259368D01*
X141828817Y-87231651D01*
X141837861Y-87220631D01*
X141874495Y-87286911D01*
X141955197Y-87382478D01*
X142052994Y-87460465D01*
X142060735Y-87464464D01*
X141885624Y-87639575D01*
X141741684Y-87653752D01*
X141577433Y-87703577D01*
X141426058Y-87784488D01*
X141317217Y-87873812D01*
X141276185Y-87823815D01*
X141179494Y-87744463D01*
X141069180Y-87685498D01*
X140949482Y-87649188D01*
X140825000Y-87636928D01*
X140623250Y-87640000D01*
X140464500Y-87798750D01*
X140464500Y-88623000D01*
X140484500Y-88623000D01*
X140484500Y-88877000D01*
X140464500Y-88877000D01*
X140464500Y-89701250D01*
X140623250Y-89860000D01*
X140825000Y-89863072D01*
X140949482Y-89850812D01*
X141069180Y-89814502D01*
X141179494Y-89755537D01*
X141276185Y-89676185D01*
X141317217Y-89626188D01*
X141426058Y-89715512D01*
X141577433Y-89796423D01*
X141741684Y-89846248D01*
X141912500Y-89863072D01*
X142412500Y-89863072D01*
X142583316Y-89846248D01*
X142747567Y-89796423D01*
X142898942Y-89715512D01*
X143031623Y-89606623D01*
X143110920Y-89510000D01*
X143389080Y-89510000D01*
X143468377Y-89606623D01*
X143601058Y-89715512D01*
X143752433Y-89796423D01*
X143916684Y-89846248D01*
X144087500Y-89863072D01*
X144587500Y-89863072D01*
X144758316Y-89846248D01*
X144922567Y-89796423D01*
X145073942Y-89715512D01*
X145206623Y-89606623D01*
X145250000Y-89553768D01*
X145293377Y-89606623D01*
X145402500Y-89696179D01*
X145402501Y-91101514D01*
X145310150Y-91129528D01*
X145156614Y-91211595D01*
X145022038Y-91322038D01*
X144911595Y-91456614D01*
X144829528Y-91610150D01*
X144778992Y-91776746D01*
X144761928Y-91950000D01*
X144761928Y-91990000D01*
X143013072Y-91990000D01*
X143013072Y-91299999D01*
X142996008Y-91126745D01*
X142945472Y-90960149D01*
X142863405Y-90806613D01*
X142752962Y-90672038D01*
X142618387Y-90561595D01*
X142464851Y-90479528D01*
X142298255Y-90428992D01*
X142125001Y-90411928D01*
X141324999Y-90411928D01*
X141151745Y-90428992D01*
X140985149Y-90479528D01*
X140831613Y-90561595D01*
X140697038Y-90672038D01*
X140586595Y-90806613D01*
X140504528Y-90960149D01*
X140453992Y-91126745D01*
X140436928Y-91299999D01*
X140436928Y-94200001D01*
X140453992Y-94373255D01*
X140504528Y-94539851D01*
X140586595Y-94693387D01*
X140697038Y-94827962D01*
X140831613Y-94938405D01*
X140985149Y-95020472D01*
X141151745Y-95071008D01*
X141324999Y-95088072D01*
X142125001Y-95088072D01*
X142298255Y-95071008D01*
X142464851Y-95020472D01*
X142618387Y-94938405D01*
X142752962Y-94827962D01*
X142863405Y-94693387D01*
X142945472Y-94539851D01*
X142996008Y-94373255D01*
X143013072Y-94200001D01*
X143013072Y-93510000D01*
X144761928Y-93510000D01*
X144761928Y-94450000D01*
X144778992Y-94623254D01*
X144829528Y-94789850D01*
X144911595Y-94943386D01*
X145022038Y-95077962D01*
X145156614Y-95188405D01*
X145310150Y-95270472D01*
X145476746Y-95321008D01*
X145650000Y-95338072D01*
X146750000Y-95338072D01*
X146923254Y-95321008D01*
X147089850Y-95270472D01*
X147243386Y-95188405D01*
X147377962Y-95077962D01*
X147488405Y-94943386D01*
X147570472Y-94789850D01*
X147621008Y-94623254D01*
X147638072Y-94450000D01*
X147638072Y-91950000D01*
X147633567Y-91904260D01*
X147682763Y-91930556D01*
X147826024Y-91974013D01*
X147975010Y-91988687D01*
X148012343Y-91985010D01*
X151027668Y-91985010D01*
X151064990Y-91988686D01*
X151102312Y-91985010D01*
X151102323Y-91985010D01*
X151213976Y-91974013D01*
X151357237Y-91930556D01*
X151489266Y-91859984D01*
X151604991Y-91765011D01*
X151628793Y-91736008D01*
X151771729Y-91593072D01*
X151940000Y-91593072D01*
X152064482Y-91580812D01*
X152184180Y-91544502D01*
X152294494Y-91485537D01*
X152391185Y-91406185D01*
X152470537Y-91309494D01*
X152529502Y-91199180D01*
X152565812Y-91079482D01*
X152578072Y-90955000D01*
X152578072Y-90510000D01*
X152921928Y-90510000D01*
X152921928Y-90955000D01*
X152934188Y-91079482D01*
X152970498Y-91199180D01*
X153029463Y-91309494D01*
X153108815Y-91406185D01*
X153205506Y-91485537D01*
X153315820Y-91544502D01*
X153435518Y-91580812D01*
X153560000Y-91593072D01*
X154260000Y-91593072D01*
X154384482Y-91580812D01*
X154504180Y-91544502D01*
X154614494Y-91485537D01*
X154645611Y-91460000D01*
X156385199Y-91460000D01*
X157265000Y-92339802D01*
X157265000Y-92401939D01*
X157304774Y-92601898D01*
X157382795Y-92790256D01*
X157496063Y-92959774D01*
X157640226Y-93103937D01*
X157809744Y-93217205D01*
X157998102Y-93295226D01*
X158198061Y-93335000D01*
X158401939Y-93335000D01*
X158601898Y-93295226D01*
X158790256Y-93217205D01*
X158959774Y-93103937D01*
X159103937Y-92959774D01*
X159217205Y-92790256D01*
X159295226Y-92601898D01*
X159335000Y-92401939D01*
X159335000Y-92198061D01*
X159295226Y-91998102D01*
X159217205Y-91809744D01*
X159103937Y-91640226D01*
X158959774Y-91496063D01*
X158790256Y-91382795D01*
X158601898Y-91304774D01*
X158401939Y-91265000D01*
X158339802Y-91265000D01*
X157263804Y-90189003D01*
X157240001Y-90159999D01*
X157124276Y-90065026D01*
X156992247Y-89994454D01*
X156848986Y-89950997D01*
X156737333Y-89940000D01*
X156737322Y-89940000D01*
X156700000Y-89936324D01*
X156662678Y-89940000D01*
X154898072Y-89940000D01*
X154898072Y-89495000D01*
X154885812Y-89370518D01*
X154856837Y-89275000D01*
X154885812Y-89179482D01*
X154898072Y-89055000D01*
X154898072Y-88649772D01*
X154955546Y-88542247D01*
X154999003Y-88398986D01*
X155010000Y-88287333D01*
X155010000Y-88287324D01*
X155013676Y-88250001D01*
X155010000Y-88212678D01*
X155010000Y-87523420D01*
X155106623Y-87444123D01*
X155215512Y-87311442D01*
X155296423Y-87160067D01*
X155346248Y-86995816D01*
X155363072Y-86825000D01*
X155363072Y-86325000D01*
X155346248Y-86154184D01*
X155296423Y-85989933D01*
X155215512Y-85838558D01*
X155106623Y-85705877D01*
X155053768Y-85662500D01*
X155106623Y-85619123D01*
X155215512Y-85486442D01*
X155296423Y-85335067D01*
X155346248Y-85170816D01*
X155363072Y-85000000D01*
X155363072Y-84500000D01*
X155346248Y-84329184D01*
X155296423Y-84164933D01*
X155215512Y-84013558D01*
X155106623Y-83880877D01*
X154973942Y-83771988D01*
X154822567Y-83691077D01*
X154658316Y-83641252D01*
X154487500Y-83624428D01*
X154012500Y-83624428D01*
X153841684Y-83641252D01*
X153677433Y-83691077D01*
X153526058Y-83771988D01*
X153393377Y-83880877D01*
X153303822Y-83990000D01*
X152744468Y-83990000D01*
X152731185Y-83973815D01*
X152634494Y-83894463D01*
X152524180Y-83835498D01*
X152510000Y-83831197D01*
X152510000Y-82287322D01*
X152513676Y-82249999D01*
X152510000Y-82212676D01*
X152510000Y-82212667D01*
X152499164Y-82102650D01*
X152575518Y-82125812D01*
X152700000Y-82138072D01*
X153464250Y-82135000D01*
X153623000Y-81976250D01*
X153623000Y-80127000D01*
X153877000Y-80127000D01*
X153877000Y-81976250D01*
X154035750Y-82135000D01*
X154800000Y-82138072D01*
X154924482Y-82125812D01*
X155044180Y-82089502D01*
X155154494Y-82030537D01*
X155251185Y-81951185D01*
X155330537Y-81854494D01*
X155389502Y-81744180D01*
X155425812Y-81624482D01*
X155438072Y-81500000D01*
X155435000Y-80285750D01*
X155276250Y-80127000D01*
X153877000Y-80127000D01*
X153623000Y-80127000D01*
X152223750Y-80127000D01*
X152065000Y-80285750D01*
X152061960Y-81487159D01*
X149460000Y-78885199D01*
X149460000Y-78483596D01*
X149586500Y-78521969D01*
X149750000Y-78538072D01*
X150150000Y-78538072D01*
X150313500Y-78521969D01*
X150470716Y-78474278D01*
X150499027Y-78459145D01*
X150555820Y-78489502D01*
X150675518Y-78525812D01*
X150800000Y-78538072D01*
X150914250Y-78535000D01*
X151073000Y-78376250D01*
X151073000Y-77377000D01*
X151327000Y-77377000D01*
X151327000Y-78376250D01*
X151485750Y-78535000D01*
X151600000Y-78538072D01*
X151724482Y-78525812D01*
X151844180Y-78489502D01*
X151954494Y-78430537D01*
X152051185Y-78351185D01*
X152099386Y-78292452D01*
X152074188Y-78375518D01*
X152061928Y-78500000D01*
X152065000Y-79714250D01*
X152223750Y-79873000D01*
X153623000Y-79873000D01*
X153623000Y-78023750D01*
X153877000Y-78023750D01*
X153877000Y-79873000D01*
X155276250Y-79873000D01*
X155435000Y-79714250D01*
X155438072Y-78500000D01*
X155425812Y-78375518D01*
X155389502Y-78255820D01*
X155330537Y-78145506D01*
X155251185Y-78048815D01*
X155154494Y-77969463D01*
X155044180Y-77910498D01*
X154924482Y-77874188D01*
X154800000Y-77861928D01*
X154035750Y-77865000D01*
X153877000Y-78023750D01*
X153623000Y-78023750D01*
X153464250Y-77865000D01*
X152700000Y-77861928D01*
X152575518Y-77874188D01*
X152455820Y-77910498D01*
X152345506Y-77969463D01*
X152248815Y-78048815D01*
X152200614Y-78107548D01*
X152225812Y-78024482D01*
X152238072Y-77900000D01*
X152235000Y-77535750D01*
X152076250Y-77377000D01*
X151327000Y-77377000D01*
X151073000Y-77377000D01*
X151053000Y-77377000D01*
X151053000Y-77123000D01*
X151073000Y-77123000D01*
X151073000Y-76123750D01*
X150914250Y-75965000D01*
X150800000Y-75961928D01*
X150675518Y-75974188D01*
X150555820Y-76010498D01*
X150499027Y-76040855D01*
X150470716Y-76025722D01*
X150313500Y-75978031D01*
X150150000Y-75961928D01*
X149750000Y-75961928D01*
X149586500Y-75978031D01*
X149429284Y-76025722D01*
X149325000Y-76081463D01*
X149220716Y-76025722D01*
X149063500Y-75978031D01*
X148900000Y-75961928D01*
X148500000Y-75961928D01*
X148336500Y-75978031D01*
X148179284Y-76025722D01*
X148034392Y-76103169D01*
X147907394Y-76207394D01*
X147803169Y-76334392D01*
X147725722Y-76479284D01*
X147678031Y-76636500D01*
X147661928Y-76800000D01*
X147661928Y-77700000D01*
X147678031Y-77863500D01*
X147725722Y-78020716D01*
X147803169Y-78165608D01*
X147907394Y-78292606D01*
X147940001Y-78319366D01*
X147940001Y-79162668D01*
X147936324Y-79200000D01*
X147940001Y-79237333D01*
X147945786Y-79296063D01*
X147950998Y-79348985D01*
X147994454Y-79492246D01*
X148065026Y-79624276D01*
X148136201Y-79711002D01*
X148160000Y-79740001D01*
X148188998Y-79763799D01*
X150990000Y-82564802D01*
X150990001Y-83786928D01*
X150720000Y-83786928D01*
X150595518Y-83799188D01*
X150475820Y-83835498D01*
X150365506Y-83894463D01*
X150268815Y-83973815D01*
X150189463Y-84070506D01*
X150150000Y-84144335D01*
X150110537Y-84070506D01*
X150031185Y-83973815D01*
X149934494Y-83894463D01*
X149824180Y-83835498D01*
X149704482Y-83799188D01*
X149580000Y-83786928D01*
X148760000Y-83786928D01*
X148760000Y-83703711D01*
X148803937Y-83659774D01*
X148917205Y-83490256D01*
X148995226Y-83301898D01*
X149035000Y-83101939D01*
X149035000Y-82898061D01*
X148995226Y-82698102D01*
X148917205Y-82509744D01*
X148803937Y-82340226D01*
X148659774Y-82196063D01*
X148490256Y-82082795D01*
X148301898Y-82004774D01*
X148101939Y-81965000D01*
X147898061Y-81965000D01*
X147698102Y-82004774D01*
X147509744Y-82082795D01*
X147340226Y-82196063D01*
X147334668Y-82201621D01*
X147318037Y-82170506D01*
X147284583Y-82129742D01*
X147324482Y-82125812D01*
X147444180Y-82089502D01*
X147554494Y-82030537D01*
X147651185Y-81951185D01*
X147730537Y-81854494D01*
X147789502Y-81744180D01*
X147825812Y-81624482D01*
X147838072Y-81500000D01*
X147835000Y-80285750D01*
X147676250Y-80127000D01*
X146277000Y-80127000D01*
X146277000Y-81976250D01*
X146377000Y-82076250D01*
X146377000Y-82873000D01*
X146397000Y-82873000D01*
X146397000Y-83127000D01*
X146377000Y-83127000D01*
X146377000Y-83147000D01*
X146123000Y-83147000D01*
X146123000Y-83127000D01*
X146103000Y-83127000D01*
X146103000Y-82873000D01*
X146123000Y-82873000D01*
X146123000Y-82048750D01*
X146023000Y-81948750D01*
X146023000Y-80127000D01*
X144623750Y-80127000D01*
X144575000Y-80175750D01*
X144526250Y-80127000D01*
X143127000Y-80127000D01*
X143127000Y-81976250D01*
X143285750Y-82135000D01*
X143614474Y-82136321D01*
X143605877Y-82143377D01*
X143496988Y-82276058D01*
X143416077Y-82427433D01*
X143366252Y-82591684D01*
X143349428Y-82762500D01*
X143349428Y-83100770D01*
X142701498Y-83748701D01*
X142672500Y-83772499D01*
X142577526Y-83888224D01*
X142551493Y-83936928D01*
X142500000Y-83936928D01*
X142356009Y-83951110D01*
X142217552Y-83993110D01*
X142103744Y-84053942D01*
X140963794Y-82913993D01*
X140939991Y-82884989D01*
X140824266Y-82790016D01*
X140692237Y-82719444D01*
X140548976Y-82675987D01*
X140437323Y-82664990D01*
X140437312Y-82664990D01*
X140399990Y-82661314D01*
X140362668Y-82664990D01*
X131862332Y-82664990D01*
X131825009Y-82661314D01*
X131787686Y-82664990D01*
X131787677Y-82664990D01*
X131676024Y-82675987D01*
X131532763Y-82719444D01*
X131400734Y-82790016D01*
X131285009Y-82884989D01*
X131261211Y-82913988D01*
X130692460Y-83482738D01*
X130619123Y-83393377D01*
X130486442Y-83284488D01*
X130335067Y-83203577D01*
X130170816Y-83153752D01*
X130000000Y-83136928D01*
X129500000Y-83136928D01*
X129329184Y-83153752D01*
X129164933Y-83203577D01*
X129013558Y-83284488D01*
X128880877Y-83393377D01*
X128837500Y-83446232D01*
X128794123Y-83393377D01*
X128661442Y-83284488D01*
X128510067Y-83203577D01*
X128345816Y-83153752D01*
X128175000Y-83136928D01*
X127675000Y-83136928D01*
X127504184Y-83153752D01*
X127339933Y-83203577D01*
X127188558Y-83284488D01*
X127104803Y-83353224D01*
X125888891Y-82137313D01*
X126464250Y-82135000D01*
X126623000Y-81976250D01*
X126623000Y-80127000D01*
X126877000Y-80127000D01*
X126877000Y-81976250D01*
X127035750Y-82135000D01*
X127800000Y-82138072D01*
X127924482Y-82125812D01*
X128044180Y-82089502D01*
X128154494Y-82030537D01*
X128251185Y-81951185D01*
X128330537Y-81854494D01*
X128389502Y-81744180D01*
X128425812Y-81624482D01*
X128438072Y-81500000D01*
X131411928Y-81500000D01*
X131424188Y-81624482D01*
X131460498Y-81744180D01*
X131519463Y-81854494D01*
X131598815Y-81951185D01*
X131695506Y-82030537D01*
X131805820Y-82089502D01*
X131925518Y-82125812D01*
X132050000Y-82138072D01*
X132814250Y-82135000D01*
X132973000Y-81976250D01*
X132973000Y-80127000D01*
X133227000Y-80127000D01*
X133227000Y-81976250D01*
X133385750Y-82135000D01*
X134150000Y-82138072D01*
X134274482Y-82125812D01*
X134394180Y-82089502D01*
X134504494Y-82030537D01*
X134601185Y-81951185D01*
X134680537Y-81854494D01*
X134739502Y-81744180D01*
X134775812Y-81624482D01*
X134788072Y-81500000D01*
X134961928Y-81500000D01*
X134974188Y-81624482D01*
X135010498Y-81744180D01*
X135069463Y-81854494D01*
X135148815Y-81951185D01*
X135245506Y-82030537D01*
X135355820Y-82089502D01*
X135475518Y-82125812D01*
X135600000Y-82138072D01*
X136364250Y-82135000D01*
X136523000Y-81976250D01*
X136523000Y-80127000D01*
X136777000Y-80127000D01*
X136777000Y-81976250D01*
X136935750Y-82135000D01*
X137700000Y-82138072D01*
X137824482Y-82125812D01*
X137944180Y-82089502D01*
X138054494Y-82030537D01*
X138151185Y-81951185D01*
X138230537Y-81854494D01*
X138289502Y-81744180D01*
X138325812Y-81624482D01*
X138338072Y-81500000D01*
X141311928Y-81500000D01*
X141324188Y-81624482D01*
X141360498Y-81744180D01*
X141419463Y-81854494D01*
X141498815Y-81951185D01*
X141595506Y-82030537D01*
X141705820Y-82089502D01*
X141825518Y-82125812D01*
X141950000Y-82138072D01*
X142714250Y-82135000D01*
X142873000Y-81976250D01*
X142873000Y-80127000D01*
X141473750Y-80127000D01*
X141315000Y-80285750D01*
X141311928Y-81500000D01*
X138338072Y-81500000D01*
X138335000Y-80285750D01*
X138176250Y-80127000D01*
X136777000Y-80127000D01*
X136523000Y-80127000D01*
X135123750Y-80127000D01*
X134965000Y-80285750D01*
X134961928Y-81500000D01*
X134788072Y-81500000D01*
X134785000Y-80285750D01*
X134626250Y-80127000D01*
X133227000Y-80127000D01*
X132973000Y-80127000D01*
X131573750Y-80127000D01*
X131415000Y-80285750D01*
X131411928Y-81500000D01*
X128438072Y-81500000D01*
X128435000Y-80285750D01*
X128276250Y-80127000D01*
X126877000Y-80127000D01*
X126623000Y-80127000D01*
X125223750Y-80127000D01*
X125065000Y-80285750D01*
X125062407Y-81310828D01*
X124885000Y-81133422D01*
X124885000Y-80638454D01*
X124917205Y-80590256D01*
X124995226Y-80401898D01*
X125035000Y-80201939D01*
X125035000Y-79998061D01*
X124995226Y-79798102D01*
X124917205Y-79609744D01*
X124885000Y-79561546D01*
X124885000Y-78366578D01*
X125366579Y-77885000D01*
X125539876Y-77885000D01*
X125455820Y-77910498D01*
X125345506Y-77969463D01*
X125248815Y-78048815D01*
X125169463Y-78145506D01*
X125110498Y-78255820D01*
X125074188Y-78375518D01*
X125061928Y-78500000D01*
X125065000Y-79714250D01*
X125223750Y-79873000D01*
X126623000Y-79873000D01*
X126623000Y-79853000D01*
X126877000Y-79853000D01*
X126877000Y-79873000D01*
X128276250Y-79873000D01*
X128435000Y-79714250D01*
X128438072Y-78500000D01*
X128425812Y-78375518D01*
X128389502Y-78255820D01*
X128330537Y-78145506D01*
X128251185Y-78048815D01*
X128154494Y-77969463D01*
X128044180Y-77910498D01*
X127960124Y-77885000D01*
X128284553Y-77885000D01*
X128325722Y-78020716D01*
X128403169Y-78165608D01*
X128507394Y-78292606D01*
X128634392Y-78396831D01*
X128779284Y-78474278D01*
X128936500Y-78521969D01*
X129100000Y-78538072D01*
X129500000Y-78538072D01*
X129663500Y-78521969D01*
X129820716Y-78474278D01*
X129849027Y-78459145D01*
X129905820Y-78489502D01*
X130025518Y-78525812D01*
X130150000Y-78538072D01*
X130264250Y-78535000D01*
X130423000Y-78376250D01*
X130423000Y-77377000D01*
X130677000Y-77377000D01*
X130677000Y-78376250D01*
X130835750Y-78535000D01*
X130950000Y-78538072D01*
X131074482Y-78525812D01*
X131194180Y-78489502D01*
X131304494Y-78430537D01*
X131401185Y-78351185D01*
X131449386Y-78292452D01*
X131424188Y-78375518D01*
X131411928Y-78500000D01*
X131415000Y-79714250D01*
X131573750Y-79873000D01*
X132973000Y-79873000D01*
X132973000Y-78023750D01*
X133227000Y-78023750D01*
X133227000Y-79873000D01*
X134626250Y-79873000D01*
X134785000Y-79714250D01*
X134788072Y-78500000D01*
X134961928Y-78500000D01*
X134965000Y-79714250D01*
X135123750Y-79873000D01*
X136523000Y-79873000D01*
X136523000Y-78023750D01*
X136777000Y-78023750D01*
X136777000Y-79873000D01*
X138176250Y-79873000D01*
X138335000Y-79714250D01*
X138338072Y-78500000D01*
X138325812Y-78375518D01*
X138289502Y-78255820D01*
X138230537Y-78145506D01*
X138151185Y-78048815D01*
X138054494Y-77969463D01*
X137944180Y-77910498D01*
X137824482Y-77874188D01*
X137700000Y-77861928D01*
X136935750Y-77865000D01*
X136777000Y-78023750D01*
X136523000Y-78023750D01*
X136364250Y-77865000D01*
X135600000Y-77861928D01*
X135475518Y-77874188D01*
X135355820Y-77910498D01*
X135245506Y-77969463D01*
X135148815Y-78048815D01*
X135069463Y-78145506D01*
X135010498Y-78255820D01*
X134974188Y-78375518D01*
X134961928Y-78500000D01*
X134788072Y-78500000D01*
X134775812Y-78375518D01*
X134739502Y-78255820D01*
X134680537Y-78145506D01*
X134601185Y-78048815D01*
X134504494Y-77969463D01*
X134394180Y-77910498D01*
X134274482Y-77874188D01*
X134150000Y-77861928D01*
X133385750Y-77865000D01*
X133227000Y-78023750D01*
X132973000Y-78023750D01*
X132814250Y-77865000D01*
X132050000Y-77861928D01*
X131925518Y-77874188D01*
X131805820Y-77910498D01*
X131695506Y-77969463D01*
X131598815Y-78048815D01*
X131550614Y-78107548D01*
X131575812Y-78024482D01*
X131588072Y-77900000D01*
X131585000Y-77535750D01*
X131426250Y-77377000D01*
X130677000Y-77377000D01*
X130423000Y-77377000D01*
X130403000Y-77377000D01*
X130403000Y-77123000D01*
X130423000Y-77123000D01*
X130423000Y-77103000D01*
X130677000Y-77103000D01*
X130677000Y-77123000D01*
X131426250Y-77123000D01*
X131585000Y-76964250D01*
X131585668Y-76885000D01*
X137633422Y-76885000D01*
X138161928Y-77413507D01*
X138161928Y-77700000D01*
X138178031Y-77863500D01*
X138225722Y-78020716D01*
X138303169Y-78165608D01*
X138407394Y-78292606D01*
X138534392Y-78396831D01*
X138679284Y-78474278D01*
X138836500Y-78521969D01*
X139000000Y-78538072D01*
X139400000Y-78538072D01*
X139563500Y-78521969D01*
X139720716Y-78474278D01*
X139749027Y-78459145D01*
X139805820Y-78489502D01*
X139925518Y-78525812D01*
X140050000Y-78538072D01*
X140164250Y-78535000D01*
X140323000Y-78376250D01*
X140323000Y-77377000D01*
X140577000Y-77377000D01*
X140577000Y-78376250D01*
X140735750Y-78535000D01*
X140850000Y-78538072D01*
X140974482Y-78525812D01*
X141094180Y-78489502D01*
X141204494Y-78430537D01*
X141301185Y-78351185D01*
X141349386Y-78292452D01*
X141324188Y-78375518D01*
X141311928Y-78500000D01*
X141315000Y-79714250D01*
X141473750Y-79873000D01*
X142873000Y-79873000D01*
X142873000Y-78023750D01*
X143127000Y-78023750D01*
X143127000Y-79873000D01*
X144526250Y-79873000D01*
X144575000Y-79824250D01*
X144623750Y-79873000D01*
X146023000Y-79873000D01*
X146023000Y-78023750D01*
X146277000Y-78023750D01*
X146277000Y-79873000D01*
X147676250Y-79873000D01*
X147835000Y-79714250D01*
X147838072Y-78500000D01*
X147825812Y-78375518D01*
X147789502Y-78255820D01*
X147730537Y-78145506D01*
X147651185Y-78048815D01*
X147554494Y-77969463D01*
X147444180Y-77910498D01*
X147324482Y-77874188D01*
X147200000Y-77861928D01*
X146435750Y-77865000D01*
X146277000Y-78023750D01*
X146023000Y-78023750D01*
X145864250Y-77865000D01*
X145100000Y-77861928D01*
X144975518Y-77874188D01*
X144855820Y-77910498D01*
X144745506Y-77969463D01*
X144648815Y-78048815D01*
X144575000Y-78138759D01*
X144501185Y-78048815D01*
X144404494Y-77969463D01*
X144294180Y-77910498D01*
X144174482Y-77874188D01*
X144050000Y-77861928D01*
X143285750Y-77865000D01*
X143127000Y-78023750D01*
X142873000Y-78023750D01*
X142714250Y-77865000D01*
X141950000Y-77861928D01*
X141825518Y-77874188D01*
X141705820Y-77910498D01*
X141595506Y-77969463D01*
X141498815Y-78048815D01*
X141450614Y-78107548D01*
X141475812Y-78024482D01*
X141488072Y-77900000D01*
X141485000Y-77535750D01*
X141326250Y-77377000D01*
X140577000Y-77377000D01*
X140323000Y-77377000D01*
X140303000Y-77377000D01*
X140303000Y-77123000D01*
X140323000Y-77123000D01*
X140323000Y-76123750D01*
X140577000Y-76123750D01*
X140577000Y-77123000D01*
X141326250Y-77123000D01*
X141485000Y-76964250D01*
X141488072Y-76600000D01*
X141475812Y-76475518D01*
X141439502Y-76355820D01*
X141380537Y-76245506D01*
X141301185Y-76148815D01*
X141204494Y-76069463D01*
X141094180Y-76010498D01*
X140974482Y-75974188D01*
X140850000Y-75961928D01*
X140735750Y-75965000D01*
X140577000Y-76123750D01*
X140323000Y-76123750D01*
X140164250Y-75965000D01*
X140050000Y-75961928D01*
X139925518Y-75974188D01*
X139805820Y-76010498D01*
X139749027Y-76040855D01*
X139720716Y-76025722D01*
X139563500Y-75978031D01*
X139400000Y-75961928D01*
X139213507Y-75961928D01*
X138751579Y-75500000D01*
X141486928Y-75500000D01*
X141499188Y-75624482D01*
X141535498Y-75744180D01*
X141594463Y-75854494D01*
X141673815Y-75951185D01*
X141770506Y-76030537D01*
X141880820Y-76089502D01*
X142000518Y-76125812D01*
X142125000Y-76138072D01*
X142889250Y-76135000D01*
X143048000Y-75976250D01*
X143048000Y-74127000D01*
X143302000Y-74127000D01*
X143302000Y-75976250D01*
X143460750Y-76135000D01*
X144225000Y-76138072D01*
X144349482Y-76125812D01*
X144469180Y-76089502D01*
X144579494Y-76030537D01*
X144676185Y-75951185D01*
X144755537Y-75854494D01*
X144814502Y-75744180D01*
X144837500Y-75668366D01*
X144860498Y-75744180D01*
X144919463Y-75854494D01*
X144998815Y-75951185D01*
X145095506Y-76030537D01*
X145205820Y-76089502D01*
X145325518Y-76125812D01*
X145450000Y-76138072D01*
X146214250Y-76135000D01*
X146373000Y-75976250D01*
X146373000Y-74127000D01*
X146627000Y-74127000D01*
X146627000Y-75976250D01*
X146785750Y-76135000D01*
X147550000Y-76138072D01*
X147674482Y-76125812D01*
X147794180Y-76089502D01*
X147904494Y-76030537D01*
X148001185Y-75951185D01*
X148080537Y-75854494D01*
X148139502Y-75744180D01*
X148175812Y-75624482D01*
X148188072Y-75500000D01*
X151161928Y-75500000D01*
X151174188Y-75624482D01*
X151210498Y-75744180D01*
X151269463Y-75854494D01*
X151348815Y-75951185D01*
X151431614Y-76019136D01*
X151327000Y-76123750D01*
X151327000Y-77123000D01*
X152076250Y-77123000D01*
X152235000Y-76964250D01*
X152238072Y-76600000D01*
X152225812Y-76475518D01*
X152189502Y-76355820D01*
X152130537Y-76245506D01*
X152051185Y-76148815D01*
X152036934Y-76137120D01*
X152564250Y-76135000D01*
X152723000Y-75976250D01*
X152723000Y-74127000D01*
X152977000Y-74127000D01*
X152977000Y-75976250D01*
X153135750Y-76135000D01*
X153900000Y-76138072D01*
X154024482Y-76125812D01*
X154144180Y-76089502D01*
X154254494Y-76030537D01*
X154351185Y-75951185D01*
X154430537Y-75854494D01*
X154489502Y-75744180D01*
X154525812Y-75624482D01*
X154538072Y-75500000D01*
X154535000Y-74285750D01*
X154376250Y-74127000D01*
X152977000Y-74127000D01*
X152723000Y-74127000D01*
X151323750Y-74127000D01*
X151165000Y-74285750D01*
X151161928Y-75500000D01*
X148188072Y-75500000D01*
X148185000Y-74285750D01*
X148026250Y-74127000D01*
X146627000Y-74127000D01*
X146373000Y-74127000D01*
X144973750Y-74127000D01*
X144837500Y-74263250D01*
X144701250Y-74127000D01*
X143302000Y-74127000D01*
X143048000Y-74127000D01*
X141648750Y-74127000D01*
X141490000Y-74285750D01*
X141486928Y-75500000D01*
X138751579Y-75500000D01*
X138656534Y-75404956D01*
X138628817Y-75371183D01*
X138512505Y-75275727D01*
X138510000Y-74285750D01*
X138351250Y-74127000D01*
X136952000Y-74127000D01*
X136952000Y-74147000D01*
X136698000Y-74147000D01*
X136698000Y-74127000D01*
X135298750Y-74127000D01*
X135140000Y-74285750D01*
X135137902Y-75115000D01*
X134862098Y-75115000D01*
X134860000Y-74285750D01*
X134701250Y-74127000D01*
X133302000Y-74127000D01*
X133302000Y-74147000D01*
X133048000Y-74147000D01*
X133048000Y-74127000D01*
X131648750Y-74127000D01*
X131490000Y-74285750D01*
X131487902Y-75115000D01*
X130043465Y-75115000D01*
X129999999Y-75110719D01*
X129956533Y-75115000D01*
X129956523Y-75115000D01*
X129826510Y-75127805D01*
X129659687Y-75178411D01*
X129505941Y-75260589D01*
X129505939Y-75260590D01*
X129505940Y-75260590D01*
X129404953Y-75343468D01*
X129404951Y-75343470D01*
X129371183Y-75371183D01*
X129343470Y-75404951D01*
X128704951Y-76043471D01*
X128671184Y-76071183D01*
X128653172Y-76093131D01*
X128634392Y-76103169D01*
X128619976Y-76115000D01*
X128035124Y-76115000D01*
X128119180Y-76089502D01*
X128229494Y-76030537D01*
X128326185Y-75951185D01*
X128405537Y-75854494D01*
X128464502Y-75744180D01*
X128500812Y-75624482D01*
X128513072Y-75500000D01*
X128510000Y-74285750D01*
X128351250Y-74127000D01*
X126952000Y-74127000D01*
X126952000Y-74147000D01*
X126698000Y-74147000D01*
X126698000Y-74127000D01*
X125298750Y-74127000D01*
X125140000Y-74285750D01*
X125136928Y-75500000D01*
X125149188Y-75624482D01*
X125185498Y-75744180D01*
X125244463Y-75854494D01*
X125323815Y-75951185D01*
X125420506Y-76030537D01*
X125530820Y-76089502D01*
X125614876Y-76115000D01*
X125366579Y-76115000D01*
X124885000Y-75633422D01*
X124885000Y-73366578D01*
X125138479Y-73113099D01*
X125140000Y-73714250D01*
X125298750Y-73873000D01*
X126698000Y-73873000D01*
X126698000Y-73853000D01*
X126952000Y-73853000D01*
X126952000Y-73873000D01*
X128351250Y-73873000D01*
X128510000Y-73714250D01*
X128513072Y-72500000D01*
X128500812Y-72375518D01*
X128464502Y-72255820D01*
X128405537Y-72145506D01*
X128326185Y-72048815D01*
X128229494Y-71969463D01*
X128119180Y-71910498D01*
X128035124Y-71885000D01*
X128359553Y-71885000D01*
X128400722Y-72020716D01*
X128478169Y-72165608D01*
X128582394Y-72292606D01*
X128709392Y-72396831D01*
X128854284Y-72474278D01*
X129011500Y-72521969D01*
X129175000Y-72538072D01*
X129575000Y-72538072D01*
X129738500Y-72521969D01*
X129895716Y-72474278D01*
X129924027Y-72459145D01*
X129980820Y-72489502D01*
X130100518Y-72525812D01*
X130225000Y-72538072D01*
X130339250Y-72535000D01*
X130498000Y-72376250D01*
X130498000Y-71377000D01*
X130752000Y-71377000D01*
X130752000Y-72376250D01*
X130910750Y-72535000D01*
X131025000Y-72538072D01*
X131149482Y-72525812D01*
X131269180Y-72489502D01*
X131379494Y-72430537D01*
X131476185Y-72351185D01*
X131524386Y-72292452D01*
X131499188Y-72375518D01*
X131486928Y-72500000D01*
X131490000Y-73714250D01*
X131648750Y-73873000D01*
X133048000Y-73873000D01*
X133048000Y-72023750D01*
X133302000Y-72023750D01*
X133302000Y-73873000D01*
X134701250Y-73873000D01*
X134860000Y-73714250D01*
X134863072Y-72500000D01*
X135136928Y-72500000D01*
X135140000Y-73714250D01*
X135298750Y-73873000D01*
X136698000Y-73873000D01*
X136698000Y-72023750D01*
X136952000Y-72023750D01*
X136952000Y-73873000D01*
X138351250Y-73873000D01*
X138510000Y-73714250D01*
X138513072Y-72500000D01*
X138500812Y-72375518D01*
X138464502Y-72255820D01*
X138405537Y-72145506D01*
X138326185Y-72048815D01*
X138229494Y-71969463D01*
X138119180Y-71910498D01*
X137999482Y-71874188D01*
X137875000Y-71861928D01*
X137110750Y-71865000D01*
X136952000Y-72023750D01*
X136698000Y-72023750D01*
X136539250Y-71865000D01*
X135775000Y-71861928D01*
X135650518Y-71874188D01*
X135530820Y-71910498D01*
X135420506Y-71969463D01*
X135323815Y-72048815D01*
X135244463Y-72145506D01*
X135185498Y-72255820D01*
X135149188Y-72375518D01*
X135136928Y-72500000D01*
X134863072Y-72500000D01*
X134850812Y-72375518D01*
X134814502Y-72255820D01*
X134755537Y-72145506D01*
X134676185Y-72048815D01*
X134579494Y-71969463D01*
X134469180Y-71910498D01*
X134349482Y-71874188D01*
X134225000Y-71861928D01*
X133460750Y-71865000D01*
X133302000Y-72023750D01*
X133048000Y-72023750D01*
X132889250Y-71865000D01*
X132125000Y-71861928D01*
X132000518Y-71874188D01*
X131880820Y-71910498D01*
X131770506Y-71969463D01*
X131673815Y-72048815D01*
X131625614Y-72107548D01*
X131650812Y-72024482D01*
X131663072Y-71900000D01*
X131660000Y-71535750D01*
X131501250Y-71377000D01*
X130752000Y-71377000D01*
X130498000Y-71377000D01*
X130478000Y-71377000D01*
X130478000Y-71123000D01*
X130498000Y-71123000D01*
X130498000Y-71103000D01*
X130752000Y-71103000D01*
X130752000Y-71123000D01*
X131501250Y-71123000D01*
X131660000Y-70964250D01*
X131661512Y-70785000D01*
X138338405Y-70785000D01*
X138336928Y-70800000D01*
X138336928Y-71700000D01*
X138353031Y-71863500D01*
X138400722Y-72020716D01*
X138478169Y-72165608D01*
X138582394Y-72292606D01*
X138709392Y-72396831D01*
X138854284Y-72474278D01*
X139011500Y-72521969D01*
X139175000Y-72538072D01*
X139575000Y-72538072D01*
X139738500Y-72521969D01*
X139895716Y-72474278D01*
X139924027Y-72459145D01*
X139980820Y-72489502D01*
X140100518Y-72525812D01*
X140225000Y-72538072D01*
X140339250Y-72535000D01*
X140498000Y-72376250D01*
X140498000Y-71377000D01*
X140752000Y-71377000D01*
X140752000Y-72376250D01*
X140910750Y-72535000D01*
X141025000Y-72538072D01*
X141149482Y-72525812D01*
X141269180Y-72489502D01*
X141379494Y-72430537D01*
X141476185Y-72351185D01*
X141524386Y-72292452D01*
X141499188Y-72375518D01*
X141486928Y-72500000D01*
X141490000Y-73714250D01*
X141648750Y-73873000D01*
X143048000Y-73873000D01*
X143048000Y-72023750D01*
X143302000Y-72023750D01*
X143302000Y-73873000D01*
X144701250Y-73873000D01*
X144837500Y-73736750D01*
X144973750Y-73873000D01*
X146373000Y-73873000D01*
X146373000Y-72023750D01*
X146627000Y-72023750D01*
X146627000Y-73873000D01*
X148026250Y-73873000D01*
X148185000Y-73714250D01*
X148188072Y-72500000D01*
X148175812Y-72375518D01*
X148139502Y-72255820D01*
X148080537Y-72145506D01*
X148001185Y-72048815D01*
X147904494Y-71969463D01*
X147794180Y-71910498D01*
X147674482Y-71874188D01*
X147550000Y-71861928D01*
X146785750Y-71865000D01*
X146627000Y-72023750D01*
X146373000Y-72023750D01*
X146214250Y-71865000D01*
X145450000Y-71861928D01*
X145325518Y-71874188D01*
X145205820Y-71910498D01*
X145095506Y-71969463D01*
X144998815Y-72048815D01*
X144919463Y-72145506D01*
X144860498Y-72255820D01*
X144837500Y-72331634D01*
X144814502Y-72255820D01*
X144755537Y-72145506D01*
X144676185Y-72048815D01*
X144579494Y-71969463D01*
X144469180Y-71910498D01*
X144349482Y-71874188D01*
X144225000Y-71861928D01*
X143460750Y-71865000D01*
X143302000Y-72023750D01*
X143048000Y-72023750D01*
X142889250Y-71865000D01*
X142125000Y-71861928D01*
X142000518Y-71874188D01*
X141880820Y-71910498D01*
X141770506Y-71969463D01*
X141673815Y-72048815D01*
X141625614Y-72107548D01*
X141650812Y-72024482D01*
X141663072Y-71900000D01*
X141660000Y-71535750D01*
X141501250Y-71377000D01*
X140752000Y-71377000D01*
X140498000Y-71377000D01*
X140478000Y-71377000D01*
X140478000Y-71123000D01*
X140498000Y-71123000D01*
X140498000Y-71103000D01*
X140752000Y-71103000D01*
X140752000Y-71123000D01*
X141501250Y-71123000D01*
X141660000Y-70964250D01*
X141662355Y-70685000D01*
X147433422Y-70685000D01*
X147854953Y-71106532D01*
X147854959Y-71106537D01*
X148011928Y-71263506D01*
X148011928Y-71700000D01*
X148028031Y-71863500D01*
X148075722Y-72020716D01*
X148153169Y-72165608D01*
X148257394Y-72292606D01*
X148384392Y-72396831D01*
X148529284Y-72474278D01*
X148686500Y-72521969D01*
X148850000Y-72538072D01*
X149250000Y-72538072D01*
X149413500Y-72521969D01*
X149570716Y-72474278D01*
X149599027Y-72459145D01*
X149655820Y-72489502D01*
X149775518Y-72525812D01*
X149900000Y-72538072D01*
X150014250Y-72535000D01*
X150173000Y-72376250D01*
X150173000Y-71377000D01*
X150427000Y-71377000D01*
X150427000Y-72376250D01*
X150585750Y-72535000D01*
X150700000Y-72538072D01*
X150824482Y-72525812D01*
X150944180Y-72489502D01*
X151054494Y-72430537D01*
X151151185Y-72351185D01*
X151199386Y-72292452D01*
X151174188Y-72375518D01*
X151161928Y-72500000D01*
X151165000Y-73714250D01*
X151323750Y-73873000D01*
X152723000Y-73873000D01*
X152723000Y-72023750D01*
X152977000Y-72023750D01*
X152977000Y-73873000D01*
X154376250Y-73873000D01*
X154535000Y-73714250D01*
X154538072Y-72500000D01*
X154525812Y-72375518D01*
X154489502Y-72255820D01*
X154430537Y-72145506D01*
X154351185Y-72048815D01*
X154254494Y-71969463D01*
X154144180Y-71910498D01*
X154024482Y-71874188D01*
X153900000Y-71861928D01*
X153135750Y-71865000D01*
X152977000Y-72023750D01*
X152723000Y-72023750D01*
X152564250Y-71865000D01*
X151800000Y-71861928D01*
X151675518Y-71874188D01*
X151555820Y-71910498D01*
X151445506Y-71969463D01*
X151348815Y-72048815D01*
X151300614Y-72107548D01*
X151325812Y-72024482D01*
X151338072Y-71900000D01*
X151335000Y-71535750D01*
X151176250Y-71377000D01*
X150427000Y-71377000D01*
X150173000Y-71377000D01*
X150153000Y-71377000D01*
X150153000Y-71123000D01*
X150173000Y-71123000D01*
X150173000Y-70123750D01*
X150427000Y-70123750D01*
X150427000Y-71123000D01*
X151176250Y-71123000D01*
X151335000Y-70964250D01*
X151338072Y-70600000D01*
X151325812Y-70475518D01*
X151289502Y-70355820D01*
X151230537Y-70245506D01*
X151151185Y-70148815D01*
X151054494Y-70069463D01*
X150944180Y-70010498D01*
X150824482Y-69974188D01*
X150700000Y-69961928D01*
X150585750Y-69965000D01*
X150427000Y-70123750D01*
X150173000Y-70123750D01*
X150014250Y-69965000D01*
X149900000Y-69961928D01*
X149775518Y-69974188D01*
X149655820Y-70010498D01*
X149599027Y-70040855D01*
X149570716Y-70025722D01*
X149413500Y-69978031D01*
X149250000Y-69961928D01*
X149213506Y-69961928D01*
X149106537Y-69854959D01*
X149106532Y-69854953D01*
X148456534Y-69204956D01*
X148428817Y-69171183D01*
X148294059Y-69060589D01*
X148140313Y-68978411D01*
X147973490Y-68927805D01*
X147843477Y-68915000D01*
X147843469Y-68915000D01*
X147800000Y-68910719D01*
X147756531Y-68915000D01*
X140143469Y-68915000D01*
X140100000Y-68910719D01*
X140056531Y-68915000D01*
X140056523Y-68915000D01*
X139926510Y-68927805D01*
X139759687Y-68978411D01*
X139605941Y-69060589D01*
X139504953Y-69143468D01*
X139504951Y-69143470D01*
X139471183Y-69171183D01*
X139443470Y-69204951D01*
X139377950Y-69270471D01*
X139244059Y-69160589D01*
X139090313Y-69078411D01*
X138923490Y-69027805D01*
X138793477Y-69015000D01*
X138793469Y-69015000D01*
X138750000Y-69010719D01*
X138706531Y-69015000D01*
X130143469Y-69015000D01*
X130100000Y-69010719D01*
X130056531Y-69015000D01*
X130056523Y-69015000D01*
X129941306Y-69026348D01*
X129926509Y-69027805D01*
X129875903Y-69043157D01*
X129759687Y-69078411D01*
X129637973Y-69143468D01*
X129605941Y-69160589D01*
X129504953Y-69243468D01*
X129504951Y-69243470D01*
X129471183Y-69271183D01*
X129443470Y-69304951D01*
X128633422Y-70115000D01*
X126043465Y-70115000D01*
X125999999Y-70110719D01*
X125956533Y-70115000D01*
X125956523Y-70115000D01*
X125826510Y-70127805D01*
X125659687Y-70178411D01*
X125505941Y-70260589D01*
X125486541Y-70276510D01*
X125404953Y-70343468D01*
X125404951Y-70343470D01*
X125371183Y-70371183D01*
X125343470Y-70404951D01*
X123786336Y-71962086D01*
X123751250Y-71927000D01*
X122927000Y-71927000D01*
X122927000Y-71947000D01*
X122673000Y-71947000D01*
X122673000Y-71927000D01*
X121848750Y-71927000D01*
X121690000Y-72085750D01*
X121686928Y-72287500D01*
X121699188Y-72411982D01*
X121735498Y-72531680D01*
X121794463Y-72641994D01*
X121873815Y-72738685D01*
X121923812Y-72779717D01*
X121834488Y-72888558D01*
X121753577Y-73039933D01*
X121703752Y-73204184D01*
X121686928Y-73375000D01*
X121686928Y-73875000D01*
X121703752Y-74045816D01*
X121753577Y-74210067D01*
X121781415Y-74262148D01*
X121682795Y-74409744D01*
X121604774Y-74598102D01*
X121565000Y-74798061D01*
X118660000Y-74798061D01*
X118660000Y-71312500D01*
X121686928Y-71312500D01*
X121690000Y-71514250D01*
X121848750Y-71673000D01*
X122673000Y-71673000D01*
X122673000Y-70836250D01*
X122927000Y-70836250D01*
X122927000Y-71673000D01*
X123751250Y-71673000D01*
X123910000Y-71514250D01*
X123913072Y-71312500D01*
X123900812Y-71188018D01*
X123864502Y-71068320D01*
X123805537Y-70958006D01*
X123726185Y-70861315D01*
X123629494Y-70781963D01*
X123519180Y-70722998D01*
X123399482Y-70686688D01*
X123275000Y-70674428D01*
X123085750Y-70677500D01*
X122927000Y-70836250D01*
X122673000Y-70836250D01*
X122514250Y-70677500D01*
X122325000Y-70674428D01*
X122200518Y-70686688D01*
X122080820Y-70722998D01*
X121970506Y-70781963D01*
X121873815Y-70861315D01*
X121794463Y-70958006D01*
X121735498Y-71068320D01*
X121699188Y-71188018D01*
X121686928Y-71312500D01*
X118660000Y-71312500D01*
X118660000Y-65660000D01*
X161340000Y-65660000D01*
X161340001Y-104340000D01*
G04 #@! TA.AperFunction,Conductor*
D16*
G36*
X161340001Y-104340000D02*
G01*
X118660000Y-104340000D01*
X118660000Y-98475000D01*
X125124428Y-98475000D01*
X125136688Y-98599482D01*
X125172998Y-98719180D01*
X125231963Y-98829494D01*
X125311315Y-98926185D01*
X125408006Y-99005537D01*
X125518320Y-99064502D01*
X125638018Y-99100812D01*
X125762500Y-99113072D01*
X125964250Y-99110000D01*
X126123000Y-98951250D01*
X126123000Y-98127000D01*
X125286250Y-98127000D01*
X125127500Y-98285750D01*
X125124428Y-98475000D01*
X118660000Y-98475000D01*
X118660000Y-97525000D01*
X125124428Y-97525000D01*
X125127500Y-97714250D01*
X125286250Y-97873000D01*
X126123000Y-97873000D01*
X126123000Y-97048750D01*
X125964250Y-96890000D01*
X125762500Y-96886928D01*
X125638018Y-96899188D01*
X125518320Y-96935498D01*
X125408006Y-96994463D01*
X125311315Y-97073815D01*
X125231963Y-97170506D01*
X125172998Y-97280820D01*
X125136688Y-97400518D01*
X125124428Y-97525000D01*
X118660000Y-97525000D01*
X118660000Y-88650000D01*
X127136928Y-88650000D01*
X127149188Y-88774482D01*
X127185498Y-88894180D01*
X127244463Y-89004494D01*
X127323815Y-89101185D01*
X127420506Y-89180537D01*
X127530820Y-89239502D01*
X127650518Y-89275812D01*
X127775000Y-89288072D01*
X127964250Y-89285000D01*
X128123000Y-89126250D01*
X128123000Y-88239500D01*
X127298750Y-88239500D01*
X127140000Y-88398250D01*
X127136928Y-88650000D01*
X118660000Y-88650000D01*
X118660000Y-74798061D01*
X121565000Y-74798061D01*
X121565000Y-75001939D01*
X121604774Y-75201898D01*
X121682795Y-75390256D01*
X121796063Y-75559774D01*
X121940226Y-75703937D01*
X122109744Y-75817205D01*
X122298102Y-75895226D01*
X122498061Y-75935000D01*
X122701939Y-75935000D01*
X122901898Y-75895226D01*
X123090256Y-75817205D01*
X123115000Y-75800672D01*
X123115000Y-75956531D01*
X123110719Y-76000000D01*
X123115000Y-76043469D01*
X123115000Y-76043476D01*
X123122906Y-76123750D01*
X123127805Y-76173490D01*
X123129298Y-76178411D01*
X123178411Y-76340312D01*
X123260589Y-76494058D01*
X123371183Y-76628817D01*
X123404956Y-76656534D01*
X123748422Y-77000000D01*
X123404951Y-77343471D01*
X123371184Y-77371183D01*
X123343471Y-77404951D01*
X123343468Y-77404954D01*
X123260590Y-77505941D01*
X123178412Y-77659687D01*
X123127805Y-77826510D01*
X123110719Y-78000000D01*
X123115001Y-78043479D01*
X123115000Y-79561545D01*
X123082795Y-79609744D01*
X123004774Y-79798102D01*
X122965000Y-79998061D01*
X122965000Y-80201939D01*
X123004774Y-80401898D01*
X123082795Y-80590256D01*
X123115001Y-80638455D01*
X123115000Y-81456531D01*
X123110719Y-81500000D01*
X123115000Y-81543469D01*
X123115000Y-81543476D01*
X123127805Y-81673489D01*
X123178411Y-81840312D01*
X123260589Y-81994058D01*
X123371183Y-82128817D01*
X123404956Y-82156534D01*
X126093470Y-84845049D01*
X126121183Y-84878817D01*
X126154951Y-84906530D01*
X126154953Y-84906532D01*
X126189610Y-84934974D01*
X126255941Y-84989411D01*
X126409687Y-85071589D01*
X126576510Y-85122195D01*
X126706523Y-85135000D01*
X126706533Y-85135000D01*
X126749999Y-85139281D01*
X126793465Y-85135000D01*
X127090454Y-85135000D01*
X127115001Y-85155145D01*
X127115001Y-85956521D01*
X127110719Y-86000000D01*
X127127805Y-86173490D01*
X127136928Y-86203563D01*
X127136928Y-86687500D01*
X127153752Y-86858316D01*
X127203577Y-87022567D01*
X127283774Y-87172606D01*
X127244463Y-87220506D01*
X127185498Y-87330820D01*
X127149188Y-87450518D01*
X127136928Y-87575000D01*
X127140000Y-87826750D01*
X127298750Y-87985500D01*
X128123000Y-87985500D01*
X128123000Y-87965500D01*
X128377000Y-87965500D01*
X128377000Y-87985500D01*
X128397000Y-87985500D01*
X128397000Y-88239500D01*
X128377000Y-88239500D01*
X128377000Y-89126250D01*
X128535750Y-89285000D01*
X128710584Y-89287838D01*
X128604951Y-89393471D01*
X128571184Y-89421183D01*
X128543471Y-89454951D01*
X128543468Y-89454954D01*
X128460590Y-89555941D01*
X128378412Y-89709687D01*
X128327805Y-89876510D01*
X128310719Y-90050000D01*
X128315001Y-90093478D01*
X128315000Y-91243476D01*
X128315001Y-91243486D01*
X128315000Y-92506530D01*
X128310719Y-92550000D01*
X128315000Y-92593469D01*
X128315000Y-92593476D01*
X128315001Y-92593485D01*
X128315001Y-92797269D01*
X128295518Y-92799188D01*
X128175820Y-92835498D01*
X128065506Y-92894463D01*
X127968815Y-92973815D01*
X127889463Y-93070506D01*
X127850000Y-93144335D01*
X127810537Y-93070506D01*
X127731185Y-92973815D01*
X127634494Y-92894463D01*
X127524180Y-92835498D01*
X127404482Y-92799188D01*
X127280000Y-92786928D01*
X125720000Y-92786928D01*
X125595518Y-92799188D01*
X125475820Y-92835498D01*
X125365506Y-92894463D01*
X125268815Y-92973815D01*
X125255532Y-92990000D01*
X124703711Y-92990000D01*
X124659774Y-92946063D01*
X124490256Y-92832795D01*
X124301898Y-92754774D01*
X124101939Y-92715000D01*
X123898061Y-92715000D01*
X123698102Y-92754774D01*
X123509744Y-92832795D01*
X123340226Y-92946063D01*
X123196063Y-93090226D01*
X123082795Y-93259744D01*
X123004774Y-93448102D01*
X122965000Y-93648061D01*
X122965000Y-93851939D01*
X123004774Y-94051898D01*
X123082795Y-94240256D01*
X123196063Y-94409774D01*
X123340226Y-94553937D01*
X123509744Y-94667205D01*
X123698102Y-94745226D01*
X123898061Y-94785000D01*
X124101939Y-94785000D01*
X124301898Y-94745226D01*
X124490256Y-94667205D01*
X124659774Y-94553937D01*
X124703711Y-94510000D01*
X125180750Y-94510000D01*
X125243750Y-94573000D01*
X125325859Y-94573000D01*
X125365506Y-94605537D01*
X125475820Y-94664502D01*
X125592841Y-94700000D01*
X125475820Y-94735498D01*
X125365506Y-94794463D01*
X125325859Y-94827000D01*
X125243750Y-94827000D01*
X125085000Y-94985750D01*
X125081928Y-95025000D01*
X125094188Y-95149482D01*
X125101929Y-95175000D01*
X125094188Y-95200518D01*
X125081928Y-95325000D01*
X125081928Y-95975000D01*
X125094188Y-96099482D01*
X125130498Y-96219180D01*
X125189463Y-96329494D01*
X125268815Y-96426185D01*
X125365506Y-96505537D01*
X125475820Y-96564502D01*
X125595518Y-96600812D01*
X125720000Y-96613072D01*
X126788271Y-96613072D01*
X127240000Y-97064802D01*
X127240000Y-97115373D01*
X127229717Y-97123812D01*
X127188685Y-97073815D01*
X127091994Y-96994463D01*
X126981680Y-96935498D01*
X126861982Y-96899188D01*
X126737500Y-96886928D01*
X126535750Y-96890000D01*
X126377000Y-97048750D01*
X126377000Y-97873000D01*
X126397000Y-97873000D01*
X126397000Y-98127000D01*
X126377000Y-98127000D01*
X126377000Y-98951250D01*
X126535750Y-99110000D01*
X126737500Y-99113072D01*
X126861982Y-99100812D01*
X126981680Y-99064502D01*
X127091994Y-99005537D01*
X127188685Y-98926185D01*
X127229717Y-98876188D01*
X127338558Y-98965512D01*
X127489933Y-99046423D01*
X127654184Y-99096248D01*
X127825000Y-99113072D01*
X128325000Y-99113072D01*
X128495816Y-99096248D01*
X128660067Y-99046423D01*
X128811442Y-98965512D01*
X128944123Y-98856623D01*
X129053012Y-98723942D01*
X129125000Y-98589261D01*
X129196988Y-98723942D01*
X129305877Y-98856623D01*
X129438558Y-98965512D01*
X129589933Y-99046423D01*
X129754184Y-99096248D01*
X129925000Y-99113072D01*
X130425000Y-99113072D01*
X130595816Y-99096248D01*
X130760067Y-99046423D01*
X130911442Y-98965512D01*
X131044123Y-98856623D01*
X131087500Y-98803768D01*
X131130877Y-98856623D01*
X131263558Y-98965512D01*
X131414933Y-99046423D01*
X131579184Y-99096248D01*
X131750000Y-99113072D01*
X132250000Y-99113072D01*
X132420816Y-99096248D01*
X132585067Y-99046423D01*
X132736442Y-98965512D01*
X132869123Y-98856623D01*
X132978012Y-98723942D01*
X133058923Y-98572567D01*
X133108748Y-98408316D01*
X133125572Y-98237500D01*
X133125572Y-98126006D01*
X133845050Y-97406529D01*
X133878817Y-97378817D01*
X133906534Y-97345044D01*
X134658507Y-96593072D01*
X134850000Y-96593072D01*
X134974482Y-96580812D01*
X135094180Y-96544502D01*
X135204494Y-96485537D01*
X135301185Y-96406185D01*
X135365000Y-96328426D01*
X135365001Y-97961545D01*
X135332795Y-98009744D01*
X135254774Y-98198102D01*
X135215000Y-98398061D01*
X135215000Y-98601939D01*
X135254774Y-98801898D01*
X135332795Y-98990256D01*
X135446063Y-99159774D01*
X135590226Y-99303937D01*
X135759744Y-99417205D01*
X135948102Y-99495226D01*
X136148061Y-99535000D01*
X136351939Y-99535000D01*
X136551898Y-99495226D01*
X136740256Y-99417205D01*
X136909774Y-99303937D01*
X137053937Y-99159774D01*
X137093876Y-99100000D01*
X144761928Y-99100000D01*
X144774188Y-99224482D01*
X144810498Y-99344180D01*
X144869463Y-99454494D01*
X144948815Y-99551185D01*
X145045506Y-99630537D01*
X145155820Y-99689502D01*
X145275518Y-99725812D01*
X145400000Y-99738072D01*
X145914250Y-99735000D01*
X146073000Y-99576250D01*
X146073000Y-97727000D01*
X146327000Y-97727000D01*
X146327000Y-99576250D01*
X146485750Y-99735000D01*
X147000000Y-99738072D01*
X147124482Y-99725812D01*
X147244180Y-99689502D01*
X147354494Y-99630537D01*
X147451185Y-99551185D01*
X147530537Y-99454494D01*
X147589502Y-99344180D01*
X147625812Y-99224482D01*
X147638072Y-99100000D01*
X147635000Y-97885750D01*
X147476250Y-97727000D01*
X146327000Y-97727000D01*
X146073000Y-97727000D01*
X144923750Y-97727000D01*
X144765000Y-97885750D01*
X144761928Y-99100000D01*
X137093876Y-99100000D01*
X137167205Y-98990256D01*
X137245226Y-98801898D01*
X137285000Y-98601939D01*
X137285000Y-98398061D01*
X137245226Y-98198102D01*
X137167205Y-98009744D01*
X137135000Y-97961546D01*
X137135000Y-96100000D01*
X144761928Y-96100000D01*
X144765000Y-97314250D01*
X144923750Y-97473000D01*
X146073000Y-97473000D01*
X146073000Y-95623750D01*
X146327000Y-95623750D01*
X146327000Y-97473000D01*
X147476250Y-97473000D01*
X147635000Y-97314250D01*
X147638072Y-96100000D01*
X147625812Y-95975518D01*
X147589502Y-95855820D01*
X147530537Y-95745506D01*
X147451185Y-95648815D01*
X147354494Y-95569463D01*
X147244180Y-95510498D01*
X147124482Y-95474188D01*
X147000000Y-95461928D01*
X146485750Y-95465000D01*
X146327000Y-95623750D01*
X146073000Y-95623750D01*
X145914250Y-95465000D01*
X145400000Y-95461928D01*
X145275518Y-95474188D01*
X145155820Y-95510498D01*
X145045506Y-95569463D01*
X144948815Y-95648815D01*
X144869463Y-95745506D01*
X144810498Y-95855820D01*
X144774188Y-95975518D01*
X144761928Y-96100000D01*
X137135000Y-96100000D01*
X137135000Y-95943469D01*
X137139281Y-95900000D01*
X137135000Y-95856531D01*
X137135000Y-95856523D01*
X137122195Y-95726510D01*
X137110902Y-95689281D01*
X137071589Y-95559686D01*
X136989411Y-95405941D01*
X136906532Y-95304953D01*
X136906530Y-95304951D01*
X136878817Y-95271183D01*
X136845050Y-95243471D01*
X136659890Y-95058312D01*
X136701745Y-95071008D01*
X136874999Y-95088072D01*
X137675001Y-95088072D01*
X137848255Y-95071008D01*
X138014851Y-95020472D01*
X138168387Y-94938405D01*
X138302962Y-94827962D01*
X138413405Y-94693387D01*
X138495472Y-94539851D01*
X138546008Y-94373255D01*
X138563072Y-94200001D01*
X138563072Y-91299999D01*
X138546008Y-91126745D01*
X138495472Y-90960149D01*
X138413405Y-90806613D01*
X138302962Y-90672038D01*
X138168387Y-90561595D01*
X138110000Y-90530386D01*
X138110000Y-89225000D01*
X139211928Y-89225000D01*
X139224188Y-89349482D01*
X139260498Y-89469180D01*
X139319463Y-89579494D01*
X139398815Y-89676185D01*
X139495506Y-89755537D01*
X139605820Y-89814502D01*
X139725518Y-89850812D01*
X139850000Y-89863072D01*
X140051750Y-89860000D01*
X140210500Y-89701250D01*
X140210500Y-88877000D01*
X139373750Y-88877000D01*
X139215000Y-89035750D01*
X139211928Y-89225000D01*
X138110000Y-89225000D01*
X138110000Y-88275000D01*
X139211928Y-88275000D01*
X139215000Y-88464250D01*
X139373750Y-88623000D01*
X140210500Y-88623000D01*
X140210500Y-87798750D01*
X140051750Y-87640000D01*
X139850000Y-87636928D01*
X139725518Y-87649188D01*
X139605820Y-87685498D01*
X139495506Y-87744463D01*
X139398815Y-87823815D01*
X139319463Y-87920506D01*
X139260498Y-88030820D01*
X139224188Y-88150518D01*
X139211928Y-88275000D01*
X138110000Y-88275000D01*
X138110000Y-87542517D01*
X138131009Y-87548890D01*
X138275000Y-87563072D01*
X138702529Y-87563072D01*
X138715066Y-87567042D01*
X138792534Y-87592646D01*
X138798107Y-87593334D01*
X138803466Y-87595031D01*
X138884548Y-87604008D01*
X138922192Y-87608657D01*
X138927778Y-87608795D01*
X138933315Y-87609408D01*
X138971163Y-87609866D01*
X140021618Y-87635803D01*
X140151908Y-87626211D01*
X140159016Y-87624245D01*
X141004019Y-87634474D01*
X141052834Y-87639281D01*
X141134259Y-87631262D01*
X141215754Y-87624230D01*
X141220939Y-87622725D01*
X141226324Y-87622195D01*
X141304663Y-87598430D01*
X141383177Y-87575647D01*
X141387973Y-87573157D01*
X141393147Y-87571588D01*
X141465315Y-87533014D01*
X141537906Y-87495336D01*
X141542124Y-87491959D01*
X141546893Y-87489410D01*
X141610189Y-87437464D01*
X141673993Y-87386381D01*
X141705563Y-87348849D01*
X141795044Y-87259368D01*
X141828817Y-87231651D01*
X141837861Y-87220631D01*
X141874495Y-87286911D01*
X141955197Y-87382478D01*
X142052994Y-87460465D01*
X142060735Y-87464464D01*
X141885624Y-87639575D01*
X141741684Y-87653752D01*
X141577433Y-87703577D01*
X141426058Y-87784488D01*
X141317217Y-87873812D01*
X141276185Y-87823815D01*
X141179494Y-87744463D01*
X141069180Y-87685498D01*
X140949482Y-87649188D01*
X140825000Y-87636928D01*
X140623250Y-87640000D01*
X140464500Y-87798750D01*
X140464500Y-88623000D01*
X140484500Y-88623000D01*
X140484500Y-88877000D01*
X140464500Y-88877000D01*
X140464500Y-89701250D01*
X140623250Y-89860000D01*
X140825000Y-89863072D01*
X140949482Y-89850812D01*
X141069180Y-89814502D01*
X141179494Y-89755537D01*
X141276185Y-89676185D01*
X141317217Y-89626188D01*
X141426058Y-89715512D01*
X141577433Y-89796423D01*
X141741684Y-89846248D01*
X141912500Y-89863072D01*
X142412500Y-89863072D01*
X142583316Y-89846248D01*
X142747567Y-89796423D01*
X142898942Y-89715512D01*
X143031623Y-89606623D01*
X143110920Y-89510000D01*
X143389080Y-89510000D01*
X143468377Y-89606623D01*
X143601058Y-89715512D01*
X143752433Y-89796423D01*
X143916684Y-89846248D01*
X144087500Y-89863072D01*
X144587500Y-89863072D01*
X144758316Y-89846248D01*
X144922567Y-89796423D01*
X145073942Y-89715512D01*
X145206623Y-89606623D01*
X145250000Y-89553768D01*
X145293377Y-89606623D01*
X145402500Y-89696179D01*
X145402501Y-91101514D01*
X145310150Y-91129528D01*
X145156614Y-91211595D01*
X145022038Y-91322038D01*
X144911595Y-91456614D01*
X144829528Y-91610150D01*
X144778992Y-91776746D01*
X144761928Y-91950000D01*
X144761928Y-91990000D01*
X143013072Y-91990000D01*
X143013072Y-91299999D01*
X142996008Y-91126745D01*
X142945472Y-90960149D01*
X142863405Y-90806613D01*
X142752962Y-90672038D01*
X142618387Y-90561595D01*
X142464851Y-90479528D01*
X142298255Y-90428992D01*
X142125001Y-90411928D01*
X141324999Y-90411928D01*
X141151745Y-90428992D01*
X140985149Y-90479528D01*
X140831613Y-90561595D01*
X140697038Y-90672038D01*
X140586595Y-90806613D01*
X140504528Y-90960149D01*
X140453992Y-91126745D01*
X140436928Y-91299999D01*
X140436928Y-94200001D01*
X140453992Y-94373255D01*
X140504528Y-94539851D01*
X140586595Y-94693387D01*
X140697038Y-94827962D01*
X140831613Y-94938405D01*
X140985149Y-95020472D01*
X141151745Y-95071008D01*
X141324999Y-95088072D01*
X142125001Y-95088072D01*
X142298255Y-95071008D01*
X142464851Y-95020472D01*
X142618387Y-94938405D01*
X142752962Y-94827962D01*
X142863405Y-94693387D01*
X142945472Y-94539851D01*
X142996008Y-94373255D01*
X143013072Y-94200001D01*
X143013072Y-93510000D01*
X144761928Y-93510000D01*
X144761928Y-94450000D01*
X144778992Y-94623254D01*
X144829528Y-94789850D01*
X144911595Y-94943386D01*
X145022038Y-95077962D01*
X145156614Y-95188405D01*
X145310150Y-95270472D01*
X145476746Y-95321008D01*
X145650000Y-95338072D01*
X146750000Y-95338072D01*
X146923254Y-95321008D01*
X147089850Y-95270472D01*
X147243386Y-95188405D01*
X147377962Y-95077962D01*
X147488405Y-94943386D01*
X147570472Y-94789850D01*
X147621008Y-94623254D01*
X147638072Y-94450000D01*
X147638072Y-91950000D01*
X147633567Y-91904260D01*
X147682763Y-91930556D01*
X147826024Y-91974013D01*
X147975010Y-91988687D01*
X148012343Y-91985010D01*
X151027668Y-91985010D01*
X151064990Y-91988686D01*
X151102312Y-91985010D01*
X151102323Y-91985010D01*
X151213976Y-91974013D01*
X151357237Y-91930556D01*
X151489266Y-91859984D01*
X151604991Y-91765011D01*
X151628793Y-91736008D01*
X151771729Y-91593072D01*
X151940000Y-91593072D01*
X152064482Y-91580812D01*
X152184180Y-91544502D01*
X152294494Y-91485537D01*
X152391185Y-91406185D01*
X152470537Y-91309494D01*
X152529502Y-91199180D01*
X152565812Y-91079482D01*
X152578072Y-90955000D01*
X152578072Y-90510000D01*
X152921928Y-90510000D01*
X152921928Y-90955000D01*
X152934188Y-91079482D01*
X152970498Y-91199180D01*
X153029463Y-91309494D01*
X153108815Y-91406185D01*
X153205506Y-91485537D01*
X153315820Y-91544502D01*
X153435518Y-91580812D01*
X153560000Y-91593072D01*
X154260000Y-91593072D01*
X154384482Y-91580812D01*
X154504180Y-91544502D01*
X154614494Y-91485537D01*
X154645611Y-91460000D01*
X156385199Y-91460000D01*
X157265000Y-92339802D01*
X157265000Y-92401939D01*
X157304774Y-92601898D01*
X157382795Y-92790256D01*
X157496063Y-92959774D01*
X157640226Y-93103937D01*
X157809744Y-93217205D01*
X157998102Y-93295226D01*
X158198061Y-93335000D01*
X158401939Y-93335000D01*
X158601898Y-93295226D01*
X158790256Y-93217205D01*
X158959774Y-93103937D01*
X159103937Y-92959774D01*
X159217205Y-92790256D01*
X159295226Y-92601898D01*
X159335000Y-92401939D01*
X159335000Y-92198061D01*
X159295226Y-91998102D01*
X159217205Y-91809744D01*
X159103937Y-91640226D01*
X158959774Y-91496063D01*
X158790256Y-91382795D01*
X158601898Y-91304774D01*
X158401939Y-91265000D01*
X158339802Y-91265000D01*
X157263804Y-90189003D01*
X157240001Y-90159999D01*
X157124276Y-90065026D01*
X156992247Y-89994454D01*
X156848986Y-89950997D01*
X156737333Y-89940000D01*
X156737322Y-89940000D01*
X156700000Y-89936324D01*
X156662678Y-89940000D01*
X154898072Y-89940000D01*
X154898072Y-89495000D01*
X154885812Y-89370518D01*
X154856837Y-89275000D01*
X154885812Y-89179482D01*
X154898072Y-89055000D01*
X154898072Y-88649772D01*
X154955546Y-88542247D01*
X154999003Y-88398986D01*
X155010000Y-88287333D01*
X155010000Y-88287324D01*
X155013676Y-88250001D01*
X155010000Y-88212678D01*
X155010000Y-87523420D01*
X155106623Y-87444123D01*
X155215512Y-87311442D01*
X155296423Y-87160067D01*
X155346248Y-86995816D01*
X155363072Y-86825000D01*
X155363072Y-86325000D01*
X155346248Y-86154184D01*
X155296423Y-85989933D01*
X155215512Y-85838558D01*
X155106623Y-85705877D01*
X155053768Y-85662500D01*
X155106623Y-85619123D01*
X155215512Y-85486442D01*
X155296423Y-85335067D01*
X155346248Y-85170816D01*
X155363072Y-85000000D01*
X155363072Y-84500000D01*
X155346248Y-84329184D01*
X155296423Y-84164933D01*
X155215512Y-84013558D01*
X155106623Y-83880877D01*
X154973942Y-83771988D01*
X154822567Y-83691077D01*
X154658316Y-83641252D01*
X154487500Y-83624428D01*
X154012500Y-83624428D01*
X153841684Y-83641252D01*
X153677433Y-83691077D01*
X153526058Y-83771988D01*
X153393377Y-83880877D01*
X153303822Y-83990000D01*
X152744468Y-83990000D01*
X152731185Y-83973815D01*
X152634494Y-83894463D01*
X152524180Y-83835498D01*
X152510000Y-83831197D01*
X152510000Y-82287322D01*
X152513676Y-82249999D01*
X152510000Y-82212676D01*
X152510000Y-82212667D01*
X152499164Y-82102650D01*
X152575518Y-82125812D01*
X152700000Y-82138072D01*
X153464250Y-82135000D01*
X153623000Y-81976250D01*
X153623000Y-80127000D01*
X153877000Y-80127000D01*
X153877000Y-81976250D01*
X154035750Y-82135000D01*
X154800000Y-82138072D01*
X154924482Y-82125812D01*
X155044180Y-82089502D01*
X155154494Y-82030537D01*
X155251185Y-81951185D01*
X155330537Y-81854494D01*
X155389502Y-81744180D01*
X155425812Y-81624482D01*
X155438072Y-81500000D01*
X155435000Y-80285750D01*
X155276250Y-80127000D01*
X153877000Y-80127000D01*
X153623000Y-80127000D01*
X152223750Y-80127000D01*
X152065000Y-80285750D01*
X152061960Y-81487159D01*
X149460000Y-78885199D01*
X149460000Y-78483596D01*
X149586500Y-78521969D01*
X149750000Y-78538072D01*
X150150000Y-78538072D01*
X150313500Y-78521969D01*
X150470716Y-78474278D01*
X150499027Y-78459145D01*
X150555820Y-78489502D01*
X150675518Y-78525812D01*
X150800000Y-78538072D01*
X150914250Y-78535000D01*
X151073000Y-78376250D01*
X151073000Y-77377000D01*
X151327000Y-77377000D01*
X151327000Y-78376250D01*
X151485750Y-78535000D01*
X151600000Y-78538072D01*
X151724482Y-78525812D01*
X151844180Y-78489502D01*
X151954494Y-78430537D01*
X152051185Y-78351185D01*
X152099386Y-78292452D01*
X152074188Y-78375518D01*
X152061928Y-78500000D01*
X152065000Y-79714250D01*
X152223750Y-79873000D01*
X153623000Y-79873000D01*
X153623000Y-78023750D01*
X153877000Y-78023750D01*
X153877000Y-79873000D01*
X155276250Y-79873000D01*
X155435000Y-79714250D01*
X155438072Y-78500000D01*
X155425812Y-78375518D01*
X155389502Y-78255820D01*
X155330537Y-78145506D01*
X155251185Y-78048815D01*
X155154494Y-77969463D01*
X155044180Y-77910498D01*
X154924482Y-77874188D01*
X154800000Y-77861928D01*
X154035750Y-77865000D01*
X153877000Y-78023750D01*
X153623000Y-78023750D01*
X153464250Y-77865000D01*
X152700000Y-77861928D01*
X152575518Y-77874188D01*
X152455820Y-77910498D01*
X152345506Y-77969463D01*
X152248815Y-78048815D01*
X152200614Y-78107548D01*
X152225812Y-78024482D01*
X152238072Y-77900000D01*
X152235000Y-77535750D01*
X152076250Y-77377000D01*
X151327000Y-77377000D01*
X151073000Y-77377000D01*
X151053000Y-77377000D01*
X151053000Y-77123000D01*
X151073000Y-77123000D01*
X151073000Y-76123750D01*
X150914250Y-75965000D01*
X150800000Y-75961928D01*
X150675518Y-75974188D01*
X150555820Y-76010498D01*
X150499027Y-76040855D01*
X150470716Y-76025722D01*
X150313500Y-75978031D01*
X150150000Y-75961928D01*
X149750000Y-75961928D01*
X149586500Y-75978031D01*
X149429284Y-76025722D01*
X149325000Y-76081463D01*
X149220716Y-76025722D01*
X149063500Y-75978031D01*
X148900000Y-75961928D01*
X148500000Y-75961928D01*
X148336500Y-75978031D01*
X148179284Y-76025722D01*
X148034392Y-76103169D01*
X147907394Y-76207394D01*
X147803169Y-76334392D01*
X147725722Y-76479284D01*
X147678031Y-76636500D01*
X147661928Y-76800000D01*
X147661928Y-77700000D01*
X147678031Y-77863500D01*
X147725722Y-78020716D01*
X147803169Y-78165608D01*
X147907394Y-78292606D01*
X147940001Y-78319366D01*
X147940001Y-79162668D01*
X147936324Y-79200000D01*
X147940001Y-79237333D01*
X147945786Y-79296063D01*
X147950998Y-79348985D01*
X147994454Y-79492246D01*
X148065026Y-79624276D01*
X148136201Y-79711002D01*
X148160000Y-79740001D01*
X148188998Y-79763799D01*
X150990000Y-82564802D01*
X150990001Y-83786928D01*
X150720000Y-83786928D01*
X150595518Y-83799188D01*
X150475820Y-83835498D01*
X150365506Y-83894463D01*
X150268815Y-83973815D01*
X150189463Y-84070506D01*
X150150000Y-84144335D01*
X150110537Y-84070506D01*
X150031185Y-83973815D01*
X149934494Y-83894463D01*
X149824180Y-83835498D01*
X149704482Y-83799188D01*
X149580000Y-83786928D01*
X148760000Y-83786928D01*
X148760000Y-83703711D01*
X148803937Y-83659774D01*
X148917205Y-83490256D01*
X148995226Y-83301898D01*
X149035000Y-83101939D01*
X149035000Y-82898061D01*
X148995226Y-82698102D01*
X148917205Y-82509744D01*
X148803937Y-82340226D01*
X148659774Y-82196063D01*
X148490256Y-82082795D01*
X148301898Y-82004774D01*
X148101939Y-81965000D01*
X147898061Y-81965000D01*
X147698102Y-82004774D01*
X147509744Y-82082795D01*
X147340226Y-82196063D01*
X147334668Y-82201621D01*
X147318037Y-82170506D01*
X147284583Y-82129742D01*
X147324482Y-82125812D01*
X147444180Y-82089502D01*
X147554494Y-82030537D01*
X147651185Y-81951185D01*
X147730537Y-81854494D01*
X147789502Y-81744180D01*
X147825812Y-81624482D01*
X147838072Y-81500000D01*
X147835000Y-80285750D01*
X147676250Y-80127000D01*
X146277000Y-80127000D01*
X146277000Y-81976250D01*
X146377000Y-82076250D01*
X146377000Y-82873000D01*
X146397000Y-82873000D01*
X146397000Y-83127000D01*
X146377000Y-83127000D01*
X146377000Y-83147000D01*
X146123000Y-83147000D01*
X146123000Y-83127000D01*
X146103000Y-83127000D01*
X146103000Y-82873000D01*
X146123000Y-82873000D01*
X146123000Y-82048750D01*
X146023000Y-81948750D01*
X146023000Y-80127000D01*
X144623750Y-80127000D01*
X144575000Y-80175750D01*
X144526250Y-80127000D01*
X143127000Y-80127000D01*
X143127000Y-81976250D01*
X143285750Y-82135000D01*
X143614474Y-82136321D01*
X143605877Y-82143377D01*
X143496988Y-82276058D01*
X143416077Y-82427433D01*
X143366252Y-82591684D01*
X143349428Y-82762500D01*
X143349428Y-83100770D01*
X142701498Y-83748701D01*
X142672500Y-83772499D01*
X142577526Y-83888224D01*
X142551493Y-83936928D01*
X142500000Y-83936928D01*
X142356009Y-83951110D01*
X142217552Y-83993110D01*
X142103744Y-84053942D01*
X140963794Y-82913993D01*
X140939991Y-82884989D01*
X140824266Y-82790016D01*
X140692237Y-82719444D01*
X140548976Y-82675987D01*
X140437323Y-82664990D01*
X140437312Y-82664990D01*
X140399990Y-82661314D01*
X140362668Y-82664990D01*
X131862332Y-82664990D01*
X131825009Y-82661314D01*
X131787686Y-82664990D01*
X131787677Y-82664990D01*
X131676024Y-82675987D01*
X131532763Y-82719444D01*
X131400734Y-82790016D01*
X131285009Y-82884989D01*
X131261211Y-82913988D01*
X130692460Y-83482738D01*
X130619123Y-83393377D01*
X130486442Y-83284488D01*
X130335067Y-83203577D01*
X130170816Y-83153752D01*
X130000000Y-83136928D01*
X129500000Y-83136928D01*
X129329184Y-83153752D01*
X129164933Y-83203577D01*
X129013558Y-83284488D01*
X128880877Y-83393377D01*
X128837500Y-83446232D01*
X128794123Y-83393377D01*
X128661442Y-83284488D01*
X128510067Y-83203577D01*
X128345816Y-83153752D01*
X128175000Y-83136928D01*
X127675000Y-83136928D01*
X127504184Y-83153752D01*
X127339933Y-83203577D01*
X127188558Y-83284488D01*
X127104803Y-83353224D01*
X125888891Y-82137313D01*
X126464250Y-82135000D01*
X126623000Y-81976250D01*
X126623000Y-80127000D01*
X126877000Y-80127000D01*
X126877000Y-81976250D01*
X127035750Y-82135000D01*
X127800000Y-82138072D01*
X127924482Y-82125812D01*
X128044180Y-82089502D01*
X128154494Y-82030537D01*
X128251185Y-81951185D01*
X128330537Y-81854494D01*
X128389502Y-81744180D01*
X128425812Y-81624482D01*
X128438072Y-81500000D01*
X131411928Y-81500000D01*
X131424188Y-81624482D01*
X131460498Y-81744180D01*
X131519463Y-81854494D01*
X131598815Y-81951185D01*
X131695506Y-82030537D01*
X131805820Y-82089502D01*
X131925518Y-82125812D01*
X132050000Y-82138072D01*
X132814250Y-82135000D01*
X132973000Y-81976250D01*
X132973000Y-80127000D01*
X133227000Y-80127000D01*
X133227000Y-81976250D01*
X133385750Y-82135000D01*
X134150000Y-82138072D01*
X134274482Y-82125812D01*
X134394180Y-82089502D01*
X134504494Y-82030537D01*
X134601185Y-81951185D01*
X134680537Y-81854494D01*
X134739502Y-81744180D01*
X134775812Y-81624482D01*
X134788072Y-81500000D01*
X134961928Y-81500000D01*
X134974188Y-81624482D01*
X135010498Y-81744180D01*
X135069463Y-81854494D01*
X135148815Y-81951185D01*
X135245506Y-82030537D01*
X135355820Y-82089502D01*
X135475518Y-82125812D01*
X135600000Y-82138072D01*
X136364250Y-82135000D01*
X136523000Y-81976250D01*
X136523000Y-80127000D01*
X136777000Y-80127000D01*
X136777000Y-81976250D01*
X136935750Y-82135000D01*
X137700000Y-82138072D01*
X137824482Y-82125812D01*
X137944180Y-82089502D01*
X138054494Y-82030537D01*
X138151185Y-81951185D01*
X138230537Y-81854494D01*
X138289502Y-81744180D01*
X138325812Y-81624482D01*
X138338072Y-81500000D01*
X141311928Y-81500000D01*
X141324188Y-81624482D01*
X141360498Y-81744180D01*
X141419463Y-81854494D01*
X141498815Y-81951185D01*
X141595506Y-82030537D01*
X141705820Y-82089502D01*
X141825518Y-82125812D01*
X141950000Y-82138072D01*
X142714250Y-82135000D01*
X142873000Y-81976250D01*
X142873000Y-80127000D01*
X141473750Y-80127000D01*
X141315000Y-80285750D01*
X141311928Y-81500000D01*
X138338072Y-81500000D01*
X138335000Y-80285750D01*
X138176250Y-80127000D01*
X136777000Y-80127000D01*
X136523000Y-80127000D01*
X135123750Y-80127000D01*
X134965000Y-80285750D01*
X134961928Y-81500000D01*
X134788072Y-81500000D01*
X134785000Y-80285750D01*
X134626250Y-80127000D01*
X133227000Y-80127000D01*
X132973000Y-80127000D01*
X131573750Y-80127000D01*
X131415000Y-80285750D01*
X131411928Y-81500000D01*
X128438072Y-81500000D01*
X128435000Y-80285750D01*
X128276250Y-80127000D01*
X126877000Y-80127000D01*
X126623000Y-80127000D01*
X125223750Y-80127000D01*
X125065000Y-80285750D01*
X125062407Y-81310828D01*
X124885000Y-81133422D01*
X124885000Y-80638454D01*
X124917205Y-80590256D01*
X124995226Y-80401898D01*
X125035000Y-80201939D01*
X125035000Y-79998061D01*
X124995226Y-79798102D01*
X124917205Y-79609744D01*
X124885000Y-79561546D01*
X124885000Y-78366578D01*
X125366579Y-77885000D01*
X125539876Y-77885000D01*
X125455820Y-77910498D01*
X125345506Y-77969463D01*
X125248815Y-78048815D01*
X125169463Y-78145506D01*
X125110498Y-78255820D01*
X125074188Y-78375518D01*
X125061928Y-78500000D01*
X125065000Y-79714250D01*
X125223750Y-79873000D01*
X126623000Y-79873000D01*
X126623000Y-79853000D01*
X126877000Y-79853000D01*
X126877000Y-79873000D01*
X128276250Y-79873000D01*
X128435000Y-79714250D01*
X128438072Y-78500000D01*
X128425812Y-78375518D01*
X128389502Y-78255820D01*
X128330537Y-78145506D01*
X128251185Y-78048815D01*
X128154494Y-77969463D01*
X128044180Y-77910498D01*
X127960124Y-77885000D01*
X128284553Y-77885000D01*
X128325722Y-78020716D01*
X128403169Y-78165608D01*
X128507394Y-78292606D01*
X128634392Y-78396831D01*
X128779284Y-78474278D01*
X128936500Y-78521969D01*
X129100000Y-78538072D01*
X129500000Y-78538072D01*
X129663500Y-78521969D01*
X129820716Y-78474278D01*
X129849027Y-78459145D01*
X129905820Y-78489502D01*
X130025518Y-78525812D01*
X130150000Y-78538072D01*
X130264250Y-78535000D01*
X130423000Y-78376250D01*
X130423000Y-77377000D01*
X130677000Y-77377000D01*
X130677000Y-78376250D01*
X130835750Y-78535000D01*
X130950000Y-78538072D01*
X131074482Y-78525812D01*
X131194180Y-78489502D01*
X131304494Y-78430537D01*
X131401185Y-78351185D01*
X131449386Y-78292452D01*
X131424188Y-78375518D01*
X131411928Y-78500000D01*
X131415000Y-79714250D01*
X131573750Y-79873000D01*
X132973000Y-79873000D01*
X132973000Y-78023750D01*
X133227000Y-78023750D01*
X133227000Y-79873000D01*
X134626250Y-79873000D01*
X134785000Y-79714250D01*
X134788072Y-78500000D01*
X134961928Y-78500000D01*
X134965000Y-79714250D01*
X135123750Y-79873000D01*
X136523000Y-79873000D01*
X136523000Y-78023750D01*
X136777000Y-78023750D01*
X136777000Y-79873000D01*
X138176250Y-79873000D01*
X138335000Y-79714250D01*
X138338072Y-78500000D01*
X138325812Y-78375518D01*
X138289502Y-78255820D01*
X138230537Y-78145506D01*
X138151185Y-78048815D01*
X138054494Y-77969463D01*
X137944180Y-77910498D01*
X137824482Y-77874188D01*
X137700000Y-77861928D01*
X136935750Y-77865000D01*
X136777000Y-78023750D01*
X136523000Y-78023750D01*
X136364250Y-77865000D01*
X135600000Y-77861928D01*
X135475518Y-77874188D01*
X135355820Y-77910498D01*
X135245506Y-77969463D01*
X135148815Y-78048815D01*
X135069463Y-78145506D01*
X135010498Y-78255820D01*
X134974188Y-78375518D01*
X134961928Y-78500000D01*
X134788072Y-78500000D01*
X134775812Y-78375518D01*
X134739502Y-78255820D01*
X134680537Y-78145506D01*
X134601185Y-78048815D01*
X134504494Y-77969463D01*
X134394180Y-77910498D01*
X134274482Y-77874188D01*
X134150000Y-77861928D01*
X133385750Y-77865000D01*
X133227000Y-78023750D01*
X132973000Y-78023750D01*
X132814250Y-77865000D01*
X132050000Y-77861928D01*
X131925518Y-77874188D01*
X131805820Y-77910498D01*
X131695506Y-77969463D01*
X131598815Y-78048815D01*
X131550614Y-78107548D01*
X131575812Y-78024482D01*
X131588072Y-77900000D01*
X131585000Y-77535750D01*
X131426250Y-77377000D01*
X130677000Y-77377000D01*
X130423000Y-77377000D01*
X130403000Y-77377000D01*
X130403000Y-77123000D01*
X130423000Y-77123000D01*
X130423000Y-77103000D01*
X130677000Y-77103000D01*
X130677000Y-77123000D01*
X131426250Y-77123000D01*
X131585000Y-76964250D01*
X131585668Y-76885000D01*
X137633422Y-76885000D01*
X138161928Y-77413507D01*
X138161928Y-77700000D01*
X138178031Y-77863500D01*
X138225722Y-78020716D01*
X138303169Y-78165608D01*
X138407394Y-78292606D01*
X138534392Y-78396831D01*
X138679284Y-78474278D01*
X138836500Y-78521969D01*
X139000000Y-78538072D01*
X139400000Y-78538072D01*
X139563500Y-78521969D01*
X139720716Y-78474278D01*
X139749027Y-78459145D01*
X139805820Y-78489502D01*
X139925518Y-78525812D01*
X140050000Y-78538072D01*
X140164250Y-78535000D01*
X140323000Y-78376250D01*
X140323000Y-77377000D01*
X140577000Y-77377000D01*
X140577000Y-78376250D01*
X140735750Y-78535000D01*
X140850000Y-78538072D01*
X140974482Y-78525812D01*
X141094180Y-78489502D01*
X141204494Y-78430537D01*
X141301185Y-78351185D01*
X141349386Y-78292452D01*
X141324188Y-78375518D01*
X141311928Y-78500000D01*
X141315000Y-79714250D01*
X141473750Y-79873000D01*
X142873000Y-79873000D01*
X142873000Y-78023750D01*
X143127000Y-78023750D01*
X143127000Y-79873000D01*
X144526250Y-79873000D01*
X144575000Y-79824250D01*
X144623750Y-79873000D01*
X146023000Y-79873000D01*
X146023000Y-78023750D01*
X146277000Y-78023750D01*
X146277000Y-79873000D01*
X147676250Y-79873000D01*
X147835000Y-79714250D01*
X147838072Y-78500000D01*
X147825812Y-78375518D01*
X147789502Y-78255820D01*
X147730537Y-78145506D01*
X147651185Y-78048815D01*
X147554494Y-77969463D01*
X147444180Y-77910498D01*
X147324482Y-77874188D01*
X147200000Y-77861928D01*
X146435750Y-77865000D01*
X146277000Y-78023750D01*
X146023000Y-78023750D01*
X145864250Y-77865000D01*
X145100000Y-77861928D01*
X144975518Y-77874188D01*
X144855820Y-77910498D01*
X144745506Y-77969463D01*
X144648815Y-78048815D01*
X144575000Y-78138759D01*
X144501185Y-78048815D01*
X144404494Y-77969463D01*
X144294180Y-77910498D01*
X144174482Y-77874188D01*
X144050000Y-77861928D01*
X143285750Y-77865000D01*
X143127000Y-78023750D01*
X142873000Y-78023750D01*
X142714250Y-77865000D01*
X141950000Y-77861928D01*
X141825518Y-77874188D01*
X141705820Y-77910498D01*
X141595506Y-77969463D01*
X141498815Y-78048815D01*
X141450614Y-78107548D01*
X141475812Y-78024482D01*
X141488072Y-77900000D01*
X141485000Y-77535750D01*
X141326250Y-77377000D01*
X140577000Y-77377000D01*
X140323000Y-77377000D01*
X140303000Y-77377000D01*
X140303000Y-77123000D01*
X140323000Y-77123000D01*
X140323000Y-76123750D01*
X140577000Y-76123750D01*
X140577000Y-77123000D01*
X141326250Y-77123000D01*
X141485000Y-76964250D01*
X141488072Y-76600000D01*
X141475812Y-76475518D01*
X141439502Y-76355820D01*
X141380537Y-76245506D01*
X141301185Y-76148815D01*
X141204494Y-76069463D01*
X141094180Y-76010498D01*
X140974482Y-75974188D01*
X140850000Y-75961928D01*
X140735750Y-75965000D01*
X140577000Y-76123750D01*
X140323000Y-76123750D01*
X140164250Y-75965000D01*
X140050000Y-75961928D01*
X139925518Y-75974188D01*
X139805820Y-76010498D01*
X139749027Y-76040855D01*
X139720716Y-76025722D01*
X139563500Y-75978031D01*
X139400000Y-75961928D01*
X139213507Y-75961928D01*
X138751579Y-75500000D01*
X141486928Y-75500000D01*
X141499188Y-75624482D01*
X141535498Y-75744180D01*
X141594463Y-75854494D01*
X141673815Y-75951185D01*
X141770506Y-76030537D01*
X141880820Y-76089502D01*
X142000518Y-76125812D01*
X142125000Y-76138072D01*
X142889250Y-76135000D01*
X143048000Y-75976250D01*
X143048000Y-74127000D01*
X143302000Y-74127000D01*
X143302000Y-75976250D01*
X143460750Y-76135000D01*
X144225000Y-76138072D01*
X144349482Y-76125812D01*
X144469180Y-76089502D01*
X144579494Y-76030537D01*
X144676185Y-75951185D01*
X144755537Y-75854494D01*
X144814502Y-75744180D01*
X144837500Y-75668366D01*
X144860498Y-75744180D01*
X144919463Y-75854494D01*
X144998815Y-75951185D01*
X145095506Y-76030537D01*
X145205820Y-76089502D01*
X145325518Y-76125812D01*
X145450000Y-76138072D01*
X146214250Y-76135000D01*
X146373000Y-75976250D01*
X146373000Y-74127000D01*
X146627000Y-74127000D01*
X146627000Y-75976250D01*
X146785750Y-76135000D01*
X147550000Y-76138072D01*
X147674482Y-76125812D01*
X147794180Y-76089502D01*
X147904494Y-76030537D01*
X148001185Y-75951185D01*
X148080537Y-75854494D01*
X148139502Y-75744180D01*
X148175812Y-75624482D01*
X148188072Y-75500000D01*
X151161928Y-75500000D01*
X151174188Y-75624482D01*
X151210498Y-75744180D01*
X151269463Y-75854494D01*
X151348815Y-75951185D01*
X151431614Y-76019136D01*
X151327000Y-76123750D01*
X151327000Y-77123000D01*
X152076250Y-77123000D01*
X152235000Y-76964250D01*
X152238072Y-76600000D01*
X152225812Y-76475518D01*
X152189502Y-76355820D01*
X152130537Y-76245506D01*
X152051185Y-76148815D01*
X152036934Y-76137120D01*
X152564250Y-76135000D01*
X152723000Y-75976250D01*
X152723000Y-74127000D01*
X152977000Y-74127000D01*
X152977000Y-75976250D01*
X153135750Y-76135000D01*
X153900000Y-76138072D01*
X154024482Y-76125812D01*
X154144180Y-76089502D01*
X154254494Y-76030537D01*
X154351185Y-75951185D01*
X154430537Y-75854494D01*
X154489502Y-75744180D01*
X154525812Y-75624482D01*
X154538072Y-75500000D01*
X154535000Y-74285750D01*
X154376250Y-74127000D01*
X152977000Y-74127000D01*
X152723000Y-74127000D01*
X151323750Y-74127000D01*
X151165000Y-74285750D01*
X151161928Y-75500000D01*
X148188072Y-75500000D01*
X148185000Y-74285750D01*
X148026250Y-74127000D01*
X146627000Y-74127000D01*
X146373000Y-74127000D01*
X144973750Y-74127000D01*
X144837500Y-74263250D01*
X144701250Y-74127000D01*
X143302000Y-74127000D01*
X143048000Y-74127000D01*
X141648750Y-74127000D01*
X141490000Y-74285750D01*
X141486928Y-75500000D01*
X138751579Y-75500000D01*
X138656534Y-75404956D01*
X138628817Y-75371183D01*
X138512505Y-75275727D01*
X138510000Y-74285750D01*
X138351250Y-74127000D01*
X136952000Y-74127000D01*
X136952000Y-74147000D01*
X136698000Y-74147000D01*
X136698000Y-74127000D01*
X135298750Y-74127000D01*
X135140000Y-74285750D01*
X135137902Y-75115000D01*
X134862098Y-75115000D01*
X134860000Y-74285750D01*
X134701250Y-74127000D01*
X133302000Y-74127000D01*
X133302000Y-74147000D01*
X133048000Y-74147000D01*
X133048000Y-74127000D01*
X131648750Y-74127000D01*
X131490000Y-74285750D01*
X131487902Y-75115000D01*
X130043465Y-75115000D01*
X129999999Y-75110719D01*
X129956533Y-75115000D01*
X129956523Y-75115000D01*
X129826510Y-75127805D01*
X129659687Y-75178411D01*
X129505941Y-75260589D01*
X129505939Y-75260590D01*
X129505940Y-75260590D01*
X129404953Y-75343468D01*
X129404951Y-75343470D01*
X129371183Y-75371183D01*
X129343470Y-75404951D01*
X128704951Y-76043471D01*
X128671184Y-76071183D01*
X128653172Y-76093131D01*
X128634392Y-76103169D01*
X128619976Y-76115000D01*
X128035124Y-76115000D01*
X128119180Y-76089502D01*
X128229494Y-76030537D01*
X128326185Y-75951185D01*
X128405537Y-75854494D01*
X128464502Y-75744180D01*
X128500812Y-75624482D01*
X128513072Y-75500000D01*
X128510000Y-74285750D01*
X128351250Y-74127000D01*
X126952000Y-74127000D01*
X126952000Y-74147000D01*
X126698000Y-74147000D01*
X126698000Y-74127000D01*
X125298750Y-74127000D01*
X125140000Y-74285750D01*
X125136928Y-75500000D01*
X125149188Y-75624482D01*
X125185498Y-75744180D01*
X125244463Y-75854494D01*
X125323815Y-75951185D01*
X125420506Y-76030537D01*
X125530820Y-76089502D01*
X125614876Y-76115000D01*
X125366579Y-76115000D01*
X124885000Y-75633422D01*
X124885000Y-73366578D01*
X125138479Y-73113099D01*
X125140000Y-73714250D01*
X125298750Y-73873000D01*
X126698000Y-73873000D01*
X126698000Y-73853000D01*
X126952000Y-73853000D01*
X126952000Y-73873000D01*
X128351250Y-73873000D01*
X128510000Y-73714250D01*
X128513072Y-72500000D01*
X128500812Y-72375518D01*
X128464502Y-72255820D01*
X128405537Y-72145506D01*
X128326185Y-72048815D01*
X128229494Y-71969463D01*
X128119180Y-71910498D01*
X128035124Y-71885000D01*
X128359553Y-71885000D01*
X128400722Y-72020716D01*
X128478169Y-72165608D01*
X128582394Y-72292606D01*
X128709392Y-72396831D01*
X128854284Y-72474278D01*
X129011500Y-72521969D01*
X129175000Y-72538072D01*
X129575000Y-72538072D01*
X129738500Y-72521969D01*
X129895716Y-72474278D01*
X129924027Y-72459145D01*
X129980820Y-72489502D01*
X130100518Y-72525812D01*
X130225000Y-72538072D01*
X130339250Y-72535000D01*
X130498000Y-72376250D01*
X130498000Y-71377000D01*
X130752000Y-71377000D01*
X130752000Y-72376250D01*
X130910750Y-72535000D01*
X131025000Y-72538072D01*
X131149482Y-72525812D01*
X131269180Y-72489502D01*
X131379494Y-72430537D01*
X131476185Y-72351185D01*
X131524386Y-72292452D01*
X131499188Y-72375518D01*
X131486928Y-72500000D01*
X131490000Y-73714250D01*
X131648750Y-73873000D01*
X133048000Y-73873000D01*
X133048000Y-72023750D01*
X133302000Y-72023750D01*
X133302000Y-73873000D01*
X134701250Y-73873000D01*
X134860000Y-73714250D01*
X134863072Y-72500000D01*
X135136928Y-72500000D01*
X135140000Y-73714250D01*
X135298750Y-73873000D01*
X136698000Y-73873000D01*
X136698000Y-72023750D01*
X136952000Y-72023750D01*
X136952000Y-73873000D01*
X138351250Y-73873000D01*
X138510000Y-73714250D01*
X138513072Y-72500000D01*
X138500812Y-72375518D01*
X138464502Y-72255820D01*
X138405537Y-72145506D01*
X138326185Y-72048815D01*
X138229494Y-71969463D01*
X138119180Y-71910498D01*
X137999482Y-71874188D01*
X137875000Y-71861928D01*
X137110750Y-71865000D01*
X136952000Y-72023750D01*
X136698000Y-72023750D01*
X136539250Y-71865000D01*
X135775000Y-71861928D01*
X135650518Y-71874188D01*
X135530820Y-71910498D01*
X135420506Y-71969463D01*
X135323815Y-72048815D01*
X135244463Y-72145506D01*
X135185498Y-72255820D01*
X135149188Y-72375518D01*
X135136928Y-72500000D01*
X134863072Y-72500000D01*
X134850812Y-72375518D01*
X134814502Y-72255820D01*
X134755537Y-72145506D01*
X134676185Y-72048815D01*
X134579494Y-71969463D01*
X134469180Y-71910498D01*
X134349482Y-71874188D01*
X134225000Y-71861928D01*
X133460750Y-71865000D01*
X133302000Y-72023750D01*
X133048000Y-72023750D01*
X132889250Y-71865000D01*
X132125000Y-71861928D01*
X132000518Y-71874188D01*
X131880820Y-71910498D01*
X131770506Y-71969463D01*
X131673815Y-72048815D01*
X131625614Y-72107548D01*
X131650812Y-72024482D01*
X131663072Y-71900000D01*
X131660000Y-71535750D01*
X131501250Y-71377000D01*
X130752000Y-71377000D01*
X130498000Y-71377000D01*
X130478000Y-71377000D01*
X130478000Y-71123000D01*
X130498000Y-71123000D01*
X130498000Y-71103000D01*
X130752000Y-71103000D01*
X130752000Y-71123000D01*
X131501250Y-71123000D01*
X131660000Y-70964250D01*
X131661512Y-70785000D01*
X138338405Y-70785000D01*
X138336928Y-70800000D01*
X138336928Y-71700000D01*
X138353031Y-71863500D01*
X138400722Y-72020716D01*
X138478169Y-72165608D01*
X138582394Y-72292606D01*
X138709392Y-72396831D01*
X138854284Y-72474278D01*
X139011500Y-72521969D01*
X139175000Y-72538072D01*
X139575000Y-72538072D01*
X139738500Y-72521969D01*
X139895716Y-72474278D01*
X139924027Y-72459145D01*
X139980820Y-72489502D01*
X140100518Y-72525812D01*
X140225000Y-72538072D01*
X140339250Y-72535000D01*
X140498000Y-72376250D01*
X140498000Y-71377000D01*
X140752000Y-71377000D01*
X140752000Y-72376250D01*
X140910750Y-72535000D01*
X141025000Y-72538072D01*
X141149482Y-72525812D01*
X141269180Y-72489502D01*
X141379494Y-72430537D01*
X141476185Y-72351185D01*
X141524386Y-72292452D01*
X141499188Y-72375518D01*
X141486928Y-72500000D01*
X141490000Y-73714250D01*
X141648750Y-73873000D01*
X143048000Y-73873000D01*
X143048000Y-72023750D01*
X143302000Y-72023750D01*
X143302000Y-73873000D01*
X144701250Y-73873000D01*
X144837500Y-73736750D01*
X144973750Y-73873000D01*
X146373000Y-73873000D01*
X146373000Y-72023750D01*
X146627000Y-72023750D01*
X146627000Y-73873000D01*
X148026250Y-73873000D01*
X148185000Y-73714250D01*
X148188072Y-72500000D01*
X148175812Y-72375518D01*
X148139502Y-72255820D01*
X148080537Y-72145506D01*
X148001185Y-72048815D01*
X147904494Y-71969463D01*
X147794180Y-71910498D01*
X147674482Y-71874188D01*
X147550000Y-71861928D01*
X146785750Y-71865000D01*
X146627000Y-72023750D01*
X146373000Y-72023750D01*
X146214250Y-71865000D01*
X145450000Y-71861928D01*
X145325518Y-71874188D01*
X145205820Y-71910498D01*
X145095506Y-71969463D01*
X144998815Y-72048815D01*
X144919463Y-72145506D01*
X144860498Y-72255820D01*
X144837500Y-72331634D01*
X144814502Y-72255820D01*
X144755537Y-72145506D01*
X144676185Y-72048815D01*
X144579494Y-71969463D01*
X144469180Y-71910498D01*
X144349482Y-71874188D01*
X144225000Y-71861928D01*
X143460750Y-71865000D01*
X143302000Y-72023750D01*
X143048000Y-72023750D01*
X142889250Y-71865000D01*
X142125000Y-71861928D01*
X142000518Y-71874188D01*
X141880820Y-71910498D01*
X141770506Y-71969463D01*
X141673815Y-72048815D01*
X141625614Y-72107548D01*
X141650812Y-72024482D01*
X141663072Y-71900000D01*
X141660000Y-71535750D01*
X141501250Y-71377000D01*
X140752000Y-71377000D01*
X140498000Y-71377000D01*
X140478000Y-71377000D01*
X140478000Y-71123000D01*
X140498000Y-71123000D01*
X140498000Y-71103000D01*
X140752000Y-71103000D01*
X140752000Y-71123000D01*
X141501250Y-71123000D01*
X141660000Y-70964250D01*
X141662355Y-70685000D01*
X147433422Y-70685000D01*
X147854953Y-71106532D01*
X147854959Y-71106537D01*
X148011928Y-71263506D01*
X148011928Y-71700000D01*
X148028031Y-71863500D01*
X148075722Y-72020716D01*
X148153169Y-72165608D01*
X148257394Y-72292606D01*
X148384392Y-72396831D01*
X148529284Y-72474278D01*
X148686500Y-72521969D01*
X148850000Y-72538072D01*
X149250000Y-72538072D01*
X149413500Y-72521969D01*
X149570716Y-72474278D01*
X149599027Y-72459145D01*
X149655820Y-72489502D01*
X149775518Y-72525812D01*
X149900000Y-72538072D01*
X150014250Y-72535000D01*
X150173000Y-72376250D01*
X150173000Y-71377000D01*
X150427000Y-71377000D01*
X150427000Y-72376250D01*
X150585750Y-72535000D01*
X150700000Y-72538072D01*
X150824482Y-72525812D01*
X150944180Y-72489502D01*
X151054494Y-72430537D01*
X151151185Y-72351185D01*
X151199386Y-72292452D01*
X151174188Y-72375518D01*
X151161928Y-72500000D01*
X151165000Y-73714250D01*
X151323750Y-73873000D01*
X152723000Y-73873000D01*
X152723000Y-72023750D01*
X152977000Y-72023750D01*
X152977000Y-73873000D01*
X154376250Y-73873000D01*
X154535000Y-73714250D01*
X154538072Y-72500000D01*
X154525812Y-72375518D01*
X154489502Y-72255820D01*
X154430537Y-72145506D01*
X154351185Y-72048815D01*
X154254494Y-71969463D01*
X154144180Y-71910498D01*
X154024482Y-71874188D01*
X153900000Y-71861928D01*
X153135750Y-71865000D01*
X152977000Y-72023750D01*
X152723000Y-72023750D01*
X152564250Y-71865000D01*
X151800000Y-71861928D01*
X151675518Y-71874188D01*
X151555820Y-71910498D01*
X151445506Y-71969463D01*
X151348815Y-72048815D01*
X151300614Y-72107548D01*
X151325812Y-72024482D01*
X151338072Y-71900000D01*
X151335000Y-71535750D01*
X151176250Y-71377000D01*
X150427000Y-71377000D01*
X150173000Y-71377000D01*
X150153000Y-71377000D01*
X150153000Y-71123000D01*
X150173000Y-71123000D01*
X150173000Y-70123750D01*
X150427000Y-70123750D01*
X150427000Y-71123000D01*
X151176250Y-71123000D01*
X151335000Y-70964250D01*
X151338072Y-70600000D01*
X151325812Y-70475518D01*
X151289502Y-70355820D01*
X151230537Y-70245506D01*
X151151185Y-70148815D01*
X151054494Y-70069463D01*
X150944180Y-70010498D01*
X150824482Y-69974188D01*
X150700000Y-69961928D01*
X150585750Y-69965000D01*
X150427000Y-70123750D01*
X150173000Y-70123750D01*
X150014250Y-69965000D01*
X149900000Y-69961928D01*
X149775518Y-69974188D01*
X149655820Y-70010498D01*
X149599027Y-70040855D01*
X149570716Y-70025722D01*
X149413500Y-69978031D01*
X149250000Y-69961928D01*
X149213506Y-69961928D01*
X149106537Y-69854959D01*
X149106532Y-69854953D01*
X148456534Y-69204956D01*
X148428817Y-69171183D01*
X148294059Y-69060589D01*
X148140313Y-68978411D01*
X147973490Y-68927805D01*
X147843477Y-68915000D01*
X147843469Y-68915000D01*
X147800000Y-68910719D01*
X147756531Y-68915000D01*
X140143469Y-68915000D01*
X140100000Y-68910719D01*
X140056531Y-68915000D01*
X140056523Y-68915000D01*
X139926510Y-68927805D01*
X139759687Y-68978411D01*
X139605941Y-69060589D01*
X139504953Y-69143468D01*
X139504951Y-69143470D01*
X139471183Y-69171183D01*
X139443470Y-69204951D01*
X139377950Y-69270471D01*
X139244059Y-69160589D01*
X139090313Y-69078411D01*
X138923490Y-69027805D01*
X138793477Y-69015000D01*
X138793469Y-69015000D01*
X138750000Y-69010719D01*
X138706531Y-69015000D01*
X130143469Y-69015000D01*
X130100000Y-69010719D01*
X130056531Y-69015000D01*
X130056523Y-69015000D01*
X129941306Y-69026348D01*
X129926509Y-69027805D01*
X129875903Y-69043157D01*
X129759687Y-69078411D01*
X129637973Y-69143468D01*
X129605941Y-69160589D01*
X129504953Y-69243468D01*
X129504951Y-69243470D01*
X129471183Y-69271183D01*
X129443470Y-69304951D01*
X128633422Y-70115000D01*
X126043465Y-70115000D01*
X125999999Y-70110719D01*
X125956533Y-70115000D01*
X125956523Y-70115000D01*
X125826510Y-70127805D01*
X125659687Y-70178411D01*
X125505941Y-70260589D01*
X125486541Y-70276510D01*
X125404953Y-70343468D01*
X125404951Y-70343470D01*
X125371183Y-70371183D01*
X125343470Y-70404951D01*
X123786336Y-71962086D01*
X123751250Y-71927000D01*
X122927000Y-71927000D01*
X122927000Y-71947000D01*
X122673000Y-71947000D01*
X122673000Y-71927000D01*
X121848750Y-71927000D01*
X121690000Y-72085750D01*
X121686928Y-72287500D01*
X121699188Y-72411982D01*
X121735498Y-72531680D01*
X121794463Y-72641994D01*
X121873815Y-72738685D01*
X121923812Y-72779717D01*
X121834488Y-72888558D01*
X121753577Y-73039933D01*
X121703752Y-73204184D01*
X121686928Y-73375000D01*
X121686928Y-73875000D01*
X121703752Y-74045816D01*
X121753577Y-74210067D01*
X121781415Y-74262148D01*
X121682795Y-74409744D01*
X121604774Y-74598102D01*
X121565000Y-74798061D01*
X118660000Y-74798061D01*
X118660000Y-71312500D01*
X121686928Y-71312500D01*
X121690000Y-71514250D01*
X121848750Y-71673000D01*
X122673000Y-71673000D01*
X122673000Y-70836250D01*
X122927000Y-70836250D01*
X122927000Y-71673000D01*
X123751250Y-71673000D01*
X123910000Y-71514250D01*
X123913072Y-71312500D01*
X123900812Y-71188018D01*
X123864502Y-71068320D01*
X123805537Y-70958006D01*
X123726185Y-70861315D01*
X123629494Y-70781963D01*
X123519180Y-70722998D01*
X123399482Y-70686688D01*
X123275000Y-70674428D01*
X123085750Y-70677500D01*
X122927000Y-70836250D01*
X122673000Y-70836250D01*
X122514250Y-70677500D01*
X122325000Y-70674428D01*
X122200518Y-70686688D01*
X122080820Y-70722998D01*
X121970506Y-70781963D01*
X121873815Y-70861315D01*
X121794463Y-70958006D01*
X121735498Y-71068320D01*
X121699188Y-71188018D01*
X121686928Y-71312500D01*
X118660000Y-71312500D01*
X118660000Y-65660000D01*
X161340000Y-65660000D01*
X161340001Y-104340000D01*
G37*
G04 #@! TD.AperFunction*
D15*
X136839002Y-86336197D02*
X136809999Y-86359999D01*
X136757895Y-86423489D01*
X136715026Y-86475724D01*
X136647083Y-86602835D01*
X136644454Y-86607754D01*
X136600997Y-86751015D01*
X136590000Y-86862668D01*
X136590000Y-86862678D01*
X136586324Y-86900000D01*
X136590000Y-86937323D01*
X136590001Y-90462889D01*
X136535149Y-90479528D01*
X136381613Y-90561595D01*
X136247038Y-90672038D01*
X136136595Y-90806613D01*
X136054528Y-90960149D01*
X136003992Y-91126745D01*
X135986928Y-91299999D01*
X135986928Y-94200001D01*
X136003992Y-94373255D01*
X136016689Y-94415110D01*
X135756534Y-94154956D01*
X135728817Y-94121183D01*
X135594059Y-94010589D01*
X135488072Y-93953938D01*
X135488072Y-93545000D01*
X135475812Y-93420518D01*
X135439502Y-93300820D01*
X135380537Y-93190506D01*
X135301185Y-93093815D01*
X135204494Y-93014463D01*
X135094180Y-92955498D01*
X134974482Y-92919188D01*
X134850000Y-92906928D01*
X134150000Y-92906928D01*
X134135000Y-92908405D01*
X134135000Y-92543465D01*
X134139281Y-92499999D01*
X134135000Y-92456533D01*
X134135000Y-92456523D01*
X134122195Y-92326510D01*
X134071589Y-92159687D01*
X133989411Y-92005941D01*
X133921745Y-91923490D01*
X133906532Y-91904953D01*
X133906530Y-91904951D01*
X133878817Y-91871183D01*
X133845049Y-91843470D01*
X133786584Y-91785005D01*
X134300000Y-91788072D01*
X134424482Y-91775812D01*
X134544180Y-91739502D01*
X134654494Y-91680537D01*
X134751185Y-91601185D01*
X134830537Y-91504494D01*
X134889502Y-91394180D01*
X134925812Y-91274482D01*
X134938072Y-91150000D01*
X134935000Y-89935750D01*
X134776250Y-89777000D01*
X133627000Y-89777000D01*
X133627000Y-89797000D01*
X133373000Y-89797000D01*
X133373000Y-89777000D01*
X132223750Y-89777000D01*
X132065000Y-89935750D01*
X132062649Y-90865000D01*
X130085000Y-90865000D01*
X130085000Y-90416578D01*
X130595050Y-89906529D01*
X130628817Y-89878817D01*
X130681600Y-89814502D01*
X130739411Y-89744059D01*
X130739412Y-89744058D01*
X130821589Y-89590313D01*
X130872195Y-89423490D01*
X130885000Y-89293477D01*
X130885000Y-89293469D01*
X130889281Y-89250000D01*
X130885000Y-89206531D01*
X130885000Y-88150000D01*
X132061928Y-88150000D01*
X132065000Y-89364250D01*
X132223750Y-89523000D01*
X133373000Y-89523000D01*
X133373000Y-87673750D01*
X133627000Y-87673750D01*
X133627000Y-89523000D01*
X134776250Y-89523000D01*
X134935000Y-89364250D01*
X134938072Y-88150000D01*
X134925812Y-88025518D01*
X134889502Y-87905820D01*
X134830537Y-87795506D01*
X134751185Y-87698815D01*
X134654494Y-87619463D01*
X134544180Y-87560498D01*
X134424482Y-87524188D01*
X134300000Y-87511928D01*
X133785750Y-87515000D01*
X133627000Y-87673750D01*
X133373000Y-87673750D01*
X133214250Y-87515000D01*
X132700000Y-87511928D01*
X132575518Y-87524188D01*
X132455820Y-87560498D01*
X132345506Y-87619463D01*
X132248815Y-87698815D01*
X132169463Y-87795506D01*
X132110498Y-87905820D01*
X132074188Y-88025518D01*
X132061928Y-88150000D01*
X130885000Y-88150000D01*
X130885000Y-87135000D01*
X132206531Y-87135000D01*
X132250000Y-87139281D01*
X132293469Y-87135000D01*
X132293477Y-87135000D01*
X132326635Y-87131734D01*
X132456614Y-87238405D01*
X132610150Y-87320472D01*
X132776746Y-87371008D01*
X132950000Y-87388072D01*
X134050000Y-87388072D01*
X134223254Y-87371008D01*
X134389850Y-87320472D01*
X134543386Y-87238405D01*
X134677962Y-87127962D01*
X134788405Y-86993386D01*
X134870472Y-86839850D01*
X134921008Y-86673254D01*
X134938072Y-86500000D01*
X134938072Y-85635000D01*
X137540198Y-85635000D01*
X136839002Y-86336197D01*
G04 #@! TA.AperFunction,Conductor*
D16*
G36*
X136839002Y-86336197D02*
G01*
X136809999Y-86359999D01*
X136757895Y-86423489D01*
X136715026Y-86475724D01*
X136647083Y-86602835D01*
X136644454Y-86607754D01*
X136600997Y-86751015D01*
X136590000Y-86862668D01*
X136590000Y-86862678D01*
X136586324Y-86900000D01*
X136590000Y-86937323D01*
X136590001Y-90462889D01*
X136535149Y-90479528D01*
X136381613Y-90561595D01*
X136247038Y-90672038D01*
X136136595Y-90806613D01*
X136054528Y-90960149D01*
X136003992Y-91126745D01*
X135986928Y-91299999D01*
X135986928Y-94200001D01*
X136003992Y-94373255D01*
X136016689Y-94415110D01*
X135756534Y-94154956D01*
X135728817Y-94121183D01*
X135594059Y-94010589D01*
X135488072Y-93953938D01*
X135488072Y-93545000D01*
X135475812Y-93420518D01*
X135439502Y-93300820D01*
X135380537Y-93190506D01*
X135301185Y-93093815D01*
X135204494Y-93014463D01*
X135094180Y-92955498D01*
X134974482Y-92919188D01*
X134850000Y-92906928D01*
X134150000Y-92906928D01*
X134135000Y-92908405D01*
X134135000Y-92543465D01*
X134139281Y-92499999D01*
X134135000Y-92456533D01*
X134135000Y-92456523D01*
X134122195Y-92326510D01*
X134071589Y-92159687D01*
X133989411Y-92005941D01*
X133921745Y-91923490D01*
X133906532Y-91904953D01*
X133906530Y-91904951D01*
X133878817Y-91871183D01*
X133845049Y-91843470D01*
X133786584Y-91785005D01*
X134300000Y-91788072D01*
X134424482Y-91775812D01*
X134544180Y-91739502D01*
X134654494Y-91680537D01*
X134751185Y-91601185D01*
X134830537Y-91504494D01*
X134889502Y-91394180D01*
X134925812Y-91274482D01*
X134938072Y-91150000D01*
X134935000Y-89935750D01*
X134776250Y-89777000D01*
X133627000Y-89777000D01*
X133627000Y-89797000D01*
X133373000Y-89797000D01*
X133373000Y-89777000D01*
X132223750Y-89777000D01*
X132065000Y-89935750D01*
X132062649Y-90865000D01*
X130085000Y-90865000D01*
X130085000Y-90416578D01*
X130595050Y-89906529D01*
X130628817Y-89878817D01*
X130681600Y-89814502D01*
X130739411Y-89744059D01*
X130739412Y-89744058D01*
X130821589Y-89590313D01*
X130872195Y-89423490D01*
X130885000Y-89293477D01*
X130885000Y-89293469D01*
X130889281Y-89250000D01*
X130885000Y-89206531D01*
X130885000Y-88150000D01*
X132061928Y-88150000D01*
X132065000Y-89364250D01*
X132223750Y-89523000D01*
X133373000Y-89523000D01*
X133373000Y-87673750D01*
X133627000Y-87673750D01*
X133627000Y-89523000D01*
X134776250Y-89523000D01*
X134935000Y-89364250D01*
X134938072Y-88150000D01*
X134925812Y-88025518D01*
X134889502Y-87905820D01*
X134830537Y-87795506D01*
X134751185Y-87698815D01*
X134654494Y-87619463D01*
X134544180Y-87560498D01*
X134424482Y-87524188D01*
X134300000Y-87511928D01*
X133785750Y-87515000D01*
X133627000Y-87673750D01*
X133373000Y-87673750D01*
X133214250Y-87515000D01*
X132700000Y-87511928D01*
X132575518Y-87524188D01*
X132455820Y-87560498D01*
X132345506Y-87619463D01*
X132248815Y-87698815D01*
X132169463Y-87795506D01*
X132110498Y-87905820D01*
X132074188Y-88025518D01*
X132061928Y-88150000D01*
X130885000Y-88150000D01*
X130885000Y-87135000D01*
X132206531Y-87135000D01*
X132250000Y-87139281D01*
X132293469Y-87135000D01*
X132293477Y-87135000D01*
X132326635Y-87131734D01*
X132456614Y-87238405D01*
X132610150Y-87320472D01*
X132776746Y-87371008D01*
X132950000Y-87388072D01*
X134050000Y-87388072D01*
X134223254Y-87371008D01*
X134389850Y-87320472D01*
X134543386Y-87238405D01*
X134677962Y-87127962D01*
X134788405Y-86993386D01*
X134870472Y-86839850D01*
X134921008Y-86673254D01*
X134938072Y-86500000D01*
X134938072Y-85635000D01*
X137540198Y-85635000D01*
X136839002Y-86336197D01*
G37*
G04 #@! TD.AperFunction*
D15*
X149883997Y-88458798D02*
X150618328Y-89193130D01*
X150643163Y-89275000D01*
X150614188Y-89370518D01*
X150601928Y-89495000D01*
X150601928Y-90005000D01*
X150614188Y-90129482D01*
X150643163Y-90225000D01*
X150614188Y-90320518D01*
X150601928Y-90445000D01*
X150601928Y-90465010D01*
X148603000Y-90465010D01*
X148603000Y-90285500D01*
X148623000Y-90285500D01*
X148623000Y-90265500D01*
X148877000Y-90265500D01*
X148877000Y-90285500D01*
X149701250Y-90285500D01*
X149860000Y-90126750D01*
X149863072Y-89925000D01*
X149850812Y-89800518D01*
X149814502Y-89680820D01*
X149755537Y-89570506D01*
X149676185Y-89473815D01*
X149626188Y-89432783D01*
X149715512Y-89323942D01*
X149796423Y-89172567D01*
X149846248Y-89008316D01*
X149863072Y-88837500D01*
X149863072Y-88441625D01*
X149883997Y-88458798D01*
G04 #@! TA.AperFunction,Conductor*
D16*
G36*
X149883997Y-88458798D02*
G01*
X150618328Y-89193130D01*
X150643163Y-89275000D01*
X150614188Y-89370518D01*
X150601928Y-89495000D01*
X150601928Y-90005000D01*
X150614188Y-90129482D01*
X150643163Y-90225000D01*
X150614188Y-90320518D01*
X150601928Y-90445000D01*
X150601928Y-90465010D01*
X148603000Y-90465010D01*
X148603000Y-90285500D01*
X148623000Y-90285500D01*
X148623000Y-90265500D01*
X148877000Y-90265500D01*
X148877000Y-90285500D01*
X149701250Y-90285500D01*
X149860000Y-90126750D01*
X149863072Y-89925000D01*
X149850812Y-89800518D01*
X149814502Y-89680820D01*
X149755537Y-89570506D01*
X149676185Y-89473815D01*
X149626188Y-89432783D01*
X149715512Y-89323942D01*
X149796423Y-89172567D01*
X149846248Y-89008316D01*
X149863072Y-88837500D01*
X149863072Y-88441625D01*
X149883997Y-88458798D01*
G37*
G04 #@! TD.AperFunction*
D15*
X147240000Y-84262677D02*
X147236324Y-84300000D01*
X147240000Y-84337322D01*
X147240000Y-84337332D01*
X147250997Y-84448985D01*
X147286189Y-84565000D01*
X147294454Y-84592246D01*
X147365026Y-84724276D01*
X147381928Y-84744871D01*
X147381928Y-85075000D01*
X147385193Y-85108150D01*
X147241890Y-85079646D01*
X147097841Y-85079646D01*
X147113072Y-84925000D01*
X147113072Y-84425000D01*
X147096248Y-84254184D01*
X147046423Y-84089933D01*
X147032574Y-84064024D01*
X147141994Y-84005537D01*
X147238685Y-83926185D01*
X147240000Y-83924582D01*
X147240000Y-84262677D01*
G04 #@! TA.AperFunction,Conductor*
D16*
G36*
X147240000Y-84262677D02*
G01*
X147236324Y-84300000D01*
X147240000Y-84337322D01*
X147240000Y-84337332D01*
X147250997Y-84448985D01*
X147286189Y-84565000D01*
X147294454Y-84592246D01*
X147365026Y-84724276D01*
X147381928Y-84744871D01*
X147381928Y-85075000D01*
X147385193Y-85108150D01*
X147241890Y-85079646D01*
X147097841Y-85079646D01*
X147113072Y-84925000D01*
X147113072Y-84425000D01*
X147096248Y-84254184D01*
X147046423Y-84089933D01*
X147032574Y-84064024D01*
X147141994Y-84005537D01*
X147238685Y-83926185D01*
X147240000Y-83924582D01*
X147240000Y-84262677D01*
G37*
G04 #@! TD.AperFunction*
M02*
