%FSLAX45Y45*%
G04 Gerber Fmt 4.5, Leading zero omitted, Abs format (unit mm)*
G04 Created by KiCad (PCBNEW 5.1.10-88a1d61d58~90~ubuntu20.04.1) date 2021-11-23 17:05:49*
%MOMM*%
%LPD*%
G01*
G04 APERTURE LIST*
%TA.AperFunction,Profile*%
%ADD10C,0.050000*%
%TD*%
%ADD11C,0.200000*%
%ADD12C,0.300000*%
G04 APERTURE END LIST*
D10*
X11800000Y-6500000D02*
X12000000Y-6500000D01*
X11800000Y-10500000D02*
X11800000Y-6500000D01*
X12000000Y-10500000D02*
X11800000Y-10500000D01*
X16200000Y-10500000D02*
X16000000Y-10500000D01*
X16200000Y-6500000D02*
X16200000Y-10500000D01*
X16000000Y-6500000D02*
X16200000Y-6500000D01*
X16000000Y-10500000D02*
X12000000Y-10500000D01*
X12000000Y-6500000D02*
X16000000Y-6500000D01*
D11*
X12240000Y-7470000D02*
X12280000Y-7510000D01*
X12280000Y-7470000D02*
X12240000Y-7510000D01*
X12305000Y-8630000D02*
X12345000Y-8670000D01*
X12345000Y-8630000D02*
X12305000Y-8670000D01*
X12380000Y-7990000D02*
X12420000Y-8030000D01*
X12420000Y-7990000D02*
X12380000Y-8030000D01*
X12380000Y-9355000D02*
X12420000Y-9395000D01*
X12420000Y-9355000D02*
X12380000Y-9395000D01*
X12405000Y-7055000D02*
X12445000Y-7095000D01*
X12445000Y-7055000D02*
X12405000Y-7095000D01*
X12680000Y-10080000D02*
X12720000Y-10120000D01*
X12720000Y-10080000D02*
X12680000Y-10120000D01*
X13080000Y-9460000D02*
X13120000Y-9500000D01*
X13120000Y-9460000D02*
X13080000Y-9500000D01*
X13340000Y-7090000D02*
X13380000Y-7130000D01*
X13380000Y-7090000D02*
X13340000Y-7130000D01*
X13580000Y-8955000D02*
X13620000Y-8995000D01*
X13620000Y-8955000D02*
X13580000Y-8995000D01*
X13605000Y-9830000D02*
X13645000Y-9870000D01*
X13645000Y-9830000D02*
X13605000Y-9870000D01*
X14030000Y-8030000D02*
X14070000Y-8070000D01*
X14070000Y-8030000D02*
X14030000Y-8070000D01*
X14693995Y-8591465D02*
X14733995Y-8631465D01*
X14733995Y-8591465D02*
X14693995Y-8631465D01*
X14705000Y-10105000D02*
X14745000Y-10145000D01*
X14745000Y-10105000D02*
X14705000Y-10145000D01*
X14780000Y-8280000D02*
X14820000Y-8320000D01*
X14820000Y-8280000D02*
X14780000Y-8320000D01*
X15000000Y-8940000D02*
X15040000Y-8980000D01*
X15040000Y-8940000D02*
X15000000Y-8980000D01*
X15250000Y-9130000D02*
X15290000Y-9170000D01*
X15290000Y-9130000D02*
X15250000Y-9170000D01*
X15480000Y-7130000D02*
X15520000Y-7170000D01*
X15520000Y-7130000D02*
X15480000Y-7170000D01*
X15810000Y-9210000D02*
X15850000Y-9250000D01*
X15850000Y-9210000D02*
X15810000Y-9250000D01*
D12*
X12083928Y-10968214D02*
X12083928Y-10668214D01*
X12155357Y-10668214D01*
X12198214Y-10682500D01*
X12226786Y-10711072D01*
X12241071Y-10739643D01*
X12255357Y-10796786D01*
X12255357Y-10839643D01*
X12241071Y-10896786D01*
X12226786Y-10925357D01*
X12198214Y-10953929D01*
X12155357Y-10968214D01*
X12083928Y-10968214D01*
X12383928Y-10968214D02*
X12383928Y-10768214D01*
X12383928Y-10825357D02*
X12398214Y-10796786D01*
X12412500Y-10782500D01*
X12441071Y-10768214D01*
X12469643Y-10768214D01*
X12569643Y-10968214D02*
X12569643Y-10768214D01*
X12569643Y-10668214D02*
X12555357Y-10682500D01*
X12569643Y-10696786D01*
X12583928Y-10682500D01*
X12569643Y-10668214D01*
X12569643Y-10696786D01*
X12755357Y-10968214D02*
X12726786Y-10953929D01*
X12712500Y-10925357D01*
X12712500Y-10668214D01*
X12912500Y-10968214D02*
X12883928Y-10953929D01*
X12869643Y-10925357D01*
X12869643Y-10668214D01*
X13255357Y-10968214D02*
X13255357Y-10668214D01*
X13355357Y-10882500D01*
X13455357Y-10668214D01*
X13455357Y-10968214D01*
X13726786Y-10968214D02*
X13726786Y-10811072D01*
X13712500Y-10782500D01*
X13683928Y-10768214D01*
X13626786Y-10768214D01*
X13598214Y-10782500D01*
X13726786Y-10953929D02*
X13698214Y-10968214D01*
X13626786Y-10968214D01*
X13598214Y-10953929D01*
X13583928Y-10925357D01*
X13583928Y-10896786D01*
X13598214Y-10868214D01*
X13626786Y-10853929D01*
X13698214Y-10853929D01*
X13726786Y-10839643D01*
X13869643Y-10768214D02*
X13869643Y-11068214D01*
X13869643Y-10782500D02*
X13898214Y-10768214D01*
X13955357Y-10768214D01*
X13983928Y-10782500D01*
X13998214Y-10796786D01*
X14012500Y-10825357D01*
X14012500Y-10911072D01*
X13998214Y-10939643D01*
X13983928Y-10953929D01*
X13955357Y-10968214D01*
X13898214Y-10968214D01*
X13869643Y-10953929D01*
X14141071Y-10939643D02*
X14155357Y-10953929D01*
X14141071Y-10968214D01*
X14126786Y-10953929D01*
X14141071Y-10939643D01*
X14141071Y-10968214D01*
X14141071Y-10782500D02*
X14155357Y-10796786D01*
X14141071Y-10811072D01*
X14126786Y-10796786D01*
X14141071Y-10782500D01*
X14141071Y-10811072D01*
X11757500Y-11442500D02*
X11797500Y-11482500D01*
X11797500Y-11442500D02*
X11757500Y-11482500D01*
X12141071Y-11298214D02*
X12169643Y-11298214D01*
X12198214Y-11312500D01*
X12212500Y-11326786D01*
X12226786Y-11355357D01*
X12241071Y-11412500D01*
X12241071Y-11483929D01*
X12226786Y-11541071D01*
X12212500Y-11569643D01*
X12198214Y-11583929D01*
X12169643Y-11598214D01*
X12141071Y-11598214D01*
X12112500Y-11583929D01*
X12098214Y-11569643D01*
X12083928Y-11541071D01*
X12069643Y-11483929D01*
X12069643Y-11412500D01*
X12083928Y-11355357D01*
X12098214Y-11326786D01*
X12112500Y-11312500D01*
X12141071Y-11298214D01*
X12369643Y-11569643D02*
X12383928Y-11583929D01*
X12369643Y-11598214D01*
X12355357Y-11583929D01*
X12369643Y-11569643D01*
X12369643Y-11598214D01*
X12641071Y-11398214D02*
X12641071Y-11598214D01*
X12569643Y-11283929D02*
X12498214Y-11498214D01*
X12683928Y-11498214D01*
X12855357Y-11298214D02*
X12883928Y-11298214D01*
X12912500Y-11312500D01*
X12926786Y-11326786D01*
X12941071Y-11355357D01*
X12955357Y-11412500D01*
X12955357Y-11483929D01*
X12941071Y-11541071D01*
X12926786Y-11569643D01*
X12912500Y-11583929D01*
X12883928Y-11598214D01*
X12855357Y-11598214D01*
X12826786Y-11583929D01*
X12812500Y-11569643D01*
X12798214Y-11541071D01*
X12783928Y-11483929D01*
X12783928Y-11412500D01*
X12798214Y-11355357D01*
X12812500Y-11326786D01*
X12826786Y-11312500D01*
X12855357Y-11298214D01*
X13141071Y-11298214D02*
X13169643Y-11298214D01*
X13198214Y-11312500D01*
X13212500Y-11326786D01*
X13226786Y-11355357D01*
X13241071Y-11412500D01*
X13241071Y-11483929D01*
X13226786Y-11541071D01*
X13212500Y-11569643D01*
X13198214Y-11583929D01*
X13169643Y-11598214D01*
X13141071Y-11598214D01*
X13112500Y-11583929D01*
X13098214Y-11569643D01*
X13083928Y-11541071D01*
X13069643Y-11483929D01*
X13069643Y-11412500D01*
X13083928Y-11355357D01*
X13098214Y-11326786D01*
X13112500Y-11312500D01*
X13141071Y-11298214D01*
X13369643Y-11598214D02*
X13369643Y-11398214D01*
X13369643Y-11426786D02*
X13383928Y-11412500D01*
X13412500Y-11398214D01*
X13455357Y-11398214D01*
X13483928Y-11412500D01*
X13498214Y-11441071D01*
X13498214Y-11598214D01*
X13498214Y-11441071D02*
X13512500Y-11412500D01*
X13541071Y-11398214D01*
X13583928Y-11398214D01*
X13612500Y-11412500D01*
X13626786Y-11441071D01*
X13626786Y-11598214D01*
X13769643Y-11598214D02*
X13769643Y-11398214D01*
X13769643Y-11426786D02*
X13783928Y-11412500D01*
X13812500Y-11398214D01*
X13855357Y-11398214D01*
X13883928Y-11412500D01*
X13898214Y-11441071D01*
X13898214Y-11598214D01*
X13898214Y-11441071D02*
X13912500Y-11412500D01*
X13941071Y-11398214D01*
X13983928Y-11398214D01*
X14012500Y-11412500D01*
X14026786Y-11441071D01*
X14026786Y-11598214D01*
X14612500Y-11283929D02*
X14355357Y-11669643D01*
X14998214Y-11298214D02*
X15026786Y-11298214D01*
X15055357Y-11312500D01*
X15069643Y-11326786D01*
X15083928Y-11355357D01*
X15098214Y-11412500D01*
X15098214Y-11483929D01*
X15083928Y-11541071D01*
X15069643Y-11569643D01*
X15055357Y-11583929D01*
X15026786Y-11598214D01*
X14998214Y-11598214D01*
X14969643Y-11583929D01*
X14955357Y-11569643D01*
X14941071Y-11541071D01*
X14926786Y-11483929D01*
X14926786Y-11412500D01*
X14941071Y-11355357D01*
X14955357Y-11326786D01*
X14969643Y-11312500D01*
X14998214Y-11298214D01*
X15226786Y-11569643D02*
X15241071Y-11583929D01*
X15226786Y-11598214D01*
X15212500Y-11583929D01*
X15226786Y-11569643D01*
X15226786Y-11598214D01*
X15426786Y-11298214D02*
X15455357Y-11298214D01*
X15483928Y-11312500D01*
X15498214Y-11326786D01*
X15512500Y-11355357D01*
X15526786Y-11412500D01*
X15526786Y-11483929D01*
X15512500Y-11541071D01*
X15498214Y-11569643D01*
X15483928Y-11583929D01*
X15455357Y-11598214D01*
X15426786Y-11598214D01*
X15398214Y-11583929D01*
X15383928Y-11569643D01*
X15369643Y-11541071D01*
X15355357Y-11483929D01*
X15355357Y-11412500D01*
X15369643Y-11355357D01*
X15383928Y-11326786D01*
X15398214Y-11312500D01*
X15426786Y-11298214D01*
X15812500Y-11598214D02*
X15641071Y-11598214D01*
X15726786Y-11598214D02*
X15726786Y-11298214D01*
X15698214Y-11341071D01*
X15669643Y-11369643D01*
X15641071Y-11383929D01*
X16083928Y-11298214D02*
X15941071Y-11298214D01*
X15926786Y-11441071D01*
X15941071Y-11426786D01*
X15969643Y-11412500D01*
X16041071Y-11412500D01*
X16069643Y-11426786D01*
X16083928Y-11441071D01*
X16098214Y-11469643D01*
X16098214Y-11541071D01*
X16083928Y-11569643D01*
X16069643Y-11583929D01*
X16041071Y-11598214D01*
X15969643Y-11598214D01*
X15941071Y-11583929D01*
X15926786Y-11569643D01*
X16198214Y-11298214D02*
X16398214Y-11298214D01*
X16269643Y-11598214D01*
X16498214Y-11298214D02*
X16498214Y-11355357D01*
X16612500Y-11298214D02*
X16612500Y-11355357D01*
X17055357Y-11712500D02*
X17041071Y-11698214D01*
X17012500Y-11655357D01*
X16998214Y-11626786D01*
X16983928Y-11583929D01*
X16969643Y-11512500D01*
X16969643Y-11455357D01*
X16983928Y-11383929D01*
X16998214Y-11341071D01*
X17012500Y-11312500D01*
X17041071Y-11269643D01*
X17055357Y-11255357D01*
X17326786Y-11598214D02*
X17155357Y-11598214D01*
X17241071Y-11598214D02*
X17241071Y-11298214D01*
X17212500Y-11341071D01*
X17183928Y-11369643D01*
X17155357Y-11383929D01*
X17498214Y-11426786D02*
X17469643Y-11412500D01*
X17455357Y-11398214D01*
X17441071Y-11369643D01*
X17441071Y-11355357D01*
X17455357Y-11326786D01*
X17469643Y-11312500D01*
X17498214Y-11298214D01*
X17555357Y-11298214D01*
X17583928Y-11312500D01*
X17598214Y-11326786D01*
X17612500Y-11355357D01*
X17612500Y-11369643D01*
X17598214Y-11398214D01*
X17583928Y-11412500D01*
X17555357Y-11426786D01*
X17498214Y-11426786D01*
X17469643Y-11441071D01*
X17455357Y-11455357D01*
X17441071Y-11483929D01*
X17441071Y-11541071D01*
X17455357Y-11569643D01*
X17469643Y-11583929D01*
X17498214Y-11598214D01*
X17555357Y-11598214D01*
X17583928Y-11583929D01*
X17598214Y-11569643D01*
X17612500Y-11541071D01*
X17612500Y-11483929D01*
X17598214Y-11455357D01*
X17583928Y-11441071D01*
X17555357Y-11426786D01*
X17969643Y-11598214D02*
X17969643Y-11298214D01*
X18098214Y-11598214D02*
X18098214Y-11441071D01*
X18083928Y-11412500D01*
X18055357Y-11398214D01*
X18012500Y-11398214D01*
X17983928Y-11412500D01*
X17969643Y-11426786D01*
X18283928Y-11598214D02*
X18255357Y-11583929D01*
X18241071Y-11569643D01*
X18226786Y-11541071D01*
X18226786Y-11455357D01*
X18241071Y-11426786D01*
X18255357Y-11412500D01*
X18283928Y-11398214D01*
X18326786Y-11398214D01*
X18355357Y-11412500D01*
X18369643Y-11426786D01*
X18383928Y-11455357D01*
X18383928Y-11541071D01*
X18369643Y-11569643D01*
X18355357Y-11583929D01*
X18326786Y-11598214D01*
X18283928Y-11598214D01*
X18555357Y-11598214D02*
X18526786Y-11583929D01*
X18512500Y-11555357D01*
X18512500Y-11298214D01*
X18783928Y-11583929D02*
X18755357Y-11598214D01*
X18698214Y-11598214D01*
X18669643Y-11583929D01*
X18655357Y-11555357D01*
X18655357Y-11441071D01*
X18669643Y-11412500D01*
X18698214Y-11398214D01*
X18755357Y-11398214D01*
X18783928Y-11412500D01*
X18798214Y-11441071D01*
X18798214Y-11469643D01*
X18655357Y-11498214D01*
X18912500Y-11583929D02*
X18941071Y-11598214D01*
X18998214Y-11598214D01*
X19026786Y-11583929D01*
X19041071Y-11555357D01*
X19041071Y-11541071D01*
X19026786Y-11512500D01*
X18998214Y-11498214D01*
X18955357Y-11498214D01*
X18926786Y-11483929D01*
X18912500Y-11455357D01*
X18912500Y-11441071D01*
X18926786Y-11412500D01*
X18955357Y-11398214D01*
X18998214Y-11398214D01*
X19026786Y-11412500D01*
X19141071Y-11712500D02*
X19155357Y-11698214D01*
X19183928Y-11655357D01*
X19198214Y-11626786D01*
X19212500Y-11583929D01*
X19226786Y-11512500D01*
X19226786Y-11455357D01*
X19212500Y-11383929D01*
X19198214Y-11341071D01*
X19183928Y-11312500D01*
X19155357Y-11269643D01*
X19141071Y-11255357D01*
M02*
