%FSLAX45Y45*%
G04 Gerber Fmt 4.5, Leading zero omitted, Abs format (unit mm)*
G04 Created by KiCad (PCBNEW 5.1.10-88a1d61d58~90~ubuntu20.04.1) date 2021-11-23 17:05:49*
%MOMM*%
%LPD*%
G01*
G04 APERTURE LIST*
%TA.AperFunction,Profile*%
%ADD10C,0.050000*%
%TD*%
%ADD11C,0.200000*%
%ADD12C,0.300000*%
G04 APERTURE END LIST*
D10*
X11800000Y-6500000D02*
X12000000Y-6500000D01*
X11800000Y-10500000D02*
X11800000Y-6500000D01*
X12000000Y-10500000D02*
X11800000Y-10500000D01*
X16200000Y-10500000D02*
X16000000Y-10500000D01*
X16200000Y-6500000D02*
X16200000Y-10500000D01*
X16000000Y-6500000D02*
X16200000Y-6500000D01*
X16000000Y-10500000D02*
X12000000Y-10500000D01*
X12000000Y-6500000D02*
X16000000Y-6500000D01*
D11*
D12*
X12083928Y-10968214D02*
X12083928Y-10668214D01*
X12155357Y-10668214D01*
X12198214Y-10682500D01*
X12226786Y-10711072D01*
X12241071Y-10739643D01*
X12255357Y-10796786D01*
X12255357Y-10839643D01*
X12241071Y-10896786D01*
X12226786Y-10925357D01*
X12198214Y-10953929D01*
X12155357Y-10968214D01*
X12083928Y-10968214D01*
X12383928Y-10968214D02*
X12383928Y-10768214D01*
X12383928Y-10825357D02*
X12398214Y-10796786D01*
X12412500Y-10782500D01*
X12441071Y-10768214D01*
X12469643Y-10768214D01*
X12569643Y-10968214D02*
X12569643Y-10768214D01*
X12569643Y-10668214D02*
X12555357Y-10682500D01*
X12569643Y-10696786D01*
X12583928Y-10682500D01*
X12569643Y-10668214D01*
X12569643Y-10696786D01*
X12755357Y-10968214D02*
X12726786Y-10953929D01*
X12712500Y-10925357D01*
X12712500Y-10668214D01*
X12912500Y-10968214D02*
X12883928Y-10953929D01*
X12869643Y-10925357D01*
X12869643Y-10668214D01*
X13255357Y-10968214D02*
X13255357Y-10668214D01*
X13355357Y-10882500D01*
X13455357Y-10668214D01*
X13455357Y-10968214D01*
X13726786Y-10968214D02*
X13726786Y-10811072D01*
X13712500Y-10782500D01*
X13683928Y-10768214D01*
X13626786Y-10768214D01*
X13598214Y-10782500D01*
X13726786Y-10953929D02*
X13698214Y-10968214D01*
X13626786Y-10968214D01*
X13598214Y-10953929D01*
X13583928Y-10925357D01*
X13583928Y-10896786D01*
X13598214Y-10868214D01*
X13626786Y-10853929D01*
X13698214Y-10853929D01*
X13726786Y-10839643D01*
X13869643Y-10768214D02*
X13869643Y-11068214D01*
X13869643Y-10782500D02*
X13898214Y-10768214D01*
X13955357Y-10768214D01*
X13983928Y-10782500D01*
X13998214Y-10796786D01*
X14012500Y-10825357D01*
X14012500Y-10911072D01*
X13998214Y-10939643D01*
X13983928Y-10953929D01*
X13955357Y-10968214D01*
X13898214Y-10968214D01*
X13869643Y-10953929D01*
X14141071Y-10939643D02*
X14155357Y-10953929D01*
X14141071Y-10968214D01*
X14126786Y-10953929D01*
X14141071Y-10939643D01*
X14141071Y-10968214D01*
X14141071Y-10782500D02*
X14155357Y-10796786D01*
X14141071Y-10811072D01*
X14126786Y-10796786D01*
X14141071Y-10782500D01*
X14141071Y-10811072D01*
M02*
