M48
; DRILL file {KiCad 5.1.10-88a1d61d58~90~ubuntu20.04.1} date Tue Nov 23 17:04:55 2021
; FORMAT={-:-/ absolute / metric / decimal}
; #@! TF.CreationDate,2021-11-23T17:04:55+00:00
; #@! TF.GenerationSoftware,Kicad,Pcbnew,5.1.10-88a1d61d58~90~ubuntu20.04.1
; #@! TF.FileFunction,Plated,1,2,PTH
FMAT,2
METRIC
T1C0.400
T2C1.000
%
G90
G05
T1
X84.1Y-32.6
X88.6Y-35.5
X90.25Y-47.5
X91.25Y-57.25
X92.75Y-46.25
X93.5Y-40.5
X94.75Y-62.0
X97.25Y-62.0
X99.75Y-62.0
X100.0Y-35.5
X100.0Y-48.25
X102.25Y-62.0
X103.0Y-67.9
X104.75Y-62.0
X105.5Y-52.75
X107.25Y-62.0
X108.5Y-40.75
X110.25Y-42.75
X110.5Y-34.0
X110.5Y-44.0
X111.75Y-56.25
X116.0Y-45.75
X118.8Y-32.9
X120.5Y-63.0
T2
X118.75Y-47.71
X118.75Y-50.25
X118.75Y-52.79
X118.75Y-55.33
T0
M30
