G04 #@! TF.GenerationSoftware,KiCad,Pcbnew,5.1.10-88a1d61d58~90~ubuntu20.04.1*
G04 #@! TF.CreationDate,2021-11-23T17:04:51+00:00*
G04 #@! TF.ProjectId,logic-calc,6c6f6769-632d-4636-916c-632e6b696361,rev?*
G04 #@! TF.SameCoordinates,Original*
G04 #@! TF.FileFunction,Soldermask,Top*
G04 #@! TF.FilePolarity,Negative*
%FSLAX46Y46*%
G04 Gerber Fmt 4.6, Leading zero omitted, Abs format (unit mm)*
G04 Created by KiCad (PCBNEW 5.1.10-88a1d61d58~90~ubuntu20.04.1) date 2021-11-23 17:04:51*
%MOMM*%
%LPD*%
G01*
G04 APERTURE LIST*
%ADD10O,1.700000X1.700000*%
%ADD11R,1.700000X1.700000*%
%ADD12R,0.600000X1.000000*%
%ADD13R,1.100000X1.800000*%
G04 APERTURE END LIST*
D10*
X118750000Y-55330000D03*
X118750000Y-52790000D03*
X118750000Y-50250000D03*
D11*
X118750000Y-47710000D03*
D12*
X111100000Y-40100000D03*
X116100000Y-40100000D03*
D13*
X111750000Y-37000000D03*
X115450000Y-37000000D03*
X111750000Y-43200000D03*
X115450000Y-43200000D03*
D12*
X90900000Y-40100000D03*
X85900000Y-40100000D03*
D13*
X90250000Y-43200000D03*
X86550000Y-43200000D03*
X90250000Y-37000000D03*
X86550000Y-37000000D03*
D12*
X90950000Y-62000000D03*
X85950000Y-62000000D03*
D13*
X90300000Y-65100000D03*
X86600000Y-65100000D03*
X90300000Y-58900000D03*
X86600000Y-58900000D03*
D12*
X111050000Y-62000000D03*
X116050000Y-62000000D03*
D13*
X111700000Y-58900000D03*
X115400000Y-58900000D03*
X111700000Y-65100000D03*
X115400000Y-65100000D03*
G36*
G01*
X113475000Y-46450001D02*
X113475000Y-45549999D01*
G75*
G02*
X113724999Y-45300000I249999J0D01*
G01*
X114375001Y-45300000D01*
G75*
G02*
X114625000Y-45549999I0J-249999D01*
G01*
X114625000Y-46450001D01*
G75*
G02*
X114375001Y-46700000I-249999J0D01*
G01*
X113724999Y-46700000D01*
G75*
G02*
X113475000Y-46450001I0J249999D01*
G01*
G37*
G36*
G01*
X111425000Y-46450001D02*
X111425000Y-45549999D01*
G75*
G02*
X111674999Y-45300000I249999J0D01*
G01*
X112325001Y-45300000D01*
G75*
G02*
X112575000Y-45549999I0J-249999D01*
G01*
X112575000Y-46450001D01*
G75*
G02*
X112325001Y-46700000I-249999J0D01*
G01*
X111674999Y-46700000D01*
G75*
G02*
X111425000Y-46450001I0J249999D01*
G01*
G37*
G36*
G01*
X101425000Y-46450001D02*
X101425000Y-45549999D01*
G75*
G02*
X101674999Y-45300000I249999J0D01*
G01*
X102325001Y-45300000D01*
G75*
G02*
X102575000Y-45549999I0J-249999D01*
G01*
X102575000Y-46450001D01*
G75*
G02*
X102325001Y-46700000I-249999J0D01*
G01*
X101674999Y-46700000D01*
G75*
G02*
X101425000Y-46450001I0J249999D01*
G01*
G37*
G36*
G01*
X99375000Y-46450001D02*
X99375000Y-45549999D01*
G75*
G02*
X99624999Y-45300000I249999J0D01*
G01*
X100275001Y-45300000D01*
G75*
G02*
X100525000Y-45549999I0J-249999D01*
G01*
X100525000Y-46450001D01*
G75*
G02*
X100275001Y-46700000I-249999J0D01*
G01*
X99624999Y-46700000D01*
G75*
G02*
X99375000Y-46450001I0J249999D01*
G01*
G37*
G36*
G01*
X89675000Y-46450001D02*
X89675000Y-45549999D01*
G75*
G02*
X89924999Y-45300000I249999J0D01*
G01*
X90575001Y-45300000D01*
G75*
G02*
X90825000Y-45549999I0J-249999D01*
G01*
X90825000Y-46450001D01*
G75*
G02*
X90575001Y-46700000I-249999J0D01*
G01*
X89924999Y-46700000D01*
G75*
G02*
X89675000Y-46450001I0J249999D01*
G01*
G37*
G36*
G01*
X87625000Y-46450001D02*
X87625000Y-45549999D01*
G75*
G02*
X87874999Y-45300000I249999J0D01*
G01*
X88525001Y-45300000D01*
G75*
G02*
X88775000Y-45549999I0J-249999D01*
G01*
X88775000Y-46450001D01*
G75*
G02*
X88525001Y-46700000I-249999J0D01*
G01*
X87874999Y-46700000D01*
G75*
G02*
X87625000Y-46450001I0J249999D01*
G01*
G37*
G36*
G01*
X112575000Y-33549999D02*
X112575000Y-34450001D01*
G75*
G02*
X112325001Y-34700000I-249999J0D01*
G01*
X111674999Y-34700000D01*
G75*
G02*
X111425000Y-34450001I0J249999D01*
G01*
X111425000Y-33549999D01*
G75*
G02*
X111674999Y-33300000I249999J0D01*
G01*
X112325001Y-33300000D01*
G75*
G02*
X112575000Y-33549999I0J-249999D01*
G01*
G37*
G36*
G01*
X114625000Y-33549999D02*
X114625000Y-34450001D01*
G75*
G02*
X114375001Y-34700000I-249999J0D01*
G01*
X113724999Y-34700000D01*
G75*
G02*
X113475000Y-34450001I0J249999D01*
G01*
X113475000Y-33549999D01*
G75*
G02*
X113724999Y-33300000I249999J0D01*
G01*
X114375001Y-33300000D01*
G75*
G02*
X114625000Y-33549999I0J-249999D01*
G01*
G37*
G36*
G01*
X100550000Y-33549999D02*
X100550000Y-34450001D01*
G75*
G02*
X100300001Y-34700000I-249999J0D01*
G01*
X99649999Y-34700000D01*
G75*
G02*
X99400000Y-34450001I0J249999D01*
G01*
X99400000Y-33549999D01*
G75*
G02*
X99649999Y-33300000I249999J0D01*
G01*
X100300001Y-33300000D01*
G75*
G02*
X100550000Y-33549999I0J-249999D01*
G01*
G37*
G36*
G01*
X102600000Y-33549999D02*
X102600000Y-34450001D01*
G75*
G02*
X102350001Y-34700000I-249999J0D01*
G01*
X101699999Y-34700000D01*
G75*
G02*
X101450000Y-34450001I0J249999D01*
G01*
X101450000Y-33549999D01*
G75*
G02*
X101699999Y-33300000I249999J0D01*
G01*
X102350001Y-33300000D01*
G75*
G02*
X102600000Y-33549999I0J-249999D01*
G01*
G37*
G36*
G01*
X88775000Y-33549999D02*
X88775000Y-34450001D01*
G75*
G02*
X88525001Y-34700000I-249999J0D01*
G01*
X87874999Y-34700000D01*
G75*
G02*
X87625000Y-34450001I0J249999D01*
G01*
X87625000Y-33549999D01*
G75*
G02*
X87874999Y-33300000I249999J0D01*
G01*
X88525001Y-33300000D01*
G75*
G02*
X88775000Y-33549999I0J-249999D01*
G01*
G37*
G36*
G01*
X90825000Y-33549550D02*
X90825000Y-34450450D01*
G75*
G02*
X90575450Y-34700000I-249550J0D01*
G01*
X89924550Y-34700000D01*
G75*
G02*
X89675000Y-34450450I0J249550D01*
G01*
X89675000Y-33549550D01*
G75*
G02*
X89924550Y-33300000I249550J0D01*
G01*
X90575450Y-33300000D01*
G75*
G02*
X90825000Y-33549550I0J-249550D01*
G01*
G37*
G36*
G01*
X107925000Y-39450001D02*
X107925000Y-38549999D01*
G75*
G02*
X108174999Y-38300000I249999J0D01*
G01*
X108825001Y-38300000D01*
G75*
G02*
X109075000Y-38549999I0J-249999D01*
G01*
X109075000Y-39450001D01*
G75*
G02*
X108825001Y-39700000I-249999J0D01*
G01*
X108174999Y-39700000D01*
G75*
G02*
X107925000Y-39450001I0J249999D01*
G01*
G37*
G36*
G01*
X105875000Y-39450001D02*
X105875000Y-38549999D01*
G75*
G02*
X106124999Y-38300000I249999J0D01*
G01*
X106775001Y-38300000D01*
G75*
G02*
X107025000Y-38549999I0J-249999D01*
G01*
X107025000Y-39450001D01*
G75*
G02*
X106775001Y-39700000I-249999J0D01*
G01*
X106124999Y-39700000D01*
G75*
G02*
X105875000Y-39450001I0J249999D01*
G01*
G37*
G36*
G01*
X94075000Y-38549999D02*
X94075000Y-39450001D01*
G75*
G02*
X93825001Y-39700000I-249999J0D01*
G01*
X93174999Y-39700000D01*
G75*
G02*
X92925000Y-39450001I0J249999D01*
G01*
X92925000Y-38549999D01*
G75*
G02*
X93174999Y-38300000I249999J0D01*
G01*
X93825001Y-38300000D01*
G75*
G02*
X94075000Y-38549999I0J-249999D01*
G01*
G37*
G36*
G01*
X96125000Y-38549999D02*
X96125000Y-39450001D01*
G75*
G02*
X95875001Y-39700000I-249999J0D01*
G01*
X95224999Y-39700000D01*
G75*
G02*
X94975000Y-39450001I0J249999D01*
G01*
X94975000Y-38549999D01*
G75*
G02*
X95224999Y-38300000I249999J0D01*
G01*
X95875001Y-38300000D01*
G75*
G02*
X96125000Y-38549999I0J-249999D01*
G01*
G37*
G36*
G01*
X95200001Y-63850000D02*
X94299999Y-63850000D01*
G75*
G02*
X94050000Y-63600001I0J249999D01*
G01*
X94050000Y-62949999D01*
G75*
G02*
X94299999Y-62700000I249999J0D01*
G01*
X95200001Y-62700000D01*
G75*
G02*
X95450000Y-62949999I0J-249999D01*
G01*
X95450000Y-63600001D01*
G75*
G02*
X95200001Y-63850000I-249999J0D01*
G01*
G37*
G36*
G01*
X95200001Y-65900000D02*
X94299999Y-65900000D01*
G75*
G02*
X94050000Y-65650001I0J249999D01*
G01*
X94050000Y-64999999D01*
G75*
G02*
X94299999Y-64750000I249999J0D01*
G01*
X95200001Y-64750000D01*
G75*
G02*
X95450000Y-64999999I0J-249999D01*
G01*
X95450000Y-65650001D01*
G75*
G02*
X95200001Y-65900000I-249999J0D01*
G01*
G37*
G36*
G01*
X97700001Y-63850000D02*
X96799999Y-63850000D01*
G75*
G02*
X96550000Y-63600001I0J249999D01*
G01*
X96550000Y-62949999D01*
G75*
G02*
X96799999Y-62700000I249999J0D01*
G01*
X97700001Y-62700000D01*
G75*
G02*
X97950000Y-62949999I0J-249999D01*
G01*
X97950000Y-63600001D01*
G75*
G02*
X97700001Y-63850000I-249999J0D01*
G01*
G37*
G36*
G01*
X97700001Y-65900000D02*
X96799999Y-65900000D01*
G75*
G02*
X96550000Y-65650001I0J249999D01*
G01*
X96550000Y-64999999D01*
G75*
G02*
X96799999Y-64750000I249999J0D01*
G01*
X97700001Y-64750000D01*
G75*
G02*
X97950000Y-64999999I0J-249999D01*
G01*
X97950000Y-65650001D01*
G75*
G02*
X97700001Y-65900000I-249999J0D01*
G01*
G37*
G36*
G01*
X100200001Y-63850000D02*
X99299999Y-63850000D01*
G75*
G02*
X99050000Y-63600001I0J249999D01*
G01*
X99050000Y-62949999D01*
G75*
G02*
X99299999Y-62700000I249999J0D01*
G01*
X100200001Y-62700000D01*
G75*
G02*
X100450000Y-62949999I0J-249999D01*
G01*
X100450000Y-63600001D01*
G75*
G02*
X100200001Y-63850000I-249999J0D01*
G01*
G37*
G36*
G01*
X100200001Y-65900000D02*
X99299999Y-65900000D01*
G75*
G02*
X99050000Y-65650001I0J249999D01*
G01*
X99050000Y-64999999D01*
G75*
G02*
X99299999Y-64750000I249999J0D01*
G01*
X100200001Y-64750000D01*
G75*
G02*
X100450000Y-64999999I0J-249999D01*
G01*
X100450000Y-65650001D01*
G75*
G02*
X100200001Y-65900000I-249999J0D01*
G01*
G37*
G36*
G01*
X102700001Y-63850000D02*
X101799999Y-63850000D01*
G75*
G02*
X101550000Y-63600001I0J249999D01*
G01*
X101550000Y-62949999D01*
G75*
G02*
X101799999Y-62700000I249999J0D01*
G01*
X102700001Y-62700000D01*
G75*
G02*
X102950000Y-62949999I0J-249999D01*
G01*
X102950000Y-63600001D01*
G75*
G02*
X102700001Y-63850000I-249999J0D01*
G01*
G37*
G36*
G01*
X102700001Y-65900000D02*
X101799999Y-65900000D01*
G75*
G02*
X101550000Y-65650001I0J249999D01*
G01*
X101550000Y-64999999D01*
G75*
G02*
X101799999Y-64750000I249999J0D01*
G01*
X102700001Y-64750000D01*
G75*
G02*
X102950000Y-64999999I0J-249999D01*
G01*
X102950000Y-65650001D01*
G75*
G02*
X102700001Y-65900000I-249999J0D01*
G01*
G37*
G36*
G01*
X105200001Y-63850000D02*
X104299999Y-63850000D01*
G75*
G02*
X104050000Y-63600001I0J249999D01*
G01*
X104050000Y-62949999D01*
G75*
G02*
X104299999Y-62700000I249999J0D01*
G01*
X105200001Y-62700000D01*
G75*
G02*
X105450000Y-62949999I0J-249999D01*
G01*
X105450000Y-63600001D01*
G75*
G02*
X105200001Y-63850000I-249999J0D01*
G01*
G37*
G36*
G01*
X105200001Y-65900000D02*
X104299999Y-65900000D01*
G75*
G02*
X104050000Y-65650001I0J249999D01*
G01*
X104050000Y-64999999D01*
G75*
G02*
X104299999Y-64750000I249999J0D01*
G01*
X105200001Y-64750000D01*
G75*
G02*
X105450000Y-64999999I0J-249999D01*
G01*
X105450000Y-65650001D01*
G75*
G02*
X105200001Y-65900000I-249999J0D01*
G01*
G37*
G36*
G01*
X107700001Y-63875000D02*
X106799999Y-63875000D01*
G75*
G02*
X106550000Y-63625001I0J249999D01*
G01*
X106550000Y-62974999D01*
G75*
G02*
X106799999Y-62725000I249999J0D01*
G01*
X107700001Y-62725000D01*
G75*
G02*
X107950000Y-62974999I0J-249999D01*
G01*
X107950000Y-63625001D01*
G75*
G02*
X107700001Y-63875000I-249999J0D01*
G01*
G37*
G36*
G01*
X107700001Y-65925000D02*
X106799999Y-65925000D01*
G75*
G02*
X106550000Y-65675001I0J249999D01*
G01*
X106550000Y-65024999D01*
G75*
G02*
X106799999Y-64775000I249999J0D01*
G01*
X107700001Y-64775000D01*
G75*
G02*
X107950000Y-65024999I0J-249999D01*
G01*
X107950000Y-65675001D01*
G75*
G02*
X107700001Y-65925000I-249999J0D01*
G01*
G37*
M02*
