G04 #@! TF.GenerationSoftware,KiCad,Pcbnew,5.1.10-88a1d61d58~90~ubuntu20.04.1*
G04 #@! TF.CreationDate,2021-11-23T17:04:51+00:00*
G04 #@! TF.ProjectId,logic-calc,6c6f6769-632d-4636-916c-632e6b696361,rev?*
G04 #@! TF.SameCoordinates,Original*
G04 #@! TF.FileFunction,Copper,L1,Top*
G04 #@! TF.FilePolarity,Positive*
%FSLAX46Y46*%
G04 Gerber Fmt 4.6, Leading zero omitted, Abs format (unit mm)*
G04 Created by KiCad (PCBNEW 5.1.10-88a1d61d58~90~ubuntu20.04.1) date 2021-11-23 17:04:51*
%MOMM*%
%LPD*%
G01*
G04 APERTURE LIST*
G04 #@! TA.AperFunction,ComponentPad*
%ADD10O,1.700000X1.700000*%
G04 #@! TD*
G04 #@! TA.AperFunction,ComponentPad*
%ADD11R,1.700000X1.700000*%
G04 #@! TD*
G04 #@! TA.AperFunction,SMDPad,CuDef*
%ADD12R,0.600000X1.000000*%
G04 #@! TD*
G04 #@! TA.AperFunction,SMDPad,CuDef*
%ADD13R,1.100000X1.800000*%
G04 #@! TD*
G04 #@! TA.AperFunction,ViaPad*
%ADD14C,0.800000*%
G04 #@! TD*
G04 #@! TA.AperFunction,Conductor*
%ADD15C,0.250000*%
G04 #@! TD*
G04 #@! TA.AperFunction,Conductor*
%ADD16C,0.254000*%
G04 #@! TD*
G04 #@! TA.AperFunction,Conductor*
%ADD17C,0.100000*%
G04 #@! TD*
G04 APERTURE END LIST*
D10*
X118750000Y-55330000D03*
X118750000Y-52790000D03*
X118750000Y-50250000D03*
D11*
X118750000Y-47710000D03*
D12*
X111100000Y-40100000D03*
X116100000Y-40100000D03*
D13*
X111750000Y-37000000D03*
X115450000Y-37000000D03*
X111750000Y-43200000D03*
X115450000Y-43200000D03*
D12*
X90900000Y-40100000D03*
X85900000Y-40100000D03*
D13*
X90250000Y-43200000D03*
X86550000Y-43200000D03*
X90250000Y-37000000D03*
X86550000Y-37000000D03*
D12*
X90950000Y-62000000D03*
X85950000Y-62000000D03*
D13*
X90300000Y-65100000D03*
X86600000Y-65100000D03*
X90300000Y-58900000D03*
X86600000Y-58900000D03*
D12*
X111050000Y-62000000D03*
X116050000Y-62000000D03*
D13*
X111700000Y-58900000D03*
X115400000Y-58900000D03*
X111700000Y-65100000D03*
X115400000Y-65100000D03*
G04 #@! TA.AperFunction,SMDPad,CuDef*
G36*
G01*
X113475000Y-46450001D02*
X113475000Y-45549999D01*
G75*
G02*
X113724999Y-45300000I249999J0D01*
G01*
X114375001Y-45300000D01*
G75*
G02*
X114625000Y-45549999I0J-249999D01*
G01*
X114625000Y-46450001D01*
G75*
G02*
X114375001Y-46700000I-249999J0D01*
G01*
X113724999Y-46700000D01*
G75*
G02*
X113475000Y-46450001I0J249999D01*
G01*
G37*
G04 #@! TD.AperFunction*
G04 #@! TA.AperFunction,SMDPad,CuDef*
G36*
G01*
X111425000Y-46450001D02*
X111425000Y-45549999D01*
G75*
G02*
X111674999Y-45300000I249999J0D01*
G01*
X112325001Y-45300000D01*
G75*
G02*
X112575000Y-45549999I0J-249999D01*
G01*
X112575000Y-46450001D01*
G75*
G02*
X112325001Y-46700000I-249999J0D01*
G01*
X111674999Y-46700000D01*
G75*
G02*
X111425000Y-46450001I0J249999D01*
G01*
G37*
G04 #@! TD.AperFunction*
G04 #@! TA.AperFunction,SMDPad,CuDef*
G36*
G01*
X101425000Y-46450001D02*
X101425000Y-45549999D01*
G75*
G02*
X101674999Y-45300000I249999J0D01*
G01*
X102325001Y-45300000D01*
G75*
G02*
X102575000Y-45549999I0J-249999D01*
G01*
X102575000Y-46450001D01*
G75*
G02*
X102325001Y-46700000I-249999J0D01*
G01*
X101674999Y-46700000D01*
G75*
G02*
X101425000Y-46450001I0J249999D01*
G01*
G37*
G04 #@! TD.AperFunction*
G04 #@! TA.AperFunction,SMDPad,CuDef*
G36*
G01*
X99375000Y-46450001D02*
X99375000Y-45549999D01*
G75*
G02*
X99624999Y-45300000I249999J0D01*
G01*
X100275001Y-45300000D01*
G75*
G02*
X100525000Y-45549999I0J-249999D01*
G01*
X100525000Y-46450001D01*
G75*
G02*
X100275001Y-46700000I-249999J0D01*
G01*
X99624999Y-46700000D01*
G75*
G02*
X99375000Y-46450001I0J249999D01*
G01*
G37*
G04 #@! TD.AperFunction*
G04 #@! TA.AperFunction,SMDPad,CuDef*
G36*
G01*
X89675000Y-46450001D02*
X89675000Y-45549999D01*
G75*
G02*
X89924999Y-45300000I249999J0D01*
G01*
X90575001Y-45300000D01*
G75*
G02*
X90825000Y-45549999I0J-249999D01*
G01*
X90825000Y-46450001D01*
G75*
G02*
X90575001Y-46700000I-249999J0D01*
G01*
X89924999Y-46700000D01*
G75*
G02*
X89675000Y-46450001I0J249999D01*
G01*
G37*
G04 #@! TD.AperFunction*
G04 #@! TA.AperFunction,SMDPad,CuDef*
G36*
G01*
X87625000Y-46450001D02*
X87625000Y-45549999D01*
G75*
G02*
X87874999Y-45300000I249999J0D01*
G01*
X88525001Y-45300000D01*
G75*
G02*
X88775000Y-45549999I0J-249999D01*
G01*
X88775000Y-46450001D01*
G75*
G02*
X88525001Y-46700000I-249999J0D01*
G01*
X87874999Y-46700000D01*
G75*
G02*
X87625000Y-46450001I0J249999D01*
G01*
G37*
G04 #@! TD.AperFunction*
G04 #@! TA.AperFunction,SMDPad,CuDef*
G36*
G01*
X112575000Y-33549999D02*
X112575000Y-34450001D01*
G75*
G02*
X112325001Y-34700000I-249999J0D01*
G01*
X111674999Y-34700000D01*
G75*
G02*
X111425000Y-34450001I0J249999D01*
G01*
X111425000Y-33549999D01*
G75*
G02*
X111674999Y-33300000I249999J0D01*
G01*
X112325001Y-33300000D01*
G75*
G02*
X112575000Y-33549999I0J-249999D01*
G01*
G37*
G04 #@! TD.AperFunction*
G04 #@! TA.AperFunction,SMDPad,CuDef*
G36*
G01*
X114625000Y-33549999D02*
X114625000Y-34450001D01*
G75*
G02*
X114375001Y-34700000I-249999J0D01*
G01*
X113724999Y-34700000D01*
G75*
G02*
X113475000Y-34450001I0J249999D01*
G01*
X113475000Y-33549999D01*
G75*
G02*
X113724999Y-33300000I249999J0D01*
G01*
X114375001Y-33300000D01*
G75*
G02*
X114625000Y-33549999I0J-249999D01*
G01*
G37*
G04 #@! TD.AperFunction*
G04 #@! TA.AperFunction,SMDPad,CuDef*
G36*
G01*
X100550000Y-33549999D02*
X100550000Y-34450001D01*
G75*
G02*
X100300001Y-34700000I-249999J0D01*
G01*
X99649999Y-34700000D01*
G75*
G02*
X99400000Y-34450001I0J249999D01*
G01*
X99400000Y-33549999D01*
G75*
G02*
X99649999Y-33300000I249999J0D01*
G01*
X100300001Y-33300000D01*
G75*
G02*
X100550000Y-33549999I0J-249999D01*
G01*
G37*
G04 #@! TD.AperFunction*
G04 #@! TA.AperFunction,SMDPad,CuDef*
G36*
G01*
X102600000Y-33549999D02*
X102600000Y-34450001D01*
G75*
G02*
X102350001Y-34700000I-249999J0D01*
G01*
X101699999Y-34700000D01*
G75*
G02*
X101450000Y-34450001I0J249999D01*
G01*
X101450000Y-33549999D01*
G75*
G02*
X101699999Y-33300000I249999J0D01*
G01*
X102350001Y-33300000D01*
G75*
G02*
X102600000Y-33549999I0J-249999D01*
G01*
G37*
G04 #@! TD.AperFunction*
G04 #@! TA.AperFunction,SMDPad,CuDef*
G36*
G01*
X88775000Y-33549999D02*
X88775000Y-34450001D01*
G75*
G02*
X88525001Y-34700000I-249999J0D01*
G01*
X87874999Y-34700000D01*
G75*
G02*
X87625000Y-34450001I0J249999D01*
G01*
X87625000Y-33549999D01*
G75*
G02*
X87874999Y-33300000I249999J0D01*
G01*
X88525001Y-33300000D01*
G75*
G02*
X88775000Y-33549999I0J-249999D01*
G01*
G37*
G04 #@! TD.AperFunction*
G04 #@! TA.AperFunction,SMDPad,CuDef*
G36*
G01*
X90825000Y-33549550D02*
X90825000Y-34450450D01*
G75*
G02*
X90575450Y-34700000I-249550J0D01*
G01*
X89924550Y-34700000D01*
G75*
G02*
X89675000Y-34450450I0J249550D01*
G01*
X89675000Y-33549550D01*
G75*
G02*
X89924550Y-33300000I249550J0D01*
G01*
X90575450Y-33300000D01*
G75*
G02*
X90825000Y-33549550I0J-249550D01*
G01*
G37*
G04 #@! TD.AperFunction*
G04 #@! TA.AperFunction,SMDPad,CuDef*
G36*
G01*
X107925000Y-39450001D02*
X107925000Y-38549999D01*
G75*
G02*
X108174999Y-38300000I249999J0D01*
G01*
X108825001Y-38300000D01*
G75*
G02*
X109075000Y-38549999I0J-249999D01*
G01*
X109075000Y-39450001D01*
G75*
G02*
X108825001Y-39700000I-249999J0D01*
G01*
X108174999Y-39700000D01*
G75*
G02*
X107925000Y-39450001I0J249999D01*
G01*
G37*
G04 #@! TD.AperFunction*
G04 #@! TA.AperFunction,SMDPad,CuDef*
G36*
G01*
X105875000Y-39450001D02*
X105875000Y-38549999D01*
G75*
G02*
X106124999Y-38300000I249999J0D01*
G01*
X106775001Y-38300000D01*
G75*
G02*
X107025000Y-38549999I0J-249999D01*
G01*
X107025000Y-39450001D01*
G75*
G02*
X106775001Y-39700000I-249999J0D01*
G01*
X106124999Y-39700000D01*
G75*
G02*
X105875000Y-39450001I0J249999D01*
G01*
G37*
G04 #@! TD.AperFunction*
G04 #@! TA.AperFunction,SMDPad,CuDef*
G36*
G01*
X94075000Y-38549999D02*
X94075000Y-39450001D01*
G75*
G02*
X93825001Y-39700000I-249999J0D01*
G01*
X93174999Y-39700000D01*
G75*
G02*
X92925000Y-39450001I0J249999D01*
G01*
X92925000Y-38549999D01*
G75*
G02*
X93174999Y-38300000I249999J0D01*
G01*
X93825001Y-38300000D01*
G75*
G02*
X94075000Y-38549999I0J-249999D01*
G01*
G37*
G04 #@! TD.AperFunction*
G04 #@! TA.AperFunction,SMDPad,CuDef*
G36*
G01*
X96125000Y-38549999D02*
X96125000Y-39450001D01*
G75*
G02*
X95875001Y-39700000I-249999J0D01*
G01*
X95224999Y-39700000D01*
G75*
G02*
X94975000Y-39450001I0J249999D01*
G01*
X94975000Y-38549999D01*
G75*
G02*
X95224999Y-38300000I249999J0D01*
G01*
X95875001Y-38300000D01*
G75*
G02*
X96125000Y-38549999I0J-249999D01*
G01*
G37*
G04 #@! TD.AperFunction*
G04 #@! TA.AperFunction,SMDPad,CuDef*
G36*
G01*
X95200001Y-63850000D02*
X94299999Y-63850000D01*
G75*
G02*
X94050000Y-63600001I0J249999D01*
G01*
X94050000Y-62949999D01*
G75*
G02*
X94299999Y-62700000I249999J0D01*
G01*
X95200001Y-62700000D01*
G75*
G02*
X95450000Y-62949999I0J-249999D01*
G01*
X95450000Y-63600001D01*
G75*
G02*
X95200001Y-63850000I-249999J0D01*
G01*
G37*
G04 #@! TD.AperFunction*
G04 #@! TA.AperFunction,SMDPad,CuDef*
G36*
G01*
X95200001Y-65900000D02*
X94299999Y-65900000D01*
G75*
G02*
X94050000Y-65650001I0J249999D01*
G01*
X94050000Y-64999999D01*
G75*
G02*
X94299999Y-64750000I249999J0D01*
G01*
X95200001Y-64750000D01*
G75*
G02*
X95450000Y-64999999I0J-249999D01*
G01*
X95450000Y-65650001D01*
G75*
G02*
X95200001Y-65900000I-249999J0D01*
G01*
G37*
G04 #@! TD.AperFunction*
G04 #@! TA.AperFunction,SMDPad,CuDef*
G36*
G01*
X97700001Y-63850000D02*
X96799999Y-63850000D01*
G75*
G02*
X96550000Y-63600001I0J249999D01*
G01*
X96550000Y-62949999D01*
G75*
G02*
X96799999Y-62700000I249999J0D01*
G01*
X97700001Y-62700000D01*
G75*
G02*
X97950000Y-62949999I0J-249999D01*
G01*
X97950000Y-63600001D01*
G75*
G02*
X97700001Y-63850000I-249999J0D01*
G01*
G37*
G04 #@! TD.AperFunction*
G04 #@! TA.AperFunction,SMDPad,CuDef*
G36*
G01*
X97700001Y-65900000D02*
X96799999Y-65900000D01*
G75*
G02*
X96550000Y-65650001I0J249999D01*
G01*
X96550000Y-64999999D01*
G75*
G02*
X96799999Y-64750000I249999J0D01*
G01*
X97700001Y-64750000D01*
G75*
G02*
X97950000Y-64999999I0J-249999D01*
G01*
X97950000Y-65650001D01*
G75*
G02*
X97700001Y-65900000I-249999J0D01*
G01*
G37*
G04 #@! TD.AperFunction*
G04 #@! TA.AperFunction,SMDPad,CuDef*
G36*
G01*
X100200001Y-63850000D02*
X99299999Y-63850000D01*
G75*
G02*
X99050000Y-63600001I0J249999D01*
G01*
X99050000Y-62949999D01*
G75*
G02*
X99299999Y-62700000I249999J0D01*
G01*
X100200001Y-62700000D01*
G75*
G02*
X100450000Y-62949999I0J-249999D01*
G01*
X100450000Y-63600001D01*
G75*
G02*
X100200001Y-63850000I-249999J0D01*
G01*
G37*
G04 #@! TD.AperFunction*
G04 #@! TA.AperFunction,SMDPad,CuDef*
G36*
G01*
X100200001Y-65900000D02*
X99299999Y-65900000D01*
G75*
G02*
X99050000Y-65650001I0J249999D01*
G01*
X99050000Y-64999999D01*
G75*
G02*
X99299999Y-64750000I249999J0D01*
G01*
X100200001Y-64750000D01*
G75*
G02*
X100450000Y-64999999I0J-249999D01*
G01*
X100450000Y-65650001D01*
G75*
G02*
X100200001Y-65900000I-249999J0D01*
G01*
G37*
G04 #@! TD.AperFunction*
G04 #@! TA.AperFunction,SMDPad,CuDef*
G36*
G01*
X102700001Y-63850000D02*
X101799999Y-63850000D01*
G75*
G02*
X101550000Y-63600001I0J249999D01*
G01*
X101550000Y-62949999D01*
G75*
G02*
X101799999Y-62700000I249999J0D01*
G01*
X102700001Y-62700000D01*
G75*
G02*
X102950000Y-62949999I0J-249999D01*
G01*
X102950000Y-63600001D01*
G75*
G02*
X102700001Y-63850000I-249999J0D01*
G01*
G37*
G04 #@! TD.AperFunction*
G04 #@! TA.AperFunction,SMDPad,CuDef*
G36*
G01*
X102700001Y-65900000D02*
X101799999Y-65900000D01*
G75*
G02*
X101550000Y-65650001I0J249999D01*
G01*
X101550000Y-64999999D01*
G75*
G02*
X101799999Y-64750000I249999J0D01*
G01*
X102700001Y-64750000D01*
G75*
G02*
X102950000Y-64999999I0J-249999D01*
G01*
X102950000Y-65650001D01*
G75*
G02*
X102700001Y-65900000I-249999J0D01*
G01*
G37*
G04 #@! TD.AperFunction*
G04 #@! TA.AperFunction,SMDPad,CuDef*
G36*
G01*
X105200001Y-63850000D02*
X104299999Y-63850000D01*
G75*
G02*
X104050000Y-63600001I0J249999D01*
G01*
X104050000Y-62949999D01*
G75*
G02*
X104299999Y-62700000I249999J0D01*
G01*
X105200001Y-62700000D01*
G75*
G02*
X105450000Y-62949999I0J-249999D01*
G01*
X105450000Y-63600001D01*
G75*
G02*
X105200001Y-63850000I-249999J0D01*
G01*
G37*
G04 #@! TD.AperFunction*
G04 #@! TA.AperFunction,SMDPad,CuDef*
G36*
G01*
X105200001Y-65900000D02*
X104299999Y-65900000D01*
G75*
G02*
X104050000Y-65650001I0J249999D01*
G01*
X104050000Y-64999999D01*
G75*
G02*
X104299999Y-64750000I249999J0D01*
G01*
X105200001Y-64750000D01*
G75*
G02*
X105450000Y-64999999I0J-249999D01*
G01*
X105450000Y-65650001D01*
G75*
G02*
X105200001Y-65900000I-249999J0D01*
G01*
G37*
G04 #@! TD.AperFunction*
G04 #@! TA.AperFunction,SMDPad,CuDef*
G36*
G01*
X107700001Y-63875000D02*
X106799999Y-63875000D01*
G75*
G02*
X106550000Y-63625001I0J249999D01*
G01*
X106550000Y-62974999D01*
G75*
G02*
X106799999Y-62725000I249999J0D01*
G01*
X107700001Y-62725000D01*
G75*
G02*
X107950000Y-62974999I0J-249999D01*
G01*
X107950000Y-63625001D01*
G75*
G02*
X107700001Y-63875000I-249999J0D01*
G01*
G37*
G04 #@! TD.AperFunction*
G04 #@! TA.AperFunction,SMDPad,CuDef*
G36*
G01*
X107700001Y-65925000D02*
X106799999Y-65925000D01*
G75*
G02*
X106550000Y-65675001I0J249999D01*
G01*
X106550000Y-65024999D01*
G75*
G02*
X106799999Y-64775000I249999J0D01*
G01*
X107700001Y-64775000D01*
G75*
G02*
X107950000Y-65024999I0J-249999D01*
G01*
X107950000Y-65675001D01*
G75*
G02*
X107700001Y-65925000I-249999J0D01*
G01*
G37*
G04 #@! TD.AperFunction*
D14*
X100000000Y-48250000D03*
X111750000Y-56250000D03*
X103000000Y-67900000D03*
X84100000Y-32600000D03*
X118800000Y-32900000D03*
X120500000Y-63000000D03*
X107250000Y-62000000D03*
X104750000Y-62000000D03*
X102250000Y-62000000D03*
X99750000Y-62000000D03*
X97250000Y-62000000D03*
X94750000Y-62000000D03*
X93500000Y-40500000D03*
X108500000Y-40750000D03*
X88600000Y-35500000D03*
X100000000Y-35500000D03*
X110500000Y-34000000D03*
X90250000Y-47500000D03*
X110500000Y-44000000D03*
X116000000Y-45750000D03*
X105500000Y-52750000D03*
X91250000Y-57250000D03*
X92750000Y-46250000D03*
X110250000Y-42750000D03*
D15*
X107250000Y-62000000D02*
X107250000Y-63000000D01*
X104750000Y-62000000D02*
X104750000Y-63250000D01*
X102250000Y-62000000D02*
X102250000Y-63250000D01*
X102250000Y-63250000D02*
X102500000Y-63500000D01*
X99750000Y-62000000D02*
X99750000Y-63500000D01*
X97250000Y-62000000D02*
X97250000Y-63000000D01*
X97250000Y-63000000D02*
X97500000Y-63250000D01*
X94750000Y-62000000D02*
X94750000Y-63250000D01*
X93500000Y-40250000D02*
X93500000Y-39250000D01*
X93500000Y-39250000D02*
X93500000Y-39000000D01*
X93500000Y-40250000D02*
X93500000Y-40500000D01*
X108500000Y-39000000D02*
X108500000Y-40750000D01*
X88600000Y-35500000D02*
X88600000Y-34500000D01*
X88600000Y-34500000D02*
X88600000Y-33900000D01*
X100000000Y-35500000D02*
X100000000Y-34500000D01*
X110500000Y-34000000D02*
X111750000Y-34000000D01*
X90250000Y-47500000D02*
X90250000Y-46250000D01*
X90250000Y-46250000D02*
X90500000Y-46000000D01*
X110500000Y-44000000D02*
X103750000Y-44000000D01*
X103750000Y-44000000D02*
X101750000Y-46000000D01*
X116000000Y-45750000D02*
X114500000Y-45750000D01*
X114500000Y-45750000D02*
X114250000Y-46000000D01*
X105500000Y-52750000D02*
X111750000Y-59000000D01*
X111750000Y-59000000D02*
X112500000Y-59750000D01*
X112500000Y-59750000D02*
X112500000Y-64000000D01*
X112500000Y-64000000D02*
X111750000Y-64750000D01*
X91250000Y-57250000D02*
X91250000Y-58000000D01*
X90324999Y-58925001D02*
X90324999Y-59175001D01*
X91250000Y-58000000D02*
X90324999Y-58925001D01*
X90324999Y-59175001D02*
X89750000Y-59750000D01*
X89750000Y-59750000D02*
X89750000Y-64750000D01*
X90250000Y-43200000D02*
X90250000Y-43250000D01*
X92750000Y-45750000D02*
X92750000Y-46250000D01*
X90250000Y-43250000D02*
X92750000Y-45750000D01*
X90250000Y-37000000D02*
X90250000Y-37500000D01*
X90250000Y-37500000D02*
X89500000Y-38250000D01*
X89500000Y-38250000D02*
X89500000Y-42250000D01*
X89500000Y-42250000D02*
X90250000Y-43000000D01*
X110250000Y-42750000D02*
X111750000Y-42750000D01*
X111750000Y-42750000D02*
X112250000Y-42250000D01*
X112250000Y-42250000D02*
X112250000Y-37500000D01*
X112250000Y-37500000D02*
X112000000Y-37250000D01*
D16*
X122340001Y-69340000D02*
X79660000Y-69340000D01*
X79660000Y-66000000D01*
X85411928Y-66000000D01*
X85424188Y-66124482D01*
X85460498Y-66244180D01*
X85519463Y-66354494D01*
X85598815Y-66451185D01*
X85695506Y-66530537D01*
X85805820Y-66589502D01*
X85925518Y-66625812D01*
X86050000Y-66638072D01*
X86314250Y-66635000D01*
X86473000Y-66476250D01*
X86473000Y-65227000D01*
X86727000Y-65227000D01*
X86727000Y-66476250D01*
X86885750Y-66635000D01*
X87150000Y-66638072D01*
X87274482Y-66625812D01*
X87394180Y-66589502D01*
X87504494Y-66530537D01*
X87601185Y-66451185D01*
X87680537Y-66354494D01*
X87739502Y-66244180D01*
X87775812Y-66124482D01*
X87788072Y-66000000D01*
X87785000Y-65385750D01*
X87626250Y-65227000D01*
X86727000Y-65227000D01*
X86473000Y-65227000D01*
X85573750Y-65227000D01*
X85415000Y-65385750D01*
X85411928Y-66000000D01*
X79660000Y-66000000D01*
X79660000Y-64200000D01*
X85411928Y-64200000D01*
X85415000Y-64814250D01*
X85573750Y-64973000D01*
X86473000Y-64973000D01*
X86473000Y-63723750D01*
X86727000Y-63723750D01*
X86727000Y-64973000D01*
X87626250Y-64973000D01*
X87785000Y-64814250D01*
X87788072Y-64200000D01*
X87775812Y-64075518D01*
X87739502Y-63955820D01*
X87680537Y-63845506D01*
X87601185Y-63748815D01*
X87504494Y-63669463D01*
X87394180Y-63610498D01*
X87274482Y-63574188D01*
X87150000Y-63561928D01*
X86885750Y-63565000D01*
X86727000Y-63723750D01*
X86473000Y-63723750D01*
X86314250Y-63565000D01*
X86050000Y-63561928D01*
X85925518Y-63574188D01*
X85805820Y-63610498D01*
X85695506Y-63669463D01*
X85598815Y-63748815D01*
X85519463Y-63845506D01*
X85460498Y-63955820D01*
X85424188Y-64075518D01*
X85411928Y-64200000D01*
X79660000Y-64200000D01*
X79660000Y-62500000D01*
X85011928Y-62500000D01*
X85024188Y-62624482D01*
X85060498Y-62744180D01*
X85119463Y-62854494D01*
X85198815Y-62951185D01*
X85295506Y-63030537D01*
X85405820Y-63089502D01*
X85525518Y-63125812D01*
X85650000Y-63138072D01*
X85664250Y-63135000D01*
X85823000Y-62976250D01*
X85823000Y-62127000D01*
X86077000Y-62127000D01*
X86077000Y-62976250D01*
X86235750Y-63135000D01*
X86250000Y-63138072D01*
X86374482Y-63125812D01*
X86494180Y-63089502D01*
X86604494Y-63030537D01*
X86701185Y-62951185D01*
X86780537Y-62854494D01*
X86839502Y-62744180D01*
X86875812Y-62624482D01*
X86888072Y-62500000D01*
X86885000Y-62285750D01*
X86726250Y-62127000D01*
X86077000Y-62127000D01*
X85823000Y-62127000D01*
X85173750Y-62127000D01*
X85015000Y-62285750D01*
X85011928Y-62500000D01*
X79660000Y-62500000D01*
X79660000Y-61500000D01*
X85011928Y-61500000D01*
X85015000Y-61714250D01*
X85173750Y-61873000D01*
X85823000Y-61873000D01*
X85823000Y-61023750D01*
X86077000Y-61023750D01*
X86077000Y-61873000D01*
X86726250Y-61873000D01*
X86885000Y-61714250D01*
X86888072Y-61500000D01*
X86875812Y-61375518D01*
X86839502Y-61255820D01*
X86780537Y-61145506D01*
X86701185Y-61048815D01*
X86604494Y-60969463D01*
X86494180Y-60910498D01*
X86374482Y-60874188D01*
X86250000Y-60861928D01*
X86235750Y-60865000D01*
X86077000Y-61023750D01*
X85823000Y-61023750D01*
X85664250Y-60865000D01*
X85650000Y-60861928D01*
X85525518Y-60874188D01*
X85405820Y-60910498D01*
X85295506Y-60969463D01*
X85198815Y-61048815D01*
X85119463Y-61145506D01*
X85060498Y-61255820D01*
X85024188Y-61375518D01*
X85011928Y-61500000D01*
X79660000Y-61500000D01*
X79660000Y-59800000D01*
X85411928Y-59800000D01*
X85424188Y-59924482D01*
X85460498Y-60044180D01*
X85519463Y-60154494D01*
X85598815Y-60251185D01*
X85695506Y-60330537D01*
X85805820Y-60389502D01*
X85925518Y-60425812D01*
X86050000Y-60438072D01*
X86314250Y-60435000D01*
X86473000Y-60276250D01*
X86473000Y-59027000D01*
X86727000Y-59027000D01*
X86727000Y-60276250D01*
X86885750Y-60435000D01*
X87150000Y-60438072D01*
X87274482Y-60425812D01*
X87394180Y-60389502D01*
X87504494Y-60330537D01*
X87601185Y-60251185D01*
X87680537Y-60154494D01*
X87739502Y-60044180D01*
X87775812Y-59924482D01*
X87788072Y-59800000D01*
X87787822Y-59750000D01*
X88986324Y-59750000D01*
X88990000Y-59787323D01*
X88990001Y-64787333D01*
X89000998Y-64898986D01*
X89044455Y-65042247D01*
X89111928Y-65168478D01*
X89111928Y-66000000D01*
X89124188Y-66124482D01*
X89160498Y-66244180D01*
X89219463Y-66354494D01*
X89298815Y-66451185D01*
X89395506Y-66530537D01*
X89505820Y-66589502D01*
X89625518Y-66625812D01*
X89750000Y-66638072D01*
X90850000Y-66638072D01*
X90974482Y-66625812D01*
X91094180Y-66589502D01*
X91204494Y-66530537D01*
X91301185Y-66451185D01*
X91380537Y-66354494D01*
X91439502Y-66244180D01*
X91475812Y-66124482D01*
X91488072Y-66000000D01*
X91488072Y-65900000D01*
X93411928Y-65900000D01*
X93424188Y-66024482D01*
X93460498Y-66144180D01*
X93519463Y-66254494D01*
X93598815Y-66351185D01*
X93695506Y-66430537D01*
X93805820Y-66489502D01*
X93925518Y-66525812D01*
X94050000Y-66538072D01*
X94464250Y-66535000D01*
X94623000Y-66376250D01*
X94623000Y-65452000D01*
X94877000Y-65452000D01*
X94877000Y-66376250D01*
X95035750Y-66535000D01*
X95450000Y-66538072D01*
X95574482Y-66525812D01*
X95694180Y-66489502D01*
X95804494Y-66430537D01*
X95901185Y-66351185D01*
X95980537Y-66254494D01*
X96000000Y-66218082D01*
X96019463Y-66254494D01*
X96098815Y-66351185D01*
X96195506Y-66430537D01*
X96305820Y-66489502D01*
X96425518Y-66525812D01*
X96550000Y-66538072D01*
X96964250Y-66535000D01*
X97123000Y-66376250D01*
X97123000Y-65452000D01*
X97377000Y-65452000D01*
X97377000Y-66376250D01*
X97535750Y-66535000D01*
X97950000Y-66538072D01*
X98074482Y-66525812D01*
X98194180Y-66489502D01*
X98304494Y-66430537D01*
X98401185Y-66351185D01*
X98480537Y-66254494D01*
X98500000Y-66218082D01*
X98519463Y-66254494D01*
X98598815Y-66351185D01*
X98695506Y-66430537D01*
X98805820Y-66489502D01*
X98925518Y-66525812D01*
X99050000Y-66538072D01*
X99464250Y-66535000D01*
X99623000Y-66376250D01*
X99623000Y-65452000D01*
X99877000Y-65452000D01*
X99877000Y-66376250D01*
X100035750Y-66535000D01*
X100450000Y-66538072D01*
X100574482Y-66525812D01*
X100694180Y-66489502D01*
X100804494Y-66430537D01*
X100901185Y-66351185D01*
X100980537Y-66254494D01*
X101000000Y-66218082D01*
X101019463Y-66254494D01*
X101098815Y-66351185D01*
X101195506Y-66430537D01*
X101305820Y-66489502D01*
X101425518Y-66525812D01*
X101550000Y-66538072D01*
X101964250Y-66535000D01*
X102123000Y-66376250D01*
X102123000Y-65452000D01*
X102377000Y-65452000D01*
X102377000Y-66376250D01*
X102535750Y-66535000D01*
X102950000Y-66538072D01*
X103074482Y-66525812D01*
X103194180Y-66489502D01*
X103304494Y-66430537D01*
X103401185Y-66351185D01*
X103480537Y-66254494D01*
X103500000Y-66218082D01*
X103519463Y-66254494D01*
X103598815Y-66351185D01*
X103695506Y-66430537D01*
X103805820Y-66489502D01*
X103925518Y-66525812D01*
X104050000Y-66538072D01*
X104464250Y-66535000D01*
X104623000Y-66376250D01*
X104623000Y-65452000D01*
X104877000Y-65452000D01*
X104877000Y-66376250D01*
X105035750Y-66535000D01*
X105450000Y-66538072D01*
X105574482Y-66525812D01*
X105694180Y-66489502D01*
X105804494Y-66430537D01*
X105901185Y-66351185D01*
X105980537Y-66254494D01*
X105993319Y-66230582D01*
X106019463Y-66279494D01*
X106098815Y-66376185D01*
X106195506Y-66455537D01*
X106305820Y-66514502D01*
X106425518Y-66550812D01*
X106550000Y-66563072D01*
X106964250Y-66560000D01*
X107123000Y-66401250D01*
X107123000Y-65477000D01*
X107377000Y-65477000D01*
X107377000Y-66401250D01*
X107535750Y-66560000D01*
X107950000Y-66563072D01*
X108074482Y-66550812D01*
X108194180Y-66514502D01*
X108304494Y-66455537D01*
X108401185Y-66376185D01*
X108480537Y-66279494D01*
X108539502Y-66169180D01*
X108575812Y-66049482D01*
X108588072Y-65925000D01*
X108585000Y-65635750D01*
X108426250Y-65477000D01*
X107377000Y-65477000D01*
X107123000Y-65477000D01*
X106073750Y-65477000D01*
X106012500Y-65538250D01*
X105926250Y-65452000D01*
X104877000Y-65452000D01*
X104623000Y-65452000D01*
X103573750Y-65452000D01*
X103500000Y-65525750D01*
X103426250Y-65452000D01*
X102377000Y-65452000D01*
X102123000Y-65452000D01*
X101073750Y-65452000D01*
X101000000Y-65525750D01*
X100926250Y-65452000D01*
X99877000Y-65452000D01*
X99623000Y-65452000D01*
X98573750Y-65452000D01*
X98500000Y-65525750D01*
X98426250Y-65452000D01*
X97377000Y-65452000D01*
X97123000Y-65452000D01*
X96073750Y-65452000D01*
X96000000Y-65525750D01*
X95926250Y-65452000D01*
X94877000Y-65452000D01*
X94623000Y-65452000D01*
X93573750Y-65452000D01*
X93415000Y-65610750D01*
X93411928Y-65900000D01*
X91488072Y-65900000D01*
X91488072Y-64200000D01*
X91475812Y-64075518D01*
X91439502Y-63955820D01*
X91380537Y-63845506D01*
X91301185Y-63748815D01*
X91204494Y-63669463D01*
X91094180Y-63610498D01*
X90974482Y-63574188D01*
X90850000Y-63561928D01*
X90510000Y-63561928D01*
X90510000Y-63121105D01*
X90525518Y-63125812D01*
X90650000Y-63138072D01*
X90664250Y-63135000D01*
X90823000Y-62976250D01*
X90823000Y-62127000D01*
X91077000Y-62127000D01*
X91077000Y-62976250D01*
X91235750Y-63135000D01*
X91250000Y-63138072D01*
X91374482Y-63125812D01*
X91494180Y-63089502D01*
X91604494Y-63030537D01*
X91701185Y-62951185D01*
X91702158Y-62949999D01*
X93411928Y-62949999D01*
X93411928Y-63600001D01*
X93428992Y-63773255D01*
X93479528Y-63939851D01*
X93561595Y-64093387D01*
X93672038Y-64227962D01*
X93678594Y-64233342D01*
X93598815Y-64298815D01*
X93519463Y-64395506D01*
X93460498Y-64505820D01*
X93424188Y-64625518D01*
X93411928Y-64750000D01*
X93415000Y-65039250D01*
X93573750Y-65198000D01*
X94623000Y-65198000D01*
X94623000Y-65178000D01*
X94877000Y-65178000D01*
X94877000Y-65198000D01*
X95926250Y-65198000D01*
X96000000Y-65124250D01*
X96073750Y-65198000D01*
X97123000Y-65198000D01*
X97123000Y-65178000D01*
X97377000Y-65178000D01*
X97377000Y-65198000D01*
X98426250Y-65198000D01*
X98500000Y-65124250D01*
X98573750Y-65198000D01*
X99623000Y-65198000D01*
X99623000Y-65178000D01*
X99877000Y-65178000D01*
X99877000Y-65198000D01*
X100926250Y-65198000D01*
X101000000Y-65124250D01*
X101073750Y-65198000D01*
X102123000Y-65198000D01*
X102123000Y-65178000D01*
X102377000Y-65178000D01*
X102377000Y-65198000D01*
X103426250Y-65198000D01*
X103500000Y-65124250D01*
X103573750Y-65198000D01*
X104623000Y-65198000D01*
X104623000Y-65178000D01*
X104877000Y-65178000D01*
X104877000Y-65198000D01*
X105926250Y-65198000D01*
X105987500Y-65136750D01*
X106073750Y-65223000D01*
X107123000Y-65223000D01*
X107123000Y-65203000D01*
X107377000Y-65203000D01*
X107377000Y-65223000D01*
X108426250Y-65223000D01*
X108585000Y-65064250D01*
X108588072Y-64775000D01*
X108575812Y-64650518D01*
X108539502Y-64530820D01*
X108480537Y-64420506D01*
X108401185Y-64323815D01*
X108321406Y-64258342D01*
X108327962Y-64252962D01*
X108438405Y-64118387D01*
X108520472Y-63964851D01*
X108571008Y-63798255D01*
X108588072Y-63625001D01*
X108588072Y-62974999D01*
X108571008Y-62801745D01*
X108520472Y-62635149D01*
X108448234Y-62500000D01*
X110111928Y-62500000D01*
X110124188Y-62624482D01*
X110160498Y-62744180D01*
X110219463Y-62854494D01*
X110298815Y-62951185D01*
X110395506Y-63030537D01*
X110505820Y-63089502D01*
X110625518Y-63125812D01*
X110750000Y-63138072D01*
X110764250Y-63135000D01*
X110923000Y-62976250D01*
X110923000Y-62127000D01*
X110273750Y-62127000D01*
X110115000Y-62285750D01*
X110111928Y-62500000D01*
X108448234Y-62500000D01*
X108438405Y-62481613D01*
X108327962Y-62347038D01*
X108249118Y-62282332D01*
X108285000Y-62101939D01*
X108285000Y-61898061D01*
X108245226Y-61698102D01*
X108167205Y-61509744D01*
X108160695Y-61500000D01*
X110111928Y-61500000D01*
X110115000Y-61714250D01*
X110273750Y-61873000D01*
X110923000Y-61873000D01*
X110923000Y-61023750D01*
X110764250Y-60865000D01*
X110750000Y-60861928D01*
X110625518Y-60874188D01*
X110505820Y-60910498D01*
X110395506Y-60969463D01*
X110298815Y-61048815D01*
X110219463Y-61145506D01*
X110160498Y-61255820D01*
X110124188Y-61375518D01*
X110111928Y-61500000D01*
X108160695Y-61500000D01*
X108053937Y-61340226D01*
X107909774Y-61196063D01*
X107740256Y-61082795D01*
X107551898Y-61004774D01*
X107351939Y-60965000D01*
X107148061Y-60965000D01*
X106948102Y-61004774D01*
X106759744Y-61082795D01*
X106590226Y-61196063D01*
X106446063Y-61340226D01*
X106332795Y-61509744D01*
X106254774Y-61698102D01*
X106215000Y-61898061D01*
X106215000Y-62101939D01*
X106250882Y-62282332D01*
X106172038Y-62347038D01*
X106061595Y-62481613D01*
X106006681Y-62584349D01*
X105938405Y-62456613D01*
X105827962Y-62322038D01*
X105753393Y-62260841D01*
X105785000Y-62101939D01*
X105785000Y-61898061D01*
X105745226Y-61698102D01*
X105667205Y-61509744D01*
X105553937Y-61340226D01*
X105409774Y-61196063D01*
X105240256Y-61082795D01*
X105051898Y-61004774D01*
X104851939Y-60965000D01*
X104648061Y-60965000D01*
X104448102Y-61004774D01*
X104259744Y-61082795D01*
X104090226Y-61196063D01*
X103946063Y-61340226D01*
X103832795Y-61509744D01*
X103754774Y-61698102D01*
X103715000Y-61898061D01*
X103715000Y-62101939D01*
X103746607Y-62260841D01*
X103672038Y-62322038D01*
X103561595Y-62456613D01*
X103500000Y-62571849D01*
X103438405Y-62456613D01*
X103327962Y-62322038D01*
X103253393Y-62260841D01*
X103285000Y-62101939D01*
X103285000Y-61898061D01*
X103245226Y-61698102D01*
X103167205Y-61509744D01*
X103053937Y-61340226D01*
X102909774Y-61196063D01*
X102740256Y-61082795D01*
X102551898Y-61004774D01*
X102351939Y-60965000D01*
X102148061Y-60965000D01*
X101948102Y-61004774D01*
X101759744Y-61082795D01*
X101590226Y-61196063D01*
X101446063Y-61340226D01*
X101332795Y-61509744D01*
X101254774Y-61698102D01*
X101215000Y-61898061D01*
X101215000Y-62101939D01*
X101246607Y-62260841D01*
X101172038Y-62322038D01*
X101061595Y-62456613D01*
X101000000Y-62571849D01*
X100938405Y-62456613D01*
X100827962Y-62322038D01*
X100753393Y-62260841D01*
X100785000Y-62101939D01*
X100785000Y-61898061D01*
X100745226Y-61698102D01*
X100667205Y-61509744D01*
X100553937Y-61340226D01*
X100409774Y-61196063D01*
X100240256Y-61082795D01*
X100051898Y-61004774D01*
X99851939Y-60965000D01*
X99648061Y-60965000D01*
X99448102Y-61004774D01*
X99259744Y-61082795D01*
X99090226Y-61196063D01*
X98946063Y-61340226D01*
X98832795Y-61509744D01*
X98754774Y-61698102D01*
X98715000Y-61898061D01*
X98715000Y-62101939D01*
X98746607Y-62260841D01*
X98672038Y-62322038D01*
X98561595Y-62456613D01*
X98500000Y-62571849D01*
X98438405Y-62456613D01*
X98327962Y-62322038D01*
X98253393Y-62260841D01*
X98285000Y-62101939D01*
X98285000Y-61898061D01*
X98245226Y-61698102D01*
X98167205Y-61509744D01*
X98053937Y-61340226D01*
X97909774Y-61196063D01*
X97740256Y-61082795D01*
X97551898Y-61004774D01*
X97351939Y-60965000D01*
X97148061Y-60965000D01*
X96948102Y-61004774D01*
X96759744Y-61082795D01*
X96590226Y-61196063D01*
X96446063Y-61340226D01*
X96332795Y-61509744D01*
X96254774Y-61698102D01*
X96215000Y-61898061D01*
X96215000Y-62101939D01*
X96246607Y-62260841D01*
X96172038Y-62322038D01*
X96061595Y-62456613D01*
X96000000Y-62571849D01*
X95938405Y-62456613D01*
X95827962Y-62322038D01*
X95753393Y-62260841D01*
X95785000Y-62101939D01*
X95785000Y-61898061D01*
X95745226Y-61698102D01*
X95667205Y-61509744D01*
X95553937Y-61340226D01*
X95409774Y-61196063D01*
X95240256Y-61082795D01*
X95051898Y-61004774D01*
X94851939Y-60965000D01*
X94648061Y-60965000D01*
X94448102Y-61004774D01*
X94259744Y-61082795D01*
X94090226Y-61196063D01*
X93946063Y-61340226D01*
X93832795Y-61509744D01*
X93754774Y-61698102D01*
X93715000Y-61898061D01*
X93715000Y-62101939D01*
X93746607Y-62260841D01*
X93672038Y-62322038D01*
X93561595Y-62456613D01*
X93479528Y-62610149D01*
X93428992Y-62776745D01*
X93411928Y-62949999D01*
X91702158Y-62949999D01*
X91780537Y-62854494D01*
X91839502Y-62744180D01*
X91875812Y-62624482D01*
X91888072Y-62500000D01*
X91885000Y-62285750D01*
X91726250Y-62127000D01*
X91077000Y-62127000D01*
X90823000Y-62127000D01*
X90803000Y-62127000D01*
X90803000Y-61873000D01*
X90823000Y-61873000D01*
X90823000Y-61023750D01*
X91077000Y-61023750D01*
X91077000Y-61873000D01*
X91726250Y-61873000D01*
X91885000Y-61714250D01*
X91888072Y-61500000D01*
X91875812Y-61375518D01*
X91839502Y-61255820D01*
X91780537Y-61145506D01*
X91701185Y-61048815D01*
X91604494Y-60969463D01*
X91494180Y-60910498D01*
X91374482Y-60874188D01*
X91250000Y-60861928D01*
X91235750Y-60865000D01*
X91077000Y-61023750D01*
X90823000Y-61023750D01*
X90664250Y-60865000D01*
X90650000Y-60861928D01*
X90525518Y-60874188D01*
X90510000Y-60878895D01*
X90510000Y-60438072D01*
X90850000Y-60438072D01*
X90974482Y-60425812D01*
X91094180Y-60389502D01*
X91204494Y-60330537D01*
X91301185Y-60251185D01*
X91380537Y-60154494D01*
X91439502Y-60044180D01*
X91475812Y-59924482D01*
X91488072Y-59800000D01*
X91488072Y-58836730D01*
X91761003Y-58563799D01*
X91790001Y-58540001D01*
X91855657Y-58459999D01*
X91884974Y-58424277D01*
X91955546Y-58292247D01*
X91957744Y-58285000D01*
X91999003Y-58148986D01*
X92010000Y-58037333D01*
X92010000Y-58037323D01*
X92013676Y-58000000D01*
X92010000Y-57962677D01*
X92010000Y-57953711D01*
X92053937Y-57909774D01*
X92167205Y-57740256D01*
X92245226Y-57551898D01*
X92285000Y-57351939D01*
X92285000Y-57148061D01*
X92245226Y-56948102D01*
X92167205Y-56759744D01*
X92053937Y-56590226D01*
X91909774Y-56446063D01*
X91740256Y-56332795D01*
X91551898Y-56254774D01*
X91351939Y-56215000D01*
X91148061Y-56215000D01*
X90948102Y-56254774D01*
X90759744Y-56332795D01*
X90590226Y-56446063D01*
X90446063Y-56590226D01*
X90332795Y-56759744D01*
X90254774Y-56948102D01*
X90215000Y-57148061D01*
X90215000Y-57351939D01*
X90216987Y-57361928D01*
X89750000Y-57361928D01*
X89625518Y-57374188D01*
X89505820Y-57410498D01*
X89395506Y-57469463D01*
X89298815Y-57548815D01*
X89219463Y-57645506D01*
X89160498Y-57755820D01*
X89124188Y-57875518D01*
X89111928Y-58000000D01*
X89111928Y-59331520D01*
X89044455Y-59457753D01*
X89044454Y-59457754D01*
X89000997Y-59601015D01*
X88990000Y-59712668D01*
X88990000Y-59712678D01*
X88986324Y-59750000D01*
X87787822Y-59750000D01*
X87785000Y-59185750D01*
X87626250Y-59027000D01*
X86727000Y-59027000D01*
X86473000Y-59027000D01*
X85573750Y-59027000D01*
X85415000Y-59185750D01*
X85411928Y-59800000D01*
X79660000Y-59800000D01*
X79660000Y-58000000D01*
X85411928Y-58000000D01*
X85415000Y-58614250D01*
X85573750Y-58773000D01*
X86473000Y-58773000D01*
X86473000Y-57523750D01*
X86727000Y-57523750D01*
X86727000Y-58773000D01*
X87626250Y-58773000D01*
X87785000Y-58614250D01*
X87788072Y-58000000D01*
X87775812Y-57875518D01*
X87739502Y-57755820D01*
X87680537Y-57645506D01*
X87601185Y-57548815D01*
X87504494Y-57469463D01*
X87394180Y-57410498D01*
X87274482Y-57374188D01*
X87150000Y-57361928D01*
X86885750Y-57365000D01*
X86727000Y-57523750D01*
X86473000Y-57523750D01*
X86314250Y-57365000D01*
X86050000Y-57361928D01*
X85925518Y-57374188D01*
X85805820Y-57410498D01*
X85695506Y-57469463D01*
X85598815Y-57548815D01*
X85519463Y-57645506D01*
X85460498Y-57755820D01*
X85424188Y-57875518D01*
X85411928Y-58000000D01*
X79660000Y-58000000D01*
X79660000Y-52648061D01*
X104465000Y-52648061D01*
X104465000Y-52851939D01*
X104504774Y-53051898D01*
X104582795Y-53240256D01*
X104696063Y-53409774D01*
X104840226Y-53553937D01*
X105009744Y-53667205D01*
X105198102Y-53745226D01*
X105398061Y-53785000D01*
X105460199Y-53785000D01*
X110511928Y-58836730D01*
X110511928Y-59800000D01*
X110524188Y-59924482D01*
X110560498Y-60044180D01*
X110619463Y-60154494D01*
X110698815Y-60251185D01*
X110795506Y-60330537D01*
X110905820Y-60389502D01*
X111025518Y-60425812D01*
X111150000Y-60438072D01*
X111740000Y-60438072D01*
X111740000Y-60998602D01*
X111704494Y-60969463D01*
X111594180Y-60910498D01*
X111474482Y-60874188D01*
X111350000Y-60861928D01*
X111335750Y-60865000D01*
X111177000Y-61023750D01*
X111177000Y-61873000D01*
X111197000Y-61873000D01*
X111197000Y-62127000D01*
X111177000Y-62127000D01*
X111177000Y-62976250D01*
X111335750Y-63135000D01*
X111350000Y-63138072D01*
X111474482Y-63125812D01*
X111594180Y-63089502D01*
X111704494Y-63030537D01*
X111740001Y-63001397D01*
X111740001Y-63561928D01*
X111150000Y-63561928D01*
X111025518Y-63574188D01*
X110905820Y-63610498D01*
X110795506Y-63669463D01*
X110698815Y-63748815D01*
X110619463Y-63845506D01*
X110560498Y-63955820D01*
X110524188Y-64075518D01*
X110511928Y-64200000D01*
X110511928Y-66000000D01*
X110524188Y-66124482D01*
X110560498Y-66244180D01*
X110619463Y-66354494D01*
X110698815Y-66451185D01*
X110795506Y-66530537D01*
X110905820Y-66589502D01*
X111025518Y-66625812D01*
X111150000Y-66638072D01*
X112250000Y-66638072D01*
X112374482Y-66625812D01*
X112494180Y-66589502D01*
X112604494Y-66530537D01*
X112701185Y-66451185D01*
X112780537Y-66354494D01*
X112839502Y-66244180D01*
X112875812Y-66124482D01*
X112888072Y-66000000D01*
X114211928Y-66000000D01*
X114224188Y-66124482D01*
X114260498Y-66244180D01*
X114319463Y-66354494D01*
X114398815Y-66451185D01*
X114495506Y-66530537D01*
X114605820Y-66589502D01*
X114725518Y-66625812D01*
X114850000Y-66638072D01*
X115114250Y-66635000D01*
X115273000Y-66476250D01*
X115273000Y-65227000D01*
X115527000Y-65227000D01*
X115527000Y-66476250D01*
X115685750Y-66635000D01*
X115950000Y-66638072D01*
X116074482Y-66625812D01*
X116194180Y-66589502D01*
X116304494Y-66530537D01*
X116401185Y-66451185D01*
X116480537Y-66354494D01*
X116539502Y-66244180D01*
X116575812Y-66124482D01*
X116588072Y-66000000D01*
X116585000Y-65385750D01*
X116426250Y-65227000D01*
X115527000Y-65227000D01*
X115273000Y-65227000D01*
X114373750Y-65227000D01*
X114215000Y-65385750D01*
X114211928Y-66000000D01*
X112888072Y-66000000D01*
X112888072Y-64686730D01*
X113011002Y-64563799D01*
X113040001Y-64540001D01*
X113134974Y-64424276D01*
X113205546Y-64292247D01*
X113233528Y-64200000D01*
X114211928Y-64200000D01*
X114215000Y-64814250D01*
X114373750Y-64973000D01*
X115273000Y-64973000D01*
X115273000Y-63723750D01*
X115527000Y-63723750D01*
X115527000Y-64973000D01*
X116426250Y-64973000D01*
X116585000Y-64814250D01*
X116588072Y-64200000D01*
X116575812Y-64075518D01*
X116539502Y-63955820D01*
X116480537Y-63845506D01*
X116401185Y-63748815D01*
X116304494Y-63669463D01*
X116194180Y-63610498D01*
X116074482Y-63574188D01*
X115950000Y-63561928D01*
X115685750Y-63565000D01*
X115527000Y-63723750D01*
X115273000Y-63723750D01*
X115114250Y-63565000D01*
X114850000Y-63561928D01*
X114725518Y-63574188D01*
X114605820Y-63610498D01*
X114495506Y-63669463D01*
X114398815Y-63748815D01*
X114319463Y-63845506D01*
X114260498Y-63955820D01*
X114224188Y-64075518D01*
X114211928Y-64200000D01*
X113233528Y-64200000D01*
X113249003Y-64148986D01*
X113260000Y-64037333D01*
X113260000Y-64037324D01*
X113263676Y-64000001D01*
X113260000Y-63962678D01*
X113260000Y-62500000D01*
X115111928Y-62500000D01*
X115124188Y-62624482D01*
X115160498Y-62744180D01*
X115219463Y-62854494D01*
X115298815Y-62951185D01*
X115395506Y-63030537D01*
X115505820Y-63089502D01*
X115625518Y-63125812D01*
X115750000Y-63138072D01*
X115764250Y-63135000D01*
X115923000Y-62976250D01*
X115923000Y-62127000D01*
X116177000Y-62127000D01*
X116177000Y-62976250D01*
X116335750Y-63135000D01*
X116350000Y-63138072D01*
X116474482Y-63125812D01*
X116594180Y-63089502D01*
X116704494Y-63030537D01*
X116801185Y-62951185D01*
X116880537Y-62854494D01*
X116939502Y-62744180D01*
X116975812Y-62624482D01*
X116988072Y-62500000D01*
X116985000Y-62285750D01*
X116826250Y-62127000D01*
X116177000Y-62127000D01*
X115923000Y-62127000D01*
X115273750Y-62127000D01*
X115115000Y-62285750D01*
X115111928Y-62500000D01*
X113260000Y-62500000D01*
X113260000Y-61500000D01*
X115111928Y-61500000D01*
X115115000Y-61714250D01*
X115273750Y-61873000D01*
X115923000Y-61873000D01*
X115923000Y-61023750D01*
X116177000Y-61023750D01*
X116177000Y-61873000D01*
X116826250Y-61873000D01*
X116985000Y-61714250D01*
X116988072Y-61500000D01*
X116975812Y-61375518D01*
X116939502Y-61255820D01*
X116880537Y-61145506D01*
X116801185Y-61048815D01*
X116704494Y-60969463D01*
X116594180Y-60910498D01*
X116474482Y-60874188D01*
X116350000Y-60861928D01*
X116335750Y-60865000D01*
X116177000Y-61023750D01*
X115923000Y-61023750D01*
X115764250Y-60865000D01*
X115750000Y-60861928D01*
X115625518Y-60874188D01*
X115505820Y-60910498D01*
X115395506Y-60969463D01*
X115298815Y-61048815D01*
X115219463Y-61145506D01*
X115160498Y-61255820D01*
X115124188Y-61375518D01*
X115111928Y-61500000D01*
X113260000Y-61500000D01*
X113260000Y-59800000D01*
X114211928Y-59800000D01*
X114224188Y-59924482D01*
X114260498Y-60044180D01*
X114319463Y-60154494D01*
X114398815Y-60251185D01*
X114495506Y-60330537D01*
X114605820Y-60389502D01*
X114725518Y-60425812D01*
X114850000Y-60438072D01*
X115114250Y-60435000D01*
X115273000Y-60276250D01*
X115273000Y-59027000D01*
X115527000Y-59027000D01*
X115527000Y-60276250D01*
X115685750Y-60435000D01*
X115950000Y-60438072D01*
X116074482Y-60425812D01*
X116194180Y-60389502D01*
X116304494Y-60330537D01*
X116401185Y-60251185D01*
X116480537Y-60154494D01*
X116539502Y-60044180D01*
X116575812Y-59924482D01*
X116588072Y-59800000D01*
X116585000Y-59185750D01*
X116426250Y-59027000D01*
X115527000Y-59027000D01*
X115273000Y-59027000D01*
X114373750Y-59027000D01*
X114215000Y-59185750D01*
X114211928Y-59800000D01*
X113260000Y-59800000D01*
X113260000Y-59787322D01*
X113263676Y-59749999D01*
X113260000Y-59712676D01*
X113260000Y-59712667D01*
X113249003Y-59601014D01*
X113205546Y-59457753D01*
X113134974Y-59325724D01*
X113040001Y-59209999D01*
X113011004Y-59186202D01*
X112888072Y-59063270D01*
X112888072Y-58000000D01*
X114211928Y-58000000D01*
X114215000Y-58614250D01*
X114373750Y-58773000D01*
X115273000Y-58773000D01*
X115273000Y-57523750D01*
X115527000Y-57523750D01*
X115527000Y-58773000D01*
X116426250Y-58773000D01*
X116585000Y-58614250D01*
X116588072Y-58000000D01*
X116575812Y-57875518D01*
X116539502Y-57755820D01*
X116480537Y-57645506D01*
X116401185Y-57548815D01*
X116304494Y-57469463D01*
X116194180Y-57410498D01*
X116074482Y-57374188D01*
X115950000Y-57361928D01*
X115685750Y-57365000D01*
X115527000Y-57523750D01*
X115273000Y-57523750D01*
X115114250Y-57365000D01*
X114850000Y-57361928D01*
X114725518Y-57374188D01*
X114605820Y-57410498D01*
X114495506Y-57469463D01*
X114398815Y-57548815D01*
X114319463Y-57645506D01*
X114260498Y-57755820D01*
X114224188Y-57875518D01*
X114211928Y-58000000D01*
X112888072Y-58000000D01*
X112875812Y-57875518D01*
X112839502Y-57755820D01*
X112780537Y-57645506D01*
X112701185Y-57548815D01*
X112604494Y-57469463D01*
X112494180Y-57410498D01*
X112374482Y-57374188D01*
X112250000Y-57361928D01*
X111186730Y-57361928D01*
X109008542Y-55183740D01*
X117265000Y-55183740D01*
X117265000Y-55476260D01*
X117322068Y-55763158D01*
X117434010Y-56033411D01*
X117596525Y-56276632D01*
X117803368Y-56483475D01*
X118046589Y-56645990D01*
X118316842Y-56757932D01*
X118603740Y-56815000D01*
X118896260Y-56815000D01*
X119183158Y-56757932D01*
X119453411Y-56645990D01*
X119696632Y-56483475D01*
X119903475Y-56276632D01*
X120065990Y-56033411D01*
X120177932Y-55763158D01*
X120235000Y-55476260D01*
X120235000Y-55183740D01*
X120177932Y-54896842D01*
X120065990Y-54626589D01*
X119903475Y-54383368D01*
X119696632Y-54176525D01*
X119514466Y-54054805D01*
X119631355Y-53985178D01*
X119847588Y-53790269D01*
X120021641Y-53556920D01*
X120146825Y-53294099D01*
X120191476Y-53146890D01*
X120070155Y-52917000D01*
X118877000Y-52917000D01*
X118877000Y-52937000D01*
X118623000Y-52937000D01*
X118623000Y-52917000D01*
X117429845Y-52917000D01*
X117308524Y-53146890D01*
X117353175Y-53294099D01*
X117478359Y-53556920D01*
X117652412Y-53790269D01*
X117868645Y-53985178D01*
X117985534Y-54054805D01*
X117803368Y-54176525D01*
X117596525Y-54383368D01*
X117434010Y-54626589D01*
X117322068Y-54896842D01*
X117265000Y-55183740D01*
X109008542Y-55183740D01*
X106535000Y-52710199D01*
X106535000Y-52648061D01*
X106495226Y-52448102D01*
X106417205Y-52259744D01*
X106303937Y-52090226D01*
X106159774Y-51946063D01*
X105990256Y-51832795D01*
X105801898Y-51754774D01*
X105601939Y-51715000D01*
X105398061Y-51715000D01*
X105198102Y-51754774D01*
X105009744Y-51832795D01*
X104840226Y-51946063D01*
X104696063Y-52090226D01*
X104582795Y-52259744D01*
X104504774Y-52448102D01*
X104465000Y-52648061D01*
X79660000Y-52648061D01*
X79660000Y-46700000D01*
X86986928Y-46700000D01*
X86999188Y-46824482D01*
X87035498Y-46944180D01*
X87094463Y-47054494D01*
X87173815Y-47151185D01*
X87270506Y-47230537D01*
X87380820Y-47289502D01*
X87500518Y-47325812D01*
X87625000Y-47338072D01*
X87914250Y-47335000D01*
X88073000Y-47176250D01*
X88073000Y-46127000D01*
X87148750Y-46127000D01*
X86990000Y-46285750D01*
X86986928Y-46700000D01*
X79660000Y-46700000D01*
X79660000Y-45300000D01*
X86986928Y-45300000D01*
X86990000Y-45714250D01*
X87148750Y-45873000D01*
X88073000Y-45873000D01*
X88073000Y-44823750D01*
X87914250Y-44665000D01*
X87625000Y-44661928D01*
X87500518Y-44674188D01*
X87380820Y-44710498D01*
X87270506Y-44769463D01*
X87173815Y-44848815D01*
X87094463Y-44945506D01*
X87035498Y-45055820D01*
X86999188Y-45175518D01*
X86986928Y-45300000D01*
X79660000Y-45300000D01*
X79660000Y-44100000D01*
X85361928Y-44100000D01*
X85374188Y-44224482D01*
X85410498Y-44344180D01*
X85469463Y-44454494D01*
X85548815Y-44551185D01*
X85645506Y-44630537D01*
X85755820Y-44689502D01*
X85875518Y-44725812D01*
X86000000Y-44738072D01*
X86264250Y-44735000D01*
X86423000Y-44576250D01*
X86423000Y-43327000D01*
X86677000Y-43327000D01*
X86677000Y-44576250D01*
X86835750Y-44735000D01*
X87100000Y-44738072D01*
X87224482Y-44725812D01*
X87344180Y-44689502D01*
X87454494Y-44630537D01*
X87551185Y-44551185D01*
X87630537Y-44454494D01*
X87689502Y-44344180D01*
X87725812Y-44224482D01*
X87738072Y-44100000D01*
X87735000Y-43485750D01*
X87576250Y-43327000D01*
X86677000Y-43327000D01*
X86423000Y-43327000D01*
X85523750Y-43327000D01*
X85365000Y-43485750D01*
X85361928Y-44100000D01*
X79660000Y-44100000D01*
X79660000Y-42300000D01*
X85361928Y-42300000D01*
X85365000Y-42914250D01*
X85523750Y-43073000D01*
X86423000Y-43073000D01*
X86423000Y-41823750D01*
X86677000Y-41823750D01*
X86677000Y-43073000D01*
X87576250Y-43073000D01*
X87735000Y-42914250D01*
X87738072Y-42300000D01*
X87725812Y-42175518D01*
X87689502Y-42055820D01*
X87630537Y-41945506D01*
X87551185Y-41848815D01*
X87454494Y-41769463D01*
X87344180Y-41710498D01*
X87224482Y-41674188D01*
X87100000Y-41661928D01*
X86835750Y-41665000D01*
X86677000Y-41823750D01*
X86423000Y-41823750D01*
X86264250Y-41665000D01*
X86000000Y-41661928D01*
X85875518Y-41674188D01*
X85755820Y-41710498D01*
X85645506Y-41769463D01*
X85548815Y-41848815D01*
X85469463Y-41945506D01*
X85410498Y-42055820D01*
X85374188Y-42175518D01*
X85361928Y-42300000D01*
X79660000Y-42300000D01*
X79660000Y-40600000D01*
X84961928Y-40600000D01*
X84974188Y-40724482D01*
X85010498Y-40844180D01*
X85069463Y-40954494D01*
X85148815Y-41051185D01*
X85245506Y-41130537D01*
X85355820Y-41189502D01*
X85475518Y-41225812D01*
X85600000Y-41238072D01*
X85614250Y-41235000D01*
X85773000Y-41076250D01*
X85773000Y-40227000D01*
X86027000Y-40227000D01*
X86027000Y-41076250D01*
X86185750Y-41235000D01*
X86200000Y-41238072D01*
X86324482Y-41225812D01*
X86444180Y-41189502D01*
X86554494Y-41130537D01*
X86651185Y-41051185D01*
X86730537Y-40954494D01*
X86789502Y-40844180D01*
X86825812Y-40724482D01*
X86838072Y-40600000D01*
X86835000Y-40385750D01*
X86676250Y-40227000D01*
X86027000Y-40227000D01*
X85773000Y-40227000D01*
X85123750Y-40227000D01*
X84965000Y-40385750D01*
X84961928Y-40600000D01*
X79660000Y-40600000D01*
X79660000Y-39600000D01*
X84961928Y-39600000D01*
X84965000Y-39814250D01*
X85123750Y-39973000D01*
X85773000Y-39973000D01*
X85773000Y-39123750D01*
X86027000Y-39123750D01*
X86027000Y-39973000D01*
X86676250Y-39973000D01*
X86835000Y-39814250D01*
X86838072Y-39600000D01*
X86825812Y-39475518D01*
X86789502Y-39355820D01*
X86730537Y-39245506D01*
X86651185Y-39148815D01*
X86554494Y-39069463D01*
X86444180Y-39010498D01*
X86324482Y-38974188D01*
X86200000Y-38961928D01*
X86185750Y-38965000D01*
X86027000Y-39123750D01*
X85773000Y-39123750D01*
X85614250Y-38965000D01*
X85600000Y-38961928D01*
X85475518Y-38974188D01*
X85355820Y-39010498D01*
X85245506Y-39069463D01*
X85148815Y-39148815D01*
X85069463Y-39245506D01*
X85010498Y-39355820D01*
X84974188Y-39475518D01*
X84961928Y-39600000D01*
X79660000Y-39600000D01*
X79660000Y-37900000D01*
X85361928Y-37900000D01*
X85374188Y-38024482D01*
X85410498Y-38144180D01*
X85469463Y-38254494D01*
X85548815Y-38351185D01*
X85645506Y-38430537D01*
X85755820Y-38489502D01*
X85875518Y-38525812D01*
X86000000Y-38538072D01*
X86264250Y-38535000D01*
X86423000Y-38376250D01*
X86423000Y-37127000D01*
X86677000Y-37127000D01*
X86677000Y-38376250D01*
X86835750Y-38535000D01*
X87100000Y-38538072D01*
X87224482Y-38525812D01*
X87344180Y-38489502D01*
X87454494Y-38430537D01*
X87551185Y-38351185D01*
X87630537Y-38254494D01*
X87689502Y-38144180D01*
X87725812Y-38024482D01*
X87738072Y-37900000D01*
X87735000Y-37285750D01*
X87576250Y-37127000D01*
X86677000Y-37127000D01*
X86423000Y-37127000D01*
X85523750Y-37127000D01*
X85365000Y-37285750D01*
X85361928Y-37900000D01*
X79660000Y-37900000D01*
X79660000Y-36100000D01*
X85361928Y-36100000D01*
X85365000Y-36714250D01*
X85523750Y-36873000D01*
X86423000Y-36873000D01*
X86423000Y-35623750D01*
X86677000Y-35623750D01*
X86677000Y-36873000D01*
X87576250Y-36873000D01*
X87735000Y-36714250D01*
X87738072Y-36100000D01*
X87734951Y-36068314D01*
X87796063Y-36159774D01*
X87940226Y-36303937D01*
X88109744Y-36417205D01*
X88298102Y-36495226D01*
X88498061Y-36535000D01*
X88701939Y-36535000D01*
X88901898Y-36495226D01*
X89061928Y-36428939D01*
X89061928Y-37613271D01*
X88989002Y-37686197D01*
X88959999Y-37709999D01*
X88911199Y-37769463D01*
X88865026Y-37825724D01*
X88812348Y-37924277D01*
X88794454Y-37957754D01*
X88750997Y-38101015D01*
X88740000Y-38212668D01*
X88740000Y-38212678D01*
X88736324Y-38250000D01*
X88740000Y-38287323D01*
X88740001Y-42212668D01*
X88736324Y-42250000D01*
X88750998Y-42398985D01*
X88794454Y-42542246D01*
X88865026Y-42674276D01*
X88927172Y-42750000D01*
X88960000Y-42790001D01*
X88988998Y-42813799D01*
X89061928Y-42886729D01*
X89061928Y-44100000D01*
X89074188Y-44224482D01*
X89110498Y-44344180D01*
X89169463Y-44454494D01*
X89248815Y-44551185D01*
X89345506Y-44630537D01*
X89455820Y-44689502D01*
X89575518Y-44725812D01*
X89592036Y-44727439D01*
X89585149Y-44729528D01*
X89431613Y-44811595D01*
X89297038Y-44922038D01*
X89291658Y-44928594D01*
X89226185Y-44848815D01*
X89129494Y-44769463D01*
X89019180Y-44710498D01*
X88899482Y-44674188D01*
X88775000Y-44661928D01*
X88485750Y-44665000D01*
X88327000Y-44823750D01*
X88327000Y-45873000D01*
X88347000Y-45873000D01*
X88347000Y-46127000D01*
X88327000Y-46127000D01*
X88327000Y-47176250D01*
X88485750Y-47335000D01*
X88775000Y-47338072D01*
X88899482Y-47325812D01*
X89019180Y-47289502D01*
X89129494Y-47230537D01*
X89226185Y-47151185D01*
X89291658Y-47071406D01*
X89297038Y-47077962D01*
X89302635Y-47082556D01*
X89254774Y-47198102D01*
X89215000Y-47398061D01*
X89215000Y-47601939D01*
X89254774Y-47801898D01*
X89332795Y-47990256D01*
X89446063Y-48159774D01*
X89590226Y-48303937D01*
X89759744Y-48417205D01*
X89948102Y-48495226D01*
X90148061Y-48535000D01*
X90351939Y-48535000D01*
X90551898Y-48495226D01*
X90740256Y-48417205D01*
X90909774Y-48303937D01*
X91053937Y-48159774D01*
X91167205Y-47990256D01*
X91245226Y-47801898D01*
X91285000Y-47601939D01*
X91285000Y-47398061D01*
X91245226Y-47198102D01*
X91197365Y-47082556D01*
X91202962Y-47077962D01*
X91313405Y-46943387D01*
X91395472Y-46789851D01*
X91446008Y-46623255D01*
X91463072Y-46450001D01*
X91463072Y-45549999D01*
X91461747Y-45536549D01*
X91789490Y-45864292D01*
X91754774Y-45948102D01*
X91715000Y-46148061D01*
X91715000Y-46351939D01*
X91754774Y-46551898D01*
X91832795Y-46740256D01*
X91946063Y-46909774D01*
X92090226Y-47053937D01*
X92259744Y-47167205D01*
X92448102Y-47245226D01*
X92648061Y-47285000D01*
X92851939Y-47285000D01*
X93051898Y-47245226D01*
X93240256Y-47167205D01*
X93409774Y-47053937D01*
X93553937Y-46909774D01*
X93667205Y-46740256D01*
X93683879Y-46700000D01*
X98736928Y-46700000D01*
X98749188Y-46824482D01*
X98785498Y-46944180D01*
X98844463Y-47054494D01*
X98923815Y-47151185D01*
X99020506Y-47230537D01*
X99130820Y-47289502D01*
X99250518Y-47325812D01*
X99375000Y-47338072D01*
X99664250Y-47335000D01*
X99823000Y-47176250D01*
X99823000Y-46127000D01*
X98898750Y-46127000D01*
X98740000Y-46285750D01*
X98736928Y-46700000D01*
X93683879Y-46700000D01*
X93745226Y-46551898D01*
X93785000Y-46351939D01*
X93785000Y-46148061D01*
X93745226Y-45948102D01*
X93667205Y-45759744D01*
X93553937Y-45590226D01*
X93470386Y-45506675D01*
X93455546Y-45457753D01*
X93450387Y-45448102D01*
X93384974Y-45325723D01*
X93363864Y-45300000D01*
X98736928Y-45300000D01*
X98740000Y-45714250D01*
X98898750Y-45873000D01*
X99823000Y-45873000D01*
X99823000Y-44823750D01*
X100077000Y-44823750D01*
X100077000Y-45873000D01*
X100097000Y-45873000D01*
X100097000Y-46127000D01*
X100077000Y-46127000D01*
X100077000Y-47176250D01*
X100235750Y-47335000D01*
X100525000Y-47338072D01*
X100649482Y-47325812D01*
X100769180Y-47289502D01*
X100879494Y-47230537D01*
X100976185Y-47151185D01*
X101041658Y-47071406D01*
X101047038Y-47077962D01*
X101181613Y-47188405D01*
X101335149Y-47270472D01*
X101501745Y-47321008D01*
X101674999Y-47338072D01*
X102325001Y-47338072D01*
X102498255Y-47321008D01*
X102664851Y-47270472D01*
X102818387Y-47188405D01*
X102952962Y-47077962D01*
X103063405Y-46943387D01*
X103145472Y-46789851D01*
X103172727Y-46700000D01*
X110786928Y-46700000D01*
X110799188Y-46824482D01*
X110835498Y-46944180D01*
X110894463Y-47054494D01*
X110973815Y-47151185D01*
X111070506Y-47230537D01*
X111180820Y-47289502D01*
X111300518Y-47325812D01*
X111425000Y-47338072D01*
X111714250Y-47335000D01*
X111873000Y-47176250D01*
X111873000Y-46127000D01*
X110948750Y-46127000D01*
X110790000Y-46285750D01*
X110786928Y-46700000D01*
X103172727Y-46700000D01*
X103196008Y-46623255D01*
X103213072Y-46450001D01*
X103213072Y-45611729D01*
X104064802Y-44760000D01*
X109796289Y-44760000D01*
X109840226Y-44803937D01*
X110009744Y-44917205D01*
X110198102Y-44995226D01*
X110398061Y-45035000D01*
X110601939Y-45035000D01*
X110801898Y-44995226D01*
X110886652Y-44960120D01*
X110835498Y-45055820D01*
X110799188Y-45175518D01*
X110786928Y-45300000D01*
X110790000Y-45714250D01*
X110948750Y-45873000D01*
X111873000Y-45873000D01*
X111873000Y-45853000D01*
X112127000Y-45853000D01*
X112127000Y-45873000D01*
X112147000Y-45873000D01*
X112147000Y-46127000D01*
X112127000Y-46127000D01*
X112127000Y-47176250D01*
X112285750Y-47335000D01*
X112575000Y-47338072D01*
X112699482Y-47325812D01*
X112819180Y-47289502D01*
X112929494Y-47230537D01*
X113026185Y-47151185D01*
X113091658Y-47071406D01*
X113097038Y-47077962D01*
X113231613Y-47188405D01*
X113385149Y-47270472D01*
X113551745Y-47321008D01*
X113724999Y-47338072D01*
X114375001Y-47338072D01*
X114548255Y-47321008D01*
X114714851Y-47270472D01*
X114868387Y-47188405D01*
X115002962Y-47077962D01*
X115113405Y-46943387D01*
X115157976Y-46860000D01*
X117261928Y-46860000D01*
X117261928Y-48560000D01*
X117274188Y-48684482D01*
X117310498Y-48804180D01*
X117369463Y-48914494D01*
X117448815Y-49011185D01*
X117545506Y-49090537D01*
X117655820Y-49149502D01*
X117728380Y-49171513D01*
X117596525Y-49303368D01*
X117434010Y-49546589D01*
X117322068Y-49816842D01*
X117265000Y-50103740D01*
X117265000Y-50396260D01*
X117322068Y-50683158D01*
X117434010Y-50953411D01*
X117596525Y-51196632D01*
X117803368Y-51403475D01*
X117985534Y-51525195D01*
X117868645Y-51594822D01*
X117652412Y-51789731D01*
X117478359Y-52023080D01*
X117353175Y-52285901D01*
X117308524Y-52433110D01*
X117429845Y-52663000D01*
X118623000Y-52663000D01*
X118623000Y-52643000D01*
X118877000Y-52643000D01*
X118877000Y-52663000D01*
X120070155Y-52663000D01*
X120191476Y-52433110D01*
X120146825Y-52285901D01*
X120021641Y-52023080D01*
X119847588Y-51789731D01*
X119631355Y-51594822D01*
X119514466Y-51525195D01*
X119696632Y-51403475D01*
X119903475Y-51196632D01*
X120065990Y-50953411D01*
X120177932Y-50683158D01*
X120235000Y-50396260D01*
X120235000Y-50103740D01*
X120177932Y-49816842D01*
X120065990Y-49546589D01*
X119903475Y-49303368D01*
X119771620Y-49171513D01*
X119844180Y-49149502D01*
X119954494Y-49090537D01*
X120051185Y-49011185D01*
X120130537Y-48914494D01*
X120189502Y-48804180D01*
X120225812Y-48684482D01*
X120238072Y-48560000D01*
X120238072Y-46860000D01*
X120225812Y-46735518D01*
X120189502Y-46615820D01*
X120130537Y-46505506D01*
X120051185Y-46408815D01*
X119954494Y-46329463D01*
X119844180Y-46270498D01*
X119724482Y-46234188D01*
X119600000Y-46221928D01*
X117900000Y-46221928D01*
X117775518Y-46234188D01*
X117655820Y-46270498D01*
X117545506Y-46329463D01*
X117448815Y-46408815D01*
X117369463Y-46505506D01*
X117310498Y-46615820D01*
X117274188Y-46735518D01*
X117261928Y-46860000D01*
X115157976Y-46860000D01*
X115195472Y-46789851D01*
X115246008Y-46623255D01*
X115257163Y-46510000D01*
X115296289Y-46510000D01*
X115340226Y-46553937D01*
X115509744Y-46667205D01*
X115698102Y-46745226D01*
X115898061Y-46785000D01*
X116101939Y-46785000D01*
X116301898Y-46745226D01*
X116490256Y-46667205D01*
X116659774Y-46553937D01*
X116803937Y-46409774D01*
X116917205Y-46240256D01*
X116995226Y-46051898D01*
X117035000Y-45851939D01*
X117035000Y-45648061D01*
X116995226Y-45448102D01*
X116917205Y-45259744D01*
X116803937Y-45090226D01*
X116659774Y-44946063D01*
X116490256Y-44832795D01*
X116301898Y-44754774D01*
X116137081Y-44721990D01*
X116244180Y-44689502D01*
X116354494Y-44630537D01*
X116451185Y-44551185D01*
X116530537Y-44454494D01*
X116589502Y-44344180D01*
X116625812Y-44224482D01*
X116638072Y-44100000D01*
X116635000Y-43485750D01*
X116476250Y-43327000D01*
X115577000Y-43327000D01*
X115577000Y-44576250D01*
X115735750Y-44735000D01*
X115794103Y-44735678D01*
X115698102Y-44754774D01*
X115509744Y-44832795D01*
X115340226Y-44946063D01*
X115296289Y-44990000D01*
X115058737Y-44990000D01*
X115002962Y-44922038D01*
X114868387Y-44811595D01*
X114714851Y-44729528D01*
X114548255Y-44678992D01*
X114375001Y-44661928D01*
X113724999Y-44661928D01*
X113551745Y-44678992D01*
X113385149Y-44729528D01*
X113231613Y-44811595D01*
X113097038Y-44922038D01*
X113091658Y-44928594D01*
X113026185Y-44848815D01*
X112929494Y-44769463D01*
X112819180Y-44710498D01*
X112699482Y-44674188D01*
X112592535Y-44663655D01*
X112654494Y-44630537D01*
X112751185Y-44551185D01*
X112830537Y-44454494D01*
X112889502Y-44344180D01*
X112925812Y-44224482D01*
X112938072Y-44100000D01*
X114261928Y-44100000D01*
X114274188Y-44224482D01*
X114310498Y-44344180D01*
X114369463Y-44454494D01*
X114448815Y-44551185D01*
X114545506Y-44630537D01*
X114655820Y-44689502D01*
X114775518Y-44725812D01*
X114900000Y-44738072D01*
X115164250Y-44735000D01*
X115323000Y-44576250D01*
X115323000Y-43327000D01*
X114423750Y-43327000D01*
X114265000Y-43485750D01*
X114261928Y-44100000D01*
X112938072Y-44100000D01*
X112938072Y-42574938D01*
X112955546Y-42542247D01*
X112999003Y-42398986D01*
X113008752Y-42300000D01*
X114261928Y-42300000D01*
X114265000Y-42914250D01*
X114423750Y-43073000D01*
X115323000Y-43073000D01*
X115323000Y-41823750D01*
X115577000Y-41823750D01*
X115577000Y-43073000D01*
X116476250Y-43073000D01*
X116635000Y-42914250D01*
X116638072Y-42300000D01*
X116625812Y-42175518D01*
X116589502Y-42055820D01*
X116530537Y-41945506D01*
X116451185Y-41848815D01*
X116354494Y-41769463D01*
X116244180Y-41710498D01*
X116124482Y-41674188D01*
X116000000Y-41661928D01*
X115735750Y-41665000D01*
X115577000Y-41823750D01*
X115323000Y-41823750D01*
X115164250Y-41665000D01*
X114900000Y-41661928D01*
X114775518Y-41674188D01*
X114655820Y-41710498D01*
X114545506Y-41769463D01*
X114448815Y-41848815D01*
X114369463Y-41945506D01*
X114310498Y-42055820D01*
X114274188Y-42175518D01*
X114261928Y-42300000D01*
X113008752Y-42300000D01*
X113010000Y-42287333D01*
X113010000Y-42287325D01*
X113013676Y-42250000D01*
X113010000Y-42212675D01*
X113010000Y-40600000D01*
X115161928Y-40600000D01*
X115174188Y-40724482D01*
X115210498Y-40844180D01*
X115269463Y-40954494D01*
X115348815Y-41051185D01*
X115445506Y-41130537D01*
X115555820Y-41189502D01*
X115675518Y-41225812D01*
X115800000Y-41238072D01*
X115814250Y-41235000D01*
X115973000Y-41076250D01*
X115973000Y-40227000D01*
X116227000Y-40227000D01*
X116227000Y-41076250D01*
X116385750Y-41235000D01*
X116400000Y-41238072D01*
X116524482Y-41225812D01*
X116644180Y-41189502D01*
X116754494Y-41130537D01*
X116851185Y-41051185D01*
X116930537Y-40954494D01*
X116989502Y-40844180D01*
X117025812Y-40724482D01*
X117038072Y-40600000D01*
X117035000Y-40385750D01*
X116876250Y-40227000D01*
X116227000Y-40227000D01*
X115973000Y-40227000D01*
X115323750Y-40227000D01*
X115165000Y-40385750D01*
X115161928Y-40600000D01*
X113010000Y-40600000D01*
X113010000Y-39600000D01*
X115161928Y-39600000D01*
X115165000Y-39814250D01*
X115323750Y-39973000D01*
X115973000Y-39973000D01*
X115973000Y-39123750D01*
X116227000Y-39123750D01*
X116227000Y-39973000D01*
X116876250Y-39973000D01*
X117035000Y-39814250D01*
X117038072Y-39600000D01*
X117025812Y-39475518D01*
X116989502Y-39355820D01*
X116930537Y-39245506D01*
X116851185Y-39148815D01*
X116754494Y-39069463D01*
X116644180Y-39010498D01*
X116524482Y-38974188D01*
X116400000Y-38961928D01*
X116385750Y-38965000D01*
X116227000Y-39123750D01*
X115973000Y-39123750D01*
X115814250Y-38965000D01*
X115800000Y-38961928D01*
X115675518Y-38974188D01*
X115555820Y-39010498D01*
X115445506Y-39069463D01*
X115348815Y-39148815D01*
X115269463Y-39245506D01*
X115210498Y-39355820D01*
X115174188Y-39475518D01*
X115161928Y-39600000D01*
X113010000Y-39600000D01*
X113010000Y-37900000D01*
X114261928Y-37900000D01*
X114274188Y-38024482D01*
X114310498Y-38144180D01*
X114369463Y-38254494D01*
X114448815Y-38351185D01*
X114545506Y-38430537D01*
X114655820Y-38489502D01*
X114775518Y-38525812D01*
X114900000Y-38538072D01*
X115164250Y-38535000D01*
X115323000Y-38376250D01*
X115323000Y-37127000D01*
X115577000Y-37127000D01*
X115577000Y-38376250D01*
X115735750Y-38535000D01*
X116000000Y-38538072D01*
X116124482Y-38525812D01*
X116244180Y-38489502D01*
X116354494Y-38430537D01*
X116451185Y-38351185D01*
X116530537Y-38254494D01*
X116589502Y-38144180D01*
X116625812Y-38024482D01*
X116638072Y-37900000D01*
X116635000Y-37285750D01*
X116476250Y-37127000D01*
X115577000Y-37127000D01*
X115323000Y-37127000D01*
X114423750Y-37127000D01*
X114265000Y-37285750D01*
X114261928Y-37900000D01*
X113010000Y-37900000D01*
X113010000Y-37537322D01*
X113013676Y-37499999D01*
X113010000Y-37462676D01*
X113010000Y-37462667D01*
X112999003Y-37351014D01*
X112955546Y-37207753D01*
X112938072Y-37175062D01*
X112938072Y-36100000D01*
X114261928Y-36100000D01*
X114265000Y-36714250D01*
X114423750Y-36873000D01*
X115323000Y-36873000D01*
X115323000Y-35623750D01*
X115577000Y-35623750D01*
X115577000Y-36873000D01*
X116476250Y-36873000D01*
X116635000Y-36714250D01*
X116638072Y-36100000D01*
X116625812Y-35975518D01*
X116589502Y-35855820D01*
X116530537Y-35745506D01*
X116451185Y-35648815D01*
X116354494Y-35569463D01*
X116244180Y-35510498D01*
X116124482Y-35474188D01*
X116000000Y-35461928D01*
X115735750Y-35465000D01*
X115577000Y-35623750D01*
X115323000Y-35623750D01*
X115164250Y-35465000D01*
X114900000Y-35461928D01*
X114775518Y-35474188D01*
X114655820Y-35510498D01*
X114545506Y-35569463D01*
X114448815Y-35648815D01*
X114369463Y-35745506D01*
X114310498Y-35855820D01*
X114274188Y-35975518D01*
X114261928Y-36100000D01*
X112938072Y-36100000D01*
X112925812Y-35975518D01*
X112889502Y-35855820D01*
X112830537Y-35745506D01*
X112751185Y-35648815D01*
X112654494Y-35569463D01*
X112544180Y-35510498D01*
X112424482Y-35474188D01*
X112300000Y-35461928D01*
X111200000Y-35461928D01*
X111075518Y-35474188D01*
X110955820Y-35510498D01*
X110845506Y-35569463D01*
X110748815Y-35648815D01*
X110669463Y-35745506D01*
X110610498Y-35855820D01*
X110574188Y-35975518D01*
X110561928Y-36100000D01*
X110561928Y-37900000D01*
X110574188Y-38024482D01*
X110610498Y-38144180D01*
X110669463Y-38254494D01*
X110748815Y-38351185D01*
X110845506Y-38430537D01*
X110955820Y-38489502D01*
X111075518Y-38525812D01*
X111200000Y-38538072D01*
X111490001Y-38538072D01*
X111490001Y-38970792D01*
X111400000Y-38961928D01*
X111385750Y-38965000D01*
X111227000Y-39123750D01*
X111227000Y-39973000D01*
X111247000Y-39973000D01*
X111247000Y-40227000D01*
X111227000Y-40227000D01*
X111227000Y-41076250D01*
X111385750Y-41235000D01*
X111400000Y-41238072D01*
X111490000Y-41229208D01*
X111490000Y-41661928D01*
X111200000Y-41661928D01*
X111075518Y-41674188D01*
X110955820Y-41710498D01*
X110845506Y-41769463D01*
X110755734Y-41843137D01*
X110740256Y-41832795D01*
X110551898Y-41754774D01*
X110351939Y-41715000D01*
X110148061Y-41715000D01*
X109948102Y-41754774D01*
X109759744Y-41832795D01*
X109590226Y-41946063D01*
X109446063Y-42090226D01*
X109332795Y-42259744D01*
X109254774Y-42448102D01*
X109215000Y-42648061D01*
X109215000Y-42851939D01*
X109254774Y-43051898D01*
X109332689Y-43240000D01*
X103787322Y-43240000D01*
X103749999Y-43236324D01*
X103712676Y-43240000D01*
X103712667Y-43240000D01*
X103601014Y-43250997D01*
X103472433Y-43290001D01*
X103457753Y-43294454D01*
X103325723Y-43365026D01*
X103271198Y-43409774D01*
X103209999Y-43459999D01*
X103186201Y-43488997D01*
X102013271Y-44661928D01*
X101674999Y-44661928D01*
X101501745Y-44678992D01*
X101335149Y-44729528D01*
X101181613Y-44811595D01*
X101047038Y-44922038D01*
X101041658Y-44928594D01*
X100976185Y-44848815D01*
X100879494Y-44769463D01*
X100769180Y-44710498D01*
X100649482Y-44674188D01*
X100525000Y-44661928D01*
X100235750Y-44665000D01*
X100077000Y-44823750D01*
X99823000Y-44823750D01*
X99664250Y-44665000D01*
X99375000Y-44661928D01*
X99250518Y-44674188D01*
X99130820Y-44710498D01*
X99020506Y-44769463D01*
X98923815Y-44848815D01*
X98844463Y-44945506D01*
X98785498Y-45055820D01*
X98749188Y-45175518D01*
X98736928Y-45300000D01*
X93363864Y-45300000D01*
X93313799Y-45238997D01*
X93290001Y-45209999D01*
X93261003Y-45186201D01*
X91438072Y-43363271D01*
X91438072Y-42300000D01*
X91425812Y-42175518D01*
X91389502Y-42055820D01*
X91330537Y-41945506D01*
X91251185Y-41848815D01*
X91154494Y-41769463D01*
X91044180Y-41710498D01*
X90924482Y-41674188D01*
X90800000Y-41661928D01*
X90260000Y-41661928D01*
X90260000Y-41138284D01*
X90355820Y-41189502D01*
X90475518Y-41225812D01*
X90600000Y-41238072D01*
X90614250Y-41235000D01*
X90773000Y-41076250D01*
X90773000Y-40227000D01*
X91027000Y-40227000D01*
X91027000Y-41076250D01*
X91185750Y-41235000D01*
X91200000Y-41238072D01*
X91324482Y-41225812D01*
X91444180Y-41189502D01*
X91554494Y-41130537D01*
X91651185Y-41051185D01*
X91730537Y-40954494D01*
X91789502Y-40844180D01*
X91825812Y-40724482D01*
X91838072Y-40600000D01*
X91835000Y-40385750D01*
X91676250Y-40227000D01*
X91027000Y-40227000D01*
X90773000Y-40227000D01*
X90753000Y-40227000D01*
X90753000Y-39973000D01*
X90773000Y-39973000D01*
X90773000Y-39123750D01*
X91027000Y-39123750D01*
X91027000Y-39973000D01*
X91676250Y-39973000D01*
X91835000Y-39814250D01*
X91838072Y-39600000D01*
X91825812Y-39475518D01*
X91789502Y-39355820D01*
X91730537Y-39245506D01*
X91651185Y-39148815D01*
X91554494Y-39069463D01*
X91444180Y-39010498D01*
X91324482Y-38974188D01*
X91200000Y-38961928D01*
X91185750Y-38965000D01*
X91027000Y-39123750D01*
X90773000Y-39123750D01*
X90614250Y-38965000D01*
X90600000Y-38961928D01*
X90475518Y-38974188D01*
X90355820Y-39010498D01*
X90260000Y-39061716D01*
X90260000Y-38564801D01*
X90274802Y-38549999D01*
X92286928Y-38549999D01*
X92286928Y-39450001D01*
X92303992Y-39623255D01*
X92354528Y-39789851D01*
X92436595Y-39943387D01*
X92547038Y-40077962D01*
X92552635Y-40082556D01*
X92504774Y-40198102D01*
X92465000Y-40398061D01*
X92465000Y-40601939D01*
X92504774Y-40801898D01*
X92582795Y-40990256D01*
X92696063Y-41159774D01*
X92840226Y-41303937D01*
X93009744Y-41417205D01*
X93198102Y-41495226D01*
X93398061Y-41535000D01*
X93601939Y-41535000D01*
X93801898Y-41495226D01*
X93990256Y-41417205D01*
X94159774Y-41303937D01*
X94303937Y-41159774D01*
X94417205Y-40990256D01*
X94495226Y-40801898D01*
X94535000Y-40601939D01*
X94535000Y-40398061D01*
X94495226Y-40198102D01*
X94447365Y-40082556D01*
X94452962Y-40077962D01*
X94458342Y-40071406D01*
X94523815Y-40151185D01*
X94620506Y-40230537D01*
X94730820Y-40289502D01*
X94850518Y-40325812D01*
X94975000Y-40338072D01*
X95264250Y-40335000D01*
X95423000Y-40176250D01*
X95423000Y-39127000D01*
X95677000Y-39127000D01*
X95677000Y-40176250D01*
X95835750Y-40335000D01*
X96125000Y-40338072D01*
X96249482Y-40325812D01*
X96369180Y-40289502D01*
X96479494Y-40230537D01*
X96576185Y-40151185D01*
X96655537Y-40054494D01*
X96714502Y-39944180D01*
X96750812Y-39824482D01*
X96763072Y-39700000D01*
X105236928Y-39700000D01*
X105249188Y-39824482D01*
X105285498Y-39944180D01*
X105344463Y-40054494D01*
X105423815Y-40151185D01*
X105520506Y-40230537D01*
X105630820Y-40289502D01*
X105750518Y-40325812D01*
X105875000Y-40338072D01*
X106164250Y-40335000D01*
X106323000Y-40176250D01*
X106323000Y-39127000D01*
X105398750Y-39127000D01*
X105240000Y-39285750D01*
X105236928Y-39700000D01*
X96763072Y-39700000D01*
X96760000Y-39285750D01*
X96601250Y-39127000D01*
X95677000Y-39127000D01*
X95423000Y-39127000D01*
X95403000Y-39127000D01*
X95403000Y-38873000D01*
X95423000Y-38873000D01*
X95423000Y-37823750D01*
X95677000Y-37823750D01*
X95677000Y-38873000D01*
X96601250Y-38873000D01*
X96760000Y-38714250D01*
X96763072Y-38300000D01*
X105236928Y-38300000D01*
X105240000Y-38714250D01*
X105398750Y-38873000D01*
X106323000Y-38873000D01*
X106323000Y-37823750D01*
X106577000Y-37823750D01*
X106577000Y-38873000D01*
X106597000Y-38873000D01*
X106597000Y-39127000D01*
X106577000Y-39127000D01*
X106577000Y-40176250D01*
X106735750Y-40335000D01*
X107025000Y-40338072D01*
X107149482Y-40325812D01*
X107269180Y-40289502D01*
X107379494Y-40230537D01*
X107476185Y-40151185D01*
X107541658Y-40071406D01*
X107547038Y-40077962D01*
X107648577Y-40161293D01*
X107582795Y-40259744D01*
X107504774Y-40448102D01*
X107465000Y-40648061D01*
X107465000Y-40851939D01*
X107504774Y-41051898D01*
X107582795Y-41240256D01*
X107696063Y-41409774D01*
X107840226Y-41553937D01*
X108009744Y-41667205D01*
X108198102Y-41745226D01*
X108398061Y-41785000D01*
X108601939Y-41785000D01*
X108801898Y-41745226D01*
X108990256Y-41667205D01*
X109159774Y-41553937D01*
X109303937Y-41409774D01*
X109417205Y-41240256D01*
X109495226Y-41051898D01*
X109535000Y-40851939D01*
X109535000Y-40648061D01*
X109525441Y-40600000D01*
X110161928Y-40600000D01*
X110174188Y-40724482D01*
X110210498Y-40844180D01*
X110269463Y-40954494D01*
X110348815Y-41051185D01*
X110445506Y-41130537D01*
X110555820Y-41189502D01*
X110675518Y-41225812D01*
X110800000Y-41238072D01*
X110814250Y-41235000D01*
X110973000Y-41076250D01*
X110973000Y-40227000D01*
X110323750Y-40227000D01*
X110165000Y-40385750D01*
X110161928Y-40600000D01*
X109525441Y-40600000D01*
X109495226Y-40448102D01*
X109417205Y-40259744D01*
X109351423Y-40161293D01*
X109452962Y-40077962D01*
X109563405Y-39943387D01*
X109645472Y-39789851D01*
X109696008Y-39623255D01*
X109698298Y-39600000D01*
X110161928Y-39600000D01*
X110165000Y-39814250D01*
X110323750Y-39973000D01*
X110973000Y-39973000D01*
X110973000Y-39123750D01*
X110814250Y-38965000D01*
X110800000Y-38961928D01*
X110675518Y-38974188D01*
X110555820Y-39010498D01*
X110445506Y-39069463D01*
X110348815Y-39148815D01*
X110269463Y-39245506D01*
X110210498Y-39355820D01*
X110174188Y-39475518D01*
X110161928Y-39600000D01*
X109698298Y-39600000D01*
X109713072Y-39450001D01*
X109713072Y-38549999D01*
X109696008Y-38376745D01*
X109645472Y-38210149D01*
X109563405Y-38056613D01*
X109452962Y-37922038D01*
X109318387Y-37811595D01*
X109164851Y-37729528D01*
X108998255Y-37678992D01*
X108825001Y-37661928D01*
X108174999Y-37661928D01*
X108001745Y-37678992D01*
X107835149Y-37729528D01*
X107681613Y-37811595D01*
X107547038Y-37922038D01*
X107541658Y-37928594D01*
X107476185Y-37848815D01*
X107379494Y-37769463D01*
X107269180Y-37710498D01*
X107149482Y-37674188D01*
X107025000Y-37661928D01*
X106735750Y-37665000D01*
X106577000Y-37823750D01*
X106323000Y-37823750D01*
X106164250Y-37665000D01*
X105875000Y-37661928D01*
X105750518Y-37674188D01*
X105630820Y-37710498D01*
X105520506Y-37769463D01*
X105423815Y-37848815D01*
X105344463Y-37945506D01*
X105285498Y-38055820D01*
X105249188Y-38175518D01*
X105236928Y-38300000D01*
X96763072Y-38300000D01*
X96750812Y-38175518D01*
X96714502Y-38055820D01*
X96655537Y-37945506D01*
X96576185Y-37848815D01*
X96479494Y-37769463D01*
X96369180Y-37710498D01*
X96249482Y-37674188D01*
X96125000Y-37661928D01*
X95835750Y-37665000D01*
X95677000Y-37823750D01*
X95423000Y-37823750D01*
X95264250Y-37665000D01*
X94975000Y-37661928D01*
X94850518Y-37674188D01*
X94730820Y-37710498D01*
X94620506Y-37769463D01*
X94523815Y-37848815D01*
X94458342Y-37928594D01*
X94452962Y-37922038D01*
X94318387Y-37811595D01*
X94164851Y-37729528D01*
X93998255Y-37678992D01*
X93825001Y-37661928D01*
X93174999Y-37661928D01*
X93001745Y-37678992D01*
X92835149Y-37729528D01*
X92681613Y-37811595D01*
X92547038Y-37922038D01*
X92436595Y-38056613D01*
X92354528Y-38210149D01*
X92303992Y-38376745D01*
X92286928Y-38549999D01*
X90274802Y-38549999D01*
X90286729Y-38538072D01*
X90800000Y-38538072D01*
X90924482Y-38525812D01*
X91044180Y-38489502D01*
X91154494Y-38430537D01*
X91251185Y-38351185D01*
X91330537Y-38254494D01*
X91389502Y-38144180D01*
X91425812Y-38024482D01*
X91438072Y-37900000D01*
X91438072Y-36100000D01*
X91425812Y-35975518D01*
X91389502Y-35855820D01*
X91330537Y-35745506D01*
X91251185Y-35648815D01*
X91154494Y-35569463D01*
X91044180Y-35510498D01*
X90924482Y-35474188D01*
X90800000Y-35461928D01*
X89700000Y-35461928D01*
X89635000Y-35468330D01*
X89635000Y-35398061D01*
X89622030Y-35332855D01*
X89675000Y-35338072D01*
X89964250Y-35335000D01*
X90123000Y-35176250D01*
X90123000Y-34127000D01*
X90377000Y-34127000D01*
X90377000Y-35176250D01*
X90535750Y-35335000D01*
X90825000Y-35338072D01*
X90949482Y-35325812D01*
X91069180Y-35289502D01*
X91179494Y-35230537D01*
X91276185Y-35151185D01*
X91355537Y-35054494D01*
X91414502Y-34944180D01*
X91450812Y-34824482D01*
X91463072Y-34700000D01*
X91460000Y-34285750D01*
X91301250Y-34127000D01*
X90377000Y-34127000D01*
X90123000Y-34127000D01*
X90103000Y-34127000D01*
X90103000Y-33873000D01*
X90123000Y-33873000D01*
X90123000Y-32823750D01*
X90377000Y-32823750D01*
X90377000Y-33873000D01*
X91301250Y-33873000D01*
X91460000Y-33714250D01*
X91461218Y-33549999D01*
X98761928Y-33549999D01*
X98761928Y-34450001D01*
X98778992Y-34623255D01*
X98829528Y-34789851D01*
X98911595Y-34943387D01*
X99022038Y-35077962D01*
X99046293Y-35097867D01*
X99004774Y-35198102D01*
X98965000Y-35398061D01*
X98965000Y-35601939D01*
X99004774Y-35801898D01*
X99082795Y-35990256D01*
X99196063Y-36159774D01*
X99340226Y-36303937D01*
X99509744Y-36417205D01*
X99698102Y-36495226D01*
X99898061Y-36535000D01*
X100101939Y-36535000D01*
X100301898Y-36495226D01*
X100490256Y-36417205D01*
X100659774Y-36303937D01*
X100803937Y-36159774D01*
X100917205Y-35990256D01*
X100995226Y-35801898D01*
X101035000Y-35601939D01*
X101035000Y-35398061D01*
X100995226Y-35198102D01*
X100952330Y-35094543D01*
X100998815Y-35151185D01*
X101095506Y-35230537D01*
X101205820Y-35289502D01*
X101325518Y-35325812D01*
X101450000Y-35338072D01*
X101739250Y-35335000D01*
X101898000Y-35176250D01*
X101898000Y-34127000D01*
X102152000Y-34127000D01*
X102152000Y-35176250D01*
X102310750Y-35335000D01*
X102600000Y-35338072D01*
X102724482Y-35325812D01*
X102844180Y-35289502D01*
X102954494Y-35230537D01*
X103051185Y-35151185D01*
X103130537Y-35054494D01*
X103189502Y-34944180D01*
X103225812Y-34824482D01*
X103238072Y-34700000D01*
X103235000Y-34285750D01*
X103076250Y-34127000D01*
X102152000Y-34127000D01*
X101898000Y-34127000D01*
X101878000Y-34127000D01*
X101878000Y-33898061D01*
X109465000Y-33898061D01*
X109465000Y-34101939D01*
X109504774Y-34301898D01*
X109582795Y-34490256D01*
X109696063Y-34659774D01*
X109840226Y-34803937D01*
X110009744Y-34917205D01*
X110198102Y-34995226D01*
X110398061Y-35035000D01*
X110601939Y-35035000D01*
X110801898Y-34995226D01*
X110934864Y-34940149D01*
X110936595Y-34943387D01*
X111047038Y-35077962D01*
X111181613Y-35188405D01*
X111335149Y-35270472D01*
X111501745Y-35321008D01*
X111674999Y-35338072D01*
X112325001Y-35338072D01*
X112498255Y-35321008D01*
X112664851Y-35270472D01*
X112818387Y-35188405D01*
X112952962Y-35077962D01*
X112958342Y-35071406D01*
X113023815Y-35151185D01*
X113120506Y-35230537D01*
X113230820Y-35289502D01*
X113350518Y-35325812D01*
X113475000Y-35338072D01*
X113764250Y-35335000D01*
X113923000Y-35176250D01*
X113923000Y-34127000D01*
X114177000Y-34127000D01*
X114177000Y-35176250D01*
X114335750Y-35335000D01*
X114625000Y-35338072D01*
X114749482Y-35325812D01*
X114869180Y-35289502D01*
X114979494Y-35230537D01*
X115076185Y-35151185D01*
X115155537Y-35054494D01*
X115214502Y-34944180D01*
X115250812Y-34824482D01*
X115263072Y-34700000D01*
X115260000Y-34285750D01*
X115101250Y-34127000D01*
X114177000Y-34127000D01*
X113923000Y-34127000D01*
X113903000Y-34127000D01*
X113903000Y-33873000D01*
X113923000Y-33873000D01*
X113923000Y-32823750D01*
X114177000Y-32823750D01*
X114177000Y-33873000D01*
X115101250Y-33873000D01*
X115260000Y-33714250D01*
X115263072Y-33300000D01*
X115250812Y-33175518D01*
X115214502Y-33055820D01*
X115155537Y-32945506D01*
X115076185Y-32848815D01*
X114979494Y-32769463D01*
X114869180Y-32710498D01*
X114749482Y-32674188D01*
X114625000Y-32661928D01*
X114335750Y-32665000D01*
X114177000Y-32823750D01*
X113923000Y-32823750D01*
X113764250Y-32665000D01*
X113475000Y-32661928D01*
X113350518Y-32674188D01*
X113230820Y-32710498D01*
X113120506Y-32769463D01*
X113023815Y-32848815D01*
X112958342Y-32928594D01*
X112952962Y-32922038D01*
X112818387Y-32811595D01*
X112664851Y-32729528D01*
X112498255Y-32678992D01*
X112325001Y-32661928D01*
X111674999Y-32661928D01*
X111501745Y-32678992D01*
X111335149Y-32729528D01*
X111181613Y-32811595D01*
X111047038Y-32922038D01*
X110936595Y-33056613D01*
X110934864Y-33059851D01*
X110801898Y-33004774D01*
X110601939Y-32965000D01*
X110398061Y-32965000D01*
X110198102Y-33004774D01*
X110009744Y-33082795D01*
X109840226Y-33196063D01*
X109696063Y-33340226D01*
X109582795Y-33509744D01*
X109504774Y-33698102D01*
X109465000Y-33898061D01*
X101878000Y-33898061D01*
X101878000Y-33873000D01*
X101898000Y-33873000D01*
X101898000Y-32823750D01*
X102152000Y-32823750D01*
X102152000Y-33873000D01*
X103076250Y-33873000D01*
X103235000Y-33714250D01*
X103238072Y-33300000D01*
X103225812Y-33175518D01*
X103189502Y-33055820D01*
X103130537Y-32945506D01*
X103051185Y-32848815D01*
X102954494Y-32769463D01*
X102844180Y-32710498D01*
X102724482Y-32674188D01*
X102600000Y-32661928D01*
X102310750Y-32665000D01*
X102152000Y-32823750D01*
X101898000Y-32823750D01*
X101739250Y-32665000D01*
X101450000Y-32661928D01*
X101325518Y-32674188D01*
X101205820Y-32710498D01*
X101095506Y-32769463D01*
X100998815Y-32848815D01*
X100933342Y-32928594D01*
X100927962Y-32922038D01*
X100793387Y-32811595D01*
X100639851Y-32729528D01*
X100473255Y-32678992D01*
X100300001Y-32661928D01*
X99649999Y-32661928D01*
X99476745Y-32678992D01*
X99310149Y-32729528D01*
X99156613Y-32811595D01*
X99022038Y-32922038D01*
X98911595Y-33056613D01*
X98829528Y-33210149D01*
X98778992Y-33376745D01*
X98761928Y-33549999D01*
X91461218Y-33549999D01*
X91463072Y-33300000D01*
X91450812Y-33175518D01*
X91414502Y-33055820D01*
X91355537Y-32945506D01*
X91276185Y-32848815D01*
X91179494Y-32769463D01*
X91069180Y-32710498D01*
X90949482Y-32674188D01*
X90825000Y-32661928D01*
X90535750Y-32665000D01*
X90377000Y-32823750D01*
X90123000Y-32823750D01*
X89964250Y-32665000D01*
X89675000Y-32661928D01*
X89550518Y-32674188D01*
X89430820Y-32710498D01*
X89320506Y-32769463D01*
X89223815Y-32848815D01*
X89158342Y-32928594D01*
X89152962Y-32922038D01*
X89018387Y-32811595D01*
X88864851Y-32729528D01*
X88698255Y-32678992D01*
X88525001Y-32661928D01*
X87874999Y-32661928D01*
X87701745Y-32678992D01*
X87535149Y-32729528D01*
X87381613Y-32811595D01*
X87247038Y-32922038D01*
X87136595Y-33056613D01*
X87054528Y-33210149D01*
X87003992Y-33376745D01*
X86986928Y-33549999D01*
X86986928Y-34450001D01*
X87003992Y-34623255D01*
X87054528Y-34789851D01*
X87136595Y-34943387D01*
X87247038Y-35077962D01*
X87381613Y-35188405D01*
X87535149Y-35270472D01*
X87587236Y-35286272D01*
X87565000Y-35398061D01*
X87565000Y-35601939D01*
X87581727Y-35686030D01*
X87551185Y-35648815D01*
X87454494Y-35569463D01*
X87344180Y-35510498D01*
X87224482Y-35474188D01*
X87100000Y-35461928D01*
X86835750Y-35465000D01*
X86677000Y-35623750D01*
X86423000Y-35623750D01*
X86264250Y-35465000D01*
X86000000Y-35461928D01*
X85875518Y-35474188D01*
X85755820Y-35510498D01*
X85645506Y-35569463D01*
X85548815Y-35648815D01*
X85469463Y-35745506D01*
X85410498Y-35855820D01*
X85374188Y-35975518D01*
X85361928Y-36100000D01*
X79660000Y-36100000D01*
X79660000Y-30660000D01*
X122340000Y-30660000D01*
X122340001Y-69340000D01*
G04 #@! TA.AperFunction,Conductor*
D17*
G36*
X122340001Y-69340000D02*
G01*
X79660000Y-69340000D01*
X79660000Y-66000000D01*
X85411928Y-66000000D01*
X85424188Y-66124482D01*
X85460498Y-66244180D01*
X85519463Y-66354494D01*
X85598815Y-66451185D01*
X85695506Y-66530537D01*
X85805820Y-66589502D01*
X85925518Y-66625812D01*
X86050000Y-66638072D01*
X86314250Y-66635000D01*
X86473000Y-66476250D01*
X86473000Y-65227000D01*
X86727000Y-65227000D01*
X86727000Y-66476250D01*
X86885750Y-66635000D01*
X87150000Y-66638072D01*
X87274482Y-66625812D01*
X87394180Y-66589502D01*
X87504494Y-66530537D01*
X87601185Y-66451185D01*
X87680537Y-66354494D01*
X87739502Y-66244180D01*
X87775812Y-66124482D01*
X87788072Y-66000000D01*
X87785000Y-65385750D01*
X87626250Y-65227000D01*
X86727000Y-65227000D01*
X86473000Y-65227000D01*
X85573750Y-65227000D01*
X85415000Y-65385750D01*
X85411928Y-66000000D01*
X79660000Y-66000000D01*
X79660000Y-64200000D01*
X85411928Y-64200000D01*
X85415000Y-64814250D01*
X85573750Y-64973000D01*
X86473000Y-64973000D01*
X86473000Y-63723750D01*
X86727000Y-63723750D01*
X86727000Y-64973000D01*
X87626250Y-64973000D01*
X87785000Y-64814250D01*
X87788072Y-64200000D01*
X87775812Y-64075518D01*
X87739502Y-63955820D01*
X87680537Y-63845506D01*
X87601185Y-63748815D01*
X87504494Y-63669463D01*
X87394180Y-63610498D01*
X87274482Y-63574188D01*
X87150000Y-63561928D01*
X86885750Y-63565000D01*
X86727000Y-63723750D01*
X86473000Y-63723750D01*
X86314250Y-63565000D01*
X86050000Y-63561928D01*
X85925518Y-63574188D01*
X85805820Y-63610498D01*
X85695506Y-63669463D01*
X85598815Y-63748815D01*
X85519463Y-63845506D01*
X85460498Y-63955820D01*
X85424188Y-64075518D01*
X85411928Y-64200000D01*
X79660000Y-64200000D01*
X79660000Y-62500000D01*
X85011928Y-62500000D01*
X85024188Y-62624482D01*
X85060498Y-62744180D01*
X85119463Y-62854494D01*
X85198815Y-62951185D01*
X85295506Y-63030537D01*
X85405820Y-63089502D01*
X85525518Y-63125812D01*
X85650000Y-63138072D01*
X85664250Y-63135000D01*
X85823000Y-62976250D01*
X85823000Y-62127000D01*
X86077000Y-62127000D01*
X86077000Y-62976250D01*
X86235750Y-63135000D01*
X86250000Y-63138072D01*
X86374482Y-63125812D01*
X86494180Y-63089502D01*
X86604494Y-63030537D01*
X86701185Y-62951185D01*
X86780537Y-62854494D01*
X86839502Y-62744180D01*
X86875812Y-62624482D01*
X86888072Y-62500000D01*
X86885000Y-62285750D01*
X86726250Y-62127000D01*
X86077000Y-62127000D01*
X85823000Y-62127000D01*
X85173750Y-62127000D01*
X85015000Y-62285750D01*
X85011928Y-62500000D01*
X79660000Y-62500000D01*
X79660000Y-61500000D01*
X85011928Y-61500000D01*
X85015000Y-61714250D01*
X85173750Y-61873000D01*
X85823000Y-61873000D01*
X85823000Y-61023750D01*
X86077000Y-61023750D01*
X86077000Y-61873000D01*
X86726250Y-61873000D01*
X86885000Y-61714250D01*
X86888072Y-61500000D01*
X86875812Y-61375518D01*
X86839502Y-61255820D01*
X86780537Y-61145506D01*
X86701185Y-61048815D01*
X86604494Y-60969463D01*
X86494180Y-60910498D01*
X86374482Y-60874188D01*
X86250000Y-60861928D01*
X86235750Y-60865000D01*
X86077000Y-61023750D01*
X85823000Y-61023750D01*
X85664250Y-60865000D01*
X85650000Y-60861928D01*
X85525518Y-60874188D01*
X85405820Y-60910498D01*
X85295506Y-60969463D01*
X85198815Y-61048815D01*
X85119463Y-61145506D01*
X85060498Y-61255820D01*
X85024188Y-61375518D01*
X85011928Y-61500000D01*
X79660000Y-61500000D01*
X79660000Y-59800000D01*
X85411928Y-59800000D01*
X85424188Y-59924482D01*
X85460498Y-60044180D01*
X85519463Y-60154494D01*
X85598815Y-60251185D01*
X85695506Y-60330537D01*
X85805820Y-60389502D01*
X85925518Y-60425812D01*
X86050000Y-60438072D01*
X86314250Y-60435000D01*
X86473000Y-60276250D01*
X86473000Y-59027000D01*
X86727000Y-59027000D01*
X86727000Y-60276250D01*
X86885750Y-60435000D01*
X87150000Y-60438072D01*
X87274482Y-60425812D01*
X87394180Y-60389502D01*
X87504494Y-60330537D01*
X87601185Y-60251185D01*
X87680537Y-60154494D01*
X87739502Y-60044180D01*
X87775812Y-59924482D01*
X87788072Y-59800000D01*
X87787822Y-59750000D01*
X88986324Y-59750000D01*
X88990000Y-59787323D01*
X88990001Y-64787333D01*
X89000998Y-64898986D01*
X89044455Y-65042247D01*
X89111928Y-65168478D01*
X89111928Y-66000000D01*
X89124188Y-66124482D01*
X89160498Y-66244180D01*
X89219463Y-66354494D01*
X89298815Y-66451185D01*
X89395506Y-66530537D01*
X89505820Y-66589502D01*
X89625518Y-66625812D01*
X89750000Y-66638072D01*
X90850000Y-66638072D01*
X90974482Y-66625812D01*
X91094180Y-66589502D01*
X91204494Y-66530537D01*
X91301185Y-66451185D01*
X91380537Y-66354494D01*
X91439502Y-66244180D01*
X91475812Y-66124482D01*
X91488072Y-66000000D01*
X91488072Y-65900000D01*
X93411928Y-65900000D01*
X93424188Y-66024482D01*
X93460498Y-66144180D01*
X93519463Y-66254494D01*
X93598815Y-66351185D01*
X93695506Y-66430537D01*
X93805820Y-66489502D01*
X93925518Y-66525812D01*
X94050000Y-66538072D01*
X94464250Y-66535000D01*
X94623000Y-66376250D01*
X94623000Y-65452000D01*
X94877000Y-65452000D01*
X94877000Y-66376250D01*
X95035750Y-66535000D01*
X95450000Y-66538072D01*
X95574482Y-66525812D01*
X95694180Y-66489502D01*
X95804494Y-66430537D01*
X95901185Y-66351185D01*
X95980537Y-66254494D01*
X96000000Y-66218082D01*
X96019463Y-66254494D01*
X96098815Y-66351185D01*
X96195506Y-66430537D01*
X96305820Y-66489502D01*
X96425518Y-66525812D01*
X96550000Y-66538072D01*
X96964250Y-66535000D01*
X97123000Y-66376250D01*
X97123000Y-65452000D01*
X97377000Y-65452000D01*
X97377000Y-66376250D01*
X97535750Y-66535000D01*
X97950000Y-66538072D01*
X98074482Y-66525812D01*
X98194180Y-66489502D01*
X98304494Y-66430537D01*
X98401185Y-66351185D01*
X98480537Y-66254494D01*
X98500000Y-66218082D01*
X98519463Y-66254494D01*
X98598815Y-66351185D01*
X98695506Y-66430537D01*
X98805820Y-66489502D01*
X98925518Y-66525812D01*
X99050000Y-66538072D01*
X99464250Y-66535000D01*
X99623000Y-66376250D01*
X99623000Y-65452000D01*
X99877000Y-65452000D01*
X99877000Y-66376250D01*
X100035750Y-66535000D01*
X100450000Y-66538072D01*
X100574482Y-66525812D01*
X100694180Y-66489502D01*
X100804494Y-66430537D01*
X100901185Y-66351185D01*
X100980537Y-66254494D01*
X101000000Y-66218082D01*
X101019463Y-66254494D01*
X101098815Y-66351185D01*
X101195506Y-66430537D01*
X101305820Y-66489502D01*
X101425518Y-66525812D01*
X101550000Y-66538072D01*
X101964250Y-66535000D01*
X102123000Y-66376250D01*
X102123000Y-65452000D01*
X102377000Y-65452000D01*
X102377000Y-66376250D01*
X102535750Y-66535000D01*
X102950000Y-66538072D01*
X103074482Y-66525812D01*
X103194180Y-66489502D01*
X103304494Y-66430537D01*
X103401185Y-66351185D01*
X103480537Y-66254494D01*
X103500000Y-66218082D01*
X103519463Y-66254494D01*
X103598815Y-66351185D01*
X103695506Y-66430537D01*
X103805820Y-66489502D01*
X103925518Y-66525812D01*
X104050000Y-66538072D01*
X104464250Y-66535000D01*
X104623000Y-66376250D01*
X104623000Y-65452000D01*
X104877000Y-65452000D01*
X104877000Y-66376250D01*
X105035750Y-66535000D01*
X105450000Y-66538072D01*
X105574482Y-66525812D01*
X105694180Y-66489502D01*
X105804494Y-66430537D01*
X105901185Y-66351185D01*
X105980537Y-66254494D01*
X105993319Y-66230582D01*
X106019463Y-66279494D01*
X106098815Y-66376185D01*
X106195506Y-66455537D01*
X106305820Y-66514502D01*
X106425518Y-66550812D01*
X106550000Y-66563072D01*
X106964250Y-66560000D01*
X107123000Y-66401250D01*
X107123000Y-65477000D01*
X107377000Y-65477000D01*
X107377000Y-66401250D01*
X107535750Y-66560000D01*
X107950000Y-66563072D01*
X108074482Y-66550812D01*
X108194180Y-66514502D01*
X108304494Y-66455537D01*
X108401185Y-66376185D01*
X108480537Y-66279494D01*
X108539502Y-66169180D01*
X108575812Y-66049482D01*
X108588072Y-65925000D01*
X108585000Y-65635750D01*
X108426250Y-65477000D01*
X107377000Y-65477000D01*
X107123000Y-65477000D01*
X106073750Y-65477000D01*
X106012500Y-65538250D01*
X105926250Y-65452000D01*
X104877000Y-65452000D01*
X104623000Y-65452000D01*
X103573750Y-65452000D01*
X103500000Y-65525750D01*
X103426250Y-65452000D01*
X102377000Y-65452000D01*
X102123000Y-65452000D01*
X101073750Y-65452000D01*
X101000000Y-65525750D01*
X100926250Y-65452000D01*
X99877000Y-65452000D01*
X99623000Y-65452000D01*
X98573750Y-65452000D01*
X98500000Y-65525750D01*
X98426250Y-65452000D01*
X97377000Y-65452000D01*
X97123000Y-65452000D01*
X96073750Y-65452000D01*
X96000000Y-65525750D01*
X95926250Y-65452000D01*
X94877000Y-65452000D01*
X94623000Y-65452000D01*
X93573750Y-65452000D01*
X93415000Y-65610750D01*
X93411928Y-65900000D01*
X91488072Y-65900000D01*
X91488072Y-64200000D01*
X91475812Y-64075518D01*
X91439502Y-63955820D01*
X91380537Y-63845506D01*
X91301185Y-63748815D01*
X91204494Y-63669463D01*
X91094180Y-63610498D01*
X90974482Y-63574188D01*
X90850000Y-63561928D01*
X90510000Y-63561928D01*
X90510000Y-63121105D01*
X90525518Y-63125812D01*
X90650000Y-63138072D01*
X90664250Y-63135000D01*
X90823000Y-62976250D01*
X90823000Y-62127000D01*
X91077000Y-62127000D01*
X91077000Y-62976250D01*
X91235750Y-63135000D01*
X91250000Y-63138072D01*
X91374482Y-63125812D01*
X91494180Y-63089502D01*
X91604494Y-63030537D01*
X91701185Y-62951185D01*
X91702158Y-62949999D01*
X93411928Y-62949999D01*
X93411928Y-63600001D01*
X93428992Y-63773255D01*
X93479528Y-63939851D01*
X93561595Y-64093387D01*
X93672038Y-64227962D01*
X93678594Y-64233342D01*
X93598815Y-64298815D01*
X93519463Y-64395506D01*
X93460498Y-64505820D01*
X93424188Y-64625518D01*
X93411928Y-64750000D01*
X93415000Y-65039250D01*
X93573750Y-65198000D01*
X94623000Y-65198000D01*
X94623000Y-65178000D01*
X94877000Y-65178000D01*
X94877000Y-65198000D01*
X95926250Y-65198000D01*
X96000000Y-65124250D01*
X96073750Y-65198000D01*
X97123000Y-65198000D01*
X97123000Y-65178000D01*
X97377000Y-65178000D01*
X97377000Y-65198000D01*
X98426250Y-65198000D01*
X98500000Y-65124250D01*
X98573750Y-65198000D01*
X99623000Y-65198000D01*
X99623000Y-65178000D01*
X99877000Y-65178000D01*
X99877000Y-65198000D01*
X100926250Y-65198000D01*
X101000000Y-65124250D01*
X101073750Y-65198000D01*
X102123000Y-65198000D01*
X102123000Y-65178000D01*
X102377000Y-65178000D01*
X102377000Y-65198000D01*
X103426250Y-65198000D01*
X103500000Y-65124250D01*
X103573750Y-65198000D01*
X104623000Y-65198000D01*
X104623000Y-65178000D01*
X104877000Y-65178000D01*
X104877000Y-65198000D01*
X105926250Y-65198000D01*
X105987500Y-65136750D01*
X106073750Y-65223000D01*
X107123000Y-65223000D01*
X107123000Y-65203000D01*
X107377000Y-65203000D01*
X107377000Y-65223000D01*
X108426250Y-65223000D01*
X108585000Y-65064250D01*
X108588072Y-64775000D01*
X108575812Y-64650518D01*
X108539502Y-64530820D01*
X108480537Y-64420506D01*
X108401185Y-64323815D01*
X108321406Y-64258342D01*
X108327962Y-64252962D01*
X108438405Y-64118387D01*
X108520472Y-63964851D01*
X108571008Y-63798255D01*
X108588072Y-63625001D01*
X108588072Y-62974999D01*
X108571008Y-62801745D01*
X108520472Y-62635149D01*
X108448234Y-62500000D01*
X110111928Y-62500000D01*
X110124188Y-62624482D01*
X110160498Y-62744180D01*
X110219463Y-62854494D01*
X110298815Y-62951185D01*
X110395506Y-63030537D01*
X110505820Y-63089502D01*
X110625518Y-63125812D01*
X110750000Y-63138072D01*
X110764250Y-63135000D01*
X110923000Y-62976250D01*
X110923000Y-62127000D01*
X110273750Y-62127000D01*
X110115000Y-62285750D01*
X110111928Y-62500000D01*
X108448234Y-62500000D01*
X108438405Y-62481613D01*
X108327962Y-62347038D01*
X108249118Y-62282332D01*
X108285000Y-62101939D01*
X108285000Y-61898061D01*
X108245226Y-61698102D01*
X108167205Y-61509744D01*
X108160695Y-61500000D01*
X110111928Y-61500000D01*
X110115000Y-61714250D01*
X110273750Y-61873000D01*
X110923000Y-61873000D01*
X110923000Y-61023750D01*
X110764250Y-60865000D01*
X110750000Y-60861928D01*
X110625518Y-60874188D01*
X110505820Y-60910498D01*
X110395506Y-60969463D01*
X110298815Y-61048815D01*
X110219463Y-61145506D01*
X110160498Y-61255820D01*
X110124188Y-61375518D01*
X110111928Y-61500000D01*
X108160695Y-61500000D01*
X108053937Y-61340226D01*
X107909774Y-61196063D01*
X107740256Y-61082795D01*
X107551898Y-61004774D01*
X107351939Y-60965000D01*
X107148061Y-60965000D01*
X106948102Y-61004774D01*
X106759744Y-61082795D01*
X106590226Y-61196063D01*
X106446063Y-61340226D01*
X106332795Y-61509744D01*
X106254774Y-61698102D01*
X106215000Y-61898061D01*
X106215000Y-62101939D01*
X106250882Y-62282332D01*
X106172038Y-62347038D01*
X106061595Y-62481613D01*
X106006681Y-62584349D01*
X105938405Y-62456613D01*
X105827962Y-62322038D01*
X105753393Y-62260841D01*
X105785000Y-62101939D01*
X105785000Y-61898061D01*
X105745226Y-61698102D01*
X105667205Y-61509744D01*
X105553937Y-61340226D01*
X105409774Y-61196063D01*
X105240256Y-61082795D01*
X105051898Y-61004774D01*
X104851939Y-60965000D01*
X104648061Y-60965000D01*
X104448102Y-61004774D01*
X104259744Y-61082795D01*
X104090226Y-61196063D01*
X103946063Y-61340226D01*
X103832795Y-61509744D01*
X103754774Y-61698102D01*
X103715000Y-61898061D01*
X103715000Y-62101939D01*
X103746607Y-62260841D01*
X103672038Y-62322038D01*
X103561595Y-62456613D01*
X103500000Y-62571849D01*
X103438405Y-62456613D01*
X103327962Y-62322038D01*
X103253393Y-62260841D01*
X103285000Y-62101939D01*
X103285000Y-61898061D01*
X103245226Y-61698102D01*
X103167205Y-61509744D01*
X103053937Y-61340226D01*
X102909774Y-61196063D01*
X102740256Y-61082795D01*
X102551898Y-61004774D01*
X102351939Y-60965000D01*
X102148061Y-60965000D01*
X101948102Y-61004774D01*
X101759744Y-61082795D01*
X101590226Y-61196063D01*
X101446063Y-61340226D01*
X101332795Y-61509744D01*
X101254774Y-61698102D01*
X101215000Y-61898061D01*
X101215000Y-62101939D01*
X101246607Y-62260841D01*
X101172038Y-62322038D01*
X101061595Y-62456613D01*
X101000000Y-62571849D01*
X100938405Y-62456613D01*
X100827962Y-62322038D01*
X100753393Y-62260841D01*
X100785000Y-62101939D01*
X100785000Y-61898061D01*
X100745226Y-61698102D01*
X100667205Y-61509744D01*
X100553937Y-61340226D01*
X100409774Y-61196063D01*
X100240256Y-61082795D01*
X100051898Y-61004774D01*
X99851939Y-60965000D01*
X99648061Y-60965000D01*
X99448102Y-61004774D01*
X99259744Y-61082795D01*
X99090226Y-61196063D01*
X98946063Y-61340226D01*
X98832795Y-61509744D01*
X98754774Y-61698102D01*
X98715000Y-61898061D01*
X98715000Y-62101939D01*
X98746607Y-62260841D01*
X98672038Y-62322038D01*
X98561595Y-62456613D01*
X98500000Y-62571849D01*
X98438405Y-62456613D01*
X98327962Y-62322038D01*
X98253393Y-62260841D01*
X98285000Y-62101939D01*
X98285000Y-61898061D01*
X98245226Y-61698102D01*
X98167205Y-61509744D01*
X98053937Y-61340226D01*
X97909774Y-61196063D01*
X97740256Y-61082795D01*
X97551898Y-61004774D01*
X97351939Y-60965000D01*
X97148061Y-60965000D01*
X96948102Y-61004774D01*
X96759744Y-61082795D01*
X96590226Y-61196063D01*
X96446063Y-61340226D01*
X96332795Y-61509744D01*
X96254774Y-61698102D01*
X96215000Y-61898061D01*
X96215000Y-62101939D01*
X96246607Y-62260841D01*
X96172038Y-62322038D01*
X96061595Y-62456613D01*
X96000000Y-62571849D01*
X95938405Y-62456613D01*
X95827962Y-62322038D01*
X95753393Y-62260841D01*
X95785000Y-62101939D01*
X95785000Y-61898061D01*
X95745226Y-61698102D01*
X95667205Y-61509744D01*
X95553937Y-61340226D01*
X95409774Y-61196063D01*
X95240256Y-61082795D01*
X95051898Y-61004774D01*
X94851939Y-60965000D01*
X94648061Y-60965000D01*
X94448102Y-61004774D01*
X94259744Y-61082795D01*
X94090226Y-61196063D01*
X93946063Y-61340226D01*
X93832795Y-61509744D01*
X93754774Y-61698102D01*
X93715000Y-61898061D01*
X93715000Y-62101939D01*
X93746607Y-62260841D01*
X93672038Y-62322038D01*
X93561595Y-62456613D01*
X93479528Y-62610149D01*
X93428992Y-62776745D01*
X93411928Y-62949999D01*
X91702158Y-62949999D01*
X91780537Y-62854494D01*
X91839502Y-62744180D01*
X91875812Y-62624482D01*
X91888072Y-62500000D01*
X91885000Y-62285750D01*
X91726250Y-62127000D01*
X91077000Y-62127000D01*
X90823000Y-62127000D01*
X90803000Y-62127000D01*
X90803000Y-61873000D01*
X90823000Y-61873000D01*
X90823000Y-61023750D01*
X91077000Y-61023750D01*
X91077000Y-61873000D01*
X91726250Y-61873000D01*
X91885000Y-61714250D01*
X91888072Y-61500000D01*
X91875812Y-61375518D01*
X91839502Y-61255820D01*
X91780537Y-61145506D01*
X91701185Y-61048815D01*
X91604494Y-60969463D01*
X91494180Y-60910498D01*
X91374482Y-60874188D01*
X91250000Y-60861928D01*
X91235750Y-60865000D01*
X91077000Y-61023750D01*
X90823000Y-61023750D01*
X90664250Y-60865000D01*
X90650000Y-60861928D01*
X90525518Y-60874188D01*
X90510000Y-60878895D01*
X90510000Y-60438072D01*
X90850000Y-60438072D01*
X90974482Y-60425812D01*
X91094180Y-60389502D01*
X91204494Y-60330537D01*
X91301185Y-60251185D01*
X91380537Y-60154494D01*
X91439502Y-60044180D01*
X91475812Y-59924482D01*
X91488072Y-59800000D01*
X91488072Y-58836730D01*
X91761003Y-58563799D01*
X91790001Y-58540001D01*
X91855657Y-58459999D01*
X91884974Y-58424277D01*
X91955546Y-58292247D01*
X91957744Y-58285000D01*
X91999003Y-58148986D01*
X92010000Y-58037333D01*
X92010000Y-58037323D01*
X92013676Y-58000000D01*
X92010000Y-57962677D01*
X92010000Y-57953711D01*
X92053937Y-57909774D01*
X92167205Y-57740256D01*
X92245226Y-57551898D01*
X92285000Y-57351939D01*
X92285000Y-57148061D01*
X92245226Y-56948102D01*
X92167205Y-56759744D01*
X92053937Y-56590226D01*
X91909774Y-56446063D01*
X91740256Y-56332795D01*
X91551898Y-56254774D01*
X91351939Y-56215000D01*
X91148061Y-56215000D01*
X90948102Y-56254774D01*
X90759744Y-56332795D01*
X90590226Y-56446063D01*
X90446063Y-56590226D01*
X90332795Y-56759744D01*
X90254774Y-56948102D01*
X90215000Y-57148061D01*
X90215000Y-57351939D01*
X90216987Y-57361928D01*
X89750000Y-57361928D01*
X89625518Y-57374188D01*
X89505820Y-57410498D01*
X89395506Y-57469463D01*
X89298815Y-57548815D01*
X89219463Y-57645506D01*
X89160498Y-57755820D01*
X89124188Y-57875518D01*
X89111928Y-58000000D01*
X89111928Y-59331520D01*
X89044455Y-59457753D01*
X89044454Y-59457754D01*
X89000997Y-59601015D01*
X88990000Y-59712668D01*
X88990000Y-59712678D01*
X88986324Y-59750000D01*
X87787822Y-59750000D01*
X87785000Y-59185750D01*
X87626250Y-59027000D01*
X86727000Y-59027000D01*
X86473000Y-59027000D01*
X85573750Y-59027000D01*
X85415000Y-59185750D01*
X85411928Y-59800000D01*
X79660000Y-59800000D01*
X79660000Y-58000000D01*
X85411928Y-58000000D01*
X85415000Y-58614250D01*
X85573750Y-58773000D01*
X86473000Y-58773000D01*
X86473000Y-57523750D01*
X86727000Y-57523750D01*
X86727000Y-58773000D01*
X87626250Y-58773000D01*
X87785000Y-58614250D01*
X87788072Y-58000000D01*
X87775812Y-57875518D01*
X87739502Y-57755820D01*
X87680537Y-57645506D01*
X87601185Y-57548815D01*
X87504494Y-57469463D01*
X87394180Y-57410498D01*
X87274482Y-57374188D01*
X87150000Y-57361928D01*
X86885750Y-57365000D01*
X86727000Y-57523750D01*
X86473000Y-57523750D01*
X86314250Y-57365000D01*
X86050000Y-57361928D01*
X85925518Y-57374188D01*
X85805820Y-57410498D01*
X85695506Y-57469463D01*
X85598815Y-57548815D01*
X85519463Y-57645506D01*
X85460498Y-57755820D01*
X85424188Y-57875518D01*
X85411928Y-58000000D01*
X79660000Y-58000000D01*
X79660000Y-52648061D01*
X104465000Y-52648061D01*
X104465000Y-52851939D01*
X104504774Y-53051898D01*
X104582795Y-53240256D01*
X104696063Y-53409774D01*
X104840226Y-53553937D01*
X105009744Y-53667205D01*
X105198102Y-53745226D01*
X105398061Y-53785000D01*
X105460199Y-53785000D01*
X110511928Y-58836730D01*
X110511928Y-59800000D01*
X110524188Y-59924482D01*
X110560498Y-60044180D01*
X110619463Y-60154494D01*
X110698815Y-60251185D01*
X110795506Y-60330537D01*
X110905820Y-60389502D01*
X111025518Y-60425812D01*
X111150000Y-60438072D01*
X111740000Y-60438072D01*
X111740000Y-60998602D01*
X111704494Y-60969463D01*
X111594180Y-60910498D01*
X111474482Y-60874188D01*
X111350000Y-60861928D01*
X111335750Y-60865000D01*
X111177000Y-61023750D01*
X111177000Y-61873000D01*
X111197000Y-61873000D01*
X111197000Y-62127000D01*
X111177000Y-62127000D01*
X111177000Y-62976250D01*
X111335750Y-63135000D01*
X111350000Y-63138072D01*
X111474482Y-63125812D01*
X111594180Y-63089502D01*
X111704494Y-63030537D01*
X111740001Y-63001397D01*
X111740001Y-63561928D01*
X111150000Y-63561928D01*
X111025518Y-63574188D01*
X110905820Y-63610498D01*
X110795506Y-63669463D01*
X110698815Y-63748815D01*
X110619463Y-63845506D01*
X110560498Y-63955820D01*
X110524188Y-64075518D01*
X110511928Y-64200000D01*
X110511928Y-66000000D01*
X110524188Y-66124482D01*
X110560498Y-66244180D01*
X110619463Y-66354494D01*
X110698815Y-66451185D01*
X110795506Y-66530537D01*
X110905820Y-66589502D01*
X111025518Y-66625812D01*
X111150000Y-66638072D01*
X112250000Y-66638072D01*
X112374482Y-66625812D01*
X112494180Y-66589502D01*
X112604494Y-66530537D01*
X112701185Y-66451185D01*
X112780537Y-66354494D01*
X112839502Y-66244180D01*
X112875812Y-66124482D01*
X112888072Y-66000000D01*
X114211928Y-66000000D01*
X114224188Y-66124482D01*
X114260498Y-66244180D01*
X114319463Y-66354494D01*
X114398815Y-66451185D01*
X114495506Y-66530537D01*
X114605820Y-66589502D01*
X114725518Y-66625812D01*
X114850000Y-66638072D01*
X115114250Y-66635000D01*
X115273000Y-66476250D01*
X115273000Y-65227000D01*
X115527000Y-65227000D01*
X115527000Y-66476250D01*
X115685750Y-66635000D01*
X115950000Y-66638072D01*
X116074482Y-66625812D01*
X116194180Y-66589502D01*
X116304494Y-66530537D01*
X116401185Y-66451185D01*
X116480537Y-66354494D01*
X116539502Y-66244180D01*
X116575812Y-66124482D01*
X116588072Y-66000000D01*
X116585000Y-65385750D01*
X116426250Y-65227000D01*
X115527000Y-65227000D01*
X115273000Y-65227000D01*
X114373750Y-65227000D01*
X114215000Y-65385750D01*
X114211928Y-66000000D01*
X112888072Y-66000000D01*
X112888072Y-64686730D01*
X113011002Y-64563799D01*
X113040001Y-64540001D01*
X113134974Y-64424276D01*
X113205546Y-64292247D01*
X113233528Y-64200000D01*
X114211928Y-64200000D01*
X114215000Y-64814250D01*
X114373750Y-64973000D01*
X115273000Y-64973000D01*
X115273000Y-63723750D01*
X115527000Y-63723750D01*
X115527000Y-64973000D01*
X116426250Y-64973000D01*
X116585000Y-64814250D01*
X116588072Y-64200000D01*
X116575812Y-64075518D01*
X116539502Y-63955820D01*
X116480537Y-63845506D01*
X116401185Y-63748815D01*
X116304494Y-63669463D01*
X116194180Y-63610498D01*
X116074482Y-63574188D01*
X115950000Y-63561928D01*
X115685750Y-63565000D01*
X115527000Y-63723750D01*
X115273000Y-63723750D01*
X115114250Y-63565000D01*
X114850000Y-63561928D01*
X114725518Y-63574188D01*
X114605820Y-63610498D01*
X114495506Y-63669463D01*
X114398815Y-63748815D01*
X114319463Y-63845506D01*
X114260498Y-63955820D01*
X114224188Y-64075518D01*
X114211928Y-64200000D01*
X113233528Y-64200000D01*
X113249003Y-64148986D01*
X113260000Y-64037333D01*
X113260000Y-64037324D01*
X113263676Y-64000001D01*
X113260000Y-63962678D01*
X113260000Y-62500000D01*
X115111928Y-62500000D01*
X115124188Y-62624482D01*
X115160498Y-62744180D01*
X115219463Y-62854494D01*
X115298815Y-62951185D01*
X115395506Y-63030537D01*
X115505820Y-63089502D01*
X115625518Y-63125812D01*
X115750000Y-63138072D01*
X115764250Y-63135000D01*
X115923000Y-62976250D01*
X115923000Y-62127000D01*
X116177000Y-62127000D01*
X116177000Y-62976250D01*
X116335750Y-63135000D01*
X116350000Y-63138072D01*
X116474482Y-63125812D01*
X116594180Y-63089502D01*
X116704494Y-63030537D01*
X116801185Y-62951185D01*
X116880537Y-62854494D01*
X116939502Y-62744180D01*
X116975812Y-62624482D01*
X116988072Y-62500000D01*
X116985000Y-62285750D01*
X116826250Y-62127000D01*
X116177000Y-62127000D01*
X115923000Y-62127000D01*
X115273750Y-62127000D01*
X115115000Y-62285750D01*
X115111928Y-62500000D01*
X113260000Y-62500000D01*
X113260000Y-61500000D01*
X115111928Y-61500000D01*
X115115000Y-61714250D01*
X115273750Y-61873000D01*
X115923000Y-61873000D01*
X115923000Y-61023750D01*
X116177000Y-61023750D01*
X116177000Y-61873000D01*
X116826250Y-61873000D01*
X116985000Y-61714250D01*
X116988072Y-61500000D01*
X116975812Y-61375518D01*
X116939502Y-61255820D01*
X116880537Y-61145506D01*
X116801185Y-61048815D01*
X116704494Y-60969463D01*
X116594180Y-60910498D01*
X116474482Y-60874188D01*
X116350000Y-60861928D01*
X116335750Y-60865000D01*
X116177000Y-61023750D01*
X115923000Y-61023750D01*
X115764250Y-60865000D01*
X115750000Y-60861928D01*
X115625518Y-60874188D01*
X115505820Y-60910498D01*
X115395506Y-60969463D01*
X115298815Y-61048815D01*
X115219463Y-61145506D01*
X115160498Y-61255820D01*
X115124188Y-61375518D01*
X115111928Y-61500000D01*
X113260000Y-61500000D01*
X113260000Y-59800000D01*
X114211928Y-59800000D01*
X114224188Y-59924482D01*
X114260498Y-60044180D01*
X114319463Y-60154494D01*
X114398815Y-60251185D01*
X114495506Y-60330537D01*
X114605820Y-60389502D01*
X114725518Y-60425812D01*
X114850000Y-60438072D01*
X115114250Y-60435000D01*
X115273000Y-60276250D01*
X115273000Y-59027000D01*
X115527000Y-59027000D01*
X115527000Y-60276250D01*
X115685750Y-60435000D01*
X115950000Y-60438072D01*
X116074482Y-60425812D01*
X116194180Y-60389502D01*
X116304494Y-60330537D01*
X116401185Y-60251185D01*
X116480537Y-60154494D01*
X116539502Y-60044180D01*
X116575812Y-59924482D01*
X116588072Y-59800000D01*
X116585000Y-59185750D01*
X116426250Y-59027000D01*
X115527000Y-59027000D01*
X115273000Y-59027000D01*
X114373750Y-59027000D01*
X114215000Y-59185750D01*
X114211928Y-59800000D01*
X113260000Y-59800000D01*
X113260000Y-59787322D01*
X113263676Y-59749999D01*
X113260000Y-59712676D01*
X113260000Y-59712667D01*
X113249003Y-59601014D01*
X113205546Y-59457753D01*
X113134974Y-59325724D01*
X113040001Y-59209999D01*
X113011004Y-59186202D01*
X112888072Y-59063270D01*
X112888072Y-58000000D01*
X114211928Y-58000000D01*
X114215000Y-58614250D01*
X114373750Y-58773000D01*
X115273000Y-58773000D01*
X115273000Y-57523750D01*
X115527000Y-57523750D01*
X115527000Y-58773000D01*
X116426250Y-58773000D01*
X116585000Y-58614250D01*
X116588072Y-58000000D01*
X116575812Y-57875518D01*
X116539502Y-57755820D01*
X116480537Y-57645506D01*
X116401185Y-57548815D01*
X116304494Y-57469463D01*
X116194180Y-57410498D01*
X116074482Y-57374188D01*
X115950000Y-57361928D01*
X115685750Y-57365000D01*
X115527000Y-57523750D01*
X115273000Y-57523750D01*
X115114250Y-57365000D01*
X114850000Y-57361928D01*
X114725518Y-57374188D01*
X114605820Y-57410498D01*
X114495506Y-57469463D01*
X114398815Y-57548815D01*
X114319463Y-57645506D01*
X114260498Y-57755820D01*
X114224188Y-57875518D01*
X114211928Y-58000000D01*
X112888072Y-58000000D01*
X112875812Y-57875518D01*
X112839502Y-57755820D01*
X112780537Y-57645506D01*
X112701185Y-57548815D01*
X112604494Y-57469463D01*
X112494180Y-57410498D01*
X112374482Y-57374188D01*
X112250000Y-57361928D01*
X111186730Y-57361928D01*
X109008542Y-55183740D01*
X117265000Y-55183740D01*
X117265000Y-55476260D01*
X117322068Y-55763158D01*
X117434010Y-56033411D01*
X117596525Y-56276632D01*
X117803368Y-56483475D01*
X118046589Y-56645990D01*
X118316842Y-56757932D01*
X118603740Y-56815000D01*
X118896260Y-56815000D01*
X119183158Y-56757932D01*
X119453411Y-56645990D01*
X119696632Y-56483475D01*
X119903475Y-56276632D01*
X120065990Y-56033411D01*
X120177932Y-55763158D01*
X120235000Y-55476260D01*
X120235000Y-55183740D01*
X120177932Y-54896842D01*
X120065990Y-54626589D01*
X119903475Y-54383368D01*
X119696632Y-54176525D01*
X119514466Y-54054805D01*
X119631355Y-53985178D01*
X119847588Y-53790269D01*
X120021641Y-53556920D01*
X120146825Y-53294099D01*
X120191476Y-53146890D01*
X120070155Y-52917000D01*
X118877000Y-52917000D01*
X118877000Y-52937000D01*
X118623000Y-52937000D01*
X118623000Y-52917000D01*
X117429845Y-52917000D01*
X117308524Y-53146890D01*
X117353175Y-53294099D01*
X117478359Y-53556920D01*
X117652412Y-53790269D01*
X117868645Y-53985178D01*
X117985534Y-54054805D01*
X117803368Y-54176525D01*
X117596525Y-54383368D01*
X117434010Y-54626589D01*
X117322068Y-54896842D01*
X117265000Y-55183740D01*
X109008542Y-55183740D01*
X106535000Y-52710199D01*
X106535000Y-52648061D01*
X106495226Y-52448102D01*
X106417205Y-52259744D01*
X106303937Y-52090226D01*
X106159774Y-51946063D01*
X105990256Y-51832795D01*
X105801898Y-51754774D01*
X105601939Y-51715000D01*
X105398061Y-51715000D01*
X105198102Y-51754774D01*
X105009744Y-51832795D01*
X104840226Y-51946063D01*
X104696063Y-52090226D01*
X104582795Y-52259744D01*
X104504774Y-52448102D01*
X104465000Y-52648061D01*
X79660000Y-52648061D01*
X79660000Y-46700000D01*
X86986928Y-46700000D01*
X86999188Y-46824482D01*
X87035498Y-46944180D01*
X87094463Y-47054494D01*
X87173815Y-47151185D01*
X87270506Y-47230537D01*
X87380820Y-47289502D01*
X87500518Y-47325812D01*
X87625000Y-47338072D01*
X87914250Y-47335000D01*
X88073000Y-47176250D01*
X88073000Y-46127000D01*
X87148750Y-46127000D01*
X86990000Y-46285750D01*
X86986928Y-46700000D01*
X79660000Y-46700000D01*
X79660000Y-45300000D01*
X86986928Y-45300000D01*
X86990000Y-45714250D01*
X87148750Y-45873000D01*
X88073000Y-45873000D01*
X88073000Y-44823750D01*
X87914250Y-44665000D01*
X87625000Y-44661928D01*
X87500518Y-44674188D01*
X87380820Y-44710498D01*
X87270506Y-44769463D01*
X87173815Y-44848815D01*
X87094463Y-44945506D01*
X87035498Y-45055820D01*
X86999188Y-45175518D01*
X86986928Y-45300000D01*
X79660000Y-45300000D01*
X79660000Y-44100000D01*
X85361928Y-44100000D01*
X85374188Y-44224482D01*
X85410498Y-44344180D01*
X85469463Y-44454494D01*
X85548815Y-44551185D01*
X85645506Y-44630537D01*
X85755820Y-44689502D01*
X85875518Y-44725812D01*
X86000000Y-44738072D01*
X86264250Y-44735000D01*
X86423000Y-44576250D01*
X86423000Y-43327000D01*
X86677000Y-43327000D01*
X86677000Y-44576250D01*
X86835750Y-44735000D01*
X87100000Y-44738072D01*
X87224482Y-44725812D01*
X87344180Y-44689502D01*
X87454494Y-44630537D01*
X87551185Y-44551185D01*
X87630537Y-44454494D01*
X87689502Y-44344180D01*
X87725812Y-44224482D01*
X87738072Y-44100000D01*
X87735000Y-43485750D01*
X87576250Y-43327000D01*
X86677000Y-43327000D01*
X86423000Y-43327000D01*
X85523750Y-43327000D01*
X85365000Y-43485750D01*
X85361928Y-44100000D01*
X79660000Y-44100000D01*
X79660000Y-42300000D01*
X85361928Y-42300000D01*
X85365000Y-42914250D01*
X85523750Y-43073000D01*
X86423000Y-43073000D01*
X86423000Y-41823750D01*
X86677000Y-41823750D01*
X86677000Y-43073000D01*
X87576250Y-43073000D01*
X87735000Y-42914250D01*
X87738072Y-42300000D01*
X87725812Y-42175518D01*
X87689502Y-42055820D01*
X87630537Y-41945506D01*
X87551185Y-41848815D01*
X87454494Y-41769463D01*
X87344180Y-41710498D01*
X87224482Y-41674188D01*
X87100000Y-41661928D01*
X86835750Y-41665000D01*
X86677000Y-41823750D01*
X86423000Y-41823750D01*
X86264250Y-41665000D01*
X86000000Y-41661928D01*
X85875518Y-41674188D01*
X85755820Y-41710498D01*
X85645506Y-41769463D01*
X85548815Y-41848815D01*
X85469463Y-41945506D01*
X85410498Y-42055820D01*
X85374188Y-42175518D01*
X85361928Y-42300000D01*
X79660000Y-42300000D01*
X79660000Y-40600000D01*
X84961928Y-40600000D01*
X84974188Y-40724482D01*
X85010498Y-40844180D01*
X85069463Y-40954494D01*
X85148815Y-41051185D01*
X85245506Y-41130537D01*
X85355820Y-41189502D01*
X85475518Y-41225812D01*
X85600000Y-41238072D01*
X85614250Y-41235000D01*
X85773000Y-41076250D01*
X85773000Y-40227000D01*
X86027000Y-40227000D01*
X86027000Y-41076250D01*
X86185750Y-41235000D01*
X86200000Y-41238072D01*
X86324482Y-41225812D01*
X86444180Y-41189502D01*
X86554494Y-41130537D01*
X86651185Y-41051185D01*
X86730537Y-40954494D01*
X86789502Y-40844180D01*
X86825812Y-40724482D01*
X86838072Y-40600000D01*
X86835000Y-40385750D01*
X86676250Y-40227000D01*
X86027000Y-40227000D01*
X85773000Y-40227000D01*
X85123750Y-40227000D01*
X84965000Y-40385750D01*
X84961928Y-40600000D01*
X79660000Y-40600000D01*
X79660000Y-39600000D01*
X84961928Y-39600000D01*
X84965000Y-39814250D01*
X85123750Y-39973000D01*
X85773000Y-39973000D01*
X85773000Y-39123750D01*
X86027000Y-39123750D01*
X86027000Y-39973000D01*
X86676250Y-39973000D01*
X86835000Y-39814250D01*
X86838072Y-39600000D01*
X86825812Y-39475518D01*
X86789502Y-39355820D01*
X86730537Y-39245506D01*
X86651185Y-39148815D01*
X86554494Y-39069463D01*
X86444180Y-39010498D01*
X86324482Y-38974188D01*
X86200000Y-38961928D01*
X86185750Y-38965000D01*
X86027000Y-39123750D01*
X85773000Y-39123750D01*
X85614250Y-38965000D01*
X85600000Y-38961928D01*
X85475518Y-38974188D01*
X85355820Y-39010498D01*
X85245506Y-39069463D01*
X85148815Y-39148815D01*
X85069463Y-39245506D01*
X85010498Y-39355820D01*
X84974188Y-39475518D01*
X84961928Y-39600000D01*
X79660000Y-39600000D01*
X79660000Y-37900000D01*
X85361928Y-37900000D01*
X85374188Y-38024482D01*
X85410498Y-38144180D01*
X85469463Y-38254494D01*
X85548815Y-38351185D01*
X85645506Y-38430537D01*
X85755820Y-38489502D01*
X85875518Y-38525812D01*
X86000000Y-38538072D01*
X86264250Y-38535000D01*
X86423000Y-38376250D01*
X86423000Y-37127000D01*
X86677000Y-37127000D01*
X86677000Y-38376250D01*
X86835750Y-38535000D01*
X87100000Y-38538072D01*
X87224482Y-38525812D01*
X87344180Y-38489502D01*
X87454494Y-38430537D01*
X87551185Y-38351185D01*
X87630537Y-38254494D01*
X87689502Y-38144180D01*
X87725812Y-38024482D01*
X87738072Y-37900000D01*
X87735000Y-37285750D01*
X87576250Y-37127000D01*
X86677000Y-37127000D01*
X86423000Y-37127000D01*
X85523750Y-37127000D01*
X85365000Y-37285750D01*
X85361928Y-37900000D01*
X79660000Y-37900000D01*
X79660000Y-36100000D01*
X85361928Y-36100000D01*
X85365000Y-36714250D01*
X85523750Y-36873000D01*
X86423000Y-36873000D01*
X86423000Y-35623750D01*
X86677000Y-35623750D01*
X86677000Y-36873000D01*
X87576250Y-36873000D01*
X87735000Y-36714250D01*
X87738072Y-36100000D01*
X87734951Y-36068314D01*
X87796063Y-36159774D01*
X87940226Y-36303937D01*
X88109744Y-36417205D01*
X88298102Y-36495226D01*
X88498061Y-36535000D01*
X88701939Y-36535000D01*
X88901898Y-36495226D01*
X89061928Y-36428939D01*
X89061928Y-37613271D01*
X88989002Y-37686197D01*
X88959999Y-37709999D01*
X88911199Y-37769463D01*
X88865026Y-37825724D01*
X88812348Y-37924277D01*
X88794454Y-37957754D01*
X88750997Y-38101015D01*
X88740000Y-38212668D01*
X88740000Y-38212678D01*
X88736324Y-38250000D01*
X88740000Y-38287323D01*
X88740001Y-42212668D01*
X88736324Y-42250000D01*
X88750998Y-42398985D01*
X88794454Y-42542246D01*
X88865026Y-42674276D01*
X88927172Y-42750000D01*
X88960000Y-42790001D01*
X88988998Y-42813799D01*
X89061928Y-42886729D01*
X89061928Y-44100000D01*
X89074188Y-44224482D01*
X89110498Y-44344180D01*
X89169463Y-44454494D01*
X89248815Y-44551185D01*
X89345506Y-44630537D01*
X89455820Y-44689502D01*
X89575518Y-44725812D01*
X89592036Y-44727439D01*
X89585149Y-44729528D01*
X89431613Y-44811595D01*
X89297038Y-44922038D01*
X89291658Y-44928594D01*
X89226185Y-44848815D01*
X89129494Y-44769463D01*
X89019180Y-44710498D01*
X88899482Y-44674188D01*
X88775000Y-44661928D01*
X88485750Y-44665000D01*
X88327000Y-44823750D01*
X88327000Y-45873000D01*
X88347000Y-45873000D01*
X88347000Y-46127000D01*
X88327000Y-46127000D01*
X88327000Y-47176250D01*
X88485750Y-47335000D01*
X88775000Y-47338072D01*
X88899482Y-47325812D01*
X89019180Y-47289502D01*
X89129494Y-47230537D01*
X89226185Y-47151185D01*
X89291658Y-47071406D01*
X89297038Y-47077962D01*
X89302635Y-47082556D01*
X89254774Y-47198102D01*
X89215000Y-47398061D01*
X89215000Y-47601939D01*
X89254774Y-47801898D01*
X89332795Y-47990256D01*
X89446063Y-48159774D01*
X89590226Y-48303937D01*
X89759744Y-48417205D01*
X89948102Y-48495226D01*
X90148061Y-48535000D01*
X90351939Y-48535000D01*
X90551898Y-48495226D01*
X90740256Y-48417205D01*
X90909774Y-48303937D01*
X91053937Y-48159774D01*
X91167205Y-47990256D01*
X91245226Y-47801898D01*
X91285000Y-47601939D01*
X91285000Y-47398061D01*
X91245226Y-47198102D01*
X91197365Y-47082556D01*
X91202962Y-47077962D01*
X91313405Y-46943387D01*
X91395472Y-46789851D01*
X91446008Y-46623255D01*
X91463072Y-46450001D01*
X91463072Y-45549999D01*
X91461747Y-45536549D01*
X91789490Y-45864292D01*
X91754774Y-45948102D01*
X91715000Y-46148061D01*
X91715000Y-46351939D01*
X91754774Y-46551898D01*
X91832795Y-46740256D01*
X91946063Y-46909774D01*
X92090226Y-47053937D01*
X92259744Y-47167205D01*
X92448102Y-47245226D01*
X92648061Y-47285000D01*
X92851939Y-47285000D01*
X93051898Y-47245226D01*
X93240256Y-47167205D01*
X93409774Y-47053937D01*
X93553937Y-46909774D01*
X93667205Y-46740256D01*
X93683879Y-46700000D01*
X98736928Y-46700000D01*
X98749188Y-46824482D01*
X98785498Y-46944180D01*
X98844463Y-47054494D01*
X98923815Y-47151185D01*
X99020506Y-47230537D01*
X99130820Y-47289502D01*
X99250518Y-47325812D01*
X99375000Y-47338072D01*
X99664250Y-47335000D01*
X99823000Y-47176250D01*
X99823000Y-46127000D01*
X98898750Y-46127000D01*
X98740000Y-46285750D01*
X98736928Y-46700000D01*
X93683879Y-46700000D01*
X93745226Y-46551898D01*
X93785000Y-46351939D01*
X93785000Y-46148061D01*
X93745226Y-45948102D01*
X93667205Y-45759744D01*
X93553937Y-45590226D01*
X93470386Y-45506675D01*
X93455546Y-45457753D01*
X93450387Y-45448102D01*
X93384974Y-45325723D01*
X93363864Y-45300000D01*
X98736928Y-45300000D01*
X98740000Y-45714250D01*
X98898750Y-45873000D01*
X99823000Y-45873000D01*
X99823000Y-44823750D01*
X100077000Y-44823750D01*
X100077000Y-45873000D01*
X100097000Y-45873000D01*
X100097000Y-46127000D01*
X100077000Y-46127000D01*
X100077000Y-47176250D01*
X100235750Y-47335000D01*
X100525000Y-47338072D01*
X100649482Y-47325812D01*
X100769180Y-47289502D01*
X100879494Y-47230537D01*
X100976185Y-47151185D01*
X101041658Y-47071406D01*
X101047038Y-47077962D01*
X101181613Y-47188405D01*
X101335149Y-47270472D01*
X101501745Y-47321008D01*
X101674999Y-47338072D01*
X102325001Y-47338072D01*
X102498255Y-47321008D01*
X102664851Y-47270472D01*
X102818387Y-47188405D01*
X102952962Y-47077962D01*
X103063405Y-46943387D01*
X103145472Y-46789851D01*
X103172727Y-46700000D01*
X110786928Y-46700000D01*
X110799188Y-46824482D01*
X110835498Y-46944180D01*
X110894463Y-47054494D01*
X110973815Y-47151185D01*
X111070506Y-47230537D01*
X111180820Y-47289502D01*
X111300518Y-47325812D01*
X111425000Y-47338072D01*
X111714250Y-47335000D01*
X111873000Y-47176250D01*
X111873000Y-46127000D01*
X110948750Y-46127000D01*
X110790000Y-46285750D01*
X110786928Y-46700000D01*
X103172727Y-46700000D01*
X103196008Y-46623255D01*
X103213072Y-46450001D01*
X103213072Y-45611729D01*
X104064802Y-44760000D01*
X109796289Y-44760000D01*
X109840226Y-44803937D01*
X110009744Y-44917205D01*
X110198102Y-44995226D01*
X110398061Y-45035000D01*
X110601939Y-45035000D01*
X110801898Y-44995226D01*
X110886652Y-44960120D01*
X110835498Y-45055820D01*
X110799188Y-45175518D01*
X110786928Y-45300000D01*
X110790000Y-45714250D01*
X110948750Y-45873000D01*
X111873000Y-45873000D01*
X111873000Y-45853000D01*
X112127000Y-45853000D01*
X112127000Y-45873000D01*
X112147000Y-45873000D01*
X112147000Y-46127000D01*
X112127000Y-46127000D01*
X112127000Y-47176250D01*
X112285750Y-47335000D01*
X112575000Y-47338072D01*
X112699482Y-47325812D01*
X112819180Y-47289502D01*
X112929494Y-47230537D01*
X113026185Y-47151185D01*
X113091658Y-47071406D01*
X113097038Y-47077962D01*
X113231613Y-47188405D01*
X113385149Y-47270472D01*
X113551745Y-47321008D01*
X113724999Y-47338072D01*
X114375001Y-47338072D01*
X114548255Y-47321008D01*
X114714851Y-47270472D01*
X114868387Y-47188405D01*
X115002962Y-47077962D01*
X115113405Y-46943387D01*
X115157976Y-46860000D01*
X117261928Y-46860000D01*
X117261928Y-48560000D01*
X117274188Y-48684482D01*
X117310498Y-48804180D01*
X117369463Y-48914494D01*
X117448815Y-49011185D01*
X117545506Y-49090537D01*
X117655820Y-49149502D01*
X117728380Y-49171513D01*
X117596525Y-49303368D01*
X117434010Y-49546589D01*
X117322068Y-49816842D01*
X117265000Y-50103740D01*
X117265000Y-50396260D01*
X117322068Y-50683158D01*
X117434010Y-50953411D01*
X117596525Y-51196632D01*
X117803368Y-51403475D01*
X117985534Y-51525195D01*
X117868645Y-51594822D01*
X117652412Y-51789731D01*
X117478359Y-52023080D01*
X117353175Y-52285901D01*
X117308524Y-52433110D01*
X117429845Y-52663000D01*
X118623000Y-52663000D01*
X118623000Y-52643000D01*
X118877000Y-52643000D01*
X118877000Y-52663000D01*
X120070155Y-52663000D01*
X120191476Y-52433110D01*
X120146825Y-52285901D01*
X120021641Y-52023080D01*
X119847588Y-51789731D01*
X119631355Y-51594822D01*
X119514466Y-51525195D01*
X119696632Y-51403475D01*
X119903475Y-51196632D01*
X120065990Y-50953411D01*
X120177932Y-50683158D01*
X120235000Y-50396260D01*
X120235000Y-50103740D01*
X120177932Y-49816842D01*
X120065990Y-49546589D01*
X119903475Y-49303368D01*
X119771620Y-49171513D01*
X119844180Y-49149502D01*
X119954494Y-49090537D01*
X120051185Y-49011185D01*
X120130537Y-48914494D01*
X120189502Y-48804180D01*
X120225812Y-48684482D01*
X120238072Y-48560000D01*
X120238072Y-46860000D01*
X120225812Y-46735518D01*
X120189502Y-46615820D01*
X120130537Y-46505506D01*
X120051185Y-46408815D01*
X119954494Y-46329463D01*
X119844180Y-46270498D01*
X119724482Y-46234188D01*
X119600000Y-46221928D01*
X117900000Y-46221928D01*
X117775518Y-46234188D01*
X117655820Y-46270498D01*
X117545506Y-46329463D01*
X117448815Y-46408815D01*
X117369463Y-46505506D01*
X117310498Y-46615820D01*
X117274188Y-46735518D01*
X117261928Y-46860000D01*
X115157976Y-46860000D01*
X115195472Y-46789851D01*
X115246008Y-46623255D01*
X115257163Y-46510000D01*
X115296289Y-46510000D01*
X115340226Y-46553937D01*
X115509744Y-46667205D01*
X115698102Y-46745226D01*
X115898061Y-46785000D01*
X116101939Y-46785000D01*
X116301898Y-46745226D01*
X116490256Y-46667205D01*
X116659774Y-46553937D01*
X116803937Y-46409774D01*
X116917205Y-46240256D01*
X116995226Y-46051898D01*
X117035000Y-45851939D01*
X117035000Y-45648061D01*
X116995226Y-45448102D01*
X116917205Y-45259744D01*
X116803937Y-45090226D01*
X116659774Y-44946063D01*
X116490256Y-44832795D01*
X116301898Y-44754774D01*
X116137081Y-44721990D01*
X116244180Y-44689502D01*
X116354494Y-44630537D01*
X116451185Y-44551185D01*
X116530537Y-44454494D01*
X116589502Y-44344180D01*
X116625812Y-44224482D01*
X116638072Y-44100000D01*
X116635000Y-43485750D01*
X116476250Y-43327000D01*
X115577000Y-43327000D01*
X115577000Y-44576250D01*
X115735750Y-44735000D01*
X115794103Y-44735678D01*
X115698102Y-44754774D01*
X115509744Y-44832795D01*
X115340226Y-44946063D01*
X115296289Y-44990000D01*
X115058737Y-44990000D01*
X115002962Y-44922038D01*
X114868387Y-44811595D01*
X114714851Y-44729528D01*
X114548255Y-44678992D01*
X114375001Y-44661928D01*
X113724999Y-44661928D01*
X113551745Y-44678992D01*
X113385149Y-44729528D01*
X113231613Y-44811595D01*
X113097038Y-44922038D01*
X113091658Y-44928594D01*
X113026185Y-44848815D01*
X112929494Y-44769463D01*
X112819180Y-44710498D01*
X112699482Y-44674188D01*
X112592535Y-44663655D01*
X112654494Y-44630537D01*
X112751185Y-44551185D01*
X112830537Y-44454494D01*
X112889502Y-44344180D01*
X112925812Y-44224482D01*
X112938072Y-44100000D01*
X114261928Y-44100000D01*
X114274188Y-44224482D01*
X114310498Y-44344180D01*
X114369463Y-44454494D01*
X114448815Y-44551185D01*
X114545506Y-44630537D01*
X114655820Y-44689502D01*
X114775518Y-44725812D01*
X114900000Y-44738072D01*
X115164250Y-44735000D01*
X115323000Y-44576250D01*
X115323000Y-43327000D01*
X114423750Y-43327000D01*
X114265000Y-43485750D01*
X114261928Y-44100000D01*
X112938072Y-44100000D01*
X112938072Y-42574938D01*
X112955546Y-42542247D01*
X112999003Y-42398986D01*
X113008752Y-42300000D01*
X114261928Y-42300000D01*
X114265000Y-42914250D01*
X114423750Y-43073000D01*
X115323000Y-43073000D01*
X115323000Y-41823750D01*
X115577000Y-41823750D01*
X115577000Y-43073000D01*
X116476250Y-43073000D01*
X116635000Y-42914250D01*
X116638072Y-42300000D01*
X116625812Y-42175518D01*
X116589502Y-42055820D01*
X116530537Y-41945506D01*
X116451185Y-41848815D01*
X116354494Y-41769463D01*
X116244180Y-41710498D01*
X116124482Y-41674188D01*
X116000000Y-41661928D01*
X115735750Y-41665000D01*
X115577000Y-41823750D01*
X115323000Y-41823750D01*
X115164250Y-41665000D01*
X114900000Y-41661928D01*
X114775518Y-41674188D01*
X114655820Y-41710498D01*
X114545506Y-41769463D01*
X114448815Y-41848815D01*
X114369463Y-41945506D01*
X114310498Y-42055820D01*
X114274188Y-42175518D01*
X114261928Y-42300000D01*
X113008752Y-42300000D01*
X113010000Y-42287333D01*
X113010000Y-42287325D01*
X113013676Y-42250000D01*
X113010000Y-42212675D01*
X113010000Y-40600000D01*
X115161928Y-40600000D01*
X115174188Y-40724482D01*
X115210498Y-40844180D01*
X115269463Y-40954494D01*
X115348815Y-41051185D01*
X115445506Y-41130537D01*
X115555820Y-41189502D01*
X115675518Y-41225812D01*
X115800000Y-41238072D01*
X115814250Y-41235000D01*
X115973000Y-41076250D01*
X115973000Y-40227000D01*
X116227000Y-40227000D01*
X116227000Y-41076250D01*
X116385750Y-41235000D01*
X116400000Y-41238072D01*
X116524482Y-41225812D01*
X116644180Y-41189502D01*
X116754494Y-41130537D01*
X116851185Y-41051185D01*
X116930537Y-40954494D01*
X116989502Y-40844180D01*
X117025812Y-40724482D01*
X117038072Y-40600000D01*
X117035000Y-40385750D01*
X116876250Y-40227000D01*
X116227000Y-40227000D01*
X115973000Y-40227000D01*
X115323750Y-40227000D01*
X115165000Y-40385750D01*
X115161928Y-40600000D01*
X113010000Y-40600000D01*
X113010000Y-39600000D01*
X115161928Y-39600000D01*
X115165000Y-39814250D01*
X115323750Y-39973000D01*
X115973000Y-39973000D01*
X115973000Y-39123750D01*
X116227000Y-39123750D01*
X116227000Y-39973000D01*
X116876250Y-39973000D01*
X117035000Y-39814250D01*
X117038072Y-39600000D01*
X117025812Y-39475518D01*
X116989502Y-39355820D01*
X116930537Y-39245506D01*
X116851185Y-39148815D01*
X116754494Y-39069463D01*
X116644180Y-39010498D01*
X116524482Y-38974188D01*
X116400000Y-38961928D01*
X116385750Y-38965000D01*
X116227000Y-39123750D01*
X115973000Y-39123750D01*
X115814250Y-38965000D01*
X115800000Y-38961928D01*
X115675518Y-38974188D01*
X115555820Y-39010498D01*
X115445506Y-39069463D01*
X115348815Y-39148815D01*
X115269463Y-39245506D01*
X115210498Y-39355820D01*
X115174188Y-39475518D01*
X115161928Y-39600000D01*
X113010000Y-39600000D01*
X113010000Y-37900000D01*
X114261928Y-37900000D01*
X114274188Y-38024482D01*
X114310498Y-38144180D01*
X114369463Y-38254494D01*
X114448815Y-38351185D01*
X114545506Y-38430537D01*
X114655820Y-38489502D01*
X114775518Y-38525812D01*
X114900000Y-38538072D01*
X115164250Y-38535000D01*
X115323000Y-38376250D01*
X115323000Y-37127000D01*
X115577000Y-37127000D01*
X115577000Y-38376250D01*
X115735750Y-38535000D01*
X116000000Y-38538072D01*
X116124482Y-38525812D01*
X116244180Y-38489502D01*
X116354494Y-38430537D01*
X116451185Y-38351185D01*
X116530537Y-38254494D01*
X116589502Y-38144180D01*
X116625812Y-38024482D01*
X116638072Y-37900000D01*
X116635000Y-37285750D01*
X116476250Y-37127000D01*
X115577000Y-37127000D01*
X115323000Y-37127000D01*
X114423750Y-37127000D01*
X114265000Y-37285750D01*
X114261928Y-37900000D01*
X113010000Y-37900000D01*
X113010000Y-37537322D01*
X113013676Y-37499999D01*
X113010000Y-37462676D01*
X113010000Y-37462667D01*
X112999003Y-37351014D01*
X112955546Y-37207753D01*
X112938072Y-37175062D01*
X112938072Y-36100000D01*
X114261928Y-36100000D01*
X114265000Y-36714250D01*
X114423750Y-36873000D01*
X115323000Y-36873000D01*
X115323000Y-35623750D01*
X115577000Y-35623750D01*
X115577000Y-36873000D01*
X116476250Y-36873000D01*
X116635000Y-36714250D01*
X116638072Y-36100000D01*
X116625812Y-35975518D01*
X116589502Y-35855820D01*
X116530537Y-35745506D01*
X116451185Y-35648815D01*
X116354494Y-35569463D01*
X116244180Y-35510498D01*
X116124482Y-35474188D01*
X116000000Y-35461928D01*
X115735750Y-35465000D01*
X115577000Y-35623750D01*
X115323000Y-35623750D01*
X115164250Y-35465000D01*
X114900000Y-35461928D01*
X114775518Y-35474188D01*
X114655820Y-35510498D01*
X114545506Y-35569463D01*
X114448815Y-35648815D01*
X114369463Y-35745506D01*
X114310498Y-35855820D01*
X114274188Y-35975518D01*
X114261928Y-36100000D01*
X112938072Y-36100000D01*
X112925812Y-35975518D01*
X112889502Y-35855820D01*
X112830537Y-35745506D01*
X112751185Y-35648815D01*
X112654494Y-35569463D01*
X112544180Y-35510498D01*
X112424482Y-35474188D01*
X112300000Y-35461928D01*
X111200000Y-35461928D01*
X111075518Y-35474188D01*
X110955820Y-35510498D01*
X110845506Y-35569463D01*
X110748815Y-35648815D01*
X110669463Y-35745506D01*
X110610498Y-35855820D01*
X110574188Y-35975518D01*
X110561928Y-36100000D01*
X110561928Y-37900000D01*
X110574188Y-38024482D01*
X110610498Y-38144180D01*
X110669463Y-38254494D01*
X110748815Y-38351185D01*
X110845506Y-38430537D01*
X110955820Y-38489502D01*
X111075518Y-38525812D01*
X111200000Y-38538072D01*
X111490001Y-38538072D01*
X111490001Y-38970792D01*
X111400000Y-38961928D01*
X111385750Y-38965000D01*
X111227000Y-39123750D01*
X111227000Y-39973000D01*
X111247000Y-39973000D01*
X111247000Y-40227000D01*
X111227000Y-40227000D01*
X111227000Y-41076250D01*
X111385750Y-41235000D01*
X111400000Y-41238072D01*
X111490000Y-41229208D01*
X111490000Y-41661928D01*
X111200000Y-41661928D01*
X111075518Y-41674188D01*
X110955820Y-41710498D01*
X110845506Y-41769463D01*
X110755734Y-41843137D01*
X110740256Y-41832795D01*
X110551898Y-41754774D01*
X110351939Y-41715000D01*
X110148061Y-41715000D01*
X109948102Y-41754774D01*
X109759744Y-41832795D01*
X109590226Y-41946063D01*
X109446063Y-42090226D01*
X109332795Y-42259744D01*
X109254774Y-42448102D01*
X109215000Y-42648061D01*
X109215000Y-42851939D01*
X109254774Y-43051898D01*
X109332689Y-43240000D01*
X103787322Y-43240000D01*
X103749999Y-43236324D01*
X103712676Y-43240000D01*
X103712667Y-43240000D01*
X103601014Y-43250997D01*
X103472433Y-43290001D01*
X103457753Y-43294454D01*
X103325723Y-43365026D01*
X103271198Y-43409774D01*
X103209999Y-43459999D01*
X103186201Y-43488997D01*
X102013271Y-44661928D01*
X101674999Y-44661928D01*
X101501745Y-44678992D01*
X101335149Y-44729528D01*
X101181613Y-44811595D01*
X101047038Y-44922038D01*
X101041658Y-44928594D01*
X100976185Y-44848815D01*
X100879494Y-44769463D01*
X100769180Y-44710498D01*
X100649482Y-44674188D01*
X100525000Y-44661928D01*
X100235750Y-44665000D01*
X100077000Y-44823750D01*
X99823000Y-44823750D01*
X99664250Y-44665000D01*
X99375000Y-44661928D01*
X99250518Y-44674188D01*
X99130820Y-44710498D01*
X99020506Y-44769463D01*
X98923815Y-44848815D01*
X98844463Y-44945506D01*
X98785498Y-45055820D01*
X98749188Y-45175518D01*
X98736928Y-45300000D01*
X93363864Y-45300000D01*
X93313799Y-45238997D01*
X93290001Y-45209999D01*
X93261003Y-45186201D01*
X91438072Y-43363271D01*
X91438072Y-42300000D01*
X91425812Y-42175518D01*
X91389502Y-42055820D01*
X91330537Y-41945506D01*
X91251185Y-41848815D01*
X91154494Y-41769463D01*
X91044180Y-41710498D01*
X90924482Y-41674188D01*
X90800000Y-41661928D01*
X90260000Y-41661928D01*
X90260000Y-41138284D01*
X90355820Y-41189502D01*
X90475518Y-41225812D01*
X90600000Y-41238072D01*
X90614250Y-41235000D01*
X90773000Y-41076250D01*
X90773000Y-40227000D01*
X91027000Y-40227000D01*
X91027000Y-41076250D01*
X91185750Y-41235000D01*
X91200000Y-41238072D01*
X91324482Y-41225812D01*
X91444180Y-41189502D01*
X91554494Y-41130537D01*
X91651185Y-41051185D01*
X91730537Y-40954494D01*
X91789502Y-40844180D01*
X91825812Y-40724482D01*
X91838072Y-40600000D01*
X91835000Y-40385750D01*
X91676250Y-40227000D01*
X91027000Y-40227000D01*
X90773000Y-40227000D01*
X90753000Y-40227000D01*
X90753000Y-39973000D01*
X90773000Y-39973000D01*
X90773000Y-39123750D01*
X91027000Y-39123750D01*
X91027000Y-39973000D01*
X91676250Y-39973000D01*
X91835000Y-39814250D01*
X91838072Y-39600000D01*
X91825812Y-39475518D01*
X91789502Y-39355820D01*
X91730537Y-39245506D01*
X91651185Y-39148815D01*
X91554494Y-39069463D01*
X91444180Y-39010498D01*
X91324482Y-38974188D01*
X91200000Y-38961928D01*
X91185750Y-38965000D01*
X91027000Y-39123750D01*
X90773000Y-39123750D01*
X90614250Y-38965000D01*
X90600000Y-38961928D01*
X90475518Y-38974188D01*
X90355820Y-39010498D01*
X90260000Y-39061716D01*
X90260000Y-38564801D01*
X90274802Y-38549999D01*
X92286928Y-38549999D01*
X92286928Y-39450001D01*
X92303992Y-39623255D01*
X92354528Y-39789851D01*
X92436595Y-39943387D01*
X92547038Y-40077962D01*
X92552635Y-40082556D01*
X92504774Y-40198102D01*
X92465000Y-40398061D01*
X92465000Y-40601939D01*
X92504774Y-40801898D01*
X92582795Y-40990256D01*
X92696063Y-41159774D01*
X92840226Y-41303937D01*
X93009744Y-41417205D01*
X93198102Y-41495226D01*
X93398061Y-41535000D01*
X93601939Y-41535000D01*
X93801898Y-41495226D01*
X93990256Y-41417205D01*
X94159774Y-41303937D01*
X94303937Y-41159774D01*
X94417205Y-40990256D01*
X94495226Y-40801898D01*
X94535000Y-40601939D01*
X94535000Y-40398061D01*
X94495226Y-40198102D01*
X94447365Y-40082556D01*
X94452962Y-40077962D01*
X94458342Y-40071406D01*
X94523815Y-40151185D01*
X94620506Y-40230537D01*
X94730820Y-40289502D01*
X94850518Y-40325812D01*
X94975000Y-40338072D01*
X95264250Y-40335000D01*
X95423000Y-40176250D01*
X95423000Y-39127000D01*
X95677000Y-39127000D01*
X95677000Y-40176250D01*
X95835750Y-40335000D01*
X96125000Y-40338072D01*
X96249482Y-40325812D01*
X96369180Y-40289502D01*
X96479494Y-40230537D01*
X96576185Y-40151185D01*
X96655537Y-40054494D01*
X96714502Y-39944180D01*
X96750812Y-39824482D01*
X96763072Y-39700000D01*
X105236928Y-39700000D01*
X105249188Y-39824482D01*
X105285498Y-39944180D01*
X105344463Y-40054494D01*
X105423815Y-40151185D01*
X105520506Y-40230537D01*
X105630820Y-40289502D01*
X105750518Y-40325812D01*
X105875000Y-40338072D01*
X106164250Y-40335000D01*
X106323000Y-40176250D01*
X106323000Y-39127000D01*
X105398750Y-39127000D01*
X105240000Y-39285750D01*
X105236928Y-39700000D01*
X96763072Y-39700000D01*
X96760000Y-39285750D01*
X96601250Y-39127000D01*
X95677000Y-39127000D01*
X95423000Y-39127000D01*
X95403000Y-39127000D01*
X95403000Y-38873000D01*
X95423000Y-38873000D01*
X95423000Y-37823750D01*
X95677000Y-37823750D01*
X95677000Y-38873000D01*
X96601250Y-38873000D01*
X96760000Y-38714250D01*
X96763072Y-38300000D01*
X105236928Y-38300000D01*
X105240000Y-38714250D01*
X105398750Y-38873000D01*
X106323000Y-38873000D01*
X106323000Y-37823750D01*
X106577000Y-37823750D01*
X106577000Y-38873000D01*
X106597000Y-38873000D01*
X106597000Y-39127000D01*
X106577000Y-39127000D01*
X106577000Y-40176250D01*
X106735750Y-40335000D01*
X107025000Y-40338072D01*
X107149482Y-40325812D01*
X107269180Y-40289502D01*
X107379494Y-40230537D01*
X107476185Y-40151185D01*
X107541658Y-40071406D01*
X107547038Y-40077962D01*
X107648577Y-40161293D01*
X107582795Y-40259744D01*
X107504774Y-40448102D01*
X107465000Y-40648061D01*
X107465000Y-40851939D01*
X107504774Y-41051898D01*
X107582795Y-41240256D01*
X107696063Y-41409774D01*
X107840226Y-41553937D01*
X108009744Y-41667205D01*
X108198102Y-41745226D01*
X108398061Y-41785000D01*
X108601939Y-41785000D01*
X108801898Y-41745226D01*
X108990256Y-41667205D01*
X109159774Y-41553937D01*
X109303937Y-41409774D01*
X109417205Y-41240256D01*
X109495226Y-41051898D01*
X109535000Y-40851939D01*
X109535000Y-40648061D01*
X109525441Y-40600000D01*
X110161928Y-40600000D01*
X110174188Y-40724482D01*
X110210498Y-40844180D01*
X110269463Y-40954494D01*
X110348815Y-41051185D01*
X110445506Y-41130537D01*
X110555820Y-41189502D01*
X110675518Y-41225812D01*
X110800000Y-41238072D01*
X110814250Y-41235000D01*
X110973000Y-41076250D01*
X110973000Y-40227000D01*
X110323750Y-40227000D01*
X110165000Y-40385750D01*
X110161928Y-40600000D01*
X109525441Y-40600000D01*
X109495226Y-40448102D01*
X109417205Y-40259744D01*
X109351423Y-40161293D01*
X109452962Y-40077962D01*
X109563405Y-39943387D01*
X109645472Y-39789851D01*
X109696008Y-39623255D01*
X109698298Y-39600000D01*
X110161928Y-39600000D01*
X110165000Y-39814250D01*
X110323750Y-39973000D01*
X110973000Y-39973000D01*
X110973000Y-39123750D01*
X110814250Y-38965000D01*
X110800000Y-38961928D01*
X110675518Y-38974188D01*
X110555820Y-39010498D01*
X110445506Y-39069463D01*
X110348815Y-39148815D01*
X110269463Y-39245506D01*
X110210498Y-39355820D01*
X110174188Y-39475518D01*
X110161928Y-39600000D01*
X109698298Y-39600000D01*
X109713072Y-39450001D01*
X109713072Y-38549999D01*
X109696008Y-38376745D01*
X109645472Y-38210149D01*
X109563405Y-38056613D01*
X109452962Y-37922038D01*
X109318387Y-37811595D01*
X109164851Y-37729528D01*
X108998255Y-37678992D01*
X108825001Y-37661928D01*
X108174999Y-37661928D01*
X108001745Y-37678992D01*
X107835149Y-37729528D01*
X107681613Y-37811595D01*
X107547038Y-37922038D01*
X107541658Y-37928594D01*
X107476185Y-37848815D01*
X107379494Y-37769463D01*
X107269180Y-37710498D01*
X107149482Y-37674188D01*
X107025000Y-37661928D01*
X106735750Y-37665000D01*
X106577000Y-37823750D01*
X106323000Y-37823750D01*
X106164250Y-37665000D01*
X105875000Y-37661928D01*
X105750518Y-37674188D01*
X105630820Y-37710498D01*
X105520506Y-37769463D01*
X105423815Y-37848815D01*
X105344463Y-37945506D01*
X105285498Y-38055820D01*
X105249188Y-38175518D01*
X105236928Y-38300000D01*
X96763072Y-38300000D01*
X96750812Y-38175518D01*
X96714502Y-38055820D01*
X96655537Y-37945506D01*
X96576185Y-37848815D01*
X96479494Y-37769463D01*
X96369180Y-37710498D01*
X96249482Y-37674188D01*
X96125000Y-37661928D01*
X95835750Y-37665000D01*
X95677000Y-37823750D01*
X95423000Y-37823750D01*
X95264250Y-37665000D01*
X94975000Y-37661928D01*
X94850518Y-37674188D01*
X94730820Y-37710498D01*
X94620506Y-37769463D01*
X94523815Y-37848815D01*
X94458342Y-37928594D01*
X94452962Y-37922038D01*
X94318387Y-37811595D01*
X94164851Y-37729528D01*
X93998255Y-37678992D01*
X93825001Y-37661928D01*
X93174999Y-37661928D01*
X93001745Y-37678992D01*
X92835149Y-37729528D01*
X92681613Y-37811595D01*
X92547038Y-37922038D01*
X92436595Y-38056613D01*
X92354528Y-38210149D01*
X92303992Y-38376745D01*
X92286928Y-38549999D01*
X90274802Y-38549999D01*
X90286729Y-38538072D01*
X90800000Y-38538072D01*
X90924482Y-38525812D01*
X91044180Y-38489502D01*
X91154494Y-38430537D01*
X91251185Y-38351185D01*
X91330537Y-38254494D01*
X91389502Y-38144180D01*
X91425812Y-38024482D01*
X91438072Y-37900000D01*
X91438072Y-36100000D01*
X91425812Y-35975518D01*
X91389502Y-35855820D01*
X91330537Y-35745506D01*
X91251185Y-35648815D01*
X91154494Y-35569463D01*
X91044180Y-35510498D01*
X90924482Y-35474188D01*
X90800000Y-35461928D01*
X89700000Y-35461928D01*
X89635000Y-35468330D01*
X89635000Y-35398061D01*
X89622030Y-35332855D01*
X89675000Y-35338072D01*
X89964250Y-35335000D01*
X90123000Y-35176250D01*
X90123000Y-34127000D01*
X90377000Y-34127000D01*
X90377000Y-35176250D01*
X90535750Y-35335000D01*
X90825000Y-35338072D01*
X90949482Y-35325812D01*
X91069180Y-35289502D01*
X91179494Y-35230537D01*
X91276185Y-35151185D01*
X91355537Y-35054494D01*
X91414502Y-34944180D01*
X91450812Y-34824482D01*
X91463072Y-34700000D01*
X91460000Y-34285750D01*
X91301250Y-34127000D01*
X90377000Y-34127000D01*
X90123000Y-34127000D01*
X90103000Y-34127000D01*
X90103000Y-33873000D01*
X90123000Y-33873000D01*
X90123000Y-32823750D01*
X90377000Y-32823750D01*
X90377000Y-33873000D01*
X91301250Y-33873000D01*
X91460000Y-33714250D01*
X91461218Y-33549999D01*
X98761928Y-33549999D01*
X98761928Y-34450001D01*
X98778992Y-34623255D01*
X98829528Y-34789851D01*
X98911595Y-34943387D01*
X99022038Y-35077962D01*
X99046293Y-35097867D01*
X99004774Y-35198102D01*
X98965000Y-35398061D01*
X98965000Y-35601939D01*
X99004774Y-35801898D01*
X99082795Y-35990256D01*
X99196063Y-36159774D01*
X99340226Y-36303937D01*
X99509744Y-36417205D01*
X99698102Y-36495226D01*
X99898061Y-36535000D01*
X100101939Y-36535000D01*
X100301898Y-36495226D01*
X100490256Y-36417205D01*
X100659774Y-36303937D01*
X100803937Y-36159774D01*
X100917205Y-35990256D01*
X100995226Y-35801898D01*
X101035000Y-35601939D01*
X101035000Y-35398061D01*
X100995226Y-35198102D01*
X100952330Y-35094543D01*
X100998815Y-35151185D01*
X101095506Y-35230537D01*
X101205820Y-35289502D01*
X101325518Y-35325812D01*
X101450000Y-35338072D01*
X101739250Y-35335000D01*
X101898000Y-35176250D01*
X101898000Y-34127000D01*
X102152000Y-34127000D01*
X102152000Y-35176250D01*
X102310750Y-35335000D01*
X102600000Y-35338072D01*
X102724482Y-35325812D01*
X102844180Y-35289502D01*
X102954494Y-35230537D01*
X103051185Y-35151185D01*
X103130537Y-35054494D01*
X103189502Y-34944180D01*
X103225812Y-34824482D01*
X103238072Y-34700000D01*
X103235000Y-34285750D01*
X103076250Y-34127000D01*
X102152000Y-34127000D01*
X101898000Y-34127000D01*
X101878000Y-34127000D01*
X101878000Y-33898061D01*
X109465000Y-33898061D01*
X109465000Y-34101939D01*
X109504774Y-34301898D01*
X109582795Y-34490256D01*
X109696063Y-34659774D01*
X109840226Y-34803937D01*
X110009744Y-34917205D01*
X110198102Y-34995226D01*
X110398061Y-35035000D01*
X110601939Y-35035000D01*
X110801898Y-34995226D01*
X110934864Y-34940149D01*
X110936595Y-34943387D01*
X111047038Y-35077962D01*
X111181613Y-35188405D01*
X111335149Y-35270472D01*
X111501745Y-35321008D01*
X111674999Y-35338072D01*
X112325001Y-35338072D01*
X112498255Y-35321008D01*
X112664851Y-35270472D01*
X112818387Y-35188405D01*
X112952962Y-35077962D01*
X112958342Y-35071406D01*
X113023815Y-35151185D01*
X113120506Y-35230537D01*
X113230820Y-35289502D01*
X113350518Y-35325812D01*
X113475000Y-35338072D01*
X113764250Y-35335000D01*
X113923000Y-35176250D01*
X113923000Y-34127000D01*
X114177000Y-34127000D01*
X114177000Y-35176250D01*
X114335750Y-35335000D01*
X114625000Y-35338072D01*
X114749482Y-35325812D01*
X114869180Y-35289502D01*
X114979494Y-35230537D01*
X115076185Y-35151185D01*
X115155537Y-35054494D01*
X115214502Y-34944180D01*
X115250812Y-34824482D01*
X115263072Y-34700000D01*
X115260000Y-34285750D01*
X115101250Y-34127000D01*
X114177000Y-34127000D01*
X113923000Y-34127000D01*
X113903000Y-34127000D01*
X113903000Y-33873000D01*
X113923000Y-33873000D01*
X113923000Y-32823750D01*
X114177000Y-32823750D01*
X114177000Y-33873000D01*
X115101250Y-33873000D01*
X115260000Y-33714250D01*
X115263072Y-33300000D01*
X115250812Y-33175518D01*
X115214502Y-33055820D01*
X115155537Y-32945506D01*
X115076185Y-32848815D01*
X114979494Y-32769463D01*
X114869180Y-32710498D01*
X114749482Y-32674188D01*
X114625000Y-32661928D01*
X114335750Y-32665000D01*
X114177000Y-32823750D01*
X113923000Y-32823750D01*
X113764250Y-32665000D01*
X113475000Y-32661928D01*
X113350518Y-32674188D01*
X113230820Y-32710498D01*
X113120506Y-32769463D01*
X113023815Y-32848815D01*
X112958342Y-32928594D01*
X112952962Y-32922038D01*
X112818387Y-32811595D01*
X112664851Y-32729528D01*
X112498255Y-32678992D01*
X112325001Y-32661928D01*
X111674999Y-32661928D01*
X111501745Y-32678992D01*
X111335149Y-32729528D01*
X111181613Y-32811595D01*
X111047038Y-32922038D01*
X110936595Y-33056613D01*
X110934864Y-33059851D01*
X110801898Y-33004774D01*
X110601939Y-32965000D01*
X110398061Y-32965000D01*
X110198102Y-33004774D01*
X110009744Y-33082795D01*
X109840226Y-33196063D01*
X109696063Y-33340226D01*
X109582795Y-33509744D01*
X109504774Y-33698102D01*
X109465000Y-33898061D01*
X101878000Y-33898061D01*
X101878000Y-33873000D01*
X101898000Y-33873000D01*
X101898000Y-32823750D01*
X102152000Y-32823750D01*
X102152000Y-33873000D01*
X103076250Y-33873000D01*
X103235000Y-33714250D01*
X103238072Y-33300000D01*
X103225812Y-33175518D01*
X103189502Y-33055820D01*
X103130537Y-32945506D01*
X103051185Y-32848815D01*
X102954494Y-32769463D01*
X102844180Y-32710498D01*
X102724482Y-32674188D01*
X102600000Y-32661928D01*
X102310750Y-32665000D01*
X102152000Y-32823750D01*
X101898000Y-32823750D01*
X101739250Y-32665000D01*
X101450000Y-32661928D01*
X101325518Y-32674188D01*
X101205820Y-32710498D01*
X101095506Y-32769463D01*
X100998815Y-32848815D01*
X100933342Y-32928594D01*
X100927962Y-32922038D01*
X100793387Y-32811595D01*
X100639851Y-32729528D01*
X100473255Y-32678992D01*
X100300001Y-32661928D01*
X99649999Y-32661928D01*
X99476745Y-32678992D01*
X99310149Y-32729528D01*
X99156613Y-32811595D01*
X99022038Y-32922038D01*
X98911595Y-33056613D01*
X98829528Y-33210149D01*
X98778992Y-33376745D01*
X98761928Y-33549999D01*
X91461218Y-33549999D01*
X91463072Y-33300000D01*
X91450812Y-33175518D01*
X91414502Y-33055820D01*
X91355537Y-32945506D01*
X91276185Y-32848815D01*
X91179494Y-32769463D01*
X91069180Y-32710498D01*
X90949482Y-32674188D01*
X90825000Y-32661928D01*
X90535750Y-32665000D01*
X90377000Y-32823750D01*
X90123000Y-32823750D01*
X89964250Y-32665000D01*
X89675000Y-32661928D01*
X89550518Y-32674188D01*
X89430820Y-32710498D01*
X89320506Y-32769463D01*
X89223815Y-32848815D01*
X89158342Y-32928594D01*
X89152962Y-32922038D01*
X89018387Y-32811595D01*
X88864851Y-32729528D01*
X88698255Y-32678992D01*
X88525001Y-32661928D01*
X87874999Y-32661928D01*
X87701745Y-32678992D01*
X87535149Y-32729528D01*
X87381613Y-32811595D01*
X87247038Y-32922038D01*
X87136595Y-33056613D01*
X87054528Y-33210149D01*
X87003992Y-33376745D01*
X86986928Y-33549999D01*
X86986928Y-34450001D01*
X87003992Y-34623255D01*
X87054528Y-34789851D01*
X87136595Y-34943387D01*
X87247038Y-35077962D01*
X87381613Y-35188405D01*
X87535149Y-35270472D01*
X87587236Y-35286272D01*
X87565000Y-35398061D01*
X87565000Y-35601939D01*
X87581727Y-35686030D01*
X87551185Y-35648815D01*
X87454494Y-35569463D01*
X87344180Y-35510498D01*
X87224482Y-35474188D01*
X87100000Y-35461928D01*
X86835750Y-35465000D01*
X86677000Y-35623750D01*
X86423000Y-35623750D01*
X86264250Y-35465000D01*
X86000000Y-35461928D01*
X85875518Y-35474188D01*
X85755820Y-35510498D01*
X85645506Y-35569463D01*
X85548815Y-35648815D01*
X85469463Y-35745506D01*
X85410498Y-35855820D01*
X85374188Y-35975518D01*
X85361928Y-36100000D01*
X79660000Y-36100000D01*
X79660000Y-30660000D01*
X122340000Y-30660000D01*
X122340001Y-69340000D01*
G37*
G04 #@! TD.AperFunction*
M02*
