%FSLAX45Y45*%
G04 Gerber Fmt 4.5, Leading zero omitted, Abs format (unit mm)*
G04 Created by KiCad (PCBNEW 5.1.10-88a1d61d58~90~ubuntu20.04.1) date 2021-11-23 17:04:56*
%MOMM*%
%LPD*%
G01*
G04 APERTURE LIST*
%TA.AperFunction,Profile*%
%ADD10C,0.050000*%
%TD*%
%ADD11C,0.200000*%
%ADD12C,0.300000*%
G04 APERTURE END LIST*
D10*
X7900000Y-7000000D02*
X7900000Y-3000000D01*
X12300000Y-7000000D02*
X7900000Y-7000000D01*
X12300000Y-3000000D02*
X12300000Y-7000000D01*
X7900000Y-3000000D02*
X12300000Y-3000000D01*
D11*
D12*
X8183928Y-7468214D02*
X8183928Y-7168214D01*
X8255357Y-7168214D01*
X8298214Y-7182500D01*
X8326786Y-7211071D01*
X8341071Y-7239643D01*
X8355357Y-7296786D01*
X8355357Y-7339643D01*
X8341071Y-7396786D01*
X8326786Y-7425357D01*
X8298214Y-7453929D01*
X8255357Y-7468214D01*
X8183928Y-7468214D01*
X8483928Y-7468214D02*
X8483928Y-7268214D01*
X8483928Y-7325357D02*
X8498214Y-7296786D01*
X8512500Y-7282500D01*
X8541071Y-7268214D01*
X8569643Y-7268214D01*
X8669643Y-7468214D02*
X8669643Y-7268214D01*
X8669643Y-7168214D02*
X8655357Y-7182500D01*
X8669643Y-7196786D01*
X8683928Y-7182500D01*
X8669643Y-7168214D01*
X8669643Y-7196786D01*
X8855357Y-7468214D02*
X8826786Y-7453929D01*
X8812500Y-7425357D01*
X8812500Y-7168214D01*
X9012500Y-7468214D02*
X8983928Y-7453929D01*
X8969643Y-7425357D01*
X8969643Y-7168214D01*
X9355357Y-7468214D02*
X9355357Y-7168214D01*
X9455357Y-7382500D01*
X9555357Y-7168214D01*
X9555357Y-7468214D01*
X9826786Y-7468214D02*
X9826786Y-7311071D01*
X9812500Y-7282500D01*
X9783928Y-7268214D01*
X9726786Y-7268214D01*
X9698214Y-7282500D01*
X9826786Y-7453929D02*
X9798214Y-7468214D01*
X9726786Y-7468214D01*
X9698214Y-7453929D01*
X9683928Y-7425357D01*
X9683928Y-7396786D01*
X9698214Y-7368214D01*
X9726786Y-7353929D01*
X9798214Y-7353929D01*
X9826786Y-7339643D01*
X9969643Y-7268214D02*
X9969643Y-7568214D01*
X9969643Y-7282500D02*
X9998214Y-7268214D01*
X10055357Y-7268214D01*
X10083928Y-7282500D01*
X10098214Y-7296786D01*
X10112500Y-7325357D01*
X10112500Y-7411071D01*
X10098214Y-7439643D01*
X10083928Y-7453929D01*
X10055357Y-7468214D01*
X9998214Y-7468214D01*
X9969643Y-7453929D01*
X10241071Y-7439643D02*
X10255357Y-7453929D01*
X10241071Y-7468214D01*
X10226786Y-7453929D01*
X10241071Y-7439643D01*
X10241071Y-7468214D01*
X10241071Y-7282500D02*
X10255357Y-7296786D01*
X10241071Y-7311071D01*
X10226786Y-7296786D01*
X10241071Y-7282500D01*
X10241071Y-7311071D01*
M02*
