G04 #@! TF.GenerationSoftware,KiCad,Pcbnew,5.1.10-88a1d61d58~90~ubuntu20.04.1*
G04 #@! TF.CreationDate,2021-11-23T17:04:51+00:00*
G04 #@! TF.ProjectId,logic-calc,6c6f6769-632d-4636-916c-632e6b696361,rev?*
G04 #@! TF.SameCoordinates,Original*
G04 #@! TF.FileFunction,Copper,L2,Bot*
G04 #@! TF.FilePolarity,Positive*
%FSLAX46Y46*%
G04 Gerber Fmt 4.6, Leading zero omitted, Abs format (unit mm)*
G04 Created by KiCad (PCBNEW 5.1.10-88a1d61d58~90~ubuntu20.04.1) date 2021-11-23 17:04:51*
%MOMM*%
%LPD*%
G01*
G04 APERTURE LIST*
G04 #@! TA.AperFunction,ComponentPad*
%ADD10O,1.700000X1.700000*%
G04 #@! TD*
G04 #@! TA.AperFunction,ComponentPad*
%ADD11R,1.700000X1.700000*%
G04 #@! TD*
G04 #@! TA.AperFunction,SMDPad,CuDef*
%ADD12R,0.550000X1.600000*%
G04 #@! TD*
G04 #@! TA.AperFunction,SMDPad,CuDef*
%ADD13R,1.600000X0.550000*%
G04 #@! TD*
G04 #@! TA.AperFunction,SMDPad,CuDef*
%ADD14R,1.400000X1.500000*%
G04 #@! TD*
G04 #@! TA.AperFunction,ViaPad*
%ADD15C,0.800000*%
G04 #@! TD*
G04 #@! TA.AperFunction,Conductor*
%ADD16C,0.250000*%
G04 #@! TD*
G04 #@! TA.AperFunction,Conductor*
%ADD17C,0.500000*%
G04 #@! TD*
G04 #@! TA.AperFunction,Conductor*
%ADD18C,0.254000*%
G04 #@! TD*
G04 #@! TA.AperFunction,Conductor*
%ADD19C,0.100000*%
G04 #@! TD*
G04 APERTURE END LIST*
D10*
X118750000Y-55330000D03*
X118750000Y-52790000D03*
X118750000Y-50250000D03*
D11*
X118750000Y-47710000D03*
G04 #@! TA.AperFunction,SMDPad,CuDef*
G36*
G01*
X116499999Y-65375000D02*
X119000001Y-65375000D01*
G75*
G02*
X119250000Y-65624999I0J-249999D01*
G01*
X119250000Y-67225001D01*
G75*
G02*
X119000001Y-67475000I-249999J0D01*
G01*
X116499999Y-67475000D01*
G75*
G02*
X116250000Y-67225001I0J249999D01*
G01*
X116250000Y-65624999D01*
G75*
G02*
X116499999Y-65375000I249999J0D01*
G01*
G37*
G04 #@! TD.AperFunction*
G04 #@! TA.AperFunction,SMDPad,CuDef*
G36*
G01*
X116499999Y-59025000D02*
X119000001Y-59025000D01*
G75*
G02*
X119250000Y-59274999I0J-249999D01*
G01*
X119250000Y-60875001D01*
G75*
G02*
X119000001Y-61125000I-249999J0D01*
G01*
X116499999Y-61125000D01*
G75*
G02*
X116250000Y-60875001I0J249999D01*
G01*
X116250000Y-59274999D01*
G75*
G02*
X116499999Y-59025000I249999J0D01*
G01*
G37*
G04 #@! TD.AperFunction*
G04 #@! TA.AperFunction,SMDPad,CuDef*
G36*
G01*
X114550000Y-63475000D02*
X115450000Y-63475000D01*
G75*
G02*
X115650000Y-63675000I0J-200000D01*
G01*
X115650000Y-64075000D01*
G75*
G02*
X115450000Y-64275000I-200000J0D01*
G01*
X114550000Y-64275000D01*
G75*
G02*
X114350000Y-64075000I0J200000D01*
G01*
X114350000Y-63675000D01*
G75*
G02*
X114550000Y-63475000I200000J0D01*
G01*
G37*
G04 #@! TD.AperFunction*
G04 #@! TA.AperFunction,SMDPad,CuDef*
G36*
G01*
X114550000Y-62225000D02*
X115450000Y-62225000D01*
G75*
G02*
X115650000Y-62425000I0J-200000D01*
G01*
X115650000Y-62825000D01*
G75*
G02*
X115450000Y-63025000I-200000J0D01*
G01*
X114550000Y-63025000D01*
G75*
G02*
X114350000Y-62825000I0J200000D01*
G01*
X114350000Y-62425000D01*
G75*
G02*
X114550000Y-62225000I200000J0D01*
G01*
G37*
G04 #@! TD.AperFunction*
D12*
X98150000Y-52500000D03*
X98950000Y-52500000D03*
X99750000Y-52500000D03*
X100550000Y-52500000D03*
X101350000Y-52500000D03*
X102150000Y-52500000D03*
X102950000Y-52500000D03*
X103750000Y-52500000D03*
D13*
X105200000Y-51050000D03*
X105200000Y-50250000D03*
X105200000Y-49450000D03*
X105200000Y-48650000D03*
X105200000Y-47850000D03*
X105200000Y-47050000D03*
X105200000Y-46250000D03*
X105200000Y-45450000D03*
D12*
X103750000Y-44000000D03*
X102950000Y-44000000D03*
X102150000Y-44000000D03*
X101350000Y-44000000D03*
X100550000Y-44000000D03*
X99750000Y-44000000D03*
X98950000Y-44000000D03*
X98150000Y-44000000D03*
D13*
X96700000Y-45450000D03*
X96700000Y-46250000D03*
X96700000Y-47050000D03*
X96700000Y-47850000D03*
X96700000Y-48650000D03*
X96700000Y-49450000D03*
X96700000Y-50250000D03*
X96700000Y-51050000D03*
D14*
X114400000Y-56700000D03*
X114400000Y-50200000D03*
G04 #@! TA.AperFunction,SMDPad,CuDef*
G36*
G01*
X109575000Y-45512500D02*
X109575000Y-45987500D01*
G75*
G02*
X109337500Y-46225000I-237500J0D01*
G01*
X108837500Y-46225000D01*
G75*
G02*
X108600000Y-45987500I0J237500D01*
G01*
X108600000Y-45512500D01*
G75*
G02*
X108837500Y-45275000I237500J0D01*
G01*
X109337500Y-45275000D01*
G75*
G02*
X109575000Y-45512500I0J-237500D01*
G01*
G37*
G04 #@! TD.AperFunction*
G04 #@! TA.AperFunction,SMDPad,CuDef*
G36*
G01*
X111400000Y-45512500D02*
X111400000Y-45987500D01*
G75*
G02*
X111162500Y-46225000I-237500J0D01*
G01*
X110662500Y-46225000D01*
G75*
G02*
X110425000Y-45987500I0J237500D01*
G01*
X110425000Y-45512500D01*
G75*
G02*
X110662500Y-45275000I237500J0D01*
G01*
X111162500Y-45275000D01*
G75*
G02*
X111400000Y-45512500I0J-237500D01*
G01*
G37*
G04 #@! TD.AperFunction*
G04 #@! TA.AperFunction,SMDPad,CuDef*
G36*
G01*
X107825000Y-43762500D02*
X107825000Y-44237500D01*
G75*
G02*
X107587500Y-44475000I-237500J0D01*
G01*
X107087500Y-44475000D01*
G75*
G02*
X106850000Y-44237500I0J237500D01*
G01*
X106850000Y-43762500D01*
G75*
G02*
X107087500Y-43525000I237500J0D01*
G01*
X107587500Y-43525000D01*
G75*
G02*
X107825000Y-43762500I0J-237500D01*
G01*
G37*
G04 #@! TD.AperFunction*
G04 #@! TA.AperFunction,SMDPad,CuDef*
G36*
G01*
X109650000Y-43762500D02*
X109650000Y-44237500D01*
G75*
G02*
X109412500Y-44475000I-237500J0D01*
G01*
X108912500Y-44475000D01*
G75*
G02*
X108675000Y-44237500I0J237500D01*
G01*
X108675000Y-43762500D01*
G75*
G02*
X108912500Y-43525000I237500J0D01*
G01*
X109412500Y-43525000D01*
G75*
G02*
X109650000Y-43762500I0J-237500D01*
G01*
G37*
G04 #@! TD.AperFunction*
G04 #@! TA.AperFunction,SMDPad,CuDef*
G36*
G01*
X91762500Y-48987500D02*
X91762500Y-48512500D01*
G75*
G02*
X92000000Y-48275000I237500J0D01*
G01*
X92500000Y-48275000D01*
G75*
G02*
X92737500Y-48512500I0J-237500D01*
G01*
X92737500Y-48987500D01*
G75*
G02*
X92500000Y-49225000I-237500J0D01*
G01*
X92000000Y-49225000D01*
G75*
G02*
X91762500Y-48987500I0J237500D01*
G01*
G37*
G04 #@! TD.AperFunction*
G04 #@! TA.AperFunction,SMDPad,CuDef*
G36*
G01*
X89937500Y-48987500D02*
X89937500Y-48512500D01*
G75*
G02*
X90175000Y-48275000I237500J0D01*
G01*
X90675000Y-48275000D01*
G75*
G02*
X90912500Y-48512500I0J-237500D01*
G01*
X90912500Y-48987500D01*
G75*
G02*
X90675000Y-49225000I-237500J0D01*
G01*
X90175000Y-49225000D01*
G75*
G02*
X89937500Y-48987500I0J237500D01*
G01*
G37*
G04 #@! TD.AperFunction*
G04 #@! TA.AperFunction,SMDPad,CuDef*
G36*
G01*
X106912500Y-33762500D02*
X106912500Y-34237500D01*
G75*
G02*
X106675000Y-34475000I-237500J0D01*
G01*
X106175000Y-34475000D01*
G75*
G02*
X105937500Y-34237500I0J237500D01*
G01*
X105937500Y-33762500D01*
G75*
G02*
X106175000Y-33525000I237500J0D01*
G01*
X106675000Y-33525000D01*
G75*
G02*
X106912500Y-33762500I0J-237500D01*
G01*
G37*
G04 #@! TD.AperFunction*
G04 #@! TA.AperFunction,SMDPad,CuDef*
G36*
G01*
X108737500Y-33762500D02*
X108737500Y-34237500D01*
G75*
G02*
X108500000Y-34475000I-237500J0D01*
G01*
X108000000Y-34475000D01*
G75*
G02*
X107762500Y-34237500I0J237500D01*
G01*
X107762500Y-33762500D01*
G75*
G02*
X108000000Y-33525000I237500J0D01*
G01*
X108500000Y-33525000D01*
G75*
G02*
X108737500Y-33762500I0J-237500D01*
G01*
G37*
G04 #@! TD.AperFunction*
G04 #@! TA.AperFunction,SMDPad,CuDef*
G36*
G01*
X99762500Y-38262500D02*
X100237500Y-38262500D01*
G75*
G02*
X100475000Y-38500000I0J-237500D01*
G01*
X100475000Y-39000000D01*
G75*
G02*
X100237500Y-39237500I-237500J0D01*
G01*
X99762500Y-39237500D01*
G75*
G02*
X99525000Y-39000000I0J237500D01*
G01*
X99525000Y-38500000D01*
G75*
G02*
X99762500Y-38262500I237500J0D01*
G01*
G37*
G04 #@! TD.AperFunction*
G04 #@! TA.AperFunction,SMDPad,CuDef*
G36*
G01*
X99762500Y-36437500D02*
X100237500Y-36437500D01*
G75*
G02*
X100475000Y-36675000I0J-237500D01*
G01*
X100475000Y-37175000D01*
G75*
G02*
X100237500Y-37412500I-237500J0D01*
G01*
X99762500Y-37412500D01*
G75*
G02*
X99525000Y-37175000I0J237500D01*
G01*
X99525000Y-36675000D01*
G75*
G02*
X99762500Y-36437500I237500J0D01*
G01*
G37*
G04 #@! TD.AperFunction*
G04 #@! TA.AperFunction,SMDPad,CuDef*
G36*
G01*
X88362500Y-38137500D02*
X88837500Y-38137500D01*
G75*
G02*
X89075000Y-38375000I0J-237500D01*
G01*
X89075000Y-38875000D01*
G75*
G02*
X88837500Y-39112500I-237500J0D01*
G01*
X88362500Y-39112500D01*
G75*
G02*
X88125000Y-38875000I0J237500D01*
G01*
X88125000Y-38375000D01*
G75*
G02*
X88362500Y-38137500I237500J0D01*
G01*
G37*
G04 #@! TD.AperFunction*
G04 #@! TA.AperFunction,SMDPad,CuDef*
G36*
G01*
X88362500Y-36312500D02*
X88837500Y-36312500D01*
G75*
G02*
X89075000Y-36550000I0J-237500D01*
G01*
X89075000Y-37050000D01*
G75*
G02*
X88837500Y-37287500I-237500J0D01*
G01*
X88362500Y-37287500D01*
G75*
G02*
X88125000Y-37050000I0J237500D01*
G01*
X88125000Y-36550000D01*
G75*
G02*
X88362500Y-36312500I237500J0D01*
G01*
G37*
G04 #@! TD.AperFunction*
G04 #@! TA.AperFunction,SMDPad,CuDef*
G36*
G01*
X108012500Y-42237500D02*
X108012500Y-41762500D01*
G75*
G02*
X108250000Y-41525000I237500J0D01*
G01*
X108750000Y-41525000D01*
G75*
G02*
X108987500Y-41762500I0J-237500D01*
G01*
X108987500Y-42237500D01*
G75*
G02*
X108750000Y-42475000I-237500J0D01*
G01*
X108250000Y-42475000D01*
G75*
G02*
X108012500Y-42237500I0J237500D01*
G01*
G37*
G04 #@! TD.AperFunction*
G04 #@! TA.AperFunction,SMDPad,CuDef*
G36*
G01*
X106187500Y-42237500D02*
X106187500Y-41762500D01*
G75*
G02*
X106425000Y-41525000I237500J0D01*
G01*
X106925000Y-41525000D01*
G75*
G02*
X107162500Y-41762500I0J-237500D01*
G01*
X107162500Y-42237500D01*
G75*
G02*
X106925000Y-42475000I-237500J0D01*
G01*
X106425000Y-42475000D01*
G75*
G02*
X106187500Y-42237500I0J237500D01*
G01*
G37*
G04 #@! TD.AperFunction*
G04 #@! TA.AperFunction,SMDPad,CuDef*
G36*
G01*
X94762500Y-41987500D02*
X94762500Y-41512500D01*
G75*
G02*
X95000000Y-41275000I237500J0D01*
G01*
X95500000Y-41275000D01*
G75*
G02*
X95737500Y-41512500I0J-237500D01*
G01*
X95737500Y-41987500D01*
G75*
G02*
X95500000Y-42225000I-237500J0D01*
G01*
X95000000Y-42225000D01*
G75*
G02*
X94762500Y-41987500I0J237500D01*
G01*
G37*
G04 #@! TD.AperFunction*
G04 #@! TA.AperFunction,SMDPad,CuDef*
G36*
G01*
X92937500Y-41987500D02*
X92937500Y-41512500D01*
G75*
G02*
X93175000Y-41275000I237500J0D01*
G01*
X93675000Y-41275000D01*
G75*
G02*
X93912500Y-41512500I0J-237500D01*
G01*
X93912500Y-41987500D01*
G75*
G02*
X93675000Y-42225000I-237500J0D01*
G01*
X93175000Y-42225000D01*
G75*
G02*
X92937500Y-41987500I0J237500D01*
G01*
G37*
G04 #@! TD.AperFunction*
G04 #@! TA.AperFunction,SMDPad,CuDef*
G36*
G01*
X94987500Y-59487500D02*
X94512500Y-59487500D01*
G75*
G02*
X94275000Y-59250000I0J237500D01*
G01*
X94275000Y-58750000D01*
G75*
G02*
X94512500Y-58512500I237500J0D01*
G01*
X94987500Y-58512500D01*
G75*
G02*
X95225000Y-58750000I0J-237500D01*
G01*
X95225000Y-59250000D01*
G75*
G02*
X94987500Y-59487500I-237500J0D01*
G01*
G37*
G04 #@! TD.AperFunction*
G04 #@! TA.AperFunction,SMDPad,CuDef*
G36*
G01*
X94987500Y-61312500D02*
X94512500Y-61312500D01*
G75*
G02*
X94275000Y-61075000I0J237500D01*
G01*
X94275000Y-60575000D01*
G75*
G02*
X94512500Y-60337500I237500J0D01*
G01*
X94987500Y-60337500D01*
G75*
G02*
X95225000Y-60575000I0J-237500D01*
G01*
X95225000Y-61075000D01*
G75*
G02*
X94987500Y-61312500I-237500J0D01*
G01*
G37*
G04 #@! TD.AperFunction*
G04 #@! TA.AperFunction,SMDPad,CuDef*
G36*
G01*
X97487500Y-59487500D02*
X97012500Y-59487500D01*
G75*
G02*
X96775000Y-59250000I0J237500D01*
G01*
X96775000Y-58750000D01*
G75*
G02*
X97012500Y-58512500I237500J0D01*
G01*
X97487500Y-58512500D01*
G75*
G02*
X97725000Y-58750000I0J-237500D01*
G01*
X97725000Y-59250000D01*
G75*
G02*
X97487500Y-59487500I-237500J0D01*
G01*
G37*
G04 #@! TD.AperFunction*
G04 #@! TA.AperFunction,SMDPad,CuDef*
G36*
G01*
X97487500Y-61312500D02*
X97012500Y-61312500D01*
G75*
G02*
X96775000Y-61075000I0J237500D01*
G01*
X96775000Y-60575000D01*
G75*
G02*
X97012500Y-60337500I237500J0D01*
G01*
X97487500Y-60337500D01*
G75*
G02*
X97725000Y-60575000I0J-237500D01*
G01*
X97725000Y-61075000D01*
G75*
G02*
X97487500Y-61312500I-237500J0D01*
G01*
G37*
G04 #@! TD.AperFunction*
G04 #@! TA.AperFunction,SMDPad,CuDef*
G36*
G01*
X99987500Y-59487500D02*
X99512500Y-59487500D01*
G75*
G02*
X99275000Y-59250000I0J237500D01*
G01*
X99275000Y-58750000D01*
G75*
G02*
X99512500Y-58512500I237500J0D01*
G01*
X99987500Y-58512500D01*
G75*
G02*
X100225000Y-58750000I0J-237500D01*
G01*
X100225000Y-59250000D01*
G75*
G02*
X99987500Y-59487500I-237500J0D01*
G01*
G37*
G04 #@! TD.AperFunction*
G04 #@! TA.AperFunction,SMDPad,CuDef*
G36*
G01*
X99987500Y-61312500D02*
X99512500Y-61312500D01*
G75*
G02*
X99275000Y-61075000I0J237500D01*
G01*
X99275000Y-60575000D01*
G75*
G02*
X99512500Y-60337500I237500J0D01*
G01*
X99987500Y-60337500D01*
G75*
G02*
X100225000Y-60575000I0J-237500D01*
G01*
X100225000Y-61075000D01*
G75*
G02*
X99987500Y-61312500I-237500J0D01*
G01*
G37*
G04 #@! TD.AperFunction*
G04 #@! TA.AperFunction,SMDPad,CuDef*
G36*
G01*
X102487500Y-59487500D02*
X102012500Y-59487500D01*
G75*
G02*
X101775000Y-59250000I0J237500D01*
G01*
X101775000Y-58750000D01*
G75*
G02*
X102012500Y-58512500I237500J0D01*
G01*
X102487500Y-58512500D01*
G75*
G02*
X102725000Y-58750000I0J-237500D01*
G01*
X102725000Y-59250000D01*
G75*
G02*
X102487500Y-59487500I-237500J0D01*
G01*
G37*
G04 #@! TD.AperFunction*
G04 #@! TA.AperFunction,SMDPad,CuDef*
G36*
G01*
X102487500Y-61312500D02*
X102012500Y-61312500D01*
G75*
G02*
X101775000Y-61075000I0J237500D01*
G01*
X101775000Y-60575000D01*
G75*
G02*
X102012500Y-60337500I237500J0D01*
G01*
X102487500Y-60337500D01*
G75*
G02*
X102725000Y-60575000I0J-237500D01*
G01*
X102725000Y-61075000D01*
G75*
G02*
X102487500Y-61312500I-237500J0D01*
G01*
G37*
G04 #@! TD.AperFunction*
G04 #@! TA.AperFunction,SMDPad,CuDef*
G36*
G01*
X104937500Y-59487500D02*
X104462500Y-59487500D01*
G75*
G02*
X104225000Y-59250000I0J237500D01*
G01*
X104225000Y-58750000D01*
G75*
G02*
X104462500Y-58512500I237500J0D01*
G01*
X104937500Y-58512500D01*
G75*
G02*
X105175000Y-58750000I0J-237500D01*
G01*
X105175000Y-59250000D01*
G75*
G02*
X104937500Y-59487500I-237500J0D01*
G01*
G37*
G04 #@! TD.AperFunction*
G04 #@! TA.AperFunction,SMDPad,CuDef*
G36*
G01*
X104937500Y-61312500D02*
X104462500Y-61312500D01*
G75*
G02*
X104225000Y-61075000I0J237500D01*
G01*
X104225000Y-60575000D01*
G75*
G02*
X104462500Y-60337500I237500J0D01*
G01*
X104937500Y-60337500D01*
G75*
G02*
X105175000Y-60575000I0J-237500D01*
G01*
X105175000Y-61075000D01*
G75*
G02*
X104937500Y-61312500I-237500J0D01*
G01*
G37*
G04 #@! TD.AperFunction*
G04 #@! TA.AperFunction,SMDPad,CuDef*
G36*
G01*
X107487500Y-59575000D02*
X107012500Y-59575000D01*
G75*
G02*
X106775000Y-59337500I0J237500D01*
G01*
X106775000Y-58837500D01*
G75*
G02*
X107012500Y-58600000I237500J0D01*
G01*
X107487500Y-58600000D01*
G75*
G02*
X107725000Y-58837500I0J-237500D01*
G01*
X107725000Y-59337500D01*
G75*
G02*
X107487500Y-59575000I-237500J0D01*
G01*
G37*
G04 #@! TD.AperFunction*
G04 #@! TA.AperFunction,SMDPad,CuDef*
G36*
G01*
X107487500Y-61400000D02*
X107012500Y-61400000D01*
G75*
G02*
X106775000Y-61162500I0J237500D01*
G01*
X106775000Y-60662500D01*
G75*
G02*
X107012500Y-60425000I237500J0D01*
G01*
X107487500Y-60425000D01*
G75*
G02*
X107725000Y-60662500I0J-237500D01*
G01*
X107725000Y-61162500D01*
G75*
G02*
X107487500Y-61400000I-237500J0D01*
G01*
G37*
G04 #@! TD.AperFunction*
G04 #@! TA.AperFunction,SMDPad,CuDef*
G36*
G01*
X111212500Y-50437500D02*
X111212500Y-49962500D01*
G75*
G02*
X111450000Y-49725000I237500J0D01*
G01*
X111950000Y-49725000D01*
G75*
G02*
X112187500Y-49962500I0J-237500D01*
G01*
X112187500Y-50437500D01*
G75*
G02*
X111950000Y-50675000I-237500J0D01*
G01*
X111450000Y-50675000D01*
G75*
G02*
X111212500Y-50437500I0J237500D01*
G01*
G37*
G04 #@! TD.AperFunction*
G04 #@! TA.AperFunction,SMDPad,CuDef*
G36*
G01*
X109387500Y-50437500D02*
X109387500Y-49962500D01*
G75*
G02*
X109625000Y-49725000I237500J0D01*
G01*
X110125000Y-49725000D01*
G75*
G02*
X110362500Y-49962500I0J-237500D01*
G01*
X110362500Y-50437500D01*
G75*
G02*
X110125000Y-50675000I-237500J0D01*
G01*
X109625000Y-50675000D01*
G75*
G02*
X109387500Y-50437500I0J237500D01*
G01*
G37*
G04 #@! TD.AperFunction*
G04 #@! TA.AperFunction,SMDPad,CuDef*
G36*
G01*
X111025000Y-48737500D02*
X111025000Y-48262500D01*
G75*
G02*
X111262500Y-48025000I237500J0D01*
G01*
X111862500Y-48025000D01*
G75*
G02*
X112100000Y-48262500I0J-237500D01*
G01*
X112100000Y-48737500D01*
G75*
G02*
X111862500Y-48975000I-237500J0D01*
G01*
X111262500Y-48975000D01*
G75*
G02*
X111025000Y-48737500I0J237500D01*
G01*
G37*
G04 #@! TD.AperFunction*
G04 #@! TA.AperFunction,SMDPad,CuDef*
G36*
G01*
X109300000Y-48737500D02*
X109300000Y-48262500D01*
G75*
G02*
X109537500Y-48025000I237500J0D01*
G01*
X110137500Y-48025000D01*
G75*
G02*
X110375000Y-48262500I0J-237500D01*
G01*
X110375000Y-48737500D01*
G75*
G02*
X110137500Y-48975000I-237500J0D01*
G01*
X109537500Y-48975000D01*
G75*
G02*
X109300000Y-48737500I0J237500D01*
G01*
G37*
G04 #@! TD.AperFunction*
G04 #@! TA.AperFunction,SMDPad,CuDef*
G36*
G01*
X100812500Y-55262500D02*
X100812500Y-55737500D01*
G75*
G02*
X100575000Y-55975000I-237500J0D01*
G01*
X99975000Y-55975000D01*
G75*
G02*
X99737500Y-55737500I0J237500D01*
G01*
X99737500Y-55262500D01*
G75*
G02*
X99975000Y-55025000I237500J0D01*
G01*
X100575000Y-55025000D01*
G75*
G02*
X100812500Y-55262500I0J-237500D01*
G01*
G37*
G04 #@! TD.AperFunction*
G04 #@! TA.AperFunction,SMDPad,CuDef*
G36*
G01*
X102537500Y-55262500D02*
X102537500Y-55737500D01*
G75*
G02*
X102300000Y-55975000I-237500J0D01*
G01*
X101700000Y-55975000D01*
G75*
G02*
X101462500Y-55737500I0J237500D01*
G01*
X101462500Y-55262500D01*
G75*
G02*
X101700000Y-55025000I237500J0D01*
G01*
X102300000Y-55025000D01*
G75*
G02*
X102537500Y-55262500I0J-237500D01*
G01*
G37*
G04 #@! TD.AperFunction*
D15*
X100000000Y-48250000D03*
X111750000Y-56250000D03*
X103000000Y-67900000D03*
X84100000Y-32600000D03*
X118800000Y-32900000D03*
X120500000Y-63000000D03*
X107250000Y-62000000D03*
X104750000Y-62000000D03*
X102250000Y-62000000D03*
X99750000Y-62000000D03*
X97250000Y-62000000D03*
X94750000Y-62000000D03*
X93500000Y-40500000D03*
X108500000Y-40750000D03*
X88600000Y-35500000D03*
X100000000Y-35500000D03*
X110500000Y-34000000D03*
X90250000Y-47500000D03*
X110500000Y-44000000D03*
X116000000Y-45750000D03*
X105500000Y-52750000D03*
X91250000Y-57250000D03*
X92750000Y-46250000D03*
X110250000Y-42750000D03*
D16*
X100550000Y-53550000D02*
X100000000Y-54100000D01*
X100550000Y-52500000D02*
X100550000Y-53550000D01*
X100000000Y-54100000D02*
X100000000Y-55000000D01*
X100000000Y-55000000D02*
X100500000Y-55500000D01*
X100000000Y-48250000D02*
X100000000Y-50750000D01*
X100000000Y-50750000D02*
X100500000Y-51250000D01*
X100500000Y-51250000D02*
X100500000Y-52250000D01*
X100500000Y-52250000D02*
X100500000Y-52500000D01*
X105200000Y-47050000D02*
X107200000Y-47050000D01*
X107200000Y-47050000D02*
X107250000Y-47000000D01*
X102950000Y-53550000D02*
X103400000Y-54000000D01*
X102950000Y-52500000D02*
X102950000Y-53550000D01*
X103400000Y-54000000D02*
X106000000Y-54000000D01*
X106000000Y-54000000D02*
X110000000Y-50000000D01*
X110000000Y-50000000D02*
X110000000Y-48500000D01*
D17*
X118750000Y-47710000D02*
X118540000Y-47710000D01*
D16*
X112095500Y-49300010D02*
X110300010Y-49300010D01*
X112395510Y-49000000D02*
X112095500Y-49300010D01*
X117250000Y-49000000D02*
X112395510Y-49000000D01*
X118540000Y-47710000D02*
X117250000Y-49000000D01*
X110300010Y-49300010D02*
X109750000Y-48750000D01*
X107250000Y-60912500D02*
X107250000Y-62000000D01*
X104700000Y-61950000D02*
X104750000Y-62000000D01*
X104700000Y-60825000D02*
X104700000Y-61950000D01*
X102250000Y-60825000D02*
X102250000Y-62000000D01*
X99750000Y-60825000D02*
X99750000Y-62000000D01*
X97250000Y-60825000D02*
X97250000Y-62000000D01*
X94750000Y-60825000D02*
X94750000Y-62000000D01*
X93500000Y-40500000D02*
X93500000Y-41250000D01*
X93500000Y-41250000D02*
X93250000Y-41500000D01*
X108500000Y-40750000D02*
X108500000Y-41750000D01*
X88600000Y-36800000D02*
X88600000Y-35500000D01*
X100000000Y-36925000D02*
X100000000Y-35500000D01*
X108250000Y-34000000D02*
X110500000Y-34000000D01*
X90425000Y-47675000D02*
X90250000Y-47500000D01*
X90425000Y-48750000D02*
X90425000Y-47675000D01*
X109162500Y-44000000D02*
X110500000Y-44000000D01*
X110912500Y-45750000D02*
X115750000Y-45750000D01*
X115750000Y-45750000D02*
X116000000Y-45750000D01*
X102150000Y-53550000D02*
X103100000Y-54500000D01*
X102150000Y-52500000D02*
X102150000Y-53550000D01*
X103100000Y-54500000D02*
X114500000Y-54500000D01*
X114500000Y-54500000D02*
X117750000Y-54500000D01*
X117750000Y-54500000D02*
X118750000Y-55500000D01*
X111700000Y-50200000D02*
X114800000Y-50200000D01*
X114800000Y-50200000D02*
X114600000Y-50000000D01*
X99412490Y-55970500D02*
X99941990Y-56500000D01*
X99412490Y-54051100D02*
X99412490Y-55970500D01*
X99750000Y-53713590D02*
X99412490Y-54051100D01*
X99750000Y-52500000D02*
X99750000Y-53713590D01*
X99941990Y-56500000D02*
X104500000Y-56500000D01*
X104500000Y-56500000D02*
X107000000Y-59000000D01*
X98950000Y-56144420D02*
X99805580Y-57000000D01*
X98950000Y-52500000D02*
X98950000Y-56144420D01*
X99805580Y-57000000D02*
X103000000Y-57000000D01*
X103000000Y-57000000D02*
X105000000Y-59000000D01*
X98150000Y-55980830D02*
X99669170Y-57500000D01*
X98150000Y-52500000D02*
X98150000Y-55980830D01*
X99669170Y-57500000D02*
X100500000Y-57500000D01*
X100500000Y-57500000D02*
X102000000Y-59000000D01*
X96700000Y-55167240D02*
X99532760Y-58000000D01*
X96700000Y-51050000D02*
X96700000Y-55167240D01*
X99532760Y-58000000D02*
X99532760Y-58967240D01*
X99532760Y-58967240D02*
X99565520Y-59000000D01*
X95574999Y-50514999D02*
X95574999Y-55574999D01*
X95839998Y-50250000D02*
X95574999Y-50514999D01*
X96700000Y-50250000D02*
X95839998Y-50250000D01*
X95574999Y-55574999D02*
X97500000Y-57500000D01*
X97500000Y-57500000D02*
X97500000Y-59000000D01*
X95650000Y-49450000D02*
X94500000Y-50600000D01*
X96700000Y-49450000D02*
X95650000Y-49450000D01*
X94500000Y-50600000D02*
X94500000Y-59000000D01*
X98150000Y-44000000D02*
X98000000Y-44000000D01*
X95250000Y-41750000D02*
X96500000Y-41750000D01*
X96500000Y-41750000D02*
X98000000Y-43250000D01*
X100550000Y-42950000D02*
X101750000Y-41750000D01*
X100550000Y-44000000D02*
X100550000Y-42950000D01*
X101750000Y-41750000D02*
X106500000Y-41750000D01*
X96700000Y-45450000D02*
X95150000Y-45450000D01*
X95150000Y-45450000D02*
X88600000Y-38900000D01*
X98950000Y-44000000D02*
X98950000Y-39800000D01*
X98950000Y-39800000D02*
X100000000Y-38750000D01*
X99750000Y-42950000D02*
X106500000Y-36200000D01*
X99750000Y-44000000D02*
X99750000Y-42950000D01*
X106500000Y-36200000D02*
X106500000Y-34000000D01*
X96700000Y-47850000D02*
X93150000Y-47850000D01*
X93150000Y-47850000D02*
X92250000Y-48750000D01*
X103750000Y-44000000D02*
X107250000Y-44000000D01*
X105200000Y-45450000D02*
X108700000Y-45450000D01*
X108700000Y-45450000D02*
X109000000Y-45750000D01*
X105250000Y-52500000D02*
X105500000Y-52750000D01*
X103750000Y-52500000D02*
X105250000Y-52500000D01*
X95813590Y-48650000D02*
X91250000Y-53213590D01*
X96700000Y-48650000D02*
X95813590Y-48650000D01*
X91250000Y-53213590D02*
X91250000Y-57250000D01*
X92750000Y-46250000D02*
X92750000Y-47000000D01*
X92750000Y-47000000D02*
X93000000Y-47250000D01*
X93000000Y-47250000D02*
X96500000Y-47250000D01*
X102950000Y-43139998D02*
X103339998Y-42750000D01*
X102950000Y-44000000D02*
X102950000Y-43139998D01*
X106192000Y-42800010D02*
X110199990Y-42800010D01*
X106141990Y-42750000D02*
X106192000Y-42800010D01*
X103339998Y-42750000D02*
X106141990Y-42750000D01*
X110199990Y-42800010D02*
X110250000Y-42750000D01*
D17*
X101350000Y-52500000D02*
X101350000Y-54850000D01*
X101350000Y-54850000D02*
X102000000Y-55500000D01*
X102000000Y-55500000D02*
X106500000Y-55500000D01*
X101350000Y-52500000D02*
X101350000Y-48150000D01*
X101350000Y-48150000D02*
X103250000Y-46250000D01*
X103250000Y-46250000D02*
X105000000Y-46250000D01*
X114800000Y-59450000D02*
X116750000Y-57500000D01*
X116750000Y-57500000D02*
X120000000Y-57500000D01*
X120000000Y-57500000D02*
X121000000Y-56500000D01*
X121000000Y-56500000D02*
X121000000Y-51250000D01*
X121000000Y-51250000D02*
X120000000Y-51250000D01*
X120000000Y-51250000D02*
X119250000Y-50500000D01*
X110400000Y-59400000D02*
X113500000Y-62500000D01*
X106500000Y-55500000D02*
X110400000Y-59400000D01*
X114350000Y-63875000D02*
X115000000Y-63875000D01*
X113500000Y-63025000D02*
X114350000Y-63875000D01*
X113500000Y-62500000D02*
X113500000Y-63025000D01*
X110450000Y-59450000D02*
X110400000Y-59400000D01*
X114800000Y-59450000D02*
X110450000Y-59450000D01*
D18*
X122340001Y-69340000D02*
X79660000Y-69340000D01*
X79660000Y-67475000D01*
X115611928Y-67475000D01*
X115624188Y-67599482D01*
X115660498Y-67719180D01*
X115719463Y-67829494D01*
X115798815Y-67926185D01*
X115895506Y-68005537D01*
X116005820Y-68064502D01*
X116125518Y-68100812D01*
X116250000Y-68113072D01*
X117464250Y-68110000D01*
X117623000Y-67951250D01*
X117623000Y-66552000D01*
X117877000Y-66552000D01*
X117877000Y-67951250D01*
X118035750Y-68110000D01*
X119250000Y-68113072D01*
X119374482Y-68100812D01*
X119494180Y-68064502D01*
X119604494Y-68005537D01*
X119701185Y-67926185D01*
X119780537Y-67829494D01*
X119839502Y-67719180D01*
X119875812Y-67599482D01*
X119888072Y-67475000D01*
X119885000Y-66710750D01*
X119726250Y-66552000D01*
X117877000Y-66552000D01*
X117623000Y-66552000D01*
X115773750Y-66552000D01*
X115615000Y-66710750D01*
X115611928Y-67475000D01*
X79660000Y-67475000D01*
X79660000Y-65375000D01*
X115611928Y-65375000D01*
X115615000Y-66139250D01*
X115773750Y-66298000D01*
X117623000Y-66298000D01*
X117623000Y-64898750D01*
X117877000Y-64898750D01*
X117877000Y-66298000D01*
X119726250Y-66298000D01*
X119885000Y-66139250D01*
X119888072Y-65375000D01*
X119875812Y-65250518D01*
X119839502Y-65130820D01*
X119780537Y-65020506D01*
X119701185Y-64923815D01*
X119604494Y-64844463D01*
X119494180Y-64785498D01*
X119374482Y-64749188D01*
X119250000Y-64736928D01*
X118035750Y-64740000D01*
X117877000Y-64898750D01*
X117623000Y-64898750D01*
X117464250Y-64740000D01*
X116250000Y-64736928D01*
X116125518Y-64749188D01*
X116005820Y-64785498D01*
X115895506Y-64844463D01*
X115798815Y-64923815D01*
X115719463Y-65020506D01*
X115660498Y-65130820D01*
X115624188Y-65250518D01*
X115611928Y-65375000D01*
X79660000Y-65375000D01*
X79660000Y-36550000D01*
X87486928Y-36550000D01*
X87486928Y-37050000D01*
X87503752Y-37220816D01*
X87553577Y-37385067D01*
X87634488Y-37536442D01*
X87743377Y-37669123D01*
X87796232Y-37712500D01*
X87743377Y-37755877D01*
X87634488Y-37888558D01*
X87553577Y-38039933D01*
X87503752Y-38204184D01*
X87486928Y-38375000D01*
X87486928Y-38875000D01*
X87503752Y-39045816D01*
X87553577Y-39210067D01*
X87634488Y-39361442D01*
X87743377Y-39494123D01*
X87876058Y-39603012D01*
X88027433Y-39683923D01*
X88191684Y-39733748D01*
X88362500Y-39750572D01*
X88375771Y-39750572D01*
X94586200Y-45961002D01*
X94609999Y-45990001D01*
X94725724Y-46084974D01*
X94857753Y-46155546D01*
X95001014Y-46199003D01*
X95112667Y-46210000D01*
X95112677Y-46210000D01*
X95150000Y-46213676D01*
X95187323Y-46210000D01*
X95261928Y-46210000D01*
X95261928Y-46490000D01*
X93757538Y-46490000D01*
X93785000Y-46351939D01*
X93785000Y-46148061D01*
X93745226Y-45948102D01*
X93667205Y-45759744D01*
X93553937Y-45590226D01*
X93409774Y-45446063D01*
X93240256Y-45332795D01*
X93051898Y-45254774D01*
X92851939Y-45215000D01*
X92648061Y-45215000D01*
X92448102Y-45254774D01*
X92259744Y-45332795D01*
X92090226Y-45446063D01*
X91946063Y-45590226D01*
X91832795Y-45759744D01*
X91754774Y-45948102D01*
X91715000Y-46148061D01*
X91715000Y-46351939D01*
X91754774Y-46551898D01*
X91832795Y-46740256D01*
X91946063Y-46909774D01*
X91990000Y-46953711D01*
X91990000Y-46962678D01*
X91986324Y-47000000D01*
X91990000Y-47037322D01*
X91990000Y-47037333D01*
X92000997Y-47148986D01*
X92029317Y-47242344D01*
X92044454Y-47292246D01*
X92115026Y-47424276D01*
X92172628Y-47494463D01*
X92210000Y-47540001D01*
X92238997Y-47563798D01*
X92300198Y-47625000D01*
X92288270Y-47636928D01*
X92000000Y-47636928D01*
X91829184Y-47653752D01*
X91664933Y-47703577D01*
X91513558Y-47784488D01*
X91380877Y-47893377D01*
X91337500Y-47946232D01*
X91294123Y-47893377D01*
X91229352Y-47840221D01*
X91245226Y-47801898D01*
X91285000Y-47601939D01*
X91285000Y-47398061D01*
X91245226Y-47198102D01*
X91167205Y-47009744D01*
X91053937Y-46840226D01*
X90909774Y-46696063D01*
X90740256Y-46582795D01*
X90551898Y-46504774D01*
X90351939Y-46465000D01*
X90148061Y-46465000D01*
X89948102Y-46504774D01*
X89759744Y-46582795D01*
X89590226Y-46696063D01*
X89446063Y-46840226D01*
X89332795Y-47009744D01*
X89254774Y-47198102D01*
X89215000Y-47398061D01*
X89215000Y-47601939D01*
X89254774Y-47801898D01*
X89332795Y-47990256D01*
X89406869Y-48101116D01*
X89366077Y-48177433D01*
X89316252Y-48341684D01*
X89299428Y-48512500D01*
X89299428Y-48987500D01*
X89316252Y-49158316D01*
X89366077Y-49322567D01*
X89446988Y-49473942D01*
X89555877Y-49606623D01*
X89688558Y-49715512D01*
X89839933Y-49796423D01*
X90004184Y-49846248D01*
X90175000Y-49863072D01*
X90675000Y-49863072D01*
X90845816Y-49846248D01*
X91010067Y-49796423D01*
X91161442Y-49715512D01*
X91294123Y-49606623D01*
X91337500Y-49553768D01*
X91380877Y-49606623D01*
X91513558Y-49715512D01*
X91664933Y-49796423D01*
X91829184Y-49846248D01*
X92000000Y-49863072D01*
X92500000Y-49863072D01*
X92670816Y-49846248D01*
X92835067Y-49796423D01*
X92986442Y-49715512D01*
X93119123Y-49606623D01*
X93228012Y-49473942D01*
X93308923Y-49322567D01*
X93358748Y-49158316D01*
X93375572Y-48987500D01*
X93375572Y-48699230D01*
X93464802Y-48610000D01*
X94778788Y-48610000D01*
X90739003Y-52649786D01*
X90709999Y-52673589D01*
X90654871Y-52740764D01*
X90615026Y-52789314D01*
X90585553Y-52844454D01*
X90544454Y-52921344D01*
X90500997Y-53064605D01*
X90490000Y-53176258D01*
X90490000Y-53176268D01*
X90486324Y-53213590D01*
X90490000Y-53250913D01*
X90490001Y-56546288D01*
X90446063Y-56590226D01*
X90332795Y-56759744D01*
X90254774Y-56948102D01*
X90215000Y-57148061D01*
X90215000Y-57351939D01*
X90254774Y-57551898D01*
X90332795Y-57740256D01*
X90446063Y-57909774D01*
X90590226Y-58053937D01*
X90759744Y-58167205D01*
X90948102Y-58245226D01*
X91148061Y-58285000D01*
X91351939Y-58285000D01*
X91551898Y-58245226D01*
X91740256Y-58167205D01*
X91909774Y-58053937D01*
X92053937Y-57909774D01*
X92167205Y-57740256D01*
X92245226Y-57551898D01*
X92285000Y-57351939D01*
X92285000Y-57148061D01*
X92245226Y-56948102D01*
X92167205Y-56759744D01*
X92053937Y-56590226D01*
X92010000Y-56546289D01*
X92010000Y-53528391D01*
X93740000Y-51798391D01*
X93740001Y-58346788D01*
X93703577Y-58414933D01*
X93653752Y-58579184D01*
X93636928Y-58750000D01*
X93636928Y-59250000D01*
X93653752Y-59420816D01*
X93703577Y-59585067D01*
X93784488Y-59736442D01*
X93893377Y-59869123D01*
X93946232Y-59912500D01*
X93893377Y-59955877D01*
X93784488Y-60088558D01*
X93703577Y-60239933D01*
X93653752Y-60404184D01*
X93636928Y-60575000D01*
X93636928Y-61075000D01*
X93653752Y-61245816D01*
X93703577Y-61410067D01*
X93784488Y-61561442D01*
X93802360Y-61583219D01*
X93754774Y-61698102D01*
X93715000Y-61898061D01*
X93715000Y-62101939D01*
X93754774Y-62301898D01*
X93832795Y-62490256D01*
X93946063Y-62659774D01*
X94090226Y-62803937D01*
X94259744Y-62917205D01*
X94448102Y-62995226D01*
X94648061Y-63035000D01*
X94851939Y-63035000D01*
X95051898Y-62995226D01*
X95240256Y-62917205D01*
X95409774Y-62803937D01*
X95553937Y-62659774D01*
X95667205Y-62490256D01*
X95745226Y-62301898D01*
X95785000Y-62101939D01*
X95785000Y-61898061D01*
X95745226Y-61698102D01*
X95697640Y-61583219D01*
X95715512Y-61561442D01*
X95796423Y-61410067D01*
X95846248Y-61245816D01*
X95863072Y-61075000D01*
X95863072Y-60575000D01*
X95846248Y-60404184D01*
X95796423Y-60239933D01*
X95715512Y-60088558D01*
X95606623Y-59955877D01*
X95553768Y-59912500D01*
X95606623Y-59869123D01*
X95715512Y-59736442D01*
X95796423Y-59585067D01*
X95846248Y-59420816D01*
X95863072Y-59250000D01*
X95863072Y-58750000D01*
X95846248Y-58579184D01*
X95796423Y-58414933D01*
X95715512Y-58263558D01*
X95606623Y-58130877D01*
X95473942Y-58021988D01*
X95322567Y-57941077D01*
X95260000Y-57922098D01*
X95260000Y-56334801D01*
X96740000Y-57814802D01*
X96740000Y-57922097D01*
X96677433Y-57941077D01*
X96526058Y-58021988D01*
X96393377Y-58130877D01*
X96284488Y-58263558D01*
X96203577Y-58414933D01*
X96153752Y-58579184D01*
X96136928Y-58750000D01*
X96136928Y-59250000D01*
X96153752Y-59420816D01*
X96203577Y-59585067D01*
X96284488Y-59736442D01*
X96393377Y-59869123D01*
X96446232Y-59912500D01*
X96393377Y-59955877D01*
X96284488Y-60088558D01*
X96203577Y-60239933D01*
X96153752Y-60404184D01*
X96136928Y-60575000D01*
X96136928Y-61075000D01*
X96153752Y-61245816D01*
X96203577Y-61410067D01*
X96284488Y-61561442D01*
X96302360Y-61583219D01*
X96254774Y-61698102D01*
X96215000Y-61898061D01*
X96215000Y-62101939D01*
X96254774Y-62301898D01*
X96332795Y-62490256D01*
X96446063Y-62659774D01*
X96590226Y-62803937D01*
X96759744Y-62917205D01*
X96948102Y-62995226D01*
X97148061Y-63035000D01*
X97351939Y-63035000D01*
X97551898Y-62995226D01*
X97740256Y-62917205D01*
X97909774Y-62803937D01*
X98053937Y-62659774D01*
X98167205Y-62490256D01*
X98245226Y-62301898D01*
X98285000Y-62101939D01*
X98285000Y-61898061D01*
X98245226Y-61698102D01*
X98197640Y-61583219D01*
X98215512Y-61561442D01*
X98296423Y-61410067D01*
X98346248Y-61245816D01*
X98363072Y-61075000D01*
X98363072Y-60575000D01*
X98346248Y-60404184D01*
X98296423Y-60239933D01*
X98215512Y-60088558D01*
X98106623Y-59955877D01*
X98053768Y-59912500D01*
X98106623Y-59869123D01*
X98215512Y-59736442D01*
X98296423Y-59585067D01*
X98346248Y-59420816D01*
X98363072Y-59250000D01*
X98363072Y-58750000D01*
X98346248Y-58579184D01*
X98296423Y-58414933D01*
X98260000Y-58346790D01*
X98260000Y-57802042D01*
X98762553Y-58304595D01*
X98703577Y-58414933D01*
X98653752Y-58579184D01*
X98636928Y-58750000D01*
X98636928Y-59250000D01*
X98653752Y-59420816D01*
X98703577Y-59585067D01*
X98784488Y-59736442D01*
X98893377Y-59869123D01*
X98946232Y-59912500D01*
X98893377Y-59955877D01*
X98784488Y-60088558D01*
X98703577Y-60239933D01*
X98653752Y-60404184D01*
X98636928Y-60575000D01*
X98636928Y-61075000D01*
X98653752Y-61245816D01*
X98703577Y-61410067D01*
X98784488Y-61561442D01*
X98802360Y-61583219D01*
X98754774Y-61698102D01*
X98715000Y-61898061D01*
X98715000Y-62101939D01*
X98754774Y-62301898D01*
X98832795Y-62490256D01*
X98946063Y-62659774D01*
X99090226Y-62803937D01*
X99259744Y-62917205D01*
X99448102Y-62995226D01*
X99648061Y-63035000D01*
X99851939Y-63035000D01*
X100051898Y-62995226D01*
X100240256Y-62917205D01*
X100409774Y-62803937D01*
X100553937Y-62659774D01*
X100667205Y-62490256D01*
X100745226Y-62301898D01*
X100785000Y-62101939D01*
X100785000Y-61898061D01*
X100745226Y-61698102D01*
X100697640Y-61583219D01*
X100715512Y-61561442D01*
X100796423Y-61410067D01*
X100846248Y-61245816D01*
X100863072Y-61075000D01*
X100863072Y-60575000D01*
X100846248Y-60404184D01*
X100796423Y-60239933D01*
X100715512Y-60088558D01*
X100606623Y-59955877D01*
X100553768Y-59912500D01*
X100606623Y-59869123D01*
X100715512Y-59736442D01*
X100796423Y-59585067D01*
X100846248Y-59420816D01*
X100863072Y-59250000D01*
X100863072Y-58937874D01*
X101136928Y-59211730D01*
X101136928Y-59250000D01*
X101153752Y-59420816D01*
X101203577Y-59585067D01*
X101284488Y-59736442D01*
X101393377Y-59869123D01*
X101446232Y-59912500D01*
X101393377Y-59955877D01*
X101284488Y-60088558D01*
X101203577Y-60239933D01*
X101153752Y-60404184D01*
X101136928Y-60575000D01*
X101136928Y-61075000D01*
X101153752Y-61245816D01*
X101203577Y-61410067D01*
X101284488Y-61561442D01*
X101302360Y-61583219D01*
X101254774Y-61698102D01*
X101215000Y-61898061D01*
X101215000Y-62101939D01*
X101254774Y-62301898D01*
X101332795Y-62490256D01*
X101446063Y-62659774D01*
X101590226Y-62803937D01*
X101759744Y-62917205D01*
X101948102Y-62995226D01*
X102148061Y-63035000D01*
X102351939Y-63035000D01*
X102551898Y-62995226D01*
X102740256Y-62917205D01*
X102909774Y-62803937D01*
X103053937Y-62659774D01*
X103167205Y-62490256D01*
X103245226Y-62301898D01*
X103285000Y-62101939D01*
X103285000Y-61898061D01*
X103245226Y-61698102D01*
X103197640Y-61583219D01*
X103215512Y-61561442D01*
X103296423Y-61410067D01*
X103346248Y-61245816D01*
X103363072Y-61075000D01*
X103363072Y-60575000D01*
X103346248Y-60404184D01*
X103296423Y-60239933D01*
X103215512Y-60088558D01*
X103106623Y-59955877D01*
X103053768Y-59912500D01*
X103106623Y-59869123D01*
X103215512Y-59736442D01*
X103296423Y-59585067D01*
X103346248Y-59420816D01*
X103363072Y-59250000D01*
X103363072Y-58750000D01*
X103346248Y-58579184D01*
X103296423Y-58414933D01*
X103246234Y-58321036D01*
X103594842Y-58669644D01*
X103586928Y-58750000D01*
X103586928Y-59250000D01*
X103603752Y-59420816D01*
X103653577Y-59585067D01*
X103734488Y-59736442D01*
X103843377Y-59869123D01*
X103896232Y-59912500D01*
X103843377Y-59955877D01*
X103734488Y-60088558D01*
X103653577Y-60239933D01*
X103603752Y-60404184D01*
X103586928Y-60575000D01*
X103586928Y-61075000D01*
X103603752Y-61245816D01*
X103653577Y-61410067D01*
X103734488Y-61561442D01*
X103785589Y-61623708D01*
X103754774Y-61698102D01*
X103715000Y-61898061D01*
X103715000Y-62101939D01*
X103754774Y-62301898D01*
X103832795Y-62490256D01*
X103946063Y-62659774D01*
X104090226Y-62803937D01*
X104259744Y-62917205D01*
X104448102Y-62995226D01*
X104648061Y-63035000D01*
X104851939Y-63035000D01*
X105051898Y-62995226D01*
X105240256Y-62917205D01*
X105409774Y-62803937D01*
X105553937Y-62659774D01*
X105667205Y-62490256D01*
X105745226Y-62301898D01*
X105785000Y-62101939D01*
X105785000Y-61898061D01*
X105745226Y-61698102D01*
X105678530Y-61537086D01*
X105746423Y-61410067D01*
X105796248Y-61245816D01*
X105813072Y-61075000D01*
X105813072Y-60575000D01*
X105796248Y-60404184D01*
X105746423Y-60239933D01*
X105665512Y-60088558D01*
X105556623Y-59955877D01*
X105503768Y-59912500D01*
X105556623Y-59869123D01*
X105665512Y-59736442D01*
X105746423Y-59585067D01*
X105796248Y-59420816D01*
X105813072Y-59250000D01*
X105813072Y-58887874D01*
X106136928Y-59211730D01*
X106136928Y-59337500D01*
X106153752Y-59508316D01*
X106203577Y-59672567D01*
X106284488Y-59823942D01*
X106393377Y-59956623D01*
X106446232Y-60000000D01*
X106393377Y-60043377D01*
X106284488Y-60176058D01*
X106203577Y-60327433D01*
X106153752Y-60491684D01*
X106136928Y-60662500D01*
X106136928Y-61162500D01*
X106153752Y-61333316D01*
X106203577Y-61497567D01*
X106279220Y-61639085D01*
X106254774Y-61698102D01*
X106215000Y-61898061D01*
X106215000Y-62101939D01*
X106254774Y-62301898D01*
X106332795Y-62490256D01*
X106446063Y-62659774D01*
X106590226Y-62803937D01*
X106759744Y-62917205D01*
X106948102Y-62995226D01*
X107148061Y-63035000D01*
X107351939Y-63035000D01*
X107551898Y-62995226D01*
X107740256Y-62917205D01*
X107909774Y-62803937D01*
X108053937Y-62659774D01*
X108167205Y-62490256D01*
X108245226Y-62301898D01*
X108285000Y-62101939D01*
X108285000Y-61898061D01*
X108245226Y-61698102D01*
X108220780Y-61639085D01*
X108296423Y-61497567D01*
X108346248Y-61333316D01*
X108363072Y-61162500D01*
X108363072Y-60662500D01*
X108346248Y-60491684D01*
X108296423Y-60327433D01*
X108215512Y-60176058D01*
X108106623Y-60043377D01*
X108053768Y-60000000D01*
X108106623Y-59956623D01*
X108215512Y-59823942D01*
X108296423Y-59672567D01*
X108346248Y-59508316D01*
X108363072Y-59337500D01*
X108363072Y-58837500D01*
X108346248Y-58666684D01*
X108316265Y-58567844D01*
X109793470Y-60045049D01*
X109821183Y-60078817D01*
X109854954Y-60106532D01*
X112615000Y-62866579D01*
X112615000Y-62981531D01*
X112610719Y-63025000D01*
X112615000Y-63068469D01*
X112615000Y-63068477D01*
X112627805Y-63198490D01*
X112678411Y-63365313D01*
X112751071Y-63501250D01*
X112760590Y-63519059D01*
X112843468Y-63620046D01*
X112843471Y-63620049D01*
X112871184Y-63653817D01*
X112904951Y-63681529D01*
X113693470Y-64470049D01*
X113721183Y-64503817D01*
X113754951Y-64531530D01*
X113754953Y-64531532D01*
X113855941Y-64614411D01*
X113961002Y-64670567D01*
X114084392Y-64771831D01*
X114229284Y-64849278D01*
X114386500Y-64896969D01*
X114550000Y-64913072D01*
X115450000Y-64913072D01*
X115613500Y-64896969D01*
X115770716Y-64849278D01*
X115915608Y-64771831D01*
X116042606Y-64667606D01*
X116146831Y-64540608D01*
X116224278Y-64395716D01*
X116271969Y-64238500D01*
X116288072Y-64075000D01*
X116288072Y-63675000D01*
X116271969Y-63511500D01*
X116224278Y-63354284D01*
X116209145Y-63325973D01*
X116239502Y-63269180D01*
X116275812Y-63149482D01*
X116288072Y-63025000D01*
X116285000Y-62910750D01*
X116126250Y-62752000D01*
X115127000Y-62752000D01*
X115127000Y-62772000D01*
X114873000Y-62772000D01*
X114873000Y-62752000D01*
X114853000Y-62752000D01*
X114853000Y-62498000D01*
X114873000Y-62498000D01*
X114873000Y-61748750D01*
X115127000Y-61748750D01*
X115127000Y-62498000D01*
X116126250Y-62498000D01*
X116285000Y-62339250D01*
X116288072Y-62225000D01*
X116275812Y-62100518D01*
X116239502Y-61980820D01*
X116180537Y-61870506D01*
X116101185Y-61773815D01*
X116042452Y-61725614D01*
X116125518Y-61750812D01*
X116250000Y-61763072D01*
X117464250Y-61760000D01*
X117623000Y-61601250D01*
X117623000Y-60202000D01*
X117877000Y-60202000D01*
X117877000Y-61601250D01*
X118035750Y-61760000D01*
X119250000Y-61763072D01*
X119374482Y-61750812D01*
X119494180Y-61714502D01*
X119604494Y-61655537D01*
X119701185Y-61576185D01*
X119780537Y-61479494D01*
X119839502Y-61369180D01*
X119875812Y-61249482D01*
X119888072Y-61125000D01*
X119885000Y-60360750D01*
X119726250Y-60202000D01*
X117877000Y-60202000D01*
X117623000Y-60202000D01*
X115773750Y-60202000D01*
X115615000Y-60360750D01*
X115611928Y-61125000D01*
X115624188Y-61249482D01*
X115660498Y-61369180D01*
X115719463Y-61479494D01*
X115798815Y-61576185D01*
X115857548Y-61624386D01*
X115774482Y-61599188D01*
X115650000Y-61586928D01*
X115285750Y-61590000D01*
X115127000Y-61748750D01*
X114873000Y-61748750D01*
X114714250Y-61590000D01*
X114350000Y-61586928D01*
X114225518Y-61599188D01*
X114105820Y-61635498D01*
X113995506Y-61694463D01*
X113968338Y-61716759D01*
X112586579Y-60335000D01*
X114756531Y-60335000D01*
X114800000Y-60339281D01*
X114843469Y-60335000D01*
X114843477Y-60335000D01*
X114973490Y-60322195D01*
X115140313Y-60271589D01*
X115294059Y-60189411D01*
X115428817Y-60078817D01*
X115456534Y-60045044D01*
X115663664Y-59837914D01*
X115773750Y-59948000D01*
X117623000Y-59948000D01*
X117623000Y-58548750D01*
X117877000Y-58548750D01*
X117877000Y-59948000D01*
X119726250Y-59948000D01*
X119885000Y-59789250D01*
X119888072Y-59025000D01*
X119875812Y-58900518D01*
X119839502Y-58780820D01*
X119780537Y-58670506D01*
X119701185Y-58573815D01*
X119604494Y-58494463D01*
X119494180Y-58435498D01*
X119374482Y-58399188D01*
X119250000Y-58386928D01*
X118035750Y-58390000D01*
X117877000Y-58548750D01*
X117623000Y-58548750D01*
X117464250Y-58390000D01*
X117112469Y-58389110D01*
X117116579Y-58385000D01*
X119956531Y-58385000D01*
X120000000Y-58389281D01*
X120043469Y-58385000D01*
X120043477Y-58385000D01*
X120173490Y-58372195D01*
X120340313Y-58321589D01*
X120494059Y-58239411D01*
X120628817Y-58128817D01*
X120656534Y-58095044D01*
X121595050Y-57156529D01*
X121628817Y-57128817D01*
X121682177Y-57063799D01*
X121739411Y-56994059D01*
X121821589Y-56840314D01*
X121872195Y-56673490D01*
X121872195Y-56673489D01*
X121885000Y-56543477D01*
X121885000Y-56543469D01*
X121889281Y-56500000D01*
X121885000Y-56456531D01*
X121885000Y-51293477D01*
X121889282Y-51250000D01*
X121880721Y-51163072D01*
X121872195Y-51076510D01*
X121821589Y-50909687D01*
X121739411Y-50755941D01*
X121628817Y-50621183D01*
X121494059Y-50510589D01*
X121340313Y-50428411D01*
X121173490Y-50377805D01*
X121000000Y-50360718D01*
X120956524Y-50365000D01*
X120366579Y-50365000D01*
X120235000Y-50233422D01*
X120235000Y-50103740D01*
X120177932Y-49816842D01*
X120065990Y-49546589D01*
X119903475Y-49303368D01*
X119771620Y-49171513D01*
X119844180Y-49149502D01*
X119954494Y-49090537D01*
X120051185Y-49011185D01*
X120130537Y-48914494D01*
X120189502Y-48804180D01*
X120225812Y-48684482D01*
X120238072Y-48560000D01*
X120238072Y-46860000D01*
X120225812Y-46735518D01*
X120189502Y-46615820D01*
X120130537Y-46505506D01*
X120051185Y-46408815D01*
X119954494Y-46329463D01*
X119844180Y-46270498D01*
X119724482Y-46234188D01*
X119600000Y-46221928D01*
X117900000Y-46221928D01*
X117775518Y-46234188D01*
X117655820Y-46270498D01*
X117545506Y-46329463D01*
X117448815Y-46408815D01*
X117369463Y-46505506D01*
X117310498Y-46615820D01*
X117274188Y-46735518D01*
X117261928Y-46860000D01*
X117261928Y-47913270D01*
X116935199Y-48240000D01*
X112709250Y-48240000D01*
X112735000Y-48214250D01*
X112738072Y-48025000D01*
X112725812Y-47900518D01*
X112689502Y-47780820D01*
X112630537Y-47670506D01*
X112551185Y-47573815D01*
X112454494Y-47494463D01*
X112344180Y-47435498D01*
X112224482Y-47399188D01*
X112100000Y-47386928D01*
X111848250Y-47390000D01*
X111689500Y-47548750D01*
X111689500Y-48373000D01*
X111709500Y-48373000D01*
X111709500Y-48540010D01*
X111415500Y-48540010D01*
X111415500Y-48373000D01*
X111435500Y-48373000D01*
X111435500Y-47548750D01*
X111276750Y-47390000D01*
X111025000Y-47386928D01*
X110900518Y-47399188D01*
X110780820Y-47435498D01*
X110670506Y-47494463D01*
X110622606Y-47533774D01*
X110472567Y-47453577D01*
X110308316Y-47403752D01*
X110137500Y-47386928D01*
X109537500Y-47386928D01*
X109366684Y-47403752D01*
X109202433Y-47453577D01*
X109051058Y-47534488D01*
X108918377Y-47643377D01*
X108809488Y-47776058D01*
X108728577Y-47927433D01*
X108678752Y-48091684D01*
X108661928Y-48262500D01*
X108661928Y-48737500D01*
X108678752Y-48908316D01*
X108728577Y-49072567D01*
X108809488Y-49223942D01*
X108918377Y-49356623D01*
X108964166Y-49394201D01*
X108896988Y-49476058D01*
X108816077Y-49627433D01*
X108766252Y-49791684D01*
X108749428Y-49962500D01*
X108749428Y-50175770D01*
X106489916Y-52435283D01*
X106417205Y-52259744D01*
X106303937Y-52090226D01*
X106159774Y-51946063D01*
X106153643Y-51941966D01*
X106244180Y-51914502D01*
X106354494Y-51855537D01*
X106451185Y-51776185D01*
X106530537Y-51679494D01*
X106589502Y-51569180D01*
X106625812Y-51449482D01*
X106638072Y-51325000D01*
X106638072Y-50775000D01*
X106625812Y-50650518D01*
X106625655Y-50650000D01*
X106625812Y-50649482D01*
X106638072Y-50525000D01*
X106638072Y-49975000D01*
X106625812Y-49850518D01*
X106625655Y-49850000D01*
X106625812Y-49849482D01*
X106638072Y-49725000D01*
X106638072Y-49175000D01*
X106625812Y-49050518D01*
X106625655Y-49050000D01*
X106625812Y-49049482D01*
X106638072Y-48925000D01*
X106638072Y-48375000D01*
X106625812Y-48250518D01*
X106625655Y-48250000D01*
X106625812Y-48249482D01*
X106638072Y-48125000D01*
X106638072Y-47575000D01*
X106625812Y-47450518D01*
X106625467Y-47449380D01*
X106635000Y-47335750D01*
X106542917Y-47243667D01*
X106530537Y-47220506D01*
X106451185Y-47123815D01*
X106361241Y-47050000D01*
X106451185Y-46976185D01*
X106530537Y-46879494D01*
X106542917Y-46856333D01*
X106635000Y-46764250D01*
X106625467Y-46650620D01*
X106625812Y-46649482D01*
X106638072Y-46525000D01*
X106638072Y-46210000D01*
X107994430Y-46210000D01*
X108028577Y-46322567D01*
X108109488Y-46473942D01*
X108218377Y-46606623D01*
X108351058Y-46715512D01*
X108502433Y-46796423D01*
X108666684Y-46846248D01*
X108837500Y-46863072D01*
X109337500Y-46863072D01*
X109508316Y-46846248D01*
X109672567Y-46796423D01*
X109823942Y-46715512D01*
X109956623Y-46606623D01*
X110000000Y-46553768D01*
X110043377Y-46606623D01*
X110176058Y-46715512D01*
X110327433Y-46796423D01*
X110491684Y-46846248D01*
X110662500Y-46863072D01*
X111162500Y-46863072D01*
X111333316Y-46846248D01*
X111497567Y-46796423D01*
X111648942Y-46715512D01*
X111781623Y-46606623D01*
X111860920Y-46510000D01*
X115296289Y-46510000D01*
X115340226Y-46553937D01*
X115509744Y-46667205D01*
X115698102Y-46745226D01*
X115898061Y-46785000D01*
X116101939Y-46785000D01*
X116301898Y-46745226D01*
X116490256Y-46667205D01*
X116659774Y-46553937D01*
X116803937Y-46409774D01*
X116917205Y-46240256D01*
X116995226Y-46051898D01*
X117035000Y-45851939D01*
X117035000Y-45648061D01*
X116995226Y-45448102D01*
X116917205Y-45259744D01*
X116803937Y-45090226D01*
X116659774Y-44946063D01*
X116490256Y-44832795D01*
X116301898Y-44754774D01*
X116101939Y-44715000D01*
X115898061Y-44715000D01*
X115698102Y-44754774D01*
X115509744Y-44832795D01*
X115340226Y-44946063D01*
X115296289Y-44990000D01*
X111860920Y-44990000D01*
X111781623Y-44893377D01*
X111648942Y-44784488D01*
X111497567Y-44703577D01*
X111333316Y-44653752D01*
X111309526Y-44651409D01*
X111417205Y-44490256D01*
X111495226Y-44301898D01*
X111535000Y-44101939D01*
X111535000Y-43898061D01*
X111495226Y-43698102D01*
X111417205Y-43509744D01*
X111303937Y-43340226D01*
X111177972Y-43214261D01*
X111245226Y-43051898D01*
X111285000Y-42851939D01*
X111285000Y-42648061D01*
X111245226Y-42448102D01*
X111167205Y-42259744D01*
X111053937Y-42090226D01*
X110909774Y-41946063D01*
X110740256Y-41832795D01*
X110551898Y-41754774D01*
X110351939Y-41715000D01*
X110148061Y-41715000D01*
X109948102Y-41754774D01*
X109759744Y-41832795D01*
X109625572Y-41922446D01*
X109625572Y-41762500D01*
X109608748Y-41591684D01*
X109558923Y-41427433D01*
X109478012Y-41276058D01*
X109427746Y-41214809D01*
X109495226Y-41051898D01*
X109535000Y-40851939D01*
X109535000Y-40648061D01*
X109495226Y-40448102D01*
X109417205Y-40259744D01*
X109303937Y-40090226D01*
X109159774Y-39946063D01*
X108990256Y-39832795D01*
X108801898Y-39754774D01*
X108601939Y-39715000D01*
X108398061Y-39715000D01*
X108198102Y-39754774D01*
X108009744Y-39832795D01*
X107840226Y-39946063D01*
X107696063Y-40090226D01*
X107582795Y-40259744D01*
X107504774Y-40448102D01*
X107465000Y-40648061D01*
X107465000Y-40851939D01*
X107504774Y-41051898D01*
X107541916Y-41141566D01*
X107411442Y-41034488D01*
X107260067Y-40953577D01*
X107095816Y-40903752D01*
X106925000Y-40886928D01*
X106425000Y-40886928D01*
X106254184Y-40903752D01*
X106089933Y-40953577D01*
X106021790Y-40990000D01*
X102784801Y-40990000D01*
X107011004Y-36763798D01*
X107040001Y-36740001D01*
X107134974Y-36624276D01*
X107205546Y-36492247D01*
X107249003Y-36348986D01*
X107260000Y-36237333D01*
X107260000Y-36237332D01*
X107263677Y-36200000D01*
X107260000Y-36162667D01*
X107260000Y-34884627D01*
X107294123Y-34856623D01*
X107337500Y-34803768D01*
X107380877Y-34856623D01*
X107513558Y-34965512D01*
X107664933Y-35046423D01*
X107829184Y-35096248D01*
X108000000Y-35113072D01*
X108500000Y-35113072D01*
X108670816Y-35096248D01*
X108835067Y-35046423D01*
X108986442Y-34965512D01*
X109119123Y-34856623D01*
X109198420Y-34760000D01*
X109796289Y-34760000D01*
X109840226Y-34803937D01*
X110009744Y-34917205D01*
X110198102Y-34995226D01*
X110398061Y-35035000D01*
X110601939Y-35035000D01*
X110801898Y-34995226D01*
X110990256Y-34917205D01*
X111159774Y-34803937D01*
X111303937Y-34659774D01*
X111417205Y-34490256D01*
X111495226Y-34301898D01*
X111535000Y-34101939D01*
X111535000Y-33898061D01*
X111495226Y-33698102D01*
X111417205Y-33509744D01*
X111303937Y-33340226D01*
X111159774Y-33196063D01*
X110990256Y-33082795D01*
X110801898Y-33004774D01*
X110601939Y-32965000D01*
X110398061Y-32965000D01*
X110198102Y-33004774D01*
X110009744Y-33082795D01*
X109840226Y-33196063D01*
X109796289Y-33240000D01*
X109198420Y-33240000D01*
X109119123Y-33143377D01*
X108986442Y-33034488D01*
X108835067Y-32953577D01*
X108670816Y-32903752D01*
X108500000Y-32886928D01*
X108000000Y-32886928D01*
X107829184Y-32903752D01*
X107664933Y-32953577D01*
X107513558Y-33034488D01*
X107380877Y-33143377D01*
X107337500Y-33196232D01*
X107294123Y-33143377D01*
X107161442Y-33034488D01*
X107010067Y-32953577D01*
X106845816Y-32903752D01*
X106675000Y-32886928D01*
X106175000Y-32886928D01*
X106004184Y-32903752D01*
X105839933Y-32953577D01*
X105688558Y-33034488D01*
X105555877Y-33143377D01*
X105446988Y-33276058D01*
X105366077Y-33427433D01*
X105316252Y-33591684D01*
X105299428Y-33762500D01*
X105299428Y-34237500D01*
X105316252Y-34408316D01*
X105366077Y-34572567D01*
X105446988Y-34723942D01*
X105555877Y-34856623D01*
X105688558Y-34965512D01*
X105740001Y-34993008D01*
X105740000Y-35885198D01*
X99710000Y-41915199D01*
X99710000Y-40114801D01*
X99949229Y-39875572D01*
X100237500Y-39875572D01*
X100408316Y-39858748D01*
X100572567Y-39808923D01*
X100723942Y-39728012D01*
X100856623Y-39619123D01*
X100965512Y-39486442D01*
X101046423Y-39335067D01*
X101096248Y-39170816D01*
X101113072Y-39000000D01*
X101113072Y-38500000D01*
X101096248Y-38329184D01*
X101046423Y-38164933D01*
X100965512Y-38013558D01*
X100856623Y-37880877D01*
X100803768Y-37837500D01*
X100856623Y-37794123D01*
X100965512Y-37661442D01*
X101046423Y-37510067D01*
X101096248Y-37345816D01*
X101113072Y-37175000D01*
X101113072Y-36675000D01*
X101096248Y-36504184D01*
X101046423Y-36339933D01*
X100965512Y-36188558D01*
X100865848Y-36067118D01*
X100917205Y-35990256D01*
X100995226Y-35801898D01*
X101035000Y-35601939D01*
X101035000Y-35398061D01*
X100995226Y-35198102D01*
X100917205Y-35009744D01*
X100803937Y-34840226D01*
X100659774Y-34696063D01*
X100490256Y-34582795D01*
X100301898Y-34504774D01*
X100101939Y-34465000D01*
X99898061Y-34465000D01*
X99698102Y-34504774D01*
X99509744Y-34582795D01*
X99340226Y-34696063D01*
X99196063Y-34840226D01*
X99082795Y-35009744D01*
X99004774Y-35198102D01*
X98965000Y-35398061D01*
X98965000Y-35601939D01*
X99004774Y-35801898D01*
X99082795Y-35990256D01*
X99134152Y-36067118D01*
X99034488Y-36188558D01*
X98953577Y-36339933D01*
X98903752Y-36504184D01*
X98886928Y-36675000D01*
X98886928Y-37175000D01*
X98903752Y-37345816D01*
X98953577Y-37510067D01*
X99034488Y-37661442D01*
X99143377Y-37794123D01*
X99196232Y-37837500D01*
X99143377Y-37880877D01*
X99034488Y-38013558D01*
X98953577Y-38164933D01*
X98903752Y-38329184D01*
X98886928Y-38500000D01*
X98886928Y-38788271D01*
X98438998Y-39236201D01*
X98410000Y-39259999D01*
X98386202Y-39288997D01*
X98386201Y-39288998D01*
X98315026Y-39375724D01*
X98244454Y-39507754D01*
X98200998Y-39651015D01*
X98186324Y-39800000D01*
X98190001Y-39837332D01*
X98190000Y-42365199D01*
X97063804Y-41239003D01*
X97040001Y-41209999D01*
X96924276Y-41115026D01*
X96792247Y-41044454D01*
X96648986Y-41000997D01*
X96537333Y-40990000D01*
X96537322Y-40990000D01*
X96500000Y-40986324D01*
X96462678Y-40990000D01*
X96198420Y-40990000D01*
X96119123Y-40893377D01*
X95986442Y-40784488D01*
X95835067Y-40703577D01*
X95670816Y-40653752D01*
X95500000Y-40636928D01*
X95000000Y-40636928D01*
X94829184Y-40653752D01*
X94664933Y-40703577D01*
X94513558Y-40784488D01*
X94495788Y-40799071D01*
X94535000Y-40601939D01*
X94535000Y-40398061D01*
X94495226Y-40198102D01*
X94417205Y-40009744D01*
X94303937Y-39840226D01*
X94159774Y-39696063D01*
X93990256Y-39582795D01*
X93801898Y-39504774D01*
X93601939Y-39465000D01*
X93398061Y-39465000D01*
X93198102Y-39504774D01*
X93009744Y-39582795D01*
X92840226Y-39696063D01*
X92696063Y-39840226D01*
X92582795Y-40009744D01*
X92504774Y-40198102D01*
X92465000Y-40398061D01*
X92465000Y-40601939D01*
X92504774Y-40801898D01*
X92547097Y-40904075D01*
X92446988Y-41026058D01*
X92366077Y-41177433D01*
X92316252Y-41341684D01*
X92299428Y-41512500D01*
X92299428Y-41524627D01*
X89707399Y-38932598D01*
X89713072Y-38875000D01*
X89713072Y-38375000D01*
X89696248Y-38204184D01*
X89646423Y-38039933D01*
X89565512Y-37888558D01*
X89456623Y-37755877D01*
X89403768Y-37712500D01*
X89456623Y-37669123D01*
X89565512Y-37536442D01*
X89646423Y-37385067D01*
X89696248Y-37220816D01*
X89713072Y-37050000D01*
X89713072Y-36550000D01*
X89696248Y-36379184D01*
X89646423Y-36214933D01*
X89565512Y-36063558D01*
X89511887Y-35998216D01*
X89517205Y-35990256D01*
X89595226Y-35801898D01*
X89635000Y-35601939D01*
X89635000Y-35398061D01*
X89595226Y-35198102D01*
X89517205Y-35009744D01*
X89403937Y-34840226D01*
X89259774Y-34696063D01*
X89090256Y-34582795D01*
X88901898Y-34504774D01*
X88701939Y-34465000D01*
X88498061Y-34465000D01*
X88298102Y-34504774D01*
X88109744Y-34582795D01*
X87940226Y-34696063D01*
X87796063Y-34840226D01*
X87682795Y-35009744D01*
X87604774Y-35198102D01*
X87565000Y-35398061D01*
X87565000Y-35601939D01*
X87604774Y-35801898D01*
X87682795Y-35990256D01*
X87688113Y-35998216D01*
X87634488Y-36063558D01*
X87553577Y-36214933D01*
X87503752Y-36379184D01*
X87486928Y-36550000D01*
X79660000Y-36550000D01*
X79660000Y-30660000D01*
X122340000Y-30660000D01*
X122340001Y-69340000D01*
G04 #@! TA.AperFunction,Conductor*
D19*
G36*
X122340001Y-69340000D02*
G01*
X79660000Y-69340000D01*
X79660000Y-67475000D01*
X115611928Y-67475000D01*
X115624188Y-67599482D01*
X115660498Y-67719180D01*
X115719463Y-67829494D01*
X115798815Y-67926185D01*
X115895506Y-68005537D01*
X116005820Y-68064502D01*
X116125518Y-68100812D01*
X116250000Y-68113072D01*
X117464250Y-68110000D01*
X117623000Y-67951250D01*
X117623000Y-66552000D01*
X117877000Y-66552000D01*
X117877000Y-67951250D01*
X118035750Y-68110000D01*
X119250000Y-68113072D01*
X119374482Y-68100812D01*
X119494180Y-68064502D01*
X119604494Y-68005537D01*
X119701185Y-67926185D01*
X119780537Y-67829494D01*
X119839502Y-67719180D01*
X119875812Y-67599482D01*
X119888072Y-67475000D01*
X119885000Y-66710750D01*
X119726250Y-66552000D01*
X117877000Y-66552000D01*
X117623000Y-66552000D01*
X115773750Y-66552000D01*
X115615000Y-66710750D01*
X115611928Y-67475000D01*
X79660000Y-67475000D01*
X79660000Y-65375000D01*
X115611928Y-65375000D01*
X115615000Y-66139250D01*
X115773750Y-66298000D01*
X117623000Y-66298000D01*
X117623000Y-64898750D01*
X117877000Y-64898750D01*
X117877000Y-66298000D01*
X119726250Y-66298000D01*
X119885000Y-66139250D01*
X119888072Y-65375000D01*
X119875812Y-65250518D01*
X119839502Y-65130820D01*
X119780537Y-65020506D01*
X119701185Y-64923815D01*
X119604494Y-64844463D01*
X119494180Y-64785498D01*
X119374482Y-64749188D01*
X119250000Y-64736928D01*
X118035750Y-64740000D01*
X117877000Y-64898750D01*
X117623000Y-64898750D01*
X117464250Y-64740000D01*
X116250000Y-64736928D01*
X116125518Y-64749188D01*
X116005820Y-64785498D01*
X115895506Y-64844463D01*
X115798815Y-64923815D01*
X115719463Y-65020506D01*
X115660498Y-65130820D01*
X115624188Y-65250518D01*
X115611928Y-65375000D01*
X79660000Y-65375000D01*
X79660000Y-36550000D01*
X87486928Y-36550000D01*
X87486928Y-37050000D01*
X87503752Y-37220816D01*
X87553577Y-37385067D01*
X87634488Y-37536442D01*
X87743377Y-37669123D01*
X87796232Y-37712500D01*
X87743377Y-37755877D01*
X87634488Y-37888558D01*
X87553577Y-38039933D01*
X87503752Y-38204184D01*
X87486928Y-38375000D01*
X87486928Y-38875000D01*
X87503752Y-39045816D01*
X87553577Y-39210067D01*
X87634488Y-39361442D01*
X87743377Y-39494123D01*
X87876058Y-39603012D01*
X88027433Y-39683923D01*
X88191684Y-39733748D01*
X88362500Y-39750572D01*
X88375771Y-39750572D01*
X94586200Y-45961002D01*
X94609999Y-45990001D01*
X94725724Y-46084974D01*
X94857753Y-46155546D01*
X95001014Y-46199003D01*
X95112667Y-46210000D01*
X95112677Y-46210000D01*
X95150000Y-46213676D01*
X95187323Y-46210000D01*
X95261928Y-46210000D01*
X95261928Y-46490000D01*
X93757538Y-46490000D01*
X93785000Y-46351939D01*
X93785000Y-46148061D01*
X93745226Y-45948102D01*
X93667205Y-45759744D01*
X93553937Y-45590226D01*
X93409774Y-45446063D01*
X93240256Y-45332795D01*
X93051898Y-45254774D01*
X92851939Y-45215000D01*
X92648061Y-45215000D01*
X92448102Y-45254774D01*
X92259744Y-45332795D01*
X92090226Y-45446063D01*
X91946063Y-45590226D01*
X91832795Y-45759744D01*
X91754774Y-45948102D01*
X91715000Y-46148061D01*
X91715000Y-46351939D01*
X91754774Y-46551898D01*
X91832795Y-46740256D01*
X91946063Y-46909774D01*
X91990000Y-46953711D01*
X91990000Y-46962678D01*
X91986324Y-47000000D01*
X91990000Y-47037322D01*
X91990000Y-47037333D01*
X92000997Y-47148986D01*
X92029317Y-47242344D01*
X92044454Y-47292246D01*
X92115026Y-47424276D01*
X92172628Y-47494463D01*
X92210000Y-47540001D01*
X92238997Y-47563798D01*
X92300198Y-47625000D01*
X92288270Y-47636928D01*
X92000000Y-47636928D01*
X91829184Y-47653752D01*
X91664933Y-47703577D01*
X91513558Y-47784488D01*
X91380877Y-47893377D01*
X91337500Y-47946232D01*
X91294123Y-47893377D01*
X91229352Y-47840221D01*
X91245226Y-47801898D01*
X91285000Y-47601939D01*
X91285000Y-47398061D01*
X91245226Y-47198102D01*
X91167205Y-47009744D01*
X91053937Y-46840226D01*
X90909774Y-46696063D01*
X90740256Y-46582795D01*
X90551898Y-46504774D01*
X90351939Y-46465000D01*
X90148061Y-46465000D01*
X89948102Y-46504774D01*
X89759744Y-46582795D01*
X89590226Y-46696063D01*
X89446063Y-46840226D01*
X89332795Y-47009744D01*
X89254774Y-47198102D01*
X89215000Y-47398061D01*
X89215000Y-47601939D01*
X89254774Y-47801898D01*
X89332795Y-47990256D01*
X89406869Y-48101116D01*
X89366077Y-48177433D01*
X89316252Y-48341684D01*
X89299428Y-48512500D01*
X89299428Y-48987500D01*
X89316252Y-49158316D01*
X89366077Y-49322567D01*
X89446988Y-49473942D01*
X89555877Y-49606623D01*
X89688558Y-49715512D01*
X89839933Y-49796423D01*
X90004184Y-49846248D01*
X90175000Y-49863072D01*
X90675000Y-49863072D01*
X90845816Y-49846248D01*
X91010067Y-49796423D01*
X91161442Y-49715512D01*
X91294123Y-49606623D01*
X91337500Y-49553768D01*
X91380877Y-49606623D01*
X91513558Y-49715512D01*
X91664933Y-49796423D01*
X91829184Y-49846248D01*
X92000000Y-49863072D01*
X92500000Y-49863072D01*
X92670816Y-49846248D01*
X92835067Y-49796423D01*
X92986442Y-49715512D01*
X93119123Y-49606623D01*
X93228012Y-49473942D01*
X93308923Y-49322567D01*
X93358748Y-49158316D01*
X93375572Y-48987500D01*
X93375572Y-48699230D01*
X93464802Y-48610000D01*
X94778788Y-48610000D01*
X90739003Y-52649786D01*
X90709999Y-52673589D01*
X90654871Y-52740764D01*
X90615026Y-52789314D01*
X90585553Y-52844454D01*
X90544454Y-52921344D01*
X90500997Y-53064605D01*
X90490000Y-53176258D01*
X90490000Y-53176268D01*
X90486324Y-53213590D01*
X90490000Y-53250913D01*
X90490001Y-56546288D01*
X90446063Y-56590226D01*
X90332795Y-56759744D01*
X90254774Y-56948102D01*
X90215000Y-57148061D01*
X90215000Y-57351939D01*
X90254774Y-57551898D01*
X90332795Y-57740256D01*
X90446063Y-57909774D01*
X90590226Y-58053937D01*
X90759744Y-58167205D01*
X90948102Y-58245226D01*
X91148061Y-58285000D01*
X91351939Y-58285000D01*
X91551898Y-58245226D01*
X91740256Y-58167205D01*
X91909774Y-58053937D01*
X92053937Y-57909774D01*
X92167205Y-57740256D01*
X92245226Y-57551898D01*
X92285000Y-57351939D01*
X92285000Y-57148061D01*
X92245226Y-56948102D01*
X92167205Y-56759744D01*
X92053937Y-56590226D01*
X92010000Y-56546289D01*
X92010000Y-53528391D01*
X93740000Y-51798391D01*
X93740001Y-58346788D01*
X93703577Y-58414933D01*
X93653752Y-58579184D01*
X93636928Y-58750000D01*
X93636928Y-59250000D01*
X93653752Y-59420816D01*
X93703577Y-59585067D01*
X93784488Y-59736442D01*
X93893377Y-59869123D01*
X93946232Y-59912500D01*
X93893377Y-59955877D01*
X93784488Y-60088558D01*
X93703577Y-60239933D01*
X93653752Y-60404184D01*
X93636928Y-60575000D01*
X93636928Y-61075000D01*
X93653752Y-61245816D01*
X93703577Y-61410067D01*
X93784488Y-61561442D01*
X93802360Y-61583219D01*
X93754774Y-61698102D01*
X93715000Y-61898061D01*
X93715000Y-62101939D01*
X93754774Y-62301898D01*
X93832795Y-62490256D01*
X93946063Y-62659774D01*
X94090226Y-62803937D01*
X94259744Y-62917205D01*
X94448102Y-62995226D01*
X94648061Y-63035000D01*
X94851939Y-63035000D01*
X95051898Y-62995226D01*
X95240256Y-62917205D01*
X95409774Y-62803937D01*
X95553937Y-62659774D01*
X95667205Y-62490256D01*
X95745226Y-62301898D01*
X95785000Y-62101939D01*
X95785000Y-61898061D01*
X95745226Y-61698102D01*
X95697640Y-61583219D01*
X95715512Y-61561442D01*
X95796423Y-61410067D01*
X95846248Y-61245816D01*
X95863072Y-61075000D01*
X95863072Y-60575000D01*
X95846248Y-60404184D01*
X95796423Y-60239933D01*
X95715512Y-60088558D01*
X95606623Y-59955877D01*
X95553768Y-59912500D01*
X95606623Y-59869123D01*
X95715512Y-59736442D01*
X95796423Y-59585067D01*
X95846248Y-59420816D01*
X95863072Y-59250000D01*
X95863072Y-58750000D01*
X95846248Y-58579184D01*
X95796423Y-58414933D01*
X95715512Y-58263558D01*
X95606623Y-58130877D01*
X95473942Y-58021988D01*
X95322567Y-57941077D01*
X95260000Y-57922098D01*
X95260000Y-56334801D01*
X96740000Y-57814802D01*
X96740000Y-57922097D01*
X96677433Y-57941077D01*
X96526058Y-58021988D01*
X96393377Y-58130877D01*
X96284488Y-58263558D01*
X96203577Y-58414933D01*
X96153752Y-58579184D01*
X96136928Y-58750000D01*
X96136928Y-59250000D01*
X96153752Y-59420816D01*
X96203577Y-59585067D01*
X96284488Y-59736442D01*
X96393377Y-59869123D01*
X96446232Y-59912500D01*
X96393377Y-59955877D01*
X96284488Y-60088558D01*
X96203577Y-60239933D01*
X96153752Y-60404184D01*
X96136928Y-60575000D01*
X96136928Y-61075000D01*
X96153752Y-61245816D01*
X96203577Y-61410067D01*
X96284488Y-61561442D01*
X96302360Y-61583219D01*
X96254774Y-61698102D01*
X96215000Y-61898061D01*
X96215000Y-62101939D01*
X96254774Y-62301898D01*
X96332795Y-62490256D01*
X96446063Y-62659774D01*
X96590226Y-62803937D01*
X96759744Y-62917205D01*
X96948102Y-62995226D01*
X97148061Y-63035000D01*
X97351939Y-63035000D01*
X97551898Y-62995226D01*
X97740256Y-62917205D01*
X97909774Y-62803937D01*
X98053937Y-62659774D01*
X98167205Y-62490256D01*
X98245226Y-62301898D01*
X98285000Y-62101939D01*
X98285000Y-61898061D01*
X98245226Y-61698102D01*
X98197640Y-61583219D01*
X98215512Y-61561442D01*
X98296423Y-61410067D01*
X98346248Y-61245816D01*
X98363072Y-61075000D01*
X98363072Y-60575000D01*
X98346248Y-60404184D01*
X98296423Y-60239933D01*
X98215512Y-60088558D01*
X98106623Y-59955877D01*
X98053768Y-59912500D01*
X98106623Y-59869123D01*
X98215512Y-59736442D01*
X98296423Y-59585067D01*
X98346248Y-59420816D01*
X98363072Y-59250000D01*
X98363072Y-58750000D01*
X98346248Y-58579184D01*
X98296423Y-58414933D01*
X98260000Y-58346790D01*
X98260000Y-57802042D01*
X98762553Y-58304595D01*
X98703577Y-58414933D01*
X98653752Y-58579184D01*
X98636928Y-58750000D01*
X98636928Y-59250000D01*
X98653752Y-59420816D01*
X98703577Y-59585067D01*
X98784488Y-59736442D01*
X98893377Y-59869123D01*
X98946232Y-59912500D01*
X98893377Y-59955877D01*
X98784488Y-60088558D01*
X98703577Y-60239933D01*
X98653752Y-60404184D01*
X98636928Y-60575000D01*
X98636928Y-61075000D01*
X98653752Y-61245816D01*
X98703577Y-61410067D01*
X98784488Y-61561442D01*
X98802360Y-61583219D01*
X98754774Y-61698102D01*
X98715000Y-61898061D01*
X98715000Y-62101939D01*
X98754774Y-62301898D01*
X98832795Y-62490256D01*
X98946063Y-62659774D01*
X99090226Y-62803937D01*
X99259744Y-62917205D01*
X99448102Y-62995226D01*
X99648061Y-63035000D01*
X99851939Y-63035000D01*
X100051898Y-62995226D01*
X100240256Y-62917205D01*
X100409774Y-62803937D01*
X100553937Y-62659774D01*
X100667205Y-62490256D01*
X100745226Y-62301898D01*
X100785000Y-62101939D01*
X100785000Y-61898061D01*
X100745226Y-61698102D01*
X100697640Y-61583219D01*
X100715512Y-61561442D01*
X100796423Y-61410067D01*
X100846248Y-61245816D01*
X100863072Y-61075000D01*
X100863072Y-60575000D01*
X100846248Y-60404184D01*
X100796423Y-60239933D01*
X100715512Y-60088558D01*
X100606623Y-59955877D01*
X100553768Y-59912500D01*
X100606623Y-59869123D01*
X100715512Y-59736442D01*
X100796423Y-59585067D01*
X100846248Y-59420816D01*
X100863072Y-59250000D01*
X100863072Y-58937874D01*
X101136928Y-59211730D01*
X101136928Y-59250000D01*
X101153752Y-59420816D01*
X101203577Y-59585067D01*
X101284488Y-59736442D01*
X101393377Y-59869123D01*
X101446232Y-59912500D01*
X101393377Y-59955877D01*
X101284488Y-60088558D01*
X101203577Y-60239933D01*
X101153752Y-60404184D01*
X101136928Y-60575000D01*
X101136928Y-61075000D01*
X101153752Y-61245816D01*
X101203577Y-61410067D01*
X101284488Y-61561442D01*
X101302360Y-61583219D01*
X101254774Y-61698102D01*
X101215000Y-61898061D01*
X101215000Y-62101939D01*
X101254774Y-62301898D01*
X101332795Y-62490256D01*
X101446063Y-62659774D01*
X101590226Y-62803937D01*
X101759744Y-62917205D01*
X101948102Y-62995226D01*
X102148061Y-63035000D01*
X102351939Y-63035000D01*
X102551898Y-62995226D01*
X102740256Y-62917205D01*
X102909774Y-62803937D01*
X103053937Y-62659774D01*
X103167205Y-62490256D01*
X103245226Y-62301898D01*
X103285000Y-62101939D01*
X103285000Y-61898061D01*
X103245226Y-61698102D01*
X103197640Y-61583219D01*
X103215512Y-61561442D01*
X103296423Y-61410067D01*
X103346248Y-61245816D01*
X103363072Y-61075000D01*
X103363072Y-60575000D01*
X103346248Y-60404184D01*
X103296423Y-60239933D01*
X103215512Y-60088558D01*
X103106623Y-59955877D01*
X103053768Y-59912500D01*
X103106623Y-59869123D01*
X103215512Y-59736442D01*
X103296423Y-59585067D01*
X103346248Y-59420816D01*
X103363072Y-59250000D01*
X103363072Y-58750000D01*
X103346248Y-58579184D01*
X103296423Y-58414933D01*
X103246234Y-58321036D01*
X103594842Y-58669644D01*
X103586928Y-58750000D01*
X103586928Y-59250000D01*
X103603752Y-59420816D01*
X103653577Y-59585067D01*
X103734488Y-59736442D01*
X103843377Y-59869123D01*
X103896232Y-59912500D01*
X103843377Y-59955877D01*
X103734488Y-60088558D01*
X103653577Y-60239933D01*
X103603752Y-60404184D01*
X103586928Y-60575000D01*
X103586928Y-61075000D01*
X103603752Y-61245816D01*
X103653577Y-61410067D01*
X103734488Y-61561442D01*
X103785589Y-61623708D01*
X103754774Y-61698102D01*
X103715000Y-61898061D01*
X103715000Y-62101939D01*
X103754774Y-62301898D01*
X103832795Y-62490256D01*
X103946063Y-62659774D01*
X104090226Y-62803937D01*
X104259744Y-62917205D01*
X104448102Y-62995226D01*
X104648061Y-63035000D01*
X104851939Y-63035000D01*
X105051898Y-62995226D01*
X105240256Y-62917205D01*
X105409774Y-62803937D01*
X105553937Y-62659774D01*
X105667205Y-62490256D01*
X105745226Y-62301898D01*
X105785000Y-62101939D01*
X105785000Y-61898061D01*
X105745226Y-61698102D01*
X105678530Y-61537086D01*
X105746423Y-61410067D01*
X105796248Y-61245816D01*
X105813072Y-61075000D01*
X105813072Y-60575000D01*
X105796248Y-60404184D01*
X105746423Y-60239933D01*
X105665512Y-60088558D01*
X105556623Y-59955877D01*
X105503768Y-59912500D01*
X105556623Y-59869123D01*
X105665512Y-59736442D01*
X105746423Y-59585067D01*
X105796248Y-59420816D01*
X105813072Y-59250000D01*
X105813072Y-58887874D01*
X106136928Y-59211730D01*
X106136928Y-59337500D01*
X106153752Y-59508316D01*
X106203577Y-59672567D01*
X106284488Y-59823942D01*
X106393377Y-59956623D01*
X106446232Y-60000000D01*
X106393377Y-60043377D01*
X106284488Y-60176058D01*
X106203577Y-60327433D01*
X106153752Y-60491684D01*
X106136928Y-60662500D01*
X106136928Y-61162500D01*
X106153752Y-61333316D01*
X106203577Y-61497567D01*
X106279220Y-61639085D01*
X106254774Y-61698102D01*
X106215000Y-61898061D01*
X106215000Y-62101939D01*
X106254774Y-62301898D01*
X106332795Y-62490256D01*
X106446063Y-62659774D01*
X106590226Y-62803937D01*
X106759744Y-62917205D01*
X106948102Y-62995226D01*
X107148061Y-63035000D01*
X107351939Y-63035000D01*
X107551898Y-62995226D01*
X107740256Y-62917205D01*
X107909774Y-62803937D01*
X108053937Y-62659774D01*
X108167205Y-62490256D01*
X108245226Y-62301898D01*
X108285000Y-62101939D01*
X108285000Y-61898061D01*
X108245226Y-61698102D01*
X108220780Y-61639085D01*
X108296423Y-61497567D01*
X108346248Y-61333316D01*
X108363072Y-61162500D01*
X108363072Y-60662500D01*
X108346248Y-60491684D01*
X108296423Y-60327433D01*
X108215512Y-60176058D01*
X108106623Y-60043377D01*
X108053768Y-60000000D01*
X108106623Y-59956623D01*
X108215512Y-59823942D01*
X108296423Y-59672567D01*
X108346248Y-59508316D01*
X108363072Y-59337500D01*
X108363072Y-58837500D01*
X108346248Y-58666684D01*
X108316265Y-58567844D01*
X109793470Y-60045049D01*
X109821183Y-60078817D01*
X109854954Y-60106532D01*
X112615000Y-62866579D01*
X112615000Y-62981531D01*
X112610719Y-63025000D01*
X112615000Y-63068469D01*
X112615000Y-63068477D01*
X112627805Y-63198490D01*
X112678411Y-63365313D01*
X112751071Y-63501250D01*
X112760590Y-63519059D01*
X112843468Y-63620046D01*
X112843471Y-63620049D01*
X112871184Y-63653817D01*
X112904951Y-63681529D01*
X113693470Y-64470049D01*
X113721183Y-64503817D01*
X113754951Y-64531530D01*
X113754953Y-64531532D01*
X113855941Y-64614411D01*
X113961002Y-64670567D01*
X114084392Y-64771831D01*
X114229284Y-64849278D01*
X114386500Y-64896969D01*
X114550000Y-64913072D01*
X115450000Y-64913072D01*
X115613500Y-64896969D01*
X115770716Y-64849278D01*
X115915608Y-64771831D01*
X116042606Y-64667606D01*
X116146831Y-64540608D01*
X116224278Y-64395716D01*
X116271969Y-64238500D01*
X116288072Y-64075000D01*
X116288072Y-63675000D01*
X116271969Y-63511500D01*
X116224278Y-63354284D01*
X116209145Y-63325973D01*
X116239502Y-63269180D01*
X116275812Y-63149482D01*
X116288072Y-63025000D01*
X116285000Y-62910750D01*
X116126250Y-62752000D01*
X115127000Y-62752000D01*
X115127000Y-62772000D01*
X114873000Y-62772000D01*
X114873000Y-62752000D01*
X114853000Y-62752000D01*
X114853000Y-62498000D01*
X114873000Y-62498000D01*
X114873000Y-61748750D01*
X115127000Y-61748750D01*
X115127000Y-62498000D01*
X116126250Y-62498000D01*
X116285000Y-62339250D01*
X116288072Y-62225000D01*
X116275812Y-62100518D01*
X116239502Y-61980820D01*
X116180537Y-61870506D01*
X116101185Y-61773815D01*
X116042452Y-61725614D01*
X116125518Y-61750812D01*
X116250000Y-61763072D01*
X117464250Y-61760000D01*
X117623000Y-61601250D01*
X117623000Y-60202000D01*
X117877000Y-60202000D01*
X117877000Y-61601250D01*
X118035750Y-61760000D01*
X119250000Y-61763072D01*
X119374482Y-61750812D01*
X119494180Y-61714502D01*
X119604494Y-61655537D01*
X119701185Y-61576185D01*
X119780537Y-61479494D01*
X119839502Y-61369180D01*
X119875812Y-61249482D01*
X119888072Y-61125000D01*
X119885000Y-60360750D01*
X119726250Y-60202000D01*
X117877000Y-60202000D01*
X117623000Y-60202000D01*
X115773750Y-60202000D01*
X115615000Y-60360750D01*
X115611928Y-61125000D01*
X115624188Y-61249482D01*
X115660498Y-61369180D01*
X115719463Y-61479494D01*
X115798815Y-61576185D01*
X115857548Y-61624386D01*
X115774482Y-61599188D01*
X115650000Y-61586928D01*
X115285750Y-61590000D01*
X115127000Y-61748750D01*
X114873000Y-61748750D01*
X114714250Y-61590000D01*
X114350000Y-61586928D01*
X114225518Y-61599188D01*
X114105820Y-61635498D01*
X113995506Y-61694463D01*
X113968338Y-61716759D01*
X112586579Y-60335000D01*
X114756531Y-60335000D01*
X114800000Y-60339281D01*
X114843469Y-60335000D01*
X114843477Y-60335000D01*
X114973490Y-60322195D01*
X115140313Y-60271589D01*
X115294059Y-60189411D01*
X115428817Y-60078817D01*
X115456534Y-60045044D01*
X115663664Y-59837914D01*
X115773750Y-59948000D01*
X117623000Y-59948000D01*
X117623000Y-58548750D01*
X117877000Y-58548750D01*
X117877000Y-59948000D01*
X119726250Y-59948000D01*
X119885000Y-59789250D01*
X119888072Y-59025000D01*
X119875812Y-58900518D01*
X119839502Y-58780820D01*
X119780537Y-58670506D01*
X119701185Y-58573815D01*
X119604494Y-58494463D01*
X119494180Y-58435498D01*
X119374482Y-58399188D01*
X119250000Y-58386928D01*
X118035750Y-58390000D01*
X117877000Y-58548750D01*
X117623000Y-58548750D01*
X117464250Y-58390000D01*
X117112469Y-58389110D01*
X117116579Y-58385000D01*
X119956531Y-58385000D01*
X120000000Y-58389281D01*
X120043469Y-58385000D01*
X120043477Y-58385000D01*
X120173490Y-58372195D01*
X120340313Y-58321589D01*
X120494059Y-58239411D01*
X120628817Y-58128817D01*
X120656534Y-58095044D01*
X121595050Y-57156529D01*
X121628817Y-57128817D01*
X121682177Y-57063799D01*
X121739411Y-56994059D01*
X121821589Y-56840314D01*
X121872195Y-56673490D01*
X121872195Y-56673489D01*
X121885000Y-56543477D01*
X121885000Y-56543469D01*
X121889281Y-56500000D01*
X121885000Y-56456531D01*
X121885000Y-51293477D01*
X121889282Y-51250000D01*
X121880721Y-51163072D01*
X121872195Y-51076510D01*
X121821589Y-50909687D01*
X121739411Y-50755941D01*
X121628817Y-50621183D01*
X121494059Y-50510589D01*
X121340313Y-50428411D01*
X121173490Y-50377805D01*
X121000000Y-50360718D01*
X120956524Y-50365000D01*
X120366579Y-50365000D01*
X120235000Y-50233422D01*
X120235000Y-50103740D01*
X120177932Y-49816842D01*
X120065990Y-49546589D01*
X119903475Y-49303368D01*
X119771620Y-49171513D01*
X119844180Y-49149502D01*
X119954494Y-49090537D01*
X120051185Y-49011185D01*
X120130537Y-48914494D01*
X120189502Y-48804180D01*
X120225812Y-48684482D01*
X120238072Y-48560000D01*
X120238072Y-46860000D01*
X120225812Y-46735518D01*
X120189502Y-46615820D01*
X120130537Y-46505506D01*
X120051185Y-46408815D01*
X119954494Y-46329463D01*
X119844180Y-46270498D01*
X119724482Y-46234188D01*
X119600000Y-46221928D01*
X117900000Y-46221928D01*
X117775518Y-46234188D01*
X117655820Y-46270498D01*
X117545506Y-46329463D01*
X117448815Y-46408815D01*
X117369463Y-46505506D01*
X117310498Y-46615820D01*
X117274188Y-46735518D01*
X117261928Y-46860000D01*
X117261928Y-47913270D01*
X116935199Y-48240000D01*
X112709250Y-48240000D01*
X112735000Y-48214250D01*
X112738072Y-48025000D01*
X112725812Y-47900518D01*
X112689502Y-47780820D01*
X112630537Y-47670506D01*
X112551185Y-47573815D01*
X112454494Y-47494463D01*
X112344180Y-47435498D01*
X112224482Y-47399188D01*
X112100000Y-47386928D01*
X111848250Y-47390000D01*
X111689500Y-47548750D01*
X111689500Y-48373000D01*
X111709500Y-48373000D01*
X111709500Y-48540010D01*
X111415500Y-48540010D01*
X111415500Y-48373000D01*
X111435500Y-48373000D01*
X111435500Y-47548750D01*
X111276750Y-47390000D01*
X111025000Y-47386928D01*
X110900518Y-47399188D01*
X110780820Y-47435498D01*
X110670506Y-47494463D01*
X110622606Y-47533774D01*
X110472567Y-47453577D01*
X110308316Y-47403752D01*
X110137500Y-47386928D01*
X109537500Y-47386928D01*
X109366684Y-47403752D01*
X109202433Y-47453577D01*
X109051058Y-47534488D01*
X108918377Y-47643377D01*
X108809488Y-47776058D01*
X108728577Y-47927433D01*
X108678752Y-48091684D01*
X108661928Y-48262500D01*
X108661928Y-48737500D01*
X108678752Y-48908316D01*
X108728577Y-49072567D01*
X108809488Y-49223942D01*
X108918377Y-49356623D01*
X108964166Y-49394201D01*
X108896988Y-49476058D01*
X108816077Y-49627433D01*
X108766252Y-49791684D01*
X108749428Y-49962500D01*
X108749428Y-50175770D01*
X106489916Y-52435283D01*
X106417205Y-52259744D01*
X106303937Y-52090226D01*
X106159774Y-51946063D01*
X106153643Y-51941966D01*
X106244180Y-51914502D01*
X106354494Y-51855537D01*
X106451185Y-51776185D01*
X106530537Y-51679494D01*
X106589502Y-51569180D01*
X106625812Y-51449482D01*
X106638072Y-51325000D01*
X106638072Y-50775000D01*
X106625812Y-50650518D01*
X106625655Y-50650000D01*
X106625812Y-50649482D01*
X106638072Y-50525000D01*
X106638072Y-49975000D01*
X106625812Y-49850518D01*
X106625655Y-49850000D01*
X106625812Y-49849482D01*
X106638072Y-49725000D01*
X106638072Y-49175000D01*
X106625812Y-49050518D01*
X106625655Y-49050000D01*
X106625812Y-49049482D01*
X106638072Y-48925000D01*
X106638072Y-48375000D01*
X106625812Y-48250518D01*
X106625655Y-48250000D01*
X106625812Y-48249482D01*
X106638072Y-48125000D01*
X106638072Y-47575000D01*
X106625812Y-47450518D01*
X106625467Y-47449380D01*
X106635000Y-47335750D01*
X106542917Y-47243667D01*
X106530537Y-47220506D01*
X106451185Y-47123815D01*
X106361241Y-47050000D01*
X106451185Y-46976185D01*
X106530537Y-46879494D01*
X106542917Y-46856333D01*
X106635000Y-46764250D01*
X106625467Y-46650620D01*
X106625812Y-46649482D01*
X106638072Y-46525000D01*
X106638072Y-46210000D01*
X107994430Y-46210000D01*
X108028577Y-46322567D01*
X108109488Y-46473942D01*
X108218377Y-46606623D01*
X108351058Y-46715512D01*
X108502433Y-46796423D01*
X108666684Y-46846248D01*
X108837500Y-46863072D01*
X109337500Y-46863072D01*
X109508316Y-46846248D01*
X109672567Y-46796423D01*
X109823942Y-46715512D01*
X109956623Y-46606623D01*
X110000000Y-46553768D01*
X110043377Y-46606623D01*
X110176058Y-46715512D01*
X110327433Y-46796423D01*
X110491684Y-46846248D01*
X110662500Y-46863072D01*
X111162500Y-46863072D01*
X111333316Y-46846248D01*
X111497567Y-46796423D01*
X111648942Y-46715512D01*
X111781623Y-46606623D01*
X111860920Y-46510000D01*
X115296289Y-46510000D01*
X115340226Y-46553937D01*
X115509744Y-46667205D01*
X115698102Y-46745226D01*
X115898061Y-46785000D01*
X116101939Y-46785000D01*
X116301898Y-46745226D01*
X116490256Y-46667205D01*
X116659774Y-46553937D01*
X116803937Y-46409774D01*
X116917205Y-46240256D01*
X116995226Y-46051898D01*
X117035000Y-45851939D01*
X117035000Y-45648061D01*
X116995226Y-45448102D01*
X116917205Y-45259744D01*
X116803937Y-45090226D01*
X116659774Y-44946063D01*
X116490256Y-44832795D01*
X116301898Y-44754774D01*
X116101939Y-44715000D01*
X115898061Y-44715000D01*
X115698102Y-44754774D01*
X115509744Y-44832795D01*
X115340226Y-44946063D01*
X115296289Y-44990000D01*
X111860920Y-44990000D01*
X111781623Y-44893377D01*
X111648942Y-44784488D01*
X111497567Y-44703577D01*
X111333316Y-44653752D01*
X111309526Y-44651409D01*
X111417205Y-44490256D01*
X111495226Y-44301898D01*
X111535000Y-44101939D01*
X111535000Y-43898061D01*
X111495226Y-43698102D01*
X111417205Y-43509744D01*
X111303937Y-43340226D01*
X111177972Y-43214261D01*
X111245226Y-43051898D01*
X111285000Y-42851939D01*
X111285000Y-42648061D01*
X111245226Y-42448102D01*
X111167205Y-42259744D01*
X111053937Y-42090226D01*
X110909774Y-41946063D01*
X110740256Y-41832795D01*
X110551898Y-41754774D01*
X110351939Y-41715000D01*
X110148061Y-41715000D01*
X109948102Y-41754774D01*
X109759744Y-41832795D01*
X109625572Y-41922446D01*
X109625572Y-41762500D01*
X109608748Y-41591684D01*
X109558923Y-41427433D01*
X109478012Y-41276058D01*
X109427746Y-41214809D01*
X109495226Y-41051898D01*
X109535000Y-40851939D01*
X109535000Y-40648061D01*
X109495226Y-40448102D01*
X109417205Y-40259744D01*
X109303937Y-40090226D01*
X109159774Y-39946063D01*
X108990256Y-39832795D01*
X108801898Y-39754774D01*
X108601939Y-39715000D01*
X108398061Y-39715000D01*
X108198102Y-39754774D01*
X108009744Y-39832795D01*
X107840226Y-39946063D01*
X107696063Y-40090226D01*
X107582795Y-40259744D01*
X107504774Y-40448102D01*
X107465000Y-40648061D01*
X107465000Y-40851939D01*
X107504774Y-41051898D01*
X107541916Y-41141566D01*
X107411442Y-41034488D01*
X107260067Y-40953577D01*
X107095816Y-40903752D01*
X106925000Y-40886928D01*
X106425000Y-40886928D01*
X106254184Y-40903752D01*
X106089933Y-40953577D01*
X106021790Y-40990000D01*
X102784801Y-40990000D01*
X107011004Y-36763798D01*
X107040001Y-36740001D01*
X107134974Y-36624276D01*
X107205546Y-36492247D01*
X107249003Y-36348986D01*
X107260000Y-36237333D01*
X107260000Y-36237332D01*
X107263677Y-36200000D01*
X107260000Y-36162667D01*
X107260000Y-34884627D01*
X107294123Y-34856623D01*
X107337500Y-34803768D01*
X107380877Y-34856623D01*
X107513558Y-34965512D01*
X107664933Y-35046423D01*
X107829184Y-35096248D01*
X108000000Y-35113072D01*
X108500000Y-35113072D01*
X108670816Y-35096248D01*
X108835067Y-35046423D01*
X108986442Y-34965512D01*
X109119123Y-34856623D01*
X109198420Y-34760000D01*
X109796289Y-34760000D01*
X109840226Y-34803937D01*
X110009744Y-34917205D01*
X110198102Y-34995226D01*
X110398061Y-35035000D01*
X110601939Y-35035000D01*
X110801898Y-34995226D01*
X110990256Y-34917205D01*
X111159774Y-34803937D01*
X111303937Y-34659774D01*
X111417205Y-34490256D01*
X111495226Y-34301898D01*
X111535000Y-34101939D01*
X111535000Y-33898061D01*
X111495226Y-33698102D01*
X111417205Y-33509744D01*
X111303937Y-33340226D01*
X111159774Y-33196063D01*
X110990256Y-33082795D01*
X110801898Y-33004774D01*
X110601939Y-32965000D01*
X110398061Y-32965000D01*
X110198102Y-33004774D01*
X110009744Y-33082795D01*
X109840226Y-33196063D01*
X109796289Y-33240000D01*
X109198420Y-33240000D01*
X109119123Y-33143377D01*
X108986442Y-33034488D01*
X108835067Y-32953577D01*
X108670816Y-32903752D01*
X108500000Y-32886928D01*
X108000000Y-32886928D01*
X107829184Y-32903752D01*
X107664933Y-32953577D01*
X107513558Y-33034488D01*
X107380877Y-33143377D01*
X107337500Y-33196232D01*
X107294123Y-33143377D01*
X107161442Y-33034488D01*
X107010067Y-32953577D01*
X106845816Y-32903752D01*
X106675000Y-32886928D01*
X106175000Y-32886928D01*
X106004184Y-32903752D01*
X105839933Y-32953577D01*
X105688558Y-33034488D01*
X105555877Y-33143377D01*
X105446988Y-33276058D01*
X105366077Y-33427433D01*
X105316252Y-33591684D01*
X105299428Y-33762500D01*
X105299428Y-34237500D01*
X105316252Y-34408316D01*
X105366077Y-34572567D01*
X105446988Y-34723942D01*
X105555877Y-34856623D01*
X105688558Y-34965512D01*
X105740001Y-34993008D01*
X105740000Y-35885198D01*
X99710000Y-41915199D01*
X99710000Y-40114801D01*
X99949229Y-39875572D01*
X100237500Y-39875572D01*
X100408316Y-39858748D01*
X100572567Y-39808923D01*
X100723942Y-39728012D01*
X100856623Y-39619123D01*
X100965512Y-39486442D01*
X101046423Y-39335067D01*
X101096248Y-39170816D01*
X101113072Y-39000000D01*
X101113072Y-38500000D01*
X101096248Y-38329184D01*
X101046423Y-38164933D01*
X100965512Y-38013558D01*
X100856623Y-37880877D01*
X100803768Y-37837500D01*
X100856623Y-37794123D01*
X100965512Y-37661442D01*
X101046423Y-37510067D01*
X101096248Y-37345816D01*
X101113072Y-37175000D01*
X101113072Y-36675000D01*
X101096248Y-36504184D01*
X101046423Y-36339933D01*
X100965512Y-36188558D01*
X100865848Y-36067118D01*
X100917205Y-35990256D01*
X100995226Y-35801898D01*
X101035000Y-35601939D01*
X101035000Y-35398061D01*
X100995226Y-35198102D01*
X100917205Y-35009744D01*
X100803937Y-34840226D01*
X100659774Y-34696063D01*
X100490256Y-34582795D01*
X100301898Y-34504774D01*
X100101939Y-34465000D01*
X99898061Y-34465000D01*
X99698102Y-34504774D01*
X99509744Y-34582795D01*
X99340226Y-34696063D01*
X99196063Y-34840226D01*
X99082795Y-35009744D01*
X99004774Y-35198102D01*
X98965000Y-35398061D01*
X98965000Y-35601939D01*
X99004774Y-35801898D01*
X99082795Y-35990256D01*
X99134152Y-36067118D01*
X99034488Y-36188558D01*
X98953577Y-36339933D01*
X98903752Y-36504184D01*
X98886928Y-36675000D01*
X98886928Y-37175000D01*
X98903752Y-37345816D01*
X98953577Y-37510067D01*
X99034488Y-37661442D01*
X99143377Y-37794123D01*
X99196232Y-37837500D01*
X99143377Y-37880877D01*
X99034488Y-38013558D01*
X98953577Y-38164933D01*
X98903752Y-38329184D01*
X98886928Y-38500000D01*
X98886928Y-38788271D01*
X98438998Y-39236201D01*
X98410000Y-39259999D01*
X98386202Y-39288997D01*
X98386201Y-39288998D01*
X98315026Y-39375724D01*
X98244454Y-39507754D01*
X98200998Y-39651015D01*
X98186324Y-39800000D01*
X98190001Y-39837332D01*
X98190000Y-42365199D01*
X97063804Y-41239003D01*
X97040001Y-41209999D01*
X96924276Y-41115026D01*
X96792247Y-41044454D01*
X96648986Y-41000997D01*
X96537333Y-40990000D01*
X96537322Y-40990000D01*
X96500000Y-40986324D01*
X96462678Y-40990000D01*
X96198420Y-40990000D01*
X96119123Y-40893377D01*
X95986442Y-40784488D01*
X95835067Y-40703577D01*
X95670816Y-40653752D01*
X95500000Y-40636928D01*
X95000000Y-40636928D01*
X94829184Y-40653752D01*
X94664933Y-40703577D01*
X94513558Y-40784488D01*
X94495788Y-40799071D01*
X94535000Y-40601939D01*
X94535000Y-40398061D01*
X94495226Y-40198102D01*
X94417205Y-40009744D01*
X94303937Y-39840226D01*
X94159774Y-39696063D01*
X93990256Y-39582795D01*
X93801898Y-39504774D01*
X93601939Y-39465000D01*
X93398061Y-39465000D01*
X93198102Y-39504774D01*
X93009744Y-39582795D01*
X92840226Y-39696063D01*
X92696063Y-39840226D01*
X92582795Y-40009744D01*
X92504774Y-40198102D01*
X92465000Y-40398061D01*
X92465000Y-40601939D01*
X92504774Y-40801898D01*
X92547097Y-40904075D01*
X92446988Y-41026058D01*
X92366077Y-41177433D01*
X92316252Y-41341684D01*
X92299428Y-41512500D01*
X92299428Y-41524627D01*
X89707399Y-38932598D01*
X89713072Y-38875000D01*
X89713072Y-38375000D01*
X89696248Y-38204184D01*
X89646423Y-38039933D01*
X89565512Y-37888558D01*
X89456623Y-37755877D01*
X89403768Y-37712500D01*
X89456623Y-37669123D01*
X89565512Y-37536442D01*
X89646423Y-37385067D01*
X89696248Y-37220816D01*
X89713072Y-37050000D01*
X89713072Y-36550000D01*
X89696248Y-36379184D01*
X89646423Y-36214933D01*
X89565512Y-36063558D01*
X89511887Y-35998216D01*
X89517205Y-35990256D01*
X89595226Y-35801898D01*
X89635000Y-35601939D01*
X89635000Y-35398061D01*
X89595226Y-35198102D01*
X89517205Y-35009744D01*
X89403937Y-34840226D01*
X89259774Y-34696063D01*
X89090256Y-34582795D01*
X88901898Y-34504774D01*
X88701939Y-34465000D01*
X88498061Y-34465000D01*
X88298102Y-34504774D01*
X88109744Y-34582795D01*
X87940226Y-34696063D01*
X87796063Y-34840226D01*
X87682795Y-35009744D01*
X87604774Y-35198102D01*
X87565000Y-35398061D01*
X87565000Y-35601939D01*
X87604774Y-35801898D01*
X87682795Y-35990256D01*
X87688113Y-35998216D01*
X87634488Y-36063558D01*
X87553577Y-36214933D01*
X87503752Y-36379184D01*
X87486928Y-36550000D01*
X79660000Y-36550000D01*
X79660000Y-30660000D01*
X122340000Y-30660000D01*
X122340001Y-69340000D01*
G37*
G04 #@! TD.AperFunction*
D18*
X117265000Y-55476260D02*
X117322068Y-55763158D01*
X117434010Y-56033411D01*
X117596525Y-56276632D01*
X117803368Y-56483475D01*
X118000209Y-56615000D01*
X116793465Y-56615000D01*
X116749999Y-56610719D01*
X116706533Y-56615000D01*
X116706523Y-56615000D01*
X116576510Y-56627805D01*
X116409687Y-56678411D01*
X116255941Y-56760589D01*
X116255939Y-56760590D01*
X116255940Y-56760590D01*
X116154953Y-56843468D01*
X116154951Y-56843470D01*
X116121183Y-56871183D01*
X116093470Y-56904951D01*
X115736825Y-57261596D01*
X115735000Y-56985750D01*
X115576250Y-56827000D01*
X114527000Y-56827000D01*
X114527000Y-57926250D01*
X114685750Y-58085000D01*
X114911746Y-58086676D01*
X114433422Y-58565000D01*
X110816579Y-58565000D01*
X109701579Y-57450000D01*
X113061928Y-57450000D01*
X113074188Y-57574482D01*
X113110498Y-57694180D01*
X113169463Y-57804494D01*
X113248815Y-57901185D01*
X113345506Y-57980537D01*
X113455820Y-58039502D01*
X113575518Y-58075812D01*
X113700000Y-58088072D01*
X114114250Y-58085000D01*
X114273000Y-57926250D01*
X114273000Y-56827000D01*
X113223750Y-56827000D01*
X113065000Y-56985750D01*
X113061928Y-57450000D01*
X109701579Y-57450000D01*
X108201579Y-55950000D01*
X113061928Y-55950000D01*
X113065000Y-56414250D01*
X113223750Y-56573000D01*
X114273000Y-56573000D01*
X114273000Y-55473750D01*
X114527000Y-55473750D01*
X114527000Y-56573000D01*
X115576250Y-56573000D01*
X115735000Y-56414250D01*
X115738072Y-55950000D01*
X115725812Y-55825518D01*
X115689502Y-55705820D01*
X115630537Y-55595506D01*
X115551185Y-55498815D01*
X115454494Y-55419463D01*
X115344180Y-55360498D01*
X115224482Y-55324188D01*
X115100000Y-55311928D01*
X114685750Y-55315000D01*
X114527000Y-55473750D01*
X114273000Y-55473750D01*
X114114250Y-55315000D01*
X113700000Y-55311928D01*
X113575518Y-55324188D01*
X113455820Y-55360498D01*
X113345506Y-55419463D01*
X113248815Y-55498815D01*
X113169463Y-55595506D01*
X113110498Y-55705820D01*
X113074188Y-55825518D01*
X113061928Y-55950000D01*
X108201579Y-55950000D01*
X107511578Y-55260000D01*
X117265000Y-55260000D01*
X117265000Y-55476260D01*
G04 #@! TA.AperFunction,Conductor*
D19*
G36*
X117265000Y-55476260D02*
G01*
X117322068Y-55763158D01*
X117434010Y-56033411D01*
X117596525Y-56276632D01*
X117803368Y-56483475D01*
X118000209Y-56615000D01*
X116793465Y-56615000D01*
X116749999Y-56610719D01*
X116706533Y-56615000D01*
X116706523Y-56615000D01*
X116576510Y-56627805D01*
X116409687Y-56678411D01*
X116255941Y-56760589D01*
X116255939Y-56760590D01*
X116255940Y-56760590D01*
X116154953Y-56843468D01*
X116154951Y-56843470D01*
X116121183Y-56871183D01*
X116093470Y-56904951D01*
X115736825Y-57261596D01*
X115735000Y-56985750D01*
X115576250Y-56827000D01*
X114527000Y-56827000D01*
X114527000Y-57926250D01*
X114685750Y-58085000D01*
X114911746Y-58086676D01*
X114433422Y-58565000D01*
X110816579Y-58565000D01*
X109701579Y-57450000D01*
X113061928Y-57450000D01*
X113074188Y-57574482D01*
X113110498Y-57694180D01*
X113169463Y-57804494D01*
X113248815Y-57901185D01*
X113345506Y-57980537D01*
X113455820Y-58039502D01*
X113575518Y-58075812D01*
X113700000Y-58088072D01*
X114114250Y-58085000D01*
X114273000Y-57926250D01*
X114273000Y-56827000D01*
X113223750Y-56827000D01*
X113065000Y-56985750D01*
X113061928Y-57450000D01*
X109701579Y-57450000D01*
X108201579Y-55950000D01*
X113061928Y-55950000D01*
X113065000Y-56414250D01*
X113223750Y-56573000D01*
X114273000Y-56573000D01*
X114273000Y-55473750D01*
X114527000Y-55473750D01*
X114527000Y-56573000D01*
X115576250Y-56573000D01*
X115735000Y-56414250D01*
X115738072Y-55950000D01*
X115725812Y-55825518D01*
X115689502Y-55705820D01*
X115630537Y-55595506D01*
X115551185Y-55498815D01*
X115454494Y-55419463D01*
X115344180Y-55360498D01*
X115224482Y-55324188D01*
X115100000Y-55311928D01*
X114685750Y-55315000D01*
X114527000Y-55473750D01*
X114273000Y-55473750D01*
X114114250Y-55315000D01*
X113700000Y-55311928D01*
X113575518Y-55324188D01*
X113455820Y-55360498D01*
X113345506Y-55419463D01*
X113248815Y-55498815D01*
X113169463Y-55595506D01*
X113110498Y-55705820D01*
X113074188Y-55825518D01*
X113061928Y-55950000D01*
X108201579Y-55950000D01*
X107511578Y-55260000D01*
X117265000Y-55260000D01*
X117265000Y-55476260D01*
G37*
G04 #@! TD.AperFunction*
D18*
X100465001Y-54485749D02*
X100402000Y-54548750D01*
X100402000Y-55373000D01*
X100422000Y-55373000D01*
X100422000Y-55627000D01*
X100402000Y-55627000D01*
X100402000Y-55647000D01*
X100172490Y-55647000D01*
X100172490Y-54365901D01*
X100260997Y-54277394D01*
X100290001Y-54253591D01*
X100384974Y-54137866D01*
X100455546Y-54005837D01*
X100465001Y-53974669D01*
X100465001Y-54485749D01*
G04 #@! TA.AperFunction,Conductor*
D19*
G36*
X100465001Y-54485749D02*
G01*
X100402000Y-54548750D01*
X100402000Y-55373000D01*
X100422000Y-55373000D01*
X100422000Y-55627000D01*
X100402000Y-55627000D01*
X100402000Y-55647000D01*
X100172490Y-55647000D01*
X100172490Y-54365901D01*
X100260997Y-54277394D01*
X100290001Y-54253591D01*
X100384974Y-54137866D01*
X100455546Y-54005837D01*
X100465001Y-53974669D01*
X100465001Y-54485749D01*
G37*
G04 #@! TD.AperFunction*
D18*
X117322068Y-49816842D02*
X117265000Y-50103740D01*
X117265000Y-50396260D01*
X117322068Y-50683158D01*
X117434010Y-50953411D01*
X117596525Y-51196632D01*
X117803368Y-51403475D01*
X117985534Y-51525195D01*
X117868645Y-51594822D01*
X117652412Y-51789731D01*
X117478359Y-52023080D01*
X117353175Y-52285901D01*
X117308524Y-52433110D01*
X117429845Y-52663000D01*
X118623000Y-52663000D01*
X118623000Y-52643000D01*
X118877000Y-52643000D01*
X118877000Y-52663000D01*
X118897000Y-52663000D01*
X118897000Y-52917000D01*
X118877000Y-52917000D01*
X118877000Y-52937000D01*
X118623000Y-52937000D01*
X118623000Y-52917000D01*
X117429845Y-52917000D01*
X117308524Y-53146890D01*
X117353175Y-53294099D01*
X117478359Y-53556920D01*
X117614917Y-53740000D01*
X107334801Y-53740000D01*
X109761730Y-51313072D01*
X110125000Y-51313072D01*
X110295816Y-51296248D01*
X110460067Y-51246423D01*
X110611442Y-51165512D01*
X110744123Y-51056623D01*
X110787500Y-51003768D01*
X110830877Y-51056623D01*
X110963558Y-51165512D01*
X111114933Y-51246423D01*
X111279184Y-51296248D01*
X111450000Y-51313072D01*
X111950000Y-51313072D01*
X112120816Y-51296248D01*
X112285067Y-51246423D01*
X112436442Y-51165512D01*
X112569123Y-51056623D01*
X112648420Y-50960000D01*
X113062913Y-50960000D01*
X113074188Y-51074482D01*
X113110498Y-51194180D01*
X113169463Y-51304494D01*
X113248815Y-51401185D01*
X113345506Y-51480537D01*
X113455820Y-51539502D01*
X113575518Y-51575812D01*
X113700000Y-51588072D01*
X115100000Y-51588072D01*
X115224482Y-51575812D01*
X115344180Y-51539502D01*
X115454494Y-51480537D01*
X115551185Y-51401185D01*
X115630537Y-51304494D01*
X115689502Y-51194180D01*
X115725812Y-51074482D01*
X115738072Y-50950000D01*
X115738072Y-49760000D01*
X117212678Y-49760000D01*
X117250000Y-49763676D01*
X117287322Y-49760000D01*
X117287333Y-49760000D01*
X117348091Y-49754016D01*
X117322068Y-49816842D01*
G04 #@! TA.AperFunction,Conductor*
D19*
G36*
X117322068Y-49816842D02*
G01*
X117265000Y-50103740D01*
X117265000Y-50396260D01*
X117322068Y-50683158D01*
X117434010Y-50953411D01*
X117596525Y-51196632D01*
X117803368Y-51403475D01*
X117985534Y-51525195D01*
X117868645Y-51594822D01*
X117652412Y-51789731D01*
X117478359Y-52023080D01*
X117353175Y-52285901D01*
X117308524Y-52433110D01*
X117429845Y-52663000D01*
X118623000Y-52663000D01*
X118623000Y-52643000D01*
X118877000Y-52643000D01*
X118877000Y-52663000D01*
X118897000Y-52663000D01*
X118897000Y-52917000D01*
X118877000Y-52917000D01*
X118877000Y-52937000D01*
X118623000Y-52937000D01*
X118623000Y-52917000D01*
X117429845Y-52917000D01*
X117308524Y-53146890D01*
X117353175Y-53294099D01*
X117478359Y-53556920D01*
X117614917Y-53740000D01*
X107334801Y-53740000D01*
X109761730Y-51313072D01*
X110125000Y-51313072D01*
X110295816Y-51296248D01*
X110460067Y-51246423D01*
X110611442Y-51165512D01*
X110744123Y-51056623D01*
X110787500Y-51003768D01*
X110830877Y-51056623D01*
X110963558Y-51165512D01*
X111114933Y-51246423D01*
X111279184Y-51296248D01*
X111450000Y-51313072D01*
X111950000Y-51313072D01*
X112120816Y-51296248D01*
X112285067Y-51246423D01*
X112436442Y-51165512D01*
X112569123Y-51056623D01*
X112648420Y-50960000D01*
X113062913Y-50960000D01*
X113074188Y-51074482D01*
X113110498Y-51194180D01*
X113169463Y-51304494D01*
X113248815Y-51401185D01*
X113345506Y-51480537D01*
X113455820Y-51539502D01*
X113575518Y-51575812D01*
X113700000Y-51588072D01*
X115100000Y-51588072D01*
X115224482Y-51575812D01*
X115344180Y-51539502D01*
X115454494Y-51480537D01*
X115551185Y-51401185D01*
X115630537Y-51304494D01*
X115689502Y-51194180D01*
X115725812Y-51074482D01*
X115738072Y-50950000D01*
X115738072Y-49760000D01*
X117212678Y-49760000D01*
X117250000Y-49763676D01*
X117287322Y-49760000D01*
X117287333Y-49760000D01*
X117348091Y-49754016D01*
X117322068Y-49816842D01*
G37*
G04 #@! TD.AperFunction*
D18*
X102550518Y-45425812D02*
X102675000Y-45438072D01*
X102891612Y-45438072D01*
X102801340Y-45486323D01*
X102755941Y-45510589D01*
X102654953Y-45593468D01*
X102654951Y-45593470D01*
X102621183Y-45621183D01*
X102593470Y-45654951D01*
X100754951Y-47493471D01*
X100721184Y-47521183D01*
X100693471Y-47554951D01*
X100693468Y-47554954D01*
X100610590Y-47655941D01*
X100528412Y-47809687D01*
X100477805Y-47976510D01*
X100460719Y-48150000D01*
X100465001Y-48193479D01*
X100465000Y-51065000D01*
X100422998Y-51065000D01*
X100422998Y-51205166D01*
X100379494Y-51169463D01*
X100356333Y-51157083D01*
X100264250Y-51065000D01*
X100150620Y-51074533D01*
X100149482Y-51074188D01*
X100025000Y-51061928D01*
X99475000Y-51061928D01*
X99350518Y-51074188D01*
X99350000Y-51074345D01*
X99349482Y-51074188D01*
X99225000Y-51061928D01*
X98675000Y-51061928D01*
X98550518Y-51074188D01*
X98550000Y-51074345D01*
X98549482Y-51074188D01*
X98425000Y-51061928D01*
X98138072Y-51061928D01*
X98138072Y-50775000D01*
X98125812Y-50650518D01*
X98125655Y-50650000D01*
X98125812Y-50649482D01*
X98138072Y-50525000D01*
X98138072Y-49975000D01*
X98125812Y-49850518D01*
X98125655Y-49850000D01*
X98125812Y-49849482D01*
X98138072Y-49725000D01*
X98138072Y-49175000D01*
X98125812Y-49050518D01*
X98125655Y-49050000D01*
X98125812Y-49049482D01*
X98138072Y-48925000D01*
X98138072Y-48375000D01*
X98125812Y-48250518D01*
X98125655Y-48250000D01*
X98125812Y-48249482D01*
X98138072Y-48125000D01*
X98138072Y-47575000D01*
X98125812Y-47450518D01*
X98125655Y-47450000D01*
X98125812Y-47449482D01*
X98138072Y-47325000D01*
X98138072Y-46775000D01*
X98125812Y-46650518D01*
X98125655Y-46650000D01*
X98125812Y-46649482D01*
X98138072Y-46525000D01*
X98138072Y-45975000D01*
X98125812Y-45850518D01*
X98125655Y-45850000D01*
X98125812Y-45849482D01*
X98138072Y-45725000D01*
X98138072Y-45438072D01*
X98425000Y-45438072D01*
X98549482Y-45425812D01*
X98550000Y-45425655D01*
X98550518Y-45425812D01*
X98675000Y-45438072D01*
X99225000Y-45438072D01*
X99349482Y-45425812D01*
X99350000Y-45425655D01*
X99350518Y-45425812D01*
X99475000Y-45438072D01*
X100025000Y-45438072D01*
X100149482Y-45425812D01*
X100150000Y-45425655D01*
X100150518Y-45425812D01*
X100275000Y-45438072D01*
X100825000Y-45438072D01*
X100949482Y-45425812D01*
X100950000Y-45425655D01*
X100950518Y-45425812D01*
X101075000Y-45438072D01*
X101625000Y-45438072D01*
X101749482Y-45425812D01*
X101750000Y-45425655D01*
X101750518Y-45425812D01*
X101875000Y-45438072D01*
X102425000Y-45438072D01*
X102549482Y-45425812D01*
X102550000Y-45425655D01*
X102550518Y-45425812D01*
G04 #@! TA.AperFunction,Conductor*
D19*
G36*
X102550518Y-45425812D02*
G01*
X102675000Y-45438072D01*
X102891612Y-45438072D01*
X102801340Y-45486323D01*
X102755941Y-45510589D01*
X102654953Y-45593468D01*
X102654951Y-45593470D01*
X102621183Y-45621183D01*
X102593470Y-45654951D01*
X100754951Y-47493471D01*
X100721184Y-47521183D01*
X100693471Y-47554951D01*
X100693468Y-47554954D01*
X100610590Y-47655941D01*
X100528412Y-47809687D01*
X100477805Y-47976510D01*
X100460719Y-48150000D01*
X100465001Y-48193479D01*
X100465000Y-51065000D01*
X100422998Y-51065000D01*
X100422998Y-51205166D01*
X100379494Y-51169463D01*
X100356333Y-51157083D01*
X100264250Y-51065000D01*
X100150620Y-51074533D01*
X100149482Y-51074188D01*
X100025000Y-51061928D01*
X99475000Y-51061928D01*
X99350518Y-51074188D01*
X99350000Y-51074345D01*
X99349482Y-51074188D01*
X99225000Y-51061928D01*
X98675000Y-51061928D01*
X98550518Y-51074188D01*
X98550000Y-51074345D01*
X98549482Y-51074188D01*
X98425000Y-51061928D01*
X98138072Y-51061928D01*
X98138072Y-50775000D01*
X98125812Y-50650518D01*
X98125655Y-50650000D01*
X98125812Y-50649482D01*
X98138072Y-50525000D01*
X98138072Y-49975000D01*
X98125812Y-49850518D01*
X98125655Y-49850000D01*
X98125812Y-49849482D01*
X98138072Y-49725000D01*
X98138072Y-49175000D01*
X98125812Y-49050518D01*
X98125655Y-49050000D01*
X98125812Y-49049482D01*
X98138072Y-48925000D01*
X98138072Y-48375000D01*
X98125812Y-48250518D01*
X98125655Y-48250000D01*
X98125812Y-48249482D01*
X98138072Y-48125000D01*
X98138072Y-47575000D01*
X98125812Y-47450518D01*
X98125655Y-47450000D01*
X98125812Y-47449482D01*
X98138072Y-47325000D01*
X98138072Y-46775000D01*
X98125812Y-46650518D01*
X98125655Y-46650000D01*
X98125812Y-46649482D01*
X98138072Y-46525000D01*
X98138072Y-45975000D01*
X98125812Y-45850518D01*
X98125655Y-45850000D01*
X98125812Y-45849482D01*
X98138072Y-45725000D01*
X98138072Y-45438072D01*
X98425000Y-45438072D01*
X98549482Y-45425812D01*
X98550000Y-45425655D01*
X98550518Y-45425812D01*
X98675000Y-45438072D01*
X99225000Y-45438072D01*
X99349482Y-45425812D01*
X99350000Y-45425655D01*
X99350518Y-45425812D01*
X99475000Y-45438072D01*
X100025000Y-45438072D01*
X100149482Y-45425812D01*
X100150000Y-45425655D01*
X100150518Y-45425812D01*
X100275000Y-45438072D01*
X100825000Y-45438072D01*
X100949482Y-45425812D01*
X100950000Y-45425655D01*
X100950518Y-45425812D01*
X101075000Y-45438072D01*
X101625000Y-45438072D01*
X101749482Y-45425812D01*
X101750000Y-45425655D01*
X101750518Y-45425812D01*
X101875000Y-45438072D01*
X102425000Y-45438072D01*
X102549482Y-45425812D01*
X102550000Y-45425655D01*
X102550518Y-45425812D01*
G37*
G04 #@! TD.AperFunction*
M02*
